<?xml version="1.0" encoding="UTF-8"?>
<svg id="Layer_1" xmlns="http://www.w3.org/2000/svg" version="1.1" viewBox="0 0 176.35 184.93">
  <!-- Generator: Adobe Illustrator 30.2.1, SVG Export Plug-In . SVG Version: 2.1.1 Build 1)  -->
  <defs>
    <style>
      .st0 {
        fill: #202024;
      }

      .st1 {
        fill: #d4b09f;
      }

      .st2 {
        fill: #b88d7f;
      }

      .st3 {
        fill: #fefefe;
      }

      .st4 {
        fill: #8c6a5e;
      }
    </style>
  </defs>
  <path class="st0" d="M118.69,98.35c1.3.96,2.17,2.47,2.98,3.98,1.45,2.69,3.22,5.05,4.84,7.63,3.92,6.22,2.32,2.87,10.36,6.8l3.3,1.62,6.08,2.41c5.47,2.16,9.67,2.62,15.76,5.16,2.57,1.07,4.89,2.56,7.08,4.23,1.74,1.33,2.6,3.39,2.91,5.51.5,3.32.79,6.65.11,9.92l-.79,3.82c-.27,1.33-.25,2.65-.82,3.91-.86,1.93-.86,4.03-1.37,6.05-.27,1.09-.82,1.91-.7,3.15.27,2.75-1.66,6.12-1.61,8.44.07,3.44.42.92.04,4.9-.11,1.12.2,2.35-.53,3.33-.61.82-1.04,1.69-1.25,2.72s-.64,1.95-.96,2.85h-75.42c-.24.06-.31.1-.29.22h-23.36c.9-2.67,2.09-5.21,3.18-7.92l4.17-10.34c1.87-4.64,4.24-8.83,6.94-13.05l6.36-9.95c.81-1.27,1.8-2.35,2.27-3.7.09-.25.55-.53.47-.88.65-.08.58-.89.9-1.26,1.92-2.27,3.25-4.99,4.99-7.53l2.06-3.01c.78-1.14,2.06-1.98,2.52-3.34,1.13-.91,1.68-2.33,2.71-3.33l5.27-5.15,6.99-6.52c.22-.21,3.23-3,2.15-2.77.33-.32.63-.78.92-1.13.86-.17.8-1.06.82-1.78.02-.91-.17-1.78-.41-2.67.18-.81.93-1.37.91-2.24.14-.03.27-.06.41-.06v-.02Z"/>
  <path class="st0" d="M67.2,111.94c.13.35-.02.74-.16,1.15l-1.31,3.84-.08.42c-1.79,1.79-.58,5.64.17,7.84.49,1.45.47,2.88.67,4.33.08.61.47.91.13,1.62-1.37,2.92-2.93,12.05-3.07,15.34,0,.13,0,.27-.02.39-1.77,9.24-3.31,18.63-3.54,28.12l-.12,4.85c-.04,1.78-.66,3.45-.66,5.14H.28l.02-23.12c0-1.49.1-2.72.62-4.1.24-.65-.1-1.63.38-2.21.87-1.03,1.38-2.05,1.95-3.27,2.38-5.19,5.11-10.11,8.09-14.91,1.52-1.42,2.15-3.28,2.85-5.12.37-.98,1.42-1.56,1.97-2.41l2.28-3.53c.75-1.15,3.96-4.02,5.39-4.14.16-.01.35.07.55,0,.12-.04.33-.18.2-.39.2.01.4-.02.59-.02.14.16.37.27.57.2.17-.06.3-.24.18-.4.11,0,.27-.05.37,0,.6.27,3.06-.72,2.52-.88h.37c-.28.45,3.27-.41,2.52-.67l6.03-1.25,9.25-1.7c2.94-.54,8.84-3.49,13.57-4.18l6.65-.97v.03Z"/>
  <path class="st3" d="M88.47,135.6c-.15.13-.24.42-.49.42-.76.05-1.54.38-2.22.91-2.7,2.1-3.7,2.19-6.21,4.69-.77.77-1.7,1.33-2.19,2.24-.03.05-.03.12-.04.18-.1-.1-.23-.07-.33,0-.15.12-.13.32-.1.49.01.06-.02.13-.02.2-.47-.21-1.26,1.58-1.83,2.42-.34.5-.62,1.06-.25,1.7,1.85-1.38.89-1.91,3.42-2.83.25.4.59.75,1.06.88l.41.12c.25.76.97.26,1.44.14.78-.19.75-.69.96-1.33.23-.71-.07-1.46-.72-1.99l-.35-.29v-.23c.34.11.78.08.97-.42,1.61-.58,4.8-2.9,6-2.87-.46,1.35-1.45,2.43-2.27,3.7l-6.36,9.95c-2.69,4.22-5.07,8.41-6.94,13.05l-4.17,10.34c-1.09,2.71-2.28,5.25-3.18,7.92h-1.13l1.11-7.57c.29-2.01.38-4.01,1.33-5.79.18-.33.63-.55.45-.95-.12-.26-.38-.86-.85-.73-1.84.52-1.86,4.59-2.15,6.45-.09.59-.5,1.2-.1,1.65l-1.05,6.94h-3.19c.43-.61.25-1.46.48-2.18.67-2.11.45-4.11.63-6.29l1.01-12.53c.32-3.94.87-7.67,1.53-11.55-.11.65.88-6.76.39-5.56.02-.13.02-.26.02-.39.7.22,1.16-4.58,1.3-5.33.56-2.97,1.12-5.85,1.89-8.75.39-1.46.83-2.79.95-4.18.1-1.06.71-2.06,1.01-3.06,2.24-1.18,1.3.61,3.49-1.02.51.45.65.97,1.09,1.51.45-.33.35-.76.69-1.09.65.43.77,1.09,1.22,1.57,1.71,1.81,1.17,2.23,2.06,2.54.09,2.08,2.46,4.45,4.07,5.75.44,1.22.74,2.5,1.47,3.55.55.25,1.06-.66,1.25-1.05.23-.18.41-.25.43-.65l3.39-2.46c.28-.37-.12-1.17-.31-1.56-.02-.09.04-.34-.15-.26l-.09-.45c-.12-.6-.5-1.12-.49-1.76.19-.85-.29-1.62-.47-2.52l-.44-2.24c-.17-.85.08-1.43.26-2.07.12.49,1.02.56,1.21.97.53,1.16.29,2.54,1.13,3.63-.32.54-1.02.95-.92,1.54s.84-.07,1.17-.16c2.98-.86,2.61-1.78,6.08-1.69-.82.97-1.87.67-2.83,1.37.28.18.65-.03,1.2.08.2.04.11.68-.1.87-1.08.96-4.62,4.68-4.63,6.03h0ZM65.43,162.42c.07-.62.21-1.26-.75-1.4-.4,1.37-.6,5.61.32,6.82,1.46-.57.2-3.28.43-5.42h0Z"/>
  <path class="st1" d="M59.48,185h-.28c0-1.69.61-3.36.66-5.14l.12-4.85c.23-9.49,1.77-18.88,3.54-28.12.5-1.2-.5,6.2-.39,5.56-.67,3.88-1.21,7.61-1.53,11.55l-1.01,12.53c-.18,2.18.04,4.18-.63,6.29-.23.72-.05,1.57-.48,2.18h0Z"/>
  <path class="st4" d="M164.12,184.78c-.02.07,0,.15-.03.22h-75.67c-.02-.12.05-.16.29-.22h75.42-.01Z"/>
  <path class="st1" d="M165.33,185h-1.24c.02-.07,0-.15.03-.22.32-.9.75-1.82.96-2.85s.64-1.9,1.25-2.72c.73-.98.42-2.21.53-3.33.39-3.97.03-1.45-.04-4.9,1.17.08,1.07,3.76,1.09,4.43.08,1.93-.38,3.43-1.23,5.1-.73,1.41-.84,3.08-1.35,4.5h0Z"/>
  <path class="st1" d="M63.94,185h-.45l1.04-7.37c.13-.94.54-1.78.01-2.79-.07,1.24-.67,2.19-.82,3.22-.4-.45,0-1.06.1-1.65.29-1.86.31-5.94,2.15-6.45.47-.13.73.47.85.73.18.4-.27.62-.45.95-.95,1.78-1.04,3.78-1.33,5.79l-1.11,7.57h0Z"/>
  <path class="st2" d="M63.49,185h-.82l1.05-6.94c.16-1.03.76-1.98.82-3.22.53,1.01.12,1.85-.01,2.79l-1.04,7.37h0Z"/>
  <path class="st2" d="M89.58,24.46c-1.33,3.17,1.3,2.41.41,3.51-.69-.47-1.06-1.02-1.65-1.76-.17.96.56,1.51.33,2.39-.87-.3-1.18-1.15-1.95-1.29.04.5.59.73.16,1.07-.32-.36-.58-.5-.81-.54-.51-.11-.46.3-.68.63-.39.59-1.14.94-1.68,1.43-.21.2.17.94-.47,1.08l.96.93c-.31.26-.67.11-.91.39.31.64,1.07.84,1.28,1.47.33,1.15-.75,2.57-1.82,2.89-.42.12-.94-.09-1.11.29-.11.25-.44.86-.13,1,.19.06.8-.21.73.18-.69.91-2.01,1.04-2.76,1.8-.43.73-.62,1.93-.75,2.77l-.61,3.83,1.09-.17c.37.62-.53.6-.63.87-.37.95.31,1.92,1.08,2.49-.29.92-.65,1.89-.66,2.88,1.16-.03.88,1.34,1.31,1.63.76.53,1.95,1.07,2.81,1.58.69.41,1.8.12,2.62.55.66.34,1.91-.39,2.52.18,2.42,2.24,3.64-.74,4.03,2.06,1.17.19,3.81-1.61,4.43-1.67.77-.07-.4,1.17,2.82.68.17.13.21.64.37.73.23.13.62-.11.76-.28.63-.7,1.14-.12,1.67-.06.46.05,1.12-.62,1.84-.22.79.44,1.31.04,1.93-.41.45-.32,1.49.12,1.72-.67.18-.62.37-1.13,1.04-1.42.51-.21.67-.99.41-1.45-.39-.68.1-1.15.1-1.68,0-.38-.33-.99-.41-1.48-.06-.35-.84-.52-.72-.95.25-.86-.27-1.23-.85-1.69-.9-.71,1.63-1.23.8-3.88,1.48-2.84.51-.71.72-3.64-.64.09-.8.53-1.17.75-.59-.19-.36-.85-.58-1.28-.28-.54-.83-.81-.39-1.37.41-.52.88-.53,1.54-.15.31.18,1.07-.86.77-.93l-1.18-.26c-.62-.14-1.18-.57-1.84-.13-.48.31-1.14.56-1.7.04-.42-.39-.34-1.28-.09-1.87.22-.52.96-.75,1.53-1.15.34-.24.24-1.09.86-1.12.83-.04,1.6-.11,2.34-.35.05.41.08.62.18.76.18.26.44-.27.58-.25,1.03.14,1.7-.46,2.51-.93,1.81.3.66.92,2.17.98.19,0,.31.3.21.51.11-.21-.77,1.1-1.96.5-.4-.2-.61.61-.66.91-.08.45.43.63.85.95-.15.3-.69.38-.63.68.16.84-.06,1.61,0,2.44.04.48.31.91.28,1.43-.02.34.68.36.87.52.68.57.25,1.73.7,2.37,2.06,2.88.87,3.71,2.68,3.58.31-.02.48.84,1.11.45-.22-.51-.63-1.01-.5-1.51.11-.17.6-.14.83-.1.26.05.17.59.39.8.69.65,1.63.1,1.99-.76.66.57.09,1.17.11,1.78.03.86,1.13,1.5,1.94,1.59-.04.95.2,1.69-.02,2.46-.05.06-.33.02-.38,0-.1-.05-.23.13-.2.22.14.41.67.51.82.88.12.31-.34.36-.46.58-.18.36-.18.98-.1,1.39.09.29.52.33.7.66-.15.12-.39.12-.48.26-.08.57.58,1.09.55,1.48-.18,2.32,1.08,2.49-.66,2.95-.2.09.03.54.26.81-.76.33-.52.93-.61,1.47-.08.48-.76.74-.52,1.31.2.47.64.64,1.3.62-.25,1-.36,2.84-1.34,2.83-.01-.11.09-.26-.05-.47-.73.34-2.26.46-2.63-.4.34-.44,1.46-.62,1.16-1.33-.48-1.14-.84-2.29-.96-3.53-.02-.18-.48-.34-.57-.47-.16-.26.23-.51.2-.72l1.19.8c.29-1.15-.36-2.09-.62-3.08-.33-1.25-.67-2.39-1.76-3.21s-2.13-2.67-4.38-2.82c-1.55-.11.32,4.4,1.22,4.65,1.12.31,2.97,1.61,3.08,2.31-.24,0-.5.4-.93,0-.19-.17-2.32-1.52-2.36-1.53-.22,0-.41.37-.64.39-3.73.3-3.88,1.19-6.35.5-1.28-.35-2.68,1.16-3.82,1.47s-2.12.35-3.11,1c-.28.18-.7,0-.83.34s-.22.61-.16,1.08l.4,3.38c.08.69.25.94-.06,1.61-.12.25-.49,2.08-.33,2.86.23,1.13,1.03,2.32.68,3.5-.17.55-.25,1.02-.32,1.59-1.22,1.88-1.37,1.52-3.13,2.48-1.36.74-2.67.66-4.06.06-.93-.41-2.92-.45-3.62.32-.28,1.07,1.33,1.83,2.15,2.05.71.27.65,1.22,1.26,1.6-.48,1.84-1.19,1.74-1.28,3.12,1.67-.51,3.15.82,4.83.64.52-.06.06-1.27.65-1.27.71,0-.36.65-.1,1.19.28.59,1.06-.83,2.86.16.49.27,1.2.16,1.41,1.05-6.2-.03-4.11,1.19-5.28,1.49-.51.13-.86-.02-1.44-.12l-3.1-.55c-.28-.05-.22-.62-.5-.84-.93.07-1.77,0-2.67-.23-.08-.43.29-.88.19-1.23-.2-.62-1.06-.14-1.4-.23-.96-.26-1.96-.46-2.65.74-.28-.78-3.48-.24-3.98.34,1.59.76-.38,4.48,2.02,3.46.28-.12.37-.57.61-.91.37-.52.97-.19,1.43-.14l.62.44c-.55.75,3.97,2.11,4.41,2.31.89.43,1.24.8,2.4.47.72-.2,1.9.18,2.7.29,1.34.2,2.53,0,3.86-.15,1.06-.12,2.11-.02,3.09-.21.31-.06.44-.36.64,0,.16.29-.59,1.75-.81,1.97-.2-.01-.45-.09-.6-.14-.3-.1-.19.37-.31.52-.66.85-1.7.51-2.55.67-1.25.24-2.56.92-3.43.9-1.26-.04-2.44.51-3.76.31.06.96.68,1.28,1.47,1.3.49.02.93.47,1.59.07-.13.67-.46.86-.17,1.28.77-.15,1.1.3,1.4.86.23-.29.13-.53.22-.71.13-.27,3.34.14,3.56.26,1.36.72,2.7.68,3.97-.22.41-.18,1.48.63,1.4,1.06-.1.57-.59,1.14,0,1.52-1.15.65-1.81,1.59-2.73,2.41.25,1.47-.39.93-.57,2.78-.36-.04-.41-.35-.44-.53-.13-.73.73-.74.47-1.3s-1.04-.26-1.96-.59c-.15.69-.48,1.2-.56,1.96-.61-.78-1.88-.82-2.68-.17l-.33-.64c-.27.41-.26.77-.34,1.25-.22-.03-.41-.14-.57-.09-.24.07-.34.49-.63.52-.19.02-.25-.37-.4-.46-.14-.07-.39.26-.6.21-.78-.18-1.46-.25-2.01.25-.08-.29-.04-.41-.06-.48-.03-.16-.28-.18-.47-.1-.51.21-.62.71-.8,1.11-.19-.24-.06-.55-.18-.67-.59-.63-.5.52-1.3.55-.5-.16-.02-.87.24-1.18-.67.19-.87.82-1.49,1.12-.24-2.32-1.53-.27-2.36-2.69-.36-.17-.56.18-.94.11.51-.6.25-1.31.03-2.08-.42.02-.81.22-1.2.03.28-.38.38-.57.32-.81-.08-.31-.59-.15-.72-.37l-.95-1.66.88-.5c-.65-.31-1.1.05-1.63-.32.58-.3,1.22-.86,1.07-1.34-.82-.42-.68-1.25-.75-1.93-.04-.34-.56-.77-.44-1.28-.09.37-.51-1.59-.98-1.91-.23-.15-.6-.2-1-.15l.33-.46c.14-.19,0-.41-.12-.44-.23-.07-.43.02-.76-.11.41-.32.53-.67.28-.97-.7-.84-1.73.54-2.46.23-.51-.21-.74-.71-.86-1.29l-1.41-.27c.14-.37.31-.52.39-.7.11-.24-.22-.47-.33-.72,1.17-1.07-.81-3.77-.64-5.27.15-1.35-.38-2.32-.48-3.41-.09-.99,1.07-2.35-.05-3.37-.14-.13-.5-.22-.61-.38-.17-.25.06-.73.05-1.05-.05-1.42-.21-2.85-.59-4.25-.11-.4-.91-.72-.66-1.33-.22-.1-.38.08-.46.18-.02.02.09,3.48.19,3.71.39.95.52,2.02,0,2.91.03.25.46.52.52.71.12.37-.67,1.75-.81,1.58-.04-1.13-.19-2.32-.6-3.49-.14-.4-.72-.41-.81-.86,2.06-.75-.29-1.64,1.04-4.45.19-.4.01-.93-.36-1.31-.59.77-1.72,1.39-1.84,2.33s.75,2.01.45,3.04c-1.2.25-2.11-1.09-1.87-2.3.57-2.94,1.45-3.09,1.34-3.9-.08-.55.48-.79.87-.83-.02.22-.04.43.03.67s.32.44.68.33c.22-.07.7-1.04.37-1.19-.13-.06-.3-.07-.46-.07.02-.23.33-.62.21-.87-.94-.32-1.66.4-2.27,1-3.24,3.21-.53,7.9-.53,8.4,0,.38-.74.37-.83.68-.31,1.11.38,2.47.69,3.49.92.13.7-1.47,1.25-1.32.7.19-.24,1.02.35,1.85.63.87,2.02.61,2.18.38.12-.18.1-.47.13-.7.19.04.35.17.33.33-.02.17-.11.36-.15.61.54.16,1.1.61.92,1.27s.56,5.12.78,6.22c.2,1.04.34,1.95,1.48,2.5-.48.52-.56.86-.38,1.26s.43.65.9.8c-.3,1.57.36.75.93,2.7l1.89-1.06c.32.59.28,1.42.86,1.78.23.14.69-.26.88-.37l-1.05-1.02c.7-.1,1.23-.12,1.89.03-.53.71-.49,1.48-1.32,2,.47.19.82.36,1.11.64.47.45-.09,1.9.06,2.16.08.15.69.14.71.28l.16,1.53c.03.25.38.44.23.7-.12.22-.38.24-.72.44l.96.31c-.72,2.37.47,1.05,0,2.46.46-.21,1-.67,1.12-.32.23.72.08,1.32-.61,1.58-.16.06.05.56.16.44.22-.26.5-.29.7-.31.16-.02.56.09.51.43-.08.58-.84.67-1.27.76.44.25,1.02.33.77.82-1.46-.16-2.13-1.26-3.31-2.23-.61.96,2.53,5.7,2.9,5.78.19.04.38-.14.57-.17,1.49-.24,2.61.65,3.91,1.05.77.24,1.32.49,2.07.85,1.03.49,2.69.71,3.4,1.74.25,3.83-.94,1.53-1.54,3.67-.63,2.25-2.19,1.3-2.69,2.63-.12.33.55.5.86.43-.45.56-.54,1.22-.72,1.86s-.43,1.22-.26,2.07l.44,2.24c.17.89.65,1.67.47,2.52-.58-.03-.25-.83-.53-1.2-.6-.8-2.01-.68-2.88-.13.5.32.79-.05,1.1.24.65.62-.1,2.78,1.51,2.81l1.29.03.09.45c.02.1.11.17.15.26.19.39.59,1.18.31,1.56l-3.39,2.46c.04-1.27-.46-1.96-1.58-2.87.08-.2.32-.34.36-.44.17-.34-.74-.35-.99-.63-.09-.11.24-.34.22-.45-.15-.91-1.01-1.5-1.49-2.22-.55-.84-1.09-1.12-2.1-.95-.18-.55-.3-1.17-.35-1.75.79-.93-.41-1.95-.23-4.2.22-2.75-1.36-1.87-.55-4.06-1.2-.87-1.2-2.26-1.52-3.53-.16-.63-.63-1.17-.73-1.9-.07-.47-.75-3.5-1.32-3.27-.26-1.49-.73-2.93-.88-4.44-.04-.42-.3-.95-.45-1.34.12-1.83-.17-3.7-.21-5.53.21.04.2-.25.19-.37-.01-.15-.02-.43-.22-.38.02-.68-.16-1.5-.06-2.18.07-.05.22-.09.26-.16.09-.17,0-.23-.09-.29-.13-.09-.23-.14-.33-.04l-1.08-4.67c-.75-3.25-1.81-6.34-1.83-9.73,0-.31-.21-.57-.38-.64s-.35-.08-.52-.07c.07-.09.18-.19.16-.41-1.06.34-2.23.36-3.26-.24-.12-.05-.28.07-.21.17-1.2-.15-1.88-3.42-2.11-4.55-.86-4.2.24-3.96,0-8.33-.13-2.36-.56-7.98,1.9-8.89.33.3,2.02,3.54,2.22,1.98.65.07.19,2.22,1.18,2.04.48-.09.57-.39.59-.9.08-1.58.17-3.09.53-4.68.15-.65.61-1.85-.18-2.28-.29-.15-1.01.31-1.36-.46l-.73,1.68s.09,3.31-.29,3.1c-.15-.18-.3-.43-.24-.69.13-.57-.12-1.16-.13-1.82-.06-2.68-.13-5.28.03-7.95.05-.8.48-1.5.4-2.23.1.1.19.05.3-.04.09-.07.16-.14.06-.28-.04-.06-.11-.15-.21-.22l.05-.44c1.07-1.55,1.88-.95,1.98-1.94.07-.66.48-1.01,1.2-1.04.19-.61.11-1.16.23-1.76.97-.32,1.02-1.12,1.23-1.87,0,0,1.02-2.61,1.07-2.57-.44-.34-1.83.34-2.48-.42-.24-.28-.21-.73-.55-.81.19-1.49.87-2.87,1.53-4.21.17.07.32-.03.39-.16.05-.12.03-.24.06-.33.04-.14.16-.25.19-.39.26-.04.56-.1.76-.31.16-.16.15-.41.14-.62,0-.06.02-.13.03-.2.21-.01.42-.1.53-.27.12-.19.11-.41,0-.74,1.64-.37.96-2.02,1.65-2.63.3.18.13.61.53.73.22-.07.31-.53.5-.66.46-.33,1.17.25,1.67-.21.27.18.43.52.44.84-.03.08-.21.09-.23.17-.05.17.13.42.33.32.11-.05.18-.2.2-.38.66-.46,1.58.74,3.41,0,1.23.59.8,1.56,1.73,1.73.17.03.41-.09.33-.34-.05-.15-.56-.69-.59-.91-.02-.18.12-.43.27-.39.17.04.41.3.69.29.55-1-2.32-2.19-.36-2.23,0,.29.26.24.24-.04.38,0,.26-.5.69-.76.66.74,1.26,1.96,2.21,2.11.61.1.48-1.12.12-1.52.74-.19.82.42,1.17.88.45-1.09-.17-.86.3-1.86.43-.9.57,2.01.66,2.23l-.04-.05ZM81.78,30.22c.25-.23.31-.92.55-1.28-.44-.66-1.26-1.65-2.15-1.44.16.85.93,1.04,1,1.72.02.21-.33.55-.22.69s.56.53.82.3h0ZM83.37,34.84c-.56-.19-1.19.02-1.44-.46-.3-.59-.91-1.35-1.63-1.06-.18.57.6.75.75.99.83,1.32,2.22,1.13,2.18,1.18.12-.16.37-.58.13-.66h.01ZM88.69,63.96c.13.92-3.22.67-3.72.58-.11-.02-.2-.31-.27-.34-.1-.04-.46-.13-.44.05l.05.52c-.92-.3-1.92-1.04-2.93-.95-.46.04-.87.54-1.5.12-.1-.06-.21.4-.1.46.1.06.28.22.4.48-1.04.5-2.03-.13-2.58-1.1-.22-.3-1.3.45-1.11.76.65,1.09,2.06,1.69,3.35,1.46-.38.72-1.19.14-1.44.83-.3.85,1.7-.07,3.04.3.71.2,1.64-.17,2.19.05.8.32,1.24.46,2.11.1.65-.27,1.2-.47,1.75-1,.36-.35,1.07-.23,1.29-.94.06-.19.48-.32.64-.27s.49.36.31.54c-.36.34-.56.83-.92,1.1-1.65,1.23-3.65,1.72-5.72,1.66-1.33-.04-2.66.31-3.93.11-2.83-.43-.07.27-3.55.22.35-.42,2.79-1.32,1.7-1.78-.76-.32-.5.56-1.46.08-.54-.27.13-1.15-.17-1.81-.11-.24-.63-.13-.99-.22-.05-.34.43-.24.44-.78-1.1-.1-2.19-.03-3.06-.73-.55.81.35,1.27.34,1.89-.02.86-1.12,3.65.81,4.05.37.08.9-.09,1.12.29.78,1.34-.7,1.36.06,2.28.22.27.28.57.1.86-.14.23-.5.02-.87.55.94-.14,2.57,1.93,2.55,2.01-.08.29-.29.36-.69.4-.44-.02-.47.32-.08.38,2.21-1.05.92,2.16,2.6,1.12,1.35,1.63,1.58-.23,3.08,1.12.58-.28.46-.97.9-1.38,1.75-1.67,1.7-.49,3.9-2.22,1.16-.91,2.68-1.19,3.94-1.69.63-.25.17-1.27.11-1.72l-.31-2.03c1.13.22,3.6-3.85,3.45-4.78-.69-.39-1.57-.7-1.73-1.54,1.16.02,2.26-.41,2.93-1.63-.33-.06-2.8-1.49-2.86-1.51-1.04-.37-1.76-.77-2.19-1.91-.47.37-.73.61-1.05.57-1.33-.18.04-1.16-4.96-1.93-.81-.12-1.71-.76-2.27.35.77.16,1.99,1.7,1.93,1.9-.05.15-.28.41-.53.44-1.97.25-3.21,1.08-5.26,1.5-.41-.18-.47-.84-.86-.88-1.1-.04-1.98.23-2.99.53,1.15.21.96,1.09,1.33,1.78.76,1.43,3.59.59,4.37.91-.56-.17,2.41-1.71,1.66-1.47,1.42-.44.09,2.05,3.18,2.08s2.15-2.27,3.01-1.88c.57.26.07,1.21,1.94,2.04l-.04.02ZM66.13,60.83c.09-.78-.66-.86-.96-.91s-1.04.21-.97.76,1.86.75,1.93.15ZM94.27,76.73c.93.46,1.7-.11,2.53-.41.7-.26,1.51-.1,1.77-.84.61-1.71-.71-1.01-.13-3.45-1.64-.39-1.14-3.09-1.1-4.44.02-.55-.78-1.28.12-1.78.64-.36.58-1.05.43-1.71-.18-.79.53-1.6.28-2.41-.13-.43-1.07-.83-1.58-.88-.76-.08-1.43.77-1.68,1.27-.35.67-.38,1.47.19,2.07-.45.6-.97,1.18-1.02,1.88.86.34.4,1.39.47,2.52.05.83.13,1.62-.59,2.22l.79.54c-.72.35-.99.98-1.52,1.4-.37.29-.64.38-.65.88,0,.35.57.43.66.8.2.85.16,1.89,1.03,2.32v.02ZM67.63,62.99c-.21-.5-.98-1.01-1.34-.79-.45.28-.34.9-.22,1.25s.61.54.97.37c.23-.11.81-.31.59-.83ZM86.88,76.39c.09,2.08-1.48,1.63-.47,2.99-.49-.03-.81-.15-1.11-.01-.51.24-.54.7-.77,1.17-.2.39-1.55.83-1.41,1.52.03.16.12.5.39.5.63,0,1-.65,1.56-.46.06.33-.03.62.13.71.42.21,1.3-1.77.83-.45-.02.05-.08.33-.02.37.79.45,1.44-.58,1.99-1,.49-.22.94.11,1.31-.62.63-1.24-.49-.25-1.39-3.42-.19-.67-.16-1.27-1.04-1.3.26-.75,2.02-.77,1.63-2.13-1.24,1.05-2.96,1.64-4,2.86s-1.53,2.53-3.19,3.24c-.09.04.14,2.37,3.89-2.3.19-.24.64-.22.75-.6.12-.42.38-.74.93-1.08h0ZM93.74,92.89c-1.53.16-2.22-.74-4.19-.68-.39.01-.26.69-.13.88.1.14,4.07,1.23,4.47.65.13-.19.21-.9-.15-.86h0ZM95.77,103.63c-.31-.51-.84-.42-.81-.81.35-.04.52-.22.57-.48.03-.15-.09-.27-.33-.49-.12-.12-.35.35-.55.3-.4-.1-.33-.73-.12-1.06.18-.29.62,0,1.12-.49-.49-.03-.86-.31-1.22-.41l-2.86-.79c.45.12-3.41.45-3.78.33-.85-.29-1.67-.67-2.66-.53.38,1.81.83,1.96,1.28,3.5.72-.26,1.45-.52,1.96,0,.21.21.23.57.43.62.27.07.64.03.73-.15.31-.63-.34-1.42.31-1.8.2-.12.58.09.85.39.37.41-.86.95-.72,1.67.05.24.22.68.64.56s.61-.55,1-.58c.11.29.24.52.5.6.11.03.28-.41.42-.4,1.1.09,2.16.38,3.25.02h0Z"/>
  <path class="st2" d="M84.43,23.39l-.24.04c-.01-.26.29-.3.24-.04Z"/>
  <path class="st1" d="M125.85,62.78c-.5.23-.93,3.41-1,4.22-.03.41-.52.73-.38,1.12-.19-.14-.38.06-.42.19-.07.21,0,.39,0,.56v.86c-.22-.04-.46-.03-.68-.21.31-.47.23-2.61-.54-2.4.26-.07-.92,1.31-1.3,1.42-.68.19-1.61-.21-1.96-.7.74.07,1.24-.56,1.97-.55.98.01,1.1-1.83,1.34-2.83-.67.02-1.11-.15-1.3-.62-.24-.57.44-.83.52-1.31.09-.54-.14-1.14.61-1.47-.23-.27-.45-.72-.26-.81,1.74-.46.48-.63.66-2.95.03-.39-.62-.92-.55-1.48.09-.14.34-.14.48-.26-.18-.33-.6-.37-.7-.66-.08-.42-.08-1.04.1-1.39.12-.22.58-.27.46-.58-.15-.38-.68-.48-.82-.88-.03-.09.1-.27.2-.22.05.03.33.07.38,0,.22-.76-.02-1.51.02-2.46-.81-.09-1.92-.72-1.94-1.59-.02-.61.55-1.2-.11-1.78-.36.86-1.31,1.41-1.99.76-.22-.21-.13-.75-.39-.8-.22-.05-.72-.07-.83.1-.12.5.28,1,.5,1.51-.63.39-.8-.48-1.11-.45-1.81.14-.62-.7-2.68-3.58-.45-.63-.03-1.8-.7-2.37-.19-.16-.89-.18-.87-.52.03-.53-.24-.96-.28-1.43-.07-.83.15-1.6,0-2.44-.06-.3.48-.38.63-.68-.42-.32-.93-.5-.85-.95.05-.3.26-1.11.66-.91,1.19.6,2.07-.71,1.96-.5.11-.2-.02-.5-.21-.51-1.51-.06-.36-.67-2.17-.98-.8.47-1.47,1.06-2.51.93-.14-.02-.4.5-.58.25-.1-.14-.13-.35-.18-.76-.73.24-1.51.31-2.34.35-.61.03-.52.88-.86,1.12-.57.4-1.32.63-1.53,1.15-.25.6-.33,1.48.09,1.87.55.52,1.22.28,1.7-.04.66-.44,1.22,0,1.84.13l1.18.26c.3.07-.46,1.11-.77.93-.67-.39-1.14-.38-1.54.15-.43.56.11.83.39,1.37.22.43-.02,1.09.58,1.28.37-.22.52-.66,1.17-.75-.21,2.93.75.8-.72,3.64.83,2.65-1.7,3.17-.8,3.88.58.46,1.1.83.85,1.69-.12.43.66.6.72.95.08.48.41,1.1.41,1.48,0,.53-.49,1-.1,1.68.26.45.09,1.23-.41,1.45-.67.28-.86.79-1.04,1.42-.23.79-1.27.35-1.72.67-.62.45-1.14.85-1.93.41-.73-.4-1.39.27-1.84.22-.53-.06-1.04-.63-1.67.06-.15.16-.53.4-.76.28-.16-.09-.2-.59-.37-.73-3.22.49-2.05-.74-2.82-.68-.62.05-3.26,1.86-4.43,1.67-.39-2.79-1.61.18-4.03-2.06-.61-.57-1.87.17-2.52-.18-.82-.43-1.93-.14-2.62-.55-.86-.51-2.05-1.05-2.81-1.58-.42-.29-.15-1.66-1.31-1.63.02-.99.37-1.97.66-2.88-.78-.58-1.46-1.54-1.08-2.49.11-.27,1-.25.63-.87l-1.09.17.61-3.83c.13-.84.32-2.04.75-2.77.74-.77,2.06-.9,2.76-1.8.07-.39-.54-.12-.73-.18-.31-.14.02-.75.13-1,.17-.38.69-.17,1.11-.29,1.07-.32,2.15-1.75,1.82-2.89-.21-.63-.98-.83-1.28-1.47.24-.28.61-.13.91-.39l-.96-.93c.64-.14.26-.88.47-1.08.54-.49,1.29-.85,1.68-1.43.22-.33.17-.74.68-.63.22.05.49.18.81.54.43-.34-.12-.56-.16-1.07.77.14,1.07.99,1.95,1.29.23-.88-.5-1.43-.33-2.39.59.74.96,1.29,1.65,1.76.89-1.1-1.74-.34-.41-3.51.14-.02.31.15.43.1.05.55.87,1.1,1.38.75.34-.23.24-1.06.6-1.22.42-.19.38-.36.51-.65.4-.14.74.05,1.13.33.2.14.22-.25.31-.33.47-.45.99-1.69,1.63-2.03,0,.25-.24.48-.23.78s.46.49.6.83c.23.54.41,1.35,1.17.97-.04-.38-.54-1.03-.04-1.38.24-.17.67-.1.84-.3.44-.52.11-1.06.48-1.47.12-.13.56.19.71.07,2.33-1.77.34-4.07.74-4.07-1.09-.01-.74,1.14-2.6,3.11-.92.99-.42,2.19-.71,2.3-.17.07-.51.09-.5-.15s.08-.4.06-.55c-.02-.18-.4-.22-.53-.15v-.63c.4-.61.92-1.08,1.67-1.5l.18-1.53c-.95.7-1.92.65-2.54-.13-.14-.17-.42-.17-.4-.36.02-.17.05-.32.19-.63-.96-.88-4.29,1.84-3.79-.12.62-.03,3.74-1.32,4.29-1.48.45-.14,1.5-.02,1.91.2.55.29.83.72,1.48.7.48-.02.84-.36,1.21-.69l2.31.78c1.08.37,1.78,1.33,3.01,1.47s.9,2.24,1.77,2.59c.48-.67,1.49-1.52,2.23-.85.55.5,1.66.75,2.04,1.21.57.72-.62,1.82-1.19,2.19,1.51,1.88,1.31-1.84,3.68-1.56l-.51,1.21c.7.06,4.05.06,3.23,1.36-.24.38-1.01.74-.69,1.33.1.18.55.61.69.46l.54-.59c.2-.22.94.06,1.45-.06-.22.93-1.04.65-1.47,1.09-.21.21.24.59.42.57.84-.07,1.13-.45,1.32-.34.24.13.12.4.06.55-.12.29-1.09,0-1.32.58,1.55.58.26.32,1.69,1.3.05.6-.49,1.3-.3,1.96.35.12.85-.25,1.14-.01.6.48.27,1.36.36,2.06.6.3.94-.56,1.36-.66,2.69,1.99,1.68,2.84,1.74,3.21-.05-.31,2.43,2.02,2.68,4.59.24,2.4.44,4.57.23,7-.9-.68-1.59-1.34-2.4-2.11-.41.94-.04,1.64.38,2.47l1.23,2.38c.24,2.37-.69,1.53-.12,4.06.16.71-.67,1.67-.38,2.35,1.04,2.36-2.02,1.66.9,6.95v.03ZM95.24,16.41c0-.08-.06-.14-.14-.14s-.14.06-.14.14.06.14.14.14.14-.06.14-.14ZM96.56,27.67c.79-.77.9-1.57.71-2.58-.5-.07-.97.65-1.11,1.05-.18.55.01,1.24.39,1.54h.01ZM101.25,25.98c0-.08-.06-.14-.14-.14s-.14.06-.14.14.06.14.14.14.14-.06.14-.14ZM100.02,27.43c0-.08-.06-.14-.14-.14s-.14.06-.14.14.06.14.14.14.14-.06.14-.14ZM121.97,38.53c.31.09,1.07-.78.93-1.07-.41-.66-.75-1.56-1.09-2.28-.19-.4-1.06-.53-.44-1.21-.15-.17-3.1.07-3.08.43.36.22.92,0,1.14.33l1.45,2.07c.35.5.36,1.53,1.09,1.73ZM119.38,46.13c0-.14-.11-.25-.25-.25s-.25.11-.25.25.11.25.25.25.25-.11.25-.25ZM81.1,53.91c0-.14-.11-.25-.25-.25s-.25.11-.25.25.11.25.25.25.25-.11.25-.25ZM123.14,60.7c0-.06-.05-.11-.11-.11s-.11.05-.11.11.05.11.11.11.11-.05.11-.11Z"/>
  <path class="st0" d="M74.18,109.99c.18,1.01.28,2.08.6,3.17,1.3,4.37,2.42,6.99,2.27,11.75,0,0,1.17,2.53,1.47,2.04.05.58.17,1.2.35,1.75.2.6.19,1.5.64,1.98l2.57,2.75c.95,1.02,1.66,2.17,1.93,3.49-.18.4-.7,1.3-1.25,1.05-.72-1.06-1.02-2.34-1.47-3.55-1.61-1.3-3.98-3.67-4.07-5.75.11-.29.35-.52.55-.89-.59-1.06-1.44-1.84-2.21-2.74s-1.3-1.81-1.93-2.74c-1.05-1.56-1.7-3.24-1.99-5-.02-.11,0-.23,0-.34.05-.64-.05-1.34.07-2.06.28-1.63.49-3.16.44-4.7,0-.24,0-.63.05-.86.17-.36.22-.73.17-1.14-.02-.13.05-.28.04-.41.28-.08.15-.49.18-.71l.07-.39c.42-.25.11-.94.61-1.14.15,1.51.62,2.95.88,4.44h.03Z"/>
  <path class="st1" d="M66.86,117.18c-.39.68-.9,1.24-1.01,2.27,1.75.8,1.81.7,3.46,1.25l-.17,1.16c-.04.26.57.19.62-.05.02-.12.13-.23.17-.42.41.06,1.04-.26,1.35.17.14.19.03.54.13.62s.6.13.66,0c-.02-1.29-.42-2.56-.82-3.75-.11-.34-.02-.74-.01-1.09.12.03.27-.04.39-.02.28,1.76.94,3.45,1.99,5,.63.93,1.19,1.88,1.93,2.74.78.9,1.62,1.69,2.21,2.74-.19.37-.44.6-.55.89-.89-.3-.35-.72-2.06-2.54-.45-.48-.57-1.14-1.22-1.57-.34.33-.23.77-.69,1.09-.44-.54-.59-1.06-1.09-1.51-2.19,1.64-1.26-.16-3.49,1.02,1.79-5.92-.04-.65.28-3.09-.39,2.94-2.67,5.84-1.3,6.15-.13,1.39-.57,2.73-.95,4.18-.77,2.9-1.32,5.78-1.89,8.75-.14.75-.6,5.55-1.3,5.33.14-3.29,1.7-12.42,3.07-15.34.33-.71-.05-1.01-.13-1.62-.19-1.45-.18-2.88-.67-4.33-.74-2.2-1.95-6.05-.17-7.84-.08.14.08.47.24.4.18-.46.76-.41.98-.58h.04Z"/>
  <path class="st4" d="M127.36,62.84c-.1.17-.16.33-.22.66.51.28.99.57,1.52.62,1.74,3.54-.33,9.01-.47,12.71-.11.04-.54-.1-.57.12-.02.15.22.4.27.55.07.24-.11.49-.08.71-.76.86-.38,2.05-1.97,2.54.38.77.36,1.57.61,2.31-.15.26-.17.72-.47.88-.78-.38-1.29-1.6-1.08-2.5.08-.38.77-.64.35-1.18-.83-1.07.14-1.7-.34-2.32.2-.11.6-.32.79-.52.4-1.35.48-4.63.16-5.75-.18-.62-.78-1.11-.44-1.77.16,0,.26.16.39.21-.03.54.68.67.96,1.1.65.99.62,2.21.95,3.4.13-1.27.24-2.68-.33-3.81-.2-.41.19-1.29-.37-1.67-.15-.1-2.32-.43-2.07.31-.92.21-.07,1.36-.89,1.39.05-.37-.02-.75-.01-1.12v-.86c.21.14.36-.08.39-.2.04-.19.08-.4.03-.55-.13-.39.35-.72.38-1.12.07-.8.5-3.98,1-4.22.53-.25,1.04-.11,1.51.06v.02ZM127.19,67.58c.67.31,1.36-.76,1.22-1.28s-.97-1.49-1.51-.85c-.39.47-.22,1.89.3,2.13h-.01Z"/>
  <path class="st2" d="M90.87,16.52c-.5,1.96,2.83-.76,3.79.12-.13.31-.17.46-.19.63-.03.2.26.19.4.36.62.78,1.59.82,2.54.13l-.18,1.53c-.74.42-1.27.88-1.68,1.5-.48-.05-.82-.45-1.37-.73-.44,1.07-.51,2.09-.86,3.2-.05.16.5.24.61.2-.09.08-.11.47-.31.33-.39-.27-.73-.47-1.13-.33.64-1.48.46-2.63.5-2.62-.08-.02-.25.07-.41-.12,1.87-1.21-.06-1.36,1.23-3.45-.83-.65-1.28,2.21-1.93,1.55-.36-.37-.38-.96-.49-1.35-.34.89-.71,1.25-1.14,1.76-.12-.7.26-1.14.07-1.71-.66.68-1.05,1.07-1.4,1.71-.2.36-1.11-.06-1.31.18-.81.96-1.77,1.22-2.97,1.33-.22.02-.34.71-.53.8-.23.11-.59.06-1.03-.03-.22-.02,0,.6-.39.33-.23-.16-.43-.18-.49-.41.19-.25.21-.56.16-.86.22-.6.82-.45,1.4-.31.43.1.49-.75.8-.75.25,0,.45.46.63.44,1.03-.07,1.36-1.83,2.73-1.78.34.01.61.52.88.21,1.04-1.2.25-1.49,1.03-1.85.36-.17.71-.27,1.03,0h0Z"/>
  <path class="st1" d="M67.3,44.75c.23-1.93.39-1.12.85-3.66-.13.7.93-2.42.95-1.96,0-.19-.34-.35-.38-.57-.11-.59.41-1.05.52-1.61.19-.95.2-1.91.74-2.61.34.08.31.53.55.81.65.77,2.03.08,2.48.42-.04-.03-1.07,2.57-1.07,2.57-.21.76-.26,1.55-1.23,1.87-.12.6-.04,1.15-.23,1.76-.72.03-1.13.38-1.2,1.04-.1.98-.91.39-1.98,1.94Z"/>
  <path class="st2" d="M121.36,87.08c-.33,2.29-.8,2.21-.45,3.76-.16,1.08-.52,2.14-.78,3.31s-1.53,3.37-1.44,4.19c-.14,0-.28.03-.41.06-.67-.8.96-2.35.4-2.72-1.06-.7-1.65,3.14-3.26,1.67-.29-.26-.52-.97-.05-1.11.24-.07.59.27.81.31.16.03,1.51-1.61,1.63-2.79.01-.12.51-.14.46-.35l-.18-.64c.62-.1,1.24-.5,1.32-1.23.25-2.29,1.75,0-.21-4.66l1.22,1.05c.12-.3-.1-.49-.09-.8.39-.08.72-.05,1.04-.05h0Z"/>
  <path class="st1" d="M123.75,75.1c-.1.6.16,1.42,0,2.01-.63.11.49,1.9-.6,3.29.1.59.52,1.09.38,1.69-.1.13-.34.24-.49.33-.2.13.04.28.11.41.01.43-.05.88-.06,1.31-.15-.14-.29,0-.4.18-.09.14.18.25.21.36.05.21,0,.45.08.65-1.46,2.01-1.1,3.9-2.08,5.52-.35-1.56.12-1.48.45-3.76l.06-.45c.47-.44.33-1.01.31-1.65-.15-5.11,1.4-7.03,1.2-9.23-.02-.21.1-.45.19-.57.13-.18.42-.13.62-.08h.02Z"/>
  <path class="st2" d="M123.75,77.1c-.04.27.03.63.29.76.2.1.65.2.87.08.48.62-.49,1.25.34,2.32.42.54-.27.8-.35,1.18-.2.91.31,2.12,1.08,2.5.03.65-.76.68-1.03.95-.15-1-.9-.81-.93-1.82.27.05.48-.13.39-.34-.14-.31-.24-.61-.65-.5-.04.25.02.43.03.61l-.65-.02c-.07-.14-.31-.28-.11-.41.15-.09.39-.2.49-.33.15-.6-.28-1.1-.38-1.69,1.09-1.39-.03-3.18.6-3.29h.01Z"/>
  <path class="st2" d="M67.95,116.7c-.68,1.27,1.05,2.21,1.72,3.32-.13.19-.13.54-.36.67-1.65-.55-1.71-.45-3.46-1.25.1-1.02.62-1.59,1.01-2.27.35-.28.64-.41,1.09-.48h0Z"/>
  <path class="st4" d="M70.65,117.15c-.27.98-.4,2.03-.98,2.88-.68-1.11-2.4-2.05-1.72-3.32.94-.15,2.06-.37,2.7.45h0Z"/>
  <path class="st1" d="M65.72,116.94l1.31-3.84c.14-.42.29-.8.16-1.15-.09-.24.11-.57.19-.77.09-.22.86-.32.84,0-.06,1.45-1.08,2.71-1.31,4.21-.12.76-.4,1.55-1.2,1.54h0Z"/>
  <path class="st4" d="M123.81,82.85c.05.1.13.18.22.23.03,1.01.78.82.93,1.82-.48.54-1.19.82-1.97.43-.09-.2-.03-.45-.08-.65.24-.01.19-.37.19-.53,0-.43.07-.88.06-1.31l.65.02h0Z"/>
  <path class="st2" d="M126.46,83.06c-.25-.74-.23-1.54-.61-2.31,1.59-.49,1.21-1.68,1.97-2.54.18,1.26-.43,2.46-.94,3.67-.18.43-.21.83-.41,1.17h0Z"/>
  <path class="st1" d="M72.18,110.2c.05,1.55-.16,3.08-.44,4.7-.13.72-.02,1.42-.07,2.06-.09.16-.27.08-.31-.1-.64-2.85.75-4.3.37-6.22-.04-.2.04-.35.13-.42s.22-.09.33-.02h-.01Z"/>
  <path class="st1" d="M66.79,57.72c-.06.25.09.51.24.69.09.11.09.33.24.4,0,.24.01.48.05.72.02.13.01.25-.02.38-.2,1.56-1.89-1.69-2.22-1.98.55-.2,1.08-.35,1.71-.2h0Z"/>
  <path class="st0" d="M71.26,117.32c0,.35-.1.75.01,1.09-.11-.08-.21-.08-.23.04l-.05.3c-.16.94-.83,1.73-1.04,2.63-.05.19-.15.3-.17.42-.05.24-.66.32-.62.05l.17-1.16c.23-.14.23-.49.36-.67.58-.84.71-1.9.98-2.88.21.03.41.11.61.17h-.02Z"/>
  <path class="st1" d="M77.97,23.21l.02.69c0,.14-.02.29-.03.43-.5.46-1.21-.12-1.67.21-.19.14-.28.59-.5.66-.4-.12-.23-.54-.53-.73-.7.61-.02,2.26-1.65,2.63.11.33.12.55,0,.74-.11.17-.32.26-.53.27.55-2.97.44-2.32,2.57-4.32-.29.27,2.58-.94,2.33-.59h-.01Z"/>
  <path class="st1" d="M79.29,20.98c-.03.16.13.22.26.22.04.52.34,1.04.18,1.56-.22.04-.45.03-.67.04-.15-.46-.65-.51-1.08-.47-.07-.37,1.5-1.43,1.31-1.35Z"/>
  <path class="st1" d="M82.36,20.56c.05.3.02.61-.16.86h-.42c-.56-.62-1.46-.25-2.23-.23l-.03-.45c.09-.15.21-.29.37-.3.2-.01.38.2.6.23.38.06.6-.59.99-.51.34.07.56.49.89.39h0Z"/>
  <path class="st4" d="M68.59,80.16c-1.05.65-2.61.59-3.31-.48-.08-.11.09-.22.21-.17,1.03.6,2.2.58,3.26.24.02.22-.08.32-.16.41Z"/>
  <path class="st2" d="M79.06,22.79c-.22.35.04.72-.02,1.24-.4-.06-.73-.19-1.05-.13l-.02-.69c0-.29.07-.6.01-.88.43-.04.93.01,1.08.47h0Z"/>
  <path class="st1" d="M73.3,105.55c-.5.2-.19.89-.61,1.14-.33-.77.11-1.73.16-2.48.15.38.41.92.45,1.34Z"/>
  <path class="st1" d="M128.66,64.12c-.53-.05-1.01-.34-1.52-.62.06-.34.13-.5.22-.66.64.23,1,.68,1.3,1.28Z"/>
  <path class="st4" d="M28.81,120.71c.54.16-1.92,1.15-2.52.88.66-.58,1.65-.86,2.52-.88Z"/>
  <path class="st4" d="M31.7,120.04c.75.26-2.79,1.12-2.52.66.72-.48,1.68-.49,2.52-.66Z"/>
  <path class="st1" d="M73.05,28.31c0,.21.02.46-.14.62-.2.2-.5.26-.76.31.12-.45.41-.88.9-.93Z"/>
  <path class="st1" d="M72.4,108.21c.05.41,0,.78-.17,1.14-.34-.06-.29-.46-.3-.79,0-.24.16-.47.47-.35Z"/>
  <path class="st2" d="M128.19,76.83c0,.26.05.64-.3.67-.05-.15-.29-.4-.27-.55.03-.22.46-.08.57-.12Z"/>
  <path class="st4" d="M25.92,121.6c.12.16-.01.34-.18.4-.19.07-.43-.04-.57-.2.08-.29.5-.22.74-.21h.01Z"/>
  <path class="st1" d="M72.63,107.08c-.04.23.1.63-.18.71-.19-.1-.36-.36-.27-.57.07-.17.3-.24.45-.14Z"/>
  <path class="st1" d="M72.64,98.68c-.09-.1-.21-.22-.23-.37s.14-.27.2-.38c.21-.05.21.23.22.38,0,.12.02.41-.19.37Z"/>
  <path class="st4" d="M24.58,121.83c.14.21-.07.35-.2.39-.2.06-.4-.02-.55,0-.15-.2.08-.35.2-.38.21-.06.38,0,.55,0h0Z"/>
  <path class="st1" d="M72.55,95.76c-.22-.07-.11-.33-.15-.49.1-.1.2-.05.33.04.08.06.18.13.09.29-.04.07-.19.11-.26.16h0Z"/>
  <path class="st1" d="M67.09,45.72c-.02-.16-.03-.49.16-.53.09.07.16.15.21.22.09.14.03.21-.06.28-.11.09-.2.13-.3.04h-.01Z"/>
  <path class="st1" d="M71.96,29.63c-.03.1,0,.22-.06.33-.06.14-.22.23-.39.16.06-.13-.03-.36.15-.46.08-.05.19-.08.3-.03Z"/>
  <path class="st2" d="M81.78,21.44c.01.16.24.43.15.57-.25.38-1.09-.29-1.27-.05-.04.06.16.27.11.38-.18.39-.7.36-1.04.42.16-.53-.14-1.04-.18-1.56.77-.02,1.67-.39,2.23.24Z"/>
  <path class="st2" d="M79.55,21.19c-.13,0-.28-.06-.26-.22.07-.03.18-.16.22-.23l.03.45h.01Z"/>
  <path class="st4" d="M117.42,59c.7.04,1.18.71,1.28,1.36.03.21-.36.46-.2.72.08.13.55.29.57.47.12,1.24.48,2.38.96,3.53.3.72-.82.89-1.16,1.33.37.87,1.9.75,2.63.4.15.22.04.36.05.47-.74,0-1.23.62-1.97.55-.11-.1-.24-.16-.35-.13-.16.05-.27.26-.36.44-.33.65-1.18-.13-1.64.66-.34.58,1.19.89.79,1.35-.2-.04-.4-.07-.61-.06-2.36-2.99-2.3-.55-5.06-1.94.14-.47.57-.28.82-.7-1.58-.68-2.49.4-3.2-1.45.51-.1,1.2.14,1.7-.21.68-.47.79-1.23,1.17-2.01,2.76,1.4,1.73.34,3.72,2.4.29-1.09-.66-1.71-1.38-2.34-2.32-2-2.59-1.32-5.37-2.12.39-.79,1.36-.8,2.17-1.61-.85-.69-2.37-.95-3.19-.33-.62.48-1.1.48-1.8.7-.86.28-1.54,1.17-2.56,1.21s-2.13.14-2.87.86c-.94.91-1.31,2.3-.21,3.24.35-.38.17-.85.39-1.24,1.38-.8,2.93-1.16,4.51-1.63.4-.12,1.46.14,1.5.78-.37-.11-.69,0-1.04.15-.45.18-.32.76-.58,1.17-.47.76-2.15-.58-3.73.44-.31.7.42,1.57.71,2.21l.63,1.35c.44.96.25,1.62.35,2.46.15,1.32.35,2.62.43,3.95.24,1.02,1.58,1.7,1.92,2.69-.01-.03,2.08,4.01,2.34,3.53l2.63-1.05c1.08-.43,1.82-1.44,2.77-2,.52-.3.87-.48,1.28-.97.39-.46,1.63-.4,1.63-1.06v-1.17c0-.29.47-.46.51-.71.04-.31-.22-.54-.2-.94l1.19.88c.2-.58-.31-.99-.5-1.49.22-.15.43-.14.61-.15.09,0,.18.02.27.05.04.41.27.83.87.9.25-.32.3-.67.47-.95l.37.03c-.95,1.93,2.31-.14.44,6.65-.22.81.31,1.75-.04,2.45-.77,1.58-1.02,4.19.35,4.49l-.06.45c-.32,0-.65-.03-1.04.05-.01.31.21.5.09.8l-1.22-1.05c1.96,4.66.46,2.37.21,4.66-.08.74-.7,1.14-1.32,1.23l.18.64c.06.21-.45.23-.46.35-.11,1.18-1.47,2.82-1.63,2.79-.22-.04-.57-.38-.81-.31-.47.13-.23.84.05,1.11,1.6,1.47,2.19-2.37,3.26-1.67.57.37-1.07,1.92-.4,2.72.02.86-.73,1.43-.91,2.24-1.72,1.33-1.06,1.42-3.4,3.21-.57.44-1.34.79-1.86,1.32-.65.65-1.14,1.32-1.91,1.87l-3.92,2.78c-1.75,1.25-3.79,2.49-5.85,2.2.06-.11.22-.27.43-.28,1.37-.06,4.11-1.85,4.1-1.85,1.24-.51,2.17-1.12,3.29-2-.33-.29-.08-.91-.28-1.44-.16-.44-.79-.54-.82-.87-.2-2.04.46-1.24.82-2.05.29-.65-.46-1-.25-1.46.16-.36.84.28,1.49-.14.29-.19.26-.45.22-.95,0-.22.52-.04.76.04-.02-.65-.03-1.37.57-1.72l1.14.44c.09-.42-.24-.67-.56-.98.2-.11.56-.08.64-.28.09-.23-.19-.5-.17-.77s.28-.44.35-.6c-.03.06-.35-2.09-1.22-1.96,0,.3.09.85-.22.97-.74.29-.74.96-1.12,1.44s-.25.74-.38,1.23c-.15.57-.43,1.2-.27,1.9-.08.3-.88.36-1.18.29s-.35-.69-.75-1.01c-.31.29.26.82.29,1.14-1.32,1.15.14,1.45-1.63,1.68-.56.28,1.13,2.95.06,2.69-.41-.1-.63-.59-1.1-.54-.32.03-.37.47-.39.69-.03.3.3.46.37.81.02.22-.48.2-.69.15-.24-.07-.31-.38-.62-.79-.28.56-.3,1.2-.22,1.9l-1.12.23c-.33.07-.28-.36-.54-.62-.03.46.03.9-.3,1.39-.38-.27-.26-.61-.51-.98-.41.28-.21.66-.21,1.12-1.27-.37.34.1-2.33.65-.86.17-1.66.53-2.4-.07-.53.86-1.41.53-2.22.39s-1.68.12-2.41-.26c-.52-.27-.96-.06-1.48-.16l-2.17-.44c-.46-.09-.82-.6-1.41-.19l2.25,1.41c.19.12.52-.39.71-.3-.02,0,1.44.93,1.43.93.17.2-.25.39.05.82.19-.93.88-.7,1.23-.92.78-.5,1.24-.48,2.16,0,.41.22,1.4.06,1.9.05l1.65-.03c.79-.01,1.5-.6,2.33.14-.21.5-.83.33-1.07.57-.94.91-1.98,1.14-3.16.6-.65-.3-1.38.51-2,.61-.24-.21-.47-.72-.74-.69-.49.43-.93.74-1.63.91,1.04,1.41,1.7.09,3.82,1.87-.21.99-4.07,2.02-3.63,3.18-.6.19-1.04.72-1.66,1.03-1.1.53-1.99,1.25-2.71,2.14-.31.07-.98-.1-.86-.43.5-1.32,2.06-.38,2.69-2.63s1.79.16,1.54-3.67c-.71-1.04-2.36-1.25-3.4-1.74-.75-.36-1.3-.61-2.07-.85-1.3-.4-2.42-1.29-3.91-1.05-.18.03-.38.21-.57.17-.37-.08-3.51-4.81-2.9-5.78,1.18.98,1.85,2.08,3.31,2.23.25-.49-.32-.57-.77-.82.43-.09,1.19-.18,1.27-.76.05-.35-.35-.45-.51-.43-.19.02-.48.05-.7.31-.1.12-.31-.38-.16-.44.69-.26.84-.86.61-1.58-.11-.35-.65.11-1.12.32.46-1.41-.72-.09,0-2.46l-.96-.31c.34-.2.6-.22.72-.44.15-.27-.21-.45-.23-.7l-.16-1.53c-.01-.14-.62-.13-.71-.28-.15-.26.41-1.71-.06-2.16-.29-.28-.65-.45-1.11-.64.82-.51.79-1.29,1.32-2-.66-.16-1.18-.14-1.89-.03l1.05,1.02c-.19.12-.65.51-.88.37-.58-.36-.54-1.19-.86-1.78l-1.89,1.06c-.56-1.95-1.23-1.12-.93-2.7-.47-.15-.71-.4-.9-.8s-.1-.74.38-1.26c-1.13-.55-1.27-1.46-1.48-2.5-.22-1.11-.96-5.56-.78-6.22s-.37-1.11-.92-1.27c.05-.25.13-.44.15-.61.02-.15-.14-.28-.33-.33l-.03-.88c.14.17.94-1.22.81-1.58-.06-.19-.49-.46-.52-.71.53-.89.4-1.96,0-2.91-.1-.23-.21-3.69-.19-3.71.08-.1.24-.28.46-.18-.25.61.55.93.66,1.33.38,1.4.54,2.83.59,4.25.01.33-.22.81-.05,1.05.11.16.48.25.61.38,1.13,1.02-.04,2.38.05,3.37.1,1.09.63,2.06.48,3.41-.16,1.5,1.81,4.21.64,5.27.11.25.44.48.33.72-.09.19-.25.33-.39.7l1.41.27c.11.58.35,1.08.86,1.29.74.3,1.76-1.07,2.46-.23.25.3.13.64-.28.97.33.13.52.04.76.11.12.03.25.25.12.44l-.33.46c.39-.05.77,0,1,.15.47.32.89,2.28.98,1.91-.12.51.4.94.44,1.28.07.69-.07,1.51.75,1.93.15.48-.49,1.04-1.07,1.34.54.37.99,0,1.63.32l-.88.5.95,1.66c.13.22.64.07.72.37.06.24-.04.43-.32.81.4.19.78,0,1.2-.03.22.76.48,1.48-.03,2.08.38.07.57-.28.94-.11.83,2.42,2.13.37,2.36,2.69.62-.29.82-.93,1.49-1.12-.26.32-.73,1.03-.24,1.18.8-.03.71-1.18,1.3-.55.12.12-.01.44.18.67.18-.4.29-.9.8-1.11.18-.08.44-.06.47.1.01.07-.02.19.06.48.56-.5,1.23-.42,2.01-.25.21.05.46-.29.6-.21.16.08.21.48.4.46.29-.03.39-.44.63-.52.15-.05.35.05.57.09.08-.48.08-.84.34-1.25l.33.64c.8-.65,2.07-.61,2.68.17.08-.76.41-1.26.56-1.96.92.33,1.7.03,1.96.59s-.6.56-.47,1.3c.03.18.09.49.44.53.18-1.86.83-1.32.57-2.78.92-.83,1.58-1.76,2.73-2.41-.6-.39-.1-.95,0-1.52.07-.43-1-1.23-1.4-1.06-1.26.89-2.61.93-3.97.22-.22-.11-3.43-.52-3.56-.26-.09.18.02.42-.22.71-.29-.56-.63-1.02-1.4-.86-.29-.42.04-.61.17-1.28-.66.4-1.1-.06-1.59-.07-.79-.02-1.41-.34-1.47-1.3,1.32.2,2.5-.35,3.76-.31.87.03,2.18-.65,3.43-.9.85-.16,1.89.17,2.55-.67.12-.15.01-.62.31-.52.15.05.4.13.6.14.22-.22.97-1.68.81-1.97-.19-.35-.33-.05-.64,0-.98.18-2.03.09-3.09.21-1.32.14-2.52.34-3.86.15-.8-.12-1.98-.49-2.7-.29-1.17.32-1.51-.05-2.4-.47-.43-.21-4.96-1.57-4.41-2.31.7.05,1.25.53,2.12.72.21-.46-.1-.84-.04-1.3.38-.13.63.07,1.09-.16-1.38-1.16-3.37-1.3-5.27-.64.55.57,1.22.26,1.48.94-.45-.05-1.06-.38-1.43.14-.24.34-.33.79-.61.91-2.4,1.02-.42-2.7-2.02-3.46.49-.58,3.69-1.11,3.98-.34.69-1.2,1.69-1,2.65-.74.34.09,1.2-.39,1.4.23.11.34-.27.8-.19,1.23.91.22,1.74.3,2.67.23.27.23.21.79.5.84l3.1.55c.58.1.93.25,1.44.12,1.16-.3-.92-1.53,5.28-1.49-.21-.89-.92-.78-1.41-1.05-1.79-.99-2.58.43-2.86-.16-.26-.55.82-1.2.1-1.19-.59,0-.13,1.22-.65,1.27-1.68.18-3.16-1.15-4.83-.64.09-1.38.8-1.28,1.28-3.12-.61-.37-.55-1.33-1.26-1.6-.83-.22-2.43-.98-2.15-2.05.7-.77,2.68-.73,3.62-.32,1.39.6,2.7.68,4.06-.06,1.76-.96,1.91-.6,3.13-2.48.07-.58.16-1.04.32-1.59.36-1.18-.45-2.37-.68-3.5-.16-.78.22-2.61.33-2.86.31-.68.15-.92.06-1.61l-.4-3.38c-.06-.47.03-.74.16-1.08s.55-.16.83-.34c.99-.65,1.98-.7,3.11-1s2.53-1.82,3.82-1.47c2.47.68,2.62-.2,6.35-.5.23-.02.43-.4.64-.39.04,0,2.17,1.35,2.36,1.53.43.4.69,0,.93,0l.06.06ZM95.09,81.03c.56.32.95.43,1.25,1.06.26.57,1.24.15,1.62.3,1.57.62,2.52.08,3.76-.79.72-.51,2.09-.69,2.46-1.94.09-.29.09-5.13-1.31-4.67.52,1.45,1.24,2.69.26,3.98-.43-.89-1.49-.74-2.1-1.17-.73-.52-1.29-1.18-2.39-.69-1.46.65-2.85,1.64-4.18,2.55-.77-.16-1.06-.8-1.62-1.27-.82-.7-2.34-.79-3.19-.14-.28.21-.09.84.14.93.24.09.77.28,1.07.18,2.3-.82,2.53.71,4.24,1.68h-.01ZM108.35,85.69c.6-.61,1.07-.91,1.41-1.42-.43-.99-1.4-1.46-2.01-2.28-.47-.63-.51-1.57-1.53-1.78.37.8-.02,1.52.16,2.21l.39,1.46c.06.21.56.24.64.44.25.58.47,1.09.93,1.38h0ZM106.41,89.91c-.06-.6,1.76-.69,1.52-1.77-.09-.38-1.33-.41-1.97-.29-.81.14-1.7-.39-2.61-.05-.26.1-.21.7-.5.79-1.06.33-1.98-.57-2.62-.28-.16.07-.4.64-.12.67l2.02.24c.08.58-.18.93-.35,1.5,1.92.52,2.19-.56,4.26-.74.03.32-.53.52-.51.89.02.41.66.23.93.39-.26.57-.55.96-.9,1.41.54.88-.1,1.27-.56,1.88-.36.47.77.78,1.11.91.48.6-.61,1.5-.65,2.1.21.64,1.43,1.19,2.13,1.08.42-.07.01-.65.04-.84.05-.34.38-.56.38-.81,0-.32-.22-.53-.4-.85-.53-.9,1.93,0,1.8-2.2,1.05.24,1.76-.34,2.3-1.12.1-.14.44-.02.45-.14.01-.21-.09-.49-.06-.67.1-.61.76-1.02.78-1.63.02-.57-.14-1.1.14-1.66.59-1.16-1.06-2.86-.69-2.72-.17-.06-.58-.08-.69.06.05.78.23,1.66.11,2.49-.19.12-.35.03-.35-.05-.01-.09-.07-.32-.15-.52-.73.35-1.24-.08-1.81-.74-.02.69.06,1.01-.23,1.38s-.72.29-1.11.53c-.58.35-1.01.87-1.68.75h0ZM94.53,90.2c.51-1.27-1.54-.98-3.03-1.54-.71-.27-1.24-.19-1.99-.19-.48,0-1.34-.52-1.7.18-.2.39.12.91.32,1.11.26.27.96-.36,1.23-.24.79.36,4.91,1.34,5.18.67h-.01ZM97.74,90.62c.4-1.89-.69-.68-2.39-1.34-.28.25-.44.96-.08,1.13.75.36,1.65.31,2.46.21h.01ZM101.38,103.63c.82.06,1.17.31,1.77.73.18.13.54-.48.31-.65-.43-.32-2.13-.51-2.08-.09h0ZM99.35,104.88c0-.14-.11-.25-.25-.25s-.25.11-.25.25.11.25.25.25.25-.11.25-.25ZM85.53,106.55c0-.06-.05-.11-.11-.11s-.11.05-.11.11.05.11.11.11.11-.05.11-.11ZM96.8,108.73c.15.23.01.48.37.61.26-.35.11-.96-.23-1.35-.27.1-.72.23-1.22.28-.33.03.06.63.26.76.29.2.53.09.82-.31h0Z"/>
  <path class="st1" d="M98.91,124.01c-.46,1.36-1.74,2.2-2.52,3.34-.37-.12-.66.07-.91.42-1.46,2.04-3.19,3.74-4.88,5.55-.75.8-1.37,1.64-2.14,2.28,0-1.35,3.55-5.08,4.63-6.03.22-.19.31-.83.1-.87-.55-.11-.91.1-1.2-.08.96-.69,2-.4,2.83-1.37-3.47-.09-3.11.83-6.08,1.69-.33.1-1.08.76-1.17.16s.6-1,.92-1.54c-.84-1.09-.6-2.47-1.13-3.63-.19-.42-1.09-.48-1.21-.97.18-.64.27-1.3.72-1.86.71-.88,1.61-1.61,2.71-2.14.63-.3,1.07-.83,1.66-1.03,1.13-.37,1.19-1.05,1.61-.36l-.74.51c.45.31.91.14,1.48.44-.38,1.35-1.75,1.99-3.13,1.96-.57.22-1.24.77-1.74,1.37.91.43,1.39-.55,2.18-.62,1.18-.11,2.1-.65,3.14-1.15.51-.24,1.31.06,1.52-.55.43.06.62.44,1.1.83.31-.35.02-.63.08-.95.7-.81,1.39-1.52,2.21-2.23.69-.6.89-1.88-.02-2.35s-2-.38-2.93-.44c.51-.57,1.24-.92,1.96-1.13.77-.22,1.57-.14,2.47-.2,1.82-.14,2.95-.74,3.5.66.24.62-1.45,2.43-1.73,2.93-.48.84-1,1.44-1.67,2.16-1.89,2.02-.8.44-2.26,3.09-.4.73.32,1.53.61,2.11h.03Z"/>
  <path class="st2" d="M116.95,104.91v.19c-.29.35-.59.82-.92,1.13l-1.94,1.83c-.47.44-1.07.68-1.41,1.38-1.47-1.68-6.16,4.31-6.55,4.71l-3.73,3.8c-.42.43-.7.97-1.05,1.49-.2.38.3.86.27,1.23-1.02,1-1.58,2.43-2.71,3.33-.29-.58-1.01-1.37-.61-2.11,1.46-2.65.37-1.07,2.26-3.09.67-.72,1.19-1.32,1.67-2.16.28-.49,1.97-2.31,1.73-2.93-.55-1.4-1.68-.8-3.5-.66-.89.07-1.7-.02-2.47.2.25-.59,1-.73,1.55-.99-.07.21.26.23.36.16.12-.08.29-.26.15-.4.11.04.25-.02.37,0,2.07.29,4.1-.96,5.85-2.2l3.92-2.78c.78-.55,1.27-1.22,1.91-1.87.53-.53,1.29-.89,1.86-1.32.12.59.63,1.29,1.36,1.27.61-.02,1.11-.31,1.62-.22h.01Z"/>
  <path class="st4" d="M101.62,120.67c.03-.37-.48-.84-.27-1.23.35-.52.63-1.06,1.05-1.49l3.73-3.8c.39-.4,5.08-6.39,6.55-4.71.35-.71.94-.94,1.41-1.38l1.94-1.83c1.08-.23-1.92,2.57-2.15,2.77l-6.99,6.52-5.27,5.15h0Z"/>
  <path class="st4" d="M96.39,127.35l-2.06,3.01c-1.73,2.54-3.07,5.26-4.99,7.53-1.24-.32-5.24,3.42-3.85.37.3-.73,2.5-1.4,2.48-2.24.25,0,.34-.29.49-.42.77-.64,1.39-1.48,2.14-2.28,1.69-1.82,3.42-3.52,4.88-5.55.25-.35.54-.54.91-.42Z"/>
  <path class="st2" d="M89.35,137.89c-.32.38-.25,1.18-.9,1.26-.05-.28-.45-.16-.69-.03l-6.36,3.44c-.13.07-.35.22-.46.31-.1.08-.02.29.07.44v.23c-.31-.25-.85-.29-1.28-.21.01-.33-.34-.4-.61-.38.31-.4.42-.52,1.1-.75,2.53-.86,2.87-3.17,5.27-3.95-1.39,3.05,2.62-.69,3.85-.37h.01Z"/>
  <path class="st1" d="M117.36,100.65c.24.89.43,1.75.41,2.67-.68-.18.06.59-.82,1.59-.51-.09-1.01.2-1.62.22-.73.02-1.25-.68-1.36-1.27,2.34-1.79,1.69-1.88,3.4-3.21h-.01Z"/>
  <path class="st1" d="M88.45,139.15c.08.36-.38.63-.47.88-1.21-.03-4.4,2.29-6,2.87-.18.5-.63.53-.97.42-.09-.15-.17-.35-.07-.44.11-.09.33-.24.46-.31l6.36-3.44c.24-.13.64-.25.69.03h0Z"/>
  <path class="st4" d="M117.77,103.32c-.02.72.04,1.61-.82,1.78v-.19c.88-1,.14-1.77.82-1.59Z"/>
  <path class="st4" d="M84.45,136.27c-.01.41-.2.47-.43.65-.27-1.31-.98-2.46-1.93-3.49l-2.57-2.75c-.45-.48-.44-1.39-.64-1.98,1-.17,1.55.12,2.1.95.47.72,1.33,1.31,1.49,2.22.02.11-.31.35-.22.45.24.29,1.16.29.99.63-.04.09-.28.24-.36.44,1.12.91,1.62,1.6,1.58,2.87h0Z"/>
  <path class="st1" d="M87.98,136.02c.02.84-2.19,1.52-2.48,2.24-2.4.77-2.75,3.09-5.27,3.95-.68.23-.79.35-1.1.75-.27.35-1.02.36-1.16.93-.2.02-.41.02-.6-.02.49-.91,1.42-1.47,2.19-2.24,2.5-2.51,3.51-2.59,6.21-4.69.68-.53,1.47-.86,2.22-.91h-.01Z"/>
  <path class="st0" d="M79.72,143.33c.43-.09.97-.04,1.28.21l.35.29c.05.31-.28.72-.19,1.08.2.38.76.52.92.91-.21.65-.18,1.14-.96,1.33-.36-.4-.97-.2-1.44-.14l-.41-.12c.48-.42.27-1.98-.08-1.99-.14,0-.66.1-.73-.05-.38-.79.55-1.4,1.26-1.54v.02Z"/>
  <path class="st1" d="M86.8,129.79c-.01.64.38,1.16.49,1.76l-1.29-.03c-1.6-.04-.85-2.2-1.51-2.81-.31-.29-.6.08-1.1-.24.87-.55,2.29-.67,2.88.13.28.37-.06,1.17.53,1.2h0Z"/>
  <path class="st1" d="M65.43,162.42c-.24,2.14,1.03,4.85-.43,5.42-.92-1.22-.72-5.46-.32-6.82.96.14.82.78.75,1.4h0Z"/>
  <path class="st1" d="M76.86,144.73c.03.37-.29.71-.09,1.16.62-.17,1.07-.38,1.43-.07v.2c-2.54.92-1.57,1.45-3.43,2.83-.37-.63-.09-1.2.25-1.7.57-.84,1.36-2.62,1.83-2.42h0Z"/>
  <path class="st4" d="M79.12,142.96c.27-.02.62.05.61.38-.7.14-1.64.75-1.26,1.54.07.14.59.04.73.05.34,0,.56,1.57.08,1.99-.47-.13-.81-.48-1.06-.88v-.2c.03-1.27-.61-.46-.25-1.94.14-.57.89-.58,1.16-.93h-.01Z"/>
  <path class="st4" d="M68.69,125.18c-.3,1-.92,2-1.01,3.06-1.37-.3.91-3.2,1.3-6.15-.32,2.43,1.51-2.84-.28,3.09h-.01Z"/>
  <path class="st2" d="M77.95,143.88c-.37,1.48.27.67.25,1.94-.35-.31-.81-.1-1.43.07-.2-.45.11-.79.09-1.16,0-.06.03-.14.02-.2.18.15.31-.05.37-.19.04-.11.05-.21.06-.31,0-.06.02-.13.04-.18.2.04.4.04.6.02h0Z"/>
  <path class="st4" d="M82.08,145.82c-.16-.39-.72-.54-.92-.91-.09-.36.24-.77.19-1.08.65.54.95,1.28.72,1.99h0Z"/>
  <path class="st4" d="M81.12,147.16c-.48.12-1.2.62-1.44-.14.47-.06,1.09-.26,1.44.14Z"/>
  <path class="st1" d="M77.31,144.04c-.02.1-.02.21-.06.31-.06.14-.19.34-.37.19-.03-.16-.05-.37.1-.49.1-.08.23-.11.33,0Z"/>
  <path class="st1" d="M87.53,132.26c-.04-.09-.14-.16-.15-.26.2-.08.14.17.15.26Z"/>
  <path class="st1" d="M91.33,63.05c.16.84,1.04,1.15,1.73,1.54.15.93-2.32,5-3.45,4.78l.31,2.03c.07.45.53,1.47-.11,1.72-1.27.5-2.79.78-3.94,1.69-2.2,1.73-2.15.56-3.9,2.22-.43.41-.32,1.1-.9,1.38-1.49-1.35-1.73.51-3.08-1.12-1.69,1.04-.4-2.17-2.6-1.12-.4-.06-.36-.4.08-.38.4-.04.61-.11.69-.4.02-.09-1.6-2.16-2.55-2.01.38-.53.74-.33.87-.55.17-.29.12-.59-.1-.86-.75-.93.72-.94-.06-2.28-.22-.38-.75-.21-1.12-.29-1.94-.4-.83-3.18-.81-4.05.01-.62-.89-1.08-.34-1.89.87.7,1.96.63,3.06.73-.01.53-.5.44-.44.78.36.09.88-.01.99.22.3.66-.37,1.54.17,1.81.96.49.7-.4,1.46-.08,1.08.46-1.35,1.35-1.7,1.78,3.48.06.71-.65,3.55-.22,1.27.19,2.6-.15,3.93-.11,2.07.06,4.06-.43,5.72-1.66.36-.27.57-.76.92-1.1.18-.18-.16-.49-.31-.54s-.58.07-.64.27c-.22.71-.93.59-1.29.94-.56.54-1.1.73-1.75,1-.87.36-1.31.22-2.11-.1-.55-.22-1.48.15-2.19-.05-1.34-.37-3.34.55-3.04-.3.25-.69,1.07-.11,1.44-.83-1.29.24-2.69-.36-3.35-1.46-.19-.32.89-1.06,1.11-.76.55.97,1.53,1.6,2.58,1.1-.12-.25-.3-.42-.4-.48-.11-.07,0-.53.1-.46.64.42,1.05-.07,1.5-.12,1.01-.09,2,.65,2.93.95l-.05-.52c-.02-.18.34-.09.44-.05.07.02.16.32.27.34.5.08,3.85.34,3.72-.58l.34-.06c.24,0,.65.13.76-.16h.37c.1.28.43.27.48.06.07-.28.06-.5.07-.75h.64Z"/>
  <path class="st4" d="M91.33,63.05h-.62c-.17-.05-.4-.04-.48.13s-.06.38-.06.54h-.37c-.09-.13-.22-.24-.37-.25-.24-.02-.38.19-.38.41l-.34.06c-1.87-.83-1.37-1.78-1.94-2.04-.86-.39-.05,1.9-3.01,1.88s-1.76-2.52-3.18-2.08c.75-.23-2.22,1.3-1.66,1.47-.78-.32-3.61.52-4.37-.91-.36-.68-.18-1.56-1.33-1.78,1.01-.3,1.89-.57,2.99-.53.39.05.45.7.86.88,2.06-.43,3.29-1.25,5.26-1.5.25-.03.48-.29.53-.44.06-.19-1.16-1.74-1.93-1.9.56-1.11,1.45-.47,2.27-.35,4.99.76,3.62,1.75,4.96,1.93.32.04.58-.2,1.05-.57.44,1.13,1.16,1.54,2.19,1.91.06.02,2.53,1.44,2.86,1.51-.67,1.22-1.77,1.65-2.93,1.63h0ZM85.24,61.51c.37-.46,1.27-.43,1.54-.98.59.11.86.57,1.45.4-1.28-1.86-3.82-1.15-6.03-1.01-1.34.08-5,1.42-5.33,2.87,2.03-.25,3.58-1.82,4.5-1.7.3.8.67,1.09,1.4,1.4.6.26.93.77,1.64.41.48-.24.42-.88.83-1.39ZM88.64,61.15c0-.06-.05-.11-.11-.11s-.11.05-.11.11.05.11.11.11.11-.05.11-.11Z"/>
  <path class="st1" d="M94.27,76.73c-.87-.44-.83-1.47-1.03-2.32-.09-.37-.67-.45-.66-.8,0-.5.28-.59.65-.88.53-.42.8-1.04,1.52-1.4l-.79-.54c.73-.6.65-1.39.59-2.22-.07-1.13.38-2.19-.47-2.52.04-.71.57-1.28,1.02-1.88-.57-.61-.53-1.4-.19-2.07.26-.5.92-1.35,1.68-1.27.51.05,1.45.45,1.58.88.24.81-.46,1.62-.28,2.41.15.65.21,1.35-.43,1.71-.9.5-.1,1.23-.12,1.78-.04,1.35-.55,4.05,1.1,4.44-.58,2.44.74,1.73.13,3.45-.26.73-1.07.58-1.77.84-.83.3-1.6.87-2.53.41v-.02Z"/>
  <path class="st1" d="M67.71,65.5c-.21.04-.4.23-.62.26-.39.04-.95.28-.87.83.12.8-.76.95-1.34,3.9-.24,1.21.67,2.55,1.87,2.3.3-1.03-.58-2.06-.45-3.04s1.25-1.56,1.84-2.33c.37.38.55.91.36,1.31-1.33,2.81,1.02,3.7-1.04,4.45.09.45.67.47.81.86.41,1.18.56,2.36.6,3.49l.03.88c-.03.23-.01.53-.13.7-.16.23-1.55.49-2.18-.38-.59-.82.35-1.65-.35-1.85-.55-.15-.34,1.44-1.25,1.32-.31-1.02-1-2.38-.69-3.49.09-.31.83-.31.83-.68,0-.5-2.71-5.18.53-8.4.61-.6,1.33-1.32,2.27-1,.12.26-.19.65-.21.87h0Z"/>
  <path class="st1" d="M95.77,103.63c-1.09.36-2.15.07-3.25-.02-.14-.01-.3.43-.42.4-.26-.08-.4-.3-.5-.6-.4.03-.58.45-1,.58s-.59-.31-.64-.56c-.13-.73,1.09-1.26.72-1.67-.27-.3-.64-.51-.85-.39-.65.38,0,1.17-.31,1.8-.09.19-.47.23-.73.15-.2-.05-.22-.41-.43-.62-.51-.52-1.24-.26-1.96,0-.45-1.55-.9-1.69-1.28-3.5,1-.14,1.81.24,2.66.53.36.12,4.23-.2,3.78-.33l2.86.79c.36.1.73.38,1.22.41-.5.49-.93.2-1.12.49-.21.33-.28.95.12,1.06.2.05.43-.42.55-.3.23.22.35.34.33.49-.05.26-.22.45-.57.48-.02.39.5.3.81.81h0Z"/>
  <path class="st1" d="M118.69,60.36c-.1-.66-.58-1.32-1.28-1.36-.1-.71-1.96-2.01-3.08-2.31-.9-.25-2.77-4.75-1.22-4.65,2.25.16,3.28,1.99,4.38,2.82s1.43,1.96,1.76,3.21c.26.99.91,1.94.62,3.08l-1.19-.8h.01Z"/>
  <path class="st1" d="M86.88,76.39c.88.03.85.62,1.04,1.3.9,3.17,2.02,2.18,1.39,3.42-.37.73-.83.4-1.31.62-.55.42-1.19,1.45-1.99,1-.06-.03,0-.32.02-.37.47-1.31-.42.66-.83.45-.17-.08-.07-.38-.13-.71-.55-.19-.93.46-1.56.46-.27,0-.36-.34-.39-.5-.14-.69,1.22-1.13,1.41-1.52.23-.46.26-.93.77-1.17.3-.14.62-.01,1.11.01-1-1.36.57-.91.47-2.99Z"/>
  <path class="st4" d="M78.53,126.95c-.3.49-1.47-2.05-1.47-2.04.15-4.76-.97-7.39-2.27-11.75-.32-1.08-.43-2.16-.6-3.17.57-.23,1.25,2.8,1.32,3.27.1.72.57,1.27.73,1.9.32,1.28.33,2.67,1.52,3.53-.81,2.19.78,1.31.55,4.06-.18,2.25,1.01,3.27.23,4.2h-.01Z"/>
  <path class="st4" d="M67.3,59.9c.03-.12.03-.25.02-.38.14-.03.36-.06.38-.18.04-.16.11-.46-.11-.5-.1-.02-.23,0-.32-.04-.15-.07-.15-.29-.24-.4.38.2.3-3.13.29-3.1l.73-1.68c.36.76,1.07.31,1.36.46.79.43.33,1.63.18,2.28-.36,1.6-.45,3.11-.53,4.68-.03.52-.11.81-.59.9-.99.18-.53-1.96-1.18-2.04h0Z"/>
  <path class="st4" d="M86.88,76.39c-.55.34-.81.66-.93,1.08-.11.38-.56.36-.75.6-3.75,4.67-3.98,2.34-3.89,2.3,1.66-.71,2.18-2.05,3.19-3.24s2.76-1.82,4-2.86c.4,1.36-1.37,1.38-1.63,2.13h0Z"/>
  <path class="st0" d="M84.38,88.82l-.62-.44c-.27-.68-.93-.36-1.48-.94,1.9-.66,3.89-.52,5.27.64-.46.23-.71.03-1.09.16-.06.46.25.85.04,1.3-.88-.19-1.43-.67-2.12-.72Z"/>
  <path class="st1" d="M93.74,92.89c.36-.04.28.66.15.86-.4.58-4.37-.51-4.47-.65-.14-.19-.26-.87.13-.88,1.97-.06,2.66.84,4.19.68h0Z"/>
  <path class="st1" d="M81.78,30.22c-.25.23-.71-.16-.82-.3s.24-.48.22-.69c-.07-.68-.84-.87-1-1.72.89-.21,1.7.78,2.15,1.44-.24.36-.3,1.05-.55,1.28h0Z"/>
  <path class="st1" d="M67.63,62.99c.22.52-.35.73-.59.83-.37.17-.84-.02-.97-.37s-.24-.97.22-1.25c.36-.23,1.13.29,1.34.79Z"/>
  <path class="st1" d="M83.37,34.84c.24.08-.01.5-.13.66.04-.05-1.35.14-2.18-1.18-.16-.25-.94-.43-.75-.99.72-.29,1.33.47,1.63,1.06.24.48.88.27,1.44.46h-.01Z"/>
  <path class="st4" d="M66.13,60.83c-.07.61-1.86.4-1.93-.15s.67-.81.97-.76,1.05.13.96.91Z"/>
  <path class="st4" d="M67.09,65.76c.21-.02.41-.21.62-.26.16,0,.33,0,.46.07.33.15-.14,1.12-.37,1.19-.36.11-.6-.1-.68-.33s-.06-.45-.03-.67Z"/>
  <path class="st1" d="M78.71,25.27c-.03.18-.09.33-.2.38-.21.09-.38-.15-.33-.32.02-.08.2-.1.23-.17,0,0,.3.11.3.11Z"/>
  <path class="st4" d="M84.19,23.42l.24-.04c.02.28-.25.33-.24.04Z"/>
  <path class="st4" d="M92.5,23.45c-.12.29-.09.46-.51.65-.23,0-.71-.31-.76-.18l-.27.71c-.07.19-.66-.16-.95-.06-.13.04-.3-.13-.43-.1-.09-.22-.23-3.13-.66-2.23-.47.99.15.76-.3,1.86-.34-.46-.43-1.07-1.17-.88.36.4.48,1.62-.12,1.52-.95-.15-1.55-1.38-2.21-2.11-.42.27-.31.77-.69.76.05-.26-.25-.23-.24.04-1.96.04.9,1.23.36,2.23-.28.01-.52-.25-.69-.29-.16-.04-.3.22-.27.39.03.22.54.76.59.91.08.25-.16.37-.33.34-.93-.16-.5-1.14-1.73-1.73-1.83.73-2.74-.47-3.41,0l-.3-.11c-.01-.31-.17-.66-.44-.84,0-.14.03-.28.03-.43.32-.06.65.07,1.05.13.06-.52-.2-.89.02-1.24.22,0,.45,0,.67-.04.34-.05.85-.03,1.04-.42.06-.12-.15-.32-.11-.38.18-.24,1.02.43,1.27.05.09-.14-.13-.41-.15-.57h.42c.07.22.26.24.49.4.39.27.18-.35.39-.33.44.09.8.13,1.03.03.19-.09.32-.78.53-.8,1.2-.11,2.15-.37,2.97-1.33.2-.23,1.11.18,1.31-.18.35-.65.74-1.03,1.4-1.71.19.57-.19,1-.07,1.71.43-.51.8-.86,1.14-1.76.11.38.13.97.49,1.35.64.66,1.09-2.2,1.93-1.55-1.29,2.09.64,2.24-1.23,3.45.16.19.33.09.41.12-.04-.01.14,1.14-.5,2.62h0ZM84.56,22.7c0-.46-.44-.66-.52-.52-.17.28.23.66.52.52ZM87.31,22.42c0-.06-.05-.11-.11-.11s-.11.05-.11.11.05.11.11.11.11-.05.11-.11ZM87.53,22.87c0-.06-.05-.11-.11-.11s-.11.05-.11.11.05.11.11.11.11-.05.11-.11Z"/>
  <path class="st2" d="M124.05,69.73c0,.37.06.74.01,1.12-.49,1.37-.07,2.83-.31,4.25-.21-.05-.49-.1-.62.08-.09.12-.21.36-.19.57.19,2.2-1.35,4.12-1.2,9.23.02.64.16,1.21-.31,1.65-1.37-.31-1.12-2.91-.35-4.49.34-.7-.18-1.65.04-2.45,1.87-6.79-1.4-4.73-.44-6.65.61-1.23-2.16-1.76-2.65-2.88.4-.46-1.12-.78-.79-1.35.46-.79,1.31-.02,1.64-.66.09-.17.19-.39.36-.44.1-.03.23.03.35.13.36.49,1.28.89,1.96.7.38-.11,1.56-1.49,1.3-1.42.77-.21.85,1.93.54,2.4.23.18.46.17.67.21h-.01ZM119.18,68.91c.76,1.1,2.01,1.32,3.29.68-.83-.17-2.3-.53-3.29-.68Z"/>
  <path class="st2" d="M95.57,21.42c.13-.07.51-.03.53.15.02.15-.05.32-.06.55s.34.22.5.15c.29-.11-.22-1.32.71-2.3,1.85-1.98,1.51-3.13,2.6-3.11-.4,0,1.59,2.29-.74,4.07-.16.12-.59-.21-.71-.07-.38.41-.04.95-.48,1.47-.17.2-.6.13-.84.3-.5.35,0,1,.04,1.38-.75.38-.94-.43-1.17-.97-.14-.34-.59-.52-.6-.83s.23-.53.23-.78h-.01Z"/>
  <path class="st2" d="M121.97,38.53c-.73-.21-.74-1.23-1.09-1.73l-1.45-2.07c-.22-.32-.79-.11-1.14-.33-.02-.36,2.94-.6,3.08-.43-.63.68.24.81.44,1.21.35.71.69,1.62,1.09,2.28.14.29-.62,1.16-.93,1.07Z"/>
  <path class="st4" d="M95.56,20.79v.63c-.64.35-1.15,1.58-1.62,2.03-.11.05-.66-.04-.61-.2.35-1.11.43-2.12.86-3.2.55.28.89.68,1.37.73h0Z"/>
  <path class="st2" d="M96.56,27.67c-.38-.29-.58-.98-.39-1.54.13-.4.6-1.12,1.11-1.05.19,1.01.08,1.81-.71,2.58h-.01Z"/>
  <path class="st2" d="M91.99,24.1c-.36.16-.26.99-.6,1.22-.51.35-1.33-.2-1.38-.75.3-.1.88.26.95.06l.27-.71c.05-.13.53.18.76.18Z"/>
  <path class="st2" d="M124.47,68.12c.05.15,0,.36-.03.55-.03.12-.18.34-.38.2,0-.17-.08-.35,0-.56.04-.13.23-.32.42-.19h-.01Z"/>
  <circle class="st2" cx="80.85" cy="53.91" r=".25"/>
  <circle class="st2" cx="119.13" cy="46.13" r=".25"/>
  <circle class="st2" cx="95.1" cy="16.41" r=".14"/>
  <circle class="st2" cx="99.88" cy="27.43" r=".14"/>
  <circle class="st2" cx="101.11" cy="25.98" r=".14"/>
  <circle class="st2" cx="123.03" cy="60.7" r=".11"/>
  <path class="st4" d="M71.28,118.41c.4,1.19.8,2.47.82,3.75-.07.14-.56.09-.66,0s0-.43-.13-.62c-.31-.44-.93-.11-1.35-.17.22-.9.88-1.69,1.04-2.63l.05-.3c.02-.12.12-.12.23-.04h0Z"/>
  <path class="st0" d="M125.42,69.92c-.34.65.27,1.14.44,1.77.32,1.12.24,4.4-.16,5.75-.19.19-.59.41-.79.52-.22.12-.67.02-.87-.08-.26-.13-.33-.49-.29-.76.16-.59-.11-1.41,0-2.01.24-1.42-.17-2.88.31-4.25.82-.03-.04-1.18.89-1.39.23.06.39.24.47.46h0Z"/>
  <path class="st0" d="M127.19,67.58c-.51-.24-.69-1.66-.3-2.13.54-.64,1.37.34,1.51.85s-.55,1.6-1.22,1.28h.01Z"/>
  <path class="st1" d="M127.4,70.82c-.57-.13-1.04-.48-1.59-.69-.13-.05-.22-.22-.39-.21-.09-.21-.24-.4-.47-.46-.24-.74,1.92-.41,2.07-.31.56.38.17,1.26.37,1.67h0Z"/>
  <path class="st2" d="M127.4,70.82c.57,1.14.46,2.54.33,3.81-.34-1.19-.3-2.41-.95-3.4-.28-.43-.99-.56-.96-1.1.54.21,1.02.56,1.59.69h-.01Z"/>
  <path class="st2" d="M123.1,84.14c0,.17.04.52-.19.53-.03-.11-.3-.22-.21-.36.11-.17.25-.32.4-.18h0Z"/>
  <path class="st1" d="M124.03,83.08c-.1-.05-.17-.13-.22-.23-.01-.18-.07-.36-.03-.61.41-.11.51.19.65.5.09.21-.12.39-.39.34h-.01Z"/>
  <path class="st2" d="M67.32,59.53c-.03-.24-.05-.48-.05-.72.09.04.23.02.32.04.21.04.14.34.11.5-.03.12-.24.15-.38.18Z"/>
  <path class="st2" d="M107.75,63.71c.04.69.06,1.37.88,1.81.02.94-1.75.01-2.25.3-.23.14-.26.59-.5.56-1.35-.14-.85-1.22-2.71-.74l.28,1.06c.93.34,1.75.7,2.63,1.26,1.9-.92,3.64,1.1,4.33.17l-1.47-.9c.38-.44.45-.88.4-1.27l.63.04c.71,1.85,1.62.77,3.2,1.45-.25.43-.68.24-.82.7,2.76,1.39,2.7-1.05,5.06,1.94-1.55.72,1.01,1.46,1.29,2.9-.18,0-.39,0-.61.15.19.5.7.91.5,1.49l-1.19-.88c-.02.4.25.63.2.94-.04.25-.52.42-.51.71v1.17c0,.67-1.24.61-1.62,1.06-.42.49-.77.67-1.28.97-.96.56-1.69,1.57-2.77,2l-2.63,1.05c-.26.48-2.35-3.56-2.34-3.53-.34-.99-1.67-1.67-1.92-2.69-.08-1.33-.28-2.63-.43-3.95-.1-.85.1-1.51-.35-2.46l-.63-1.35c-.3-.64-1.03-1.51-.71-2.21,1.59-1.02,3.26.32,3.73-.44.25-.41.13-.99.58-1.17.35-.14.68-.26,1.04-.15h-.01ZM116.12,70.4c-1.23-.41-2.15-1.22-3.32-1.28l-2.05-.11c-.07.51-.36.73-.28,1.11,2.19-.12,4.11,1.58,5.65.28ZM111,75.78c.22-.45-.67-.99-1-1.13-.64-.27-.51-1.09-.61-1.5s-1.1-.57-1.02-1.33c-.54.39-.74.56-1.12.56-.36,0-.47-.43-.81-.61-.29-.15-.51.2-.61.33-.09.12.17.46.12.61-.37,1.01-.42,1.95.19,2.91.45.7-1.02.79,2.56,2.58.76-.81,1.81-1.4,2.31-2.42h-.01Z"/>
  <path class="st0" d="M100.41,112.03c-.12-.02-.25.04-.37,0-.24-.07-.35.16-.51.23-.55.26-1.3.39-1.55.99-.72.2-1.45.56-1.96,1.13-.37-.03-.74.42-1.13.37-2.12-1.78-2.79-.46-3.82-1.87.7-.17,1.14-.49,1.63-.91.28-.03.51.48.74.69.62-.09,1.35-.9,2-.61,1.18.53,2.23.31,3.16-.6.24-.24.86-.07,1.07-.57-.83-.75-1.54-.15-2.33-.14l-1.65.03c-.5,0-1.49.16-1.9-.05-.92-.49-1.38-.51-2.16,0-.35.22-1.04-.01-1.23.92-.3-.43.13-.62-.05-.82,0,0-1.45-.93-1.43-.93-.19-.09-.52.42-.71.3l-2.25-1.41c.59-.42.95.09,1.41.19l2.17.44c.51.1.96-.11,1.48.16.73.39,1.62.13,2.41.26s1.69.47,2.22-.39c.74.59,1.54.24,2.4.07,2.67-.55,1.06-1.02,2.33-.65,0-.46-.2-.85.21-1.12.25.38.13.71.51.98.34-.49.27-.93.3-1.39.26.26.22.69.54.62l1.12-.23c-.09-.7-.06-1.34.22-1.9.31.41.38.72.62.79.21.06.71.07.69-.15-.07-.36-.4-.51-.37-.81.02-.23.07-.66.39-.69.46-.05.69.44,1.1.54,1.07.26-.62-2.41-.06-2.69,1.77-.23.3-.53,1.63-1.68-.03-.32-.6-.85-.29-1.14.4.32.46.94.75,1.01.3.08,1.1,0,1.18-.29-.17-.7.12-1.33.27-1.9.13-.49.01-.78.38-1.23.38-.47.38-1.14,1.12-1.44.31-.12.21-.67.22-.97.87-.13,1.2,2.02,1.22,1.96-.07.17-.33.33-.35.6s.26.54.17.77c-.08.19-.44.16-.64.28.32.31.65.56.56.98l-1.14-.44c-.6.35-.59,1.07-.57,1.72-.24-.08-.75-.26-.76-.04.04.5.07.76-.22.95-.65.42-1.33-.22-1.49.14-.21.47.54.81.25,1.46-.36.81-1.02,0-.82,2.05.03.33.65.44.82.87.2.53-.05,1.14.28,1.44-1.13.88-2.05,1.49-3.29,2,0,0-2.73,1.79-4.1,1.85-.21,0-.37.17-.43.28h.01ZM110.01,99.43c0-.06-.05-.11-.11-.11s-.11.05-.11.11.05.11.11.11.11-.05.11-.11Z"/>
  <path class="st2" d="M106.03,89.97c.12-.01.27-.08.39-.06.67.11,1.1-.4,1.68-.75.38-.23.83-.17,1.11-.53s.22-.69.23-1.38c.56.67,1.07,1.1,1.81.74.09.21.14.43.15.52,0,.08.16.17.35.05.12-.83-.05-1.72-.11-2.49.11-.14.52-.12.69-.06-.37-.14,1.28,1.55.69,2.72-.28.55-.12,1.08-.14,1.66-.02.61-.68,1.02-.78,1.63-.03.17.07.45.06.67,0,.12-.35,0-.45.14-.54.77-1.25,1.36-2.3,1.12.13,2.2-2.33,1.3-1.8,2.2.18.32.4.53.4.85,0,.25-.33.47-.38.81-.03.19.38.78-.04.84-.7.11-1.92-.45-2.13-1.08.04-.6,1.13-1.51.65-2.1-.33-.13-1.47-.44-1.11-.91.46-.61,1.11-1.01.56-1.88.36-.45.64-.84.9-1.41-.27-.16-.91.02-.93-.39-.02-.36.54-.56.51-.89v-.02Z"/>
  <path class="st0" d="M109.97,66l-.63-.04c-.27-.26-.51-.33-.72-.44-.81-.44-.83-1.12-.88-1.81-.04-.64-1.11-.9-1.5-.78-1.58.47-3.13.82-4.51,1.63-.22.39-.04.86-.39,1.24-1.1-.94-.73-2.33.21-3.24.74-.72,1.83-.82,2.87-.86s1.7-.93,2.56-1.21c.69-.22,1.18-.22,1.8-.7.81-.62,2.34-.36,3.19.33-.81.81-1.79.82-2.17,1.61,2.78.8,3.05.12,5.37,2.12.73.63,1.67,1.25,1.38,2.34-2-2.07-.96-1-3.72-2.4-.39.78-.49,1.53-1.17,2.01-.5.35-1.19.11-1.7.21h0Z"/>
  <path class="st0" d="M95.09,81.03c-1.71-.97-1.93-2.51-4.24-1.68-.3.11-.83-.08-1.07-.18-.22-.09-.41-.72-.14-.93.85-.64,2.37-.55,3.19.14.56.47.85,1.11,1.62,1.27,1.33-.91,2.72-1.9,4.18-2.55,1.1-.49,1.66.17,2.39.69.61.43,1.67.28,2.1,1.17.98-1.29.26-2.52-.26-3.98,1.4-.46,1.4,4.38,1.31,4.67-.37,1.25-1.74,1.43-2.46,1.94-1.24.87-2.19,1.41-3.76.79-.38-.15-1.35.27-1.62-.3-.29-.63-.68-.74-1.25-1.06h.01Z"/>
  <path class="st3" d="M96.01,114.39c.93.06,2.01-.04,2.93.44s.71,1.76.02,2.35c-.83.72-1.51,1.43-2.21,2.23-.06.33.23.6-.08.95-.48-.39-.67-.77-1.1-.83-.46-1-1.61-1.83-2.71-1.97-.42-.68-.47,0-1.61.36-.44-1.16,3.42-2.19,3.63-3.18.39.06.76-.39,1.13-.37v.02Z"/>
  <path class="st0" d="M106.41,89.91c-.12-.02-.26.05-.39.06-2.06.18-2.33,1.27-4.26.74.17-.56.43-.92.35-1.5l-2.02-.24c-.28-.03-.04-.6.12-.67.64-.29,1.57.6,2.62.28.29-.09.25-.69.5-.79.91-.34,1.8.19,2.61.05.64-.11,1.88-.09,1.97.29.25,1.08-1.58,1.16-1.52,1.77h.02Z"/>
  <path class="st2" d="M94.53,90.2c-.27.67-4.39-.32-5.18-.67-.26-.12-.96.51-1.23.24-.2-.2-.52-.73-.32-1.11.36-.7,1.22-.18,1.7-.18.75,0,1.28-.08,1.99.19,1.49.56,3.54.27,3.03,1.54h.01Z"/>
  <path class="st2" d="M108.35,85.69c-.46-.28-.68-.8-.93-1.38-.08-.2-.59-.23-.64-.44l-.39-1.46c-.18-.69.21-1.41-.16-2.21,1.03.21,1.06,1.15,1.53,1.78.6.82,1.58,1.29,2.01,2.28-.34.51-.82.81-1.41,1.42h0Z"/>
  <path class="st1" d="M118.01,70.15c.49,1.12,3.26,1.65,2.65,2.88l-.37-.03c-.08-.2-.24-.38-.44-.4-.44-.05-.59.55-.89.45-.09-.03-.18-.04-.27-.05-.28-1.44-2.84-2.19-1.29-2.9.2,0,.41.02.61.06h0Z"/>
  <path class="st2" d="M97.74,90.62c-.82.1-1.71.15-2.46-.21-.36-.17-.21-.88.08-1.13,1.7.66,2.79-.55,2.39,1.34h-.01Z"/>
  <path class="st2" d="M96.8,108.73c-.29.4-.53.51-.82.31-.19-.13-.58-.73-.26-.76.5-.05.94-.18,1.22-.28.34.39.49,1,.23,1.35-.36-.13-.22-.39-.37-.61h0Z"/>
  <path class="st2" d="M101.38,103.63c-.05-.42,1.65-.23,2.08.09.23.17-.13.78-.31.65-.6-.42-.95-.67-1.77-.73h0Z"/>
  <path class="st2" d="M120.3,73c-.17.28-.22.63-.47.95-.59-.07-.82-.49-.87-.9.3.1.45-.5.89-.45.2.02.36.2.44.4h.01Z"/>
  <circle class="st2" cx="99.1" cy="104.88" r=".25"/>
  <circle class="st2" cx="85.41" cy="106.55" r=".11"/>
  <path class="st2" d="M95.56,119.54c-.21.61-1.01.3-1.52.55-1.04.5-1.96,1.03-3.14,1.15-.79.08-1.27,1.05-2.18.62.51-.6,1.17-1.15,1.74-1.37,1.39.03,2.75-.61,3.13-1.96-.57-.3-1.03-.14-1.48-.44l.74-.51c1.09.14,2.25.97,2.71,1.97h0Z"/>
  <path class="st4" d="M100.04,112.04c.14.14-.03.32-.15.4-.1.07-.43.05-.36-.16.16-.08.27-.31.51-.23h0Z"/>
  <path class="st2" d="M90.7,63.04c-.01.25,0,.47-.07.75-.05.21-.37.22-.48-.07,0-.17-.02-.37.06-.54s.31-.17.48-.14h.01Z"/>
  <path class="st2" d="M89.79,63.73c-.11.29-.52.15-.76.16,0-.22.14-.43.38-.41.16,0,.29.12.37.25h.01Z"/>
  <path class="st0" d="M85.24,61.51c-.41.51-.36,1.15-.83,1.39-.71.36-1.04-.16-1.64-.41-.73-.31-1.1-.6-1.4-1.4-.93-.12-2.47,1.45-4.5,1.7.33-1.45,4-2.79,5.33-2.87,2.22-.14,4.76-.85,6.03,1.01-.59.17-.86-.3-1.45-.4-.27.55-1.17.52-1.54.98Z"/>
  <circle class="st0" cx="88.53" cy="61.15" r=".11"/>
  <path class="st2" d="M84.56,22.7c-.29.14-.69-.24-.52-.52.08-.13.52.06.52.52Z"/>
  <circle class="st2" cx="87.2" cy="22.42" r=".11"/>
  <circle class="st2" cx="87.42" cy="22.87" r=".11"/>
  <path class="st1" d="M119.18,68.91c.99.15,2.46.51,3.29.68-1.28.64-2.52.42-3.29-.68Z"/>
  <path class="st1" d="M111,75.78c-.5,1.03-1.54,1.62-2.31,2.42-3.59-1.79-2.12-1.87-2.56-2.58-.61-.96-.56-1.9-.19-2.91.05-.15-.21-.49-.12-.61.1-.13.32-.48.61-.33.34.18.45.61.81.61.38,0,.58-.17,1.12-.56-.08.76.92.94,1.02,1.33s-.03,1.23.61,1.5c.33.14,1.22.68,1,1.13h.01Z"/>
  <path class="st1" d="M108.63,65.52c.21.11.44.18.72.44.05.4-.02.83-.4,1.27l1.47.9c-.69.93-2.44-1.08-4.33-.17-.88-.56-1.7-.92-2.63-1.26l-.28-1.06c1.86-.49,1.36.59,2.71.74.24.03.27-.43.5-.56.5-.29,2.26.64,2.25-.3h-.01Z"/>
  <path class="st4" d="M116.12,70.4c-1.55,1.3-3.47-.4-5.65-.28-.07-.38.22-.6.28-1.11l2.05.11c1.17.06,2.09.88,3.32,1.28Z"/>
  <circle class="st4" cx="109.9" cy="99.43" r=".11"/>
</svg>