<?xml version="1.0" encoding="UTF-8"?>
<svg id="Layer_1" xmlns="http://www.w3.org/2000/svg" version="1.1" viewBox="0 0 176.35 184.93">
  <!-- Generator: Adobe Illustrator 30.2.1, SVG Export Plug-In . SVG Version: 2.1.1 Build 1)  -->
  <defs>
    <style>
      .st0 {
        fill: #d62226;
      }

      .st1 {
        fill: #969085;
      }

      .st2 {
        fill: #634538;
      }

      .st3 {
        fill: #ccd0db;
      }

      .st4 {
        fill: #bb9370;
      }
    </style>
  </defs>
  <path class="st1" d="M64.83,78.29c.79.26.23,3.87-.12,4.29-.58.7-.9,1.54-1.39,2.28-1.11,1.69-1.81,3.42-2.21,5.39-.15.78-.76,1.56-.41,2.48.4,1.05-.45,1.76-.61,2.47-.3,1.29,1.67,2.27,1.88,3.29.41,2.05,1.09,3.4,2.77,4.78.65.53.87,2.14,2.11,2.21,2.58.14-.11-5.37,0-7.05.06-.98-.7-1.4-.85-2.09-.28-1.24-.19-6.94-.02-6.28-.03-.13.46-.36.54-.2.35.73,1.02.91,1.53,1.4,1.43,1.42,2.74,2.97,4.06,4.5.57.66.81.88,1.74,1.14,1,.28,1.65,1.7,2.61,2.11,1.1.46,1.35,1.42,2.18,2.1l2.14,1.73c1.53,1.24,1.96,2.05,3.96,3.62.56.44.97.54,1.26,1.33.25.65,1.47.54,1.9,1.19.25.38.91,1.1,1.29.51,1.9-2.86,2.43-1.87,1.38-3.15-.32-.4.27-1.62.79-1.6,2.02.11,1.96,2.66,3.12,3.18.25.11.69-.33.58-.7-.66-2.2-3.89-1.98-2.24-4-1.04,0-1.76-.68-1.97-1.63-.06-.28.13-.55.26-.66.53-.43.51.29,2.51-.11,1.19-.24,2.31.54,3.43.67.61.08,1.24-.18,1.95.2.46-.13.83-.79,1.47-.86.88.84,1.78,1.01,3,.94.77-.04,1.93,1.11,1.64,1.92-1.08,3.04-2.25,3.03-3.06,5.07-2.32-1.25-.43,2.29-2.28,2.85-.18.05-.51-.49-.68-.46-1.25.13.22,1.21-.2,1.93-.99,1.71-1.71.93-2.08,1.64-.54,1.01.3,3.1.54,3.94.69,2.44,2.39,1.05,3.26,1.75.2.16.44.65.35,1-.31,1.19.32,2.04.47,2.99.28,1.77,1.87,3.66,2.61,3.62.44-.01,1.27-.17,1.5-.77.38-.99,1.56-2.29,1.54-3.27-.03-1.47.51-1.83,1.07-2.84.84-1.51,1.4-3.1,2.35-4.58.22-.35,1.87-4.99,2.15-5.67.67-1.62,1.19-3.17,1.56-4.86.23-1.01.83-.73,1.4-1.22.2-.18-.04-.58.05-.77l.8-1.55c1.62,1.07,3.45.98,5.29,1.11,4.45.29,3.38-.13,6.63-.29.54-.02,1.02-.33,1.78-.28.47.92-.35,2.93.8,3.01.43.03.41-.5.65-.83.35-.47,1.01-.03,1.41.06l.22,2.42c.14,1.59.77,1.4,1.27,4.63.1.65-.1,1.28-.3,2.09,1.01,1.04,2,2.55,2.05,3.94-.31.19-.81.24-.93.4-.63.94,1.12,1.49.7,2.96-.13.46.32,3.67,1.6,3.42l.5,2.98c.2,1.21,0,2.43.4,3.6.45,1.36,1.13,2.73,1.11,4.23-.03,2.69-.74,5.2-1.59,7.69-.2.59.1,1.21-.2,1.78-.39.74-1.18,1.82-.74,2.67,1.2,2.35-1.38,2.17-.32,4.84.68,1.71,1.14,3.53,1.67,5.35.32,1.11.96,2.15.44,3.33.76.09,1.19.14,1.7.28,2.46.64,4.71,1.74,6.78,3.3,1.09.82,1.94,1.71,1.62,3.13-.17-.02-.5-.12-.58-.38-.28-.79-1.13-.91-1.57-1.39-.56-.63-.97-.6-1.77-.83-3.97-1.1-3.24-3.06-5.74-2.99-1.29.03-2.51-.19-3.88.14-.35.09-3.28-.65-3.45-2.14-.24-2.09.43-4.34.05-6.42h.25c0-3,.36,5.7.53,3.55.95-1.23.91-2.7.82-4.1-.28-4.34.25-8.56.53-12.92.13-1.94-.12-4.01.41-5.8.25-.38,1.53-.17,1.61.36s.33.73.65.77c.47.05.76-.47.58-.96-.66-1.84-.27-2.62-1.32-4.78-.99.57-1.06,1.71-1.46,2.73-1.36.35-2.75.02-4.11-.3-1.52-.36-2.98.13-4.49.22-1.2.08-2.41-.23-3.62-.27l-8.38-.25-6.68-.22-7.29-.24-8.39-.24-8.83-.26-11.86-.24c-1.53-.03-5.4-.73-5.4.87v3.86c.02.65.57,1.14,1.23,1.09,1.93-.16,3.78-.02,5.67.03l3.65.1c1.37.03,2.57-.06,3.95-.02l8.22.2,7.93.24c1.36.04,4.82-.23,4.42.67-1.69,0-3.4,0-5.21-.18-3-.31-5.98.17-9-.12l-2.47-.24h-12.25l-3.44-.26c-1.15-.09-2.24.24-3.4-.03-.09-1.05.16-2.02-.05-3.08-.9.18-2.03.33-2.41.87-1.67,2.34,2.84,3.71.94,5.6-.44.19-1.08.06-1.21.55h-1.42c-.13-.3-.57-.17-.84-.18-.45.11-.64-.42-.92-.56-.39-.95,1.31-.95,1.65-1.64.58-1.19-1.43-1.31-.39-2.67.6-.8.98-1.74,1.21-2.8-1.48-.82-1.62.99-2.63-.76l-.59,1.12c-.45-.41-.36-.9-.3-1.31.08-.93.11-2.67.87-3.44,1.18-1.18,2.01-2.77,3.4-3.86.03-.03,3.59-1.11,3.65-1.65.12-1.28-1.43-1.13-1.52-2.55.26-.52.91-.83,1.46-1.06,1.13-.45,2.59-.47,3.66-1.28.78-.58.16-1.91-.13-2.58.22-.54.23-1.15.26-1.71.01-.3.59-.76-.12-1.14-.29.51-.28.96-.45,1.37-.33.54-1,.66-1.41.98-1.35.44,1.15-2.25.26-3.51-.63-.88-2.48-.38-3.4,0-.98.4-1.48,1.42-2.5,2.04.95,1.81,3.27.91,3.13,2.67-.41.1-.99.22-1.51.17l-4.49-.29c-.53-.03-.76.81-1.13,1.09-6.88,5.08-4.88,6.2-6.76,7.88-.06-.22.03-.58-.33-.87-1.9,1.13-4.17,1.28-6.18,2.11-1.16.49-2.23,1.77-3.76,1.35-.55-.15-1.16-.11-1.66.06-.64.23-.52,1.05-.81,1.63-.27.55-.77.92-.28,1.66-2.67,1.2-4.55.52-6.15,1.37-1.33-.1-2.82.12-4.15-.46-6.42-2.84-9.83.78-14.03,1.97-.37.11-.47.49-.53.72-.49-.28-1.83,3.06-1.41,3.42-.29.3-.18,1.1-.38,1.43-.86,1.19-1.29,2.65-1.91,4-1.06-1.61-1.26-3.55-1.27-5.64-1.16,1.49-.41,3.31,0,4.99l.35,1.41c-.57-.29-.53-1.06-.82-1.62-1.54-3-.32-6.07,2.38-7.92,1.63-1.11,3.2-2.37,4.33-4.01-.25.36,2.43-5.75,2.47-5.89.66-2.1,1.38-4.07,2.25-6.09l3.45-8.11,4.3-8.56c.53-1.06,4.91-8.69,5.61-9.71.85-1.23,2.07-2.33,3.24-3.28,1.51-1.21,3.42-1.54,5.23-1.93.85-.18,5.22-2.93,7.53-.58-.54.41-1.59.61-1.52,1.6.03.39.11.96.65,1.08.15-1.89,1.66-.79,1.38-2.39.49.41,1.04,0,1.59-.05,3.26-.37,3.06,1.31,8.19-.24,1.42-.42,2.29-1.67,3.05-2.8.7-1.02,1.56-1.97,2.02-3.1.19-.49.13-3.37.8-3.14l.1.04ZM51.15,93.97c.16-.54,1.87-5.65.28-4.83.29,1.45-.24,2.72-1.04,3.87l-1.6,2.32c-.28.4-.06,3.85.49,4.02,1.37.43.93-2.15,1.88-5.38h-.01ZM45.61,92.1c.3.37.87.1,1.14-.16.32-.3.14-2.88-.78-2.62-.49.14-.95,1.04-1.29,1.48.11.28.64.27.73.43.14.22.01.66.19.87ZM131.47,126.7c.51-.46,1.34-1.12,1.25-1.71-.12-.83-1.31-1.49-1.98-1.27-.42.14-.66.3-.68.56-.02.31.28.45.52.67.54.49-.05,1.35.88,1.76h.01Z"/>
  <path class="st4" d="M123.22,32.7c.24-.03.42-.17.84-.31.22.37-.16.92.54,1.16.42-1.52-.33-2.79-.79-4.11-.52-1.48,1.27-4.41-1.96-7.15-.9-.76-1.65-.8-2.64-1.16-.11-.04-5.95-3.76-7.45-.65-1.36.56-4.64-.55-6.03.92.38.91,1.25,1.56,2.2,1.81,1.21.3,2.03.96,3.04,1.57,2.05,1.24,1.16,1.45,4.09,3.13,1.21-.8,1.97-.27,2.89.17,1.12.54,1.95,1.02,2.58,2.2.17.31.61.6.8.9-.9.24-2.85-1.23-3.6-.52-.22.19-.58.93-.25,1.09,1.2.6,6.41,3.65,6.87,4.66.84,1.82,1.07,3.97,1.06,5.96,0,1.11-.67,2.17-.6,3.26.13,2.15-.68,3.93-1.67,5.72-1.28,2.3-1.84,5.63-2.65,7.16-1.2,2.28-2.5,4.49-4.85,5.76-1.2.65-4.08,2.14-5.2,2.3-1.94.27-4.57,1.66-6.17,2.43-1.13.55-1.81.95-1.9,2.43-.06,1.15,0,3.56-.37,4.18s-.98.93-.95,1.83c.05,1.34-2.11,2.79-2.28,4.11.6.41,1.07.84,1.13,1.31.08.54-.36.95-.57,1.45-.23.55.38,1.21.22,1.8-.42,1.48-.31,2.83.41,4.15.1.18-.35.76.11.87,1.05.27,2.37,0,3.33.65.57.38,1.11.68,1.77.98.56.26-.18,1.13-.4,1.48-.24.37-1.07-.08-1.4.16-2.56,1.76-1.6.19-3.12.92-.19.09-.17.47-.37.76-.83,1.15-2.37-.55-2.78,0-.08.11-.08.51-.27.5-.58-.01.1-.69-.03-.93-.53-.98-2-1.28-2.9-.7.03.71.33,1.16.56,1.94,1.25-.27,2.36.63,3.52.64s2.07-.33,3.21.17c.12.05.17-.43.05-.47-.16-.05-.3-.17-.52-.4.79-.43,1.65-.22,2.45-.19.05-.35.24-.69.18-.83-.09-.23-.42.05-.68.02-.05-.37.41-.51.46-.95,1.04.3,1.71.87,2.19,1.76.71-.11,1.26.24,1.78-.11-.55-.26-1.24-.1-1.43-.7-.06-.18.19-.43.14-.53s-.6.09-.78-.11c-.39-.44.7-1.15,1.29-.87.72.35.88,1.26,1.24,1.9.11.19.5.19.55.32.09.22-.02.42-.29.73.41,1.56.55-.86.98-1.4-.26-.68-1.02-1.13-1.88-1.09.18-.5.78-1.05,1.19-.99.83.09,1.47.91,1.86,1.51.3-.19.58-.29.83-.68-.73-.39-1.46-.85-1.71-1.62-.1-.27.31-.8.53-.74.38.1,1.33,1.05,1.68.85.23-.12,1.86-2.09,2.08-2.38.43-.57-.31-1.41.37-2,.18.86.16,1.61.7,2.35.47-.38.26-.92.5-1.23.1-.13.5-.08.57,0s.2.25.22.45c.09,2.93.91,5.5,2.05,8.25-.92.12-3.47,1.56-3.49,1.68-.05.28.15.66.39.86,1.5,1.37.32,2.34,1.05,2.92-.1.18.15.58-.05.77-.57.49-1.18.2-1.4,1.22-.38,1.69-.9,3.25-1.56,4.86-.28.68-1.93,5.33-2.15,5.67-.96,1.49-1.51,3.07-2.35,4.58-.56,1-1.1,1.37-1.07,2.84.02.98-1.16,2.28-1.54,3.27-.23.59-1.06.76-1.5.77-.76.02-2.33-1.87-2.61-3.62-.15-.95-.79-1.8-.47-2.99.1-.36-.15-.85-.35-1-.86-.7-2.57.69-3.26-1.75-.24-.84-1.08-2.92-.54-3.94.38-.71,1.1.08,2.08-1.64.42-.72-1.05-1.8.2-1.93.17-.02.49.53.68.46,1.83-.56-.05-4.1,2.28-2.85.81-2.05,1.98-2.03,3.06-5.07.29-.81-.88-1.97-1.64-1.92-1.22.08-2.11-.1-3-.94-.63.08-1,.72-1.47.86-.71-.39-1.33-.14-1.95-.2-1.11-.13-2.23-.9-3.43-.67-2.01.4-1.98-.33-2.51.11-.13.11-.33.37-.26.66.23.95.95,1.62,1.97,1.63-1.66,2.02,1.57,1.8,2.24,4,.11.37-.33.82-.58.7-1.15-.52-1.1-3.07-3.12-3.18-.52-.02-1.11,1.2-.79,1.6,1.05,1.28.52.29-1.38,3.15-.39.58-1.05-.13-1.29-.51-.43-.65-1.65-.54-1.9-1.19-.29-.79-.7-.87-1.26-1.33-1.98-1.57-2.43-2.39-3.96-3.62l-2.14-1.73c-.83-.68-1.08-1.64-2.18-2.1-.96-.41-1.61-1.83-2.61-2.11-.93-.26-1.16-.49-1.74-1.14-1.32-1.53-2.62-3.07-4.06-4.5-.51-.51-1.19-.67-1.53-1.4-.06-.15-.57.08-.54.2-.17-.65-.26,5.05.02,6.28.15.69.93,1.11.85,2.09-.12,1.68,2.57,7.19,0,7.05-1.24-.06-1.47-1.67-2.11-2.21-1.68-1.39-2.36-2.74-2.77-4.78-.2-1.02-2.19-2-1.88-3.29.17-.71,1.01-1.42.61-2.47-.35-.93.25-1.7.41-2.48.4-1.97,1.1-3.69,2.21-5.39.49-.74.81-1.57,1.39-2.28.35-.42.91-4.03.12-4.29-.14-.88.36-1.68.59-2.5.2,0,.41.02.61.06.06.2,0,.84.24.88,1.9.33,1.61-2.75,2.55-4.38.32-.56,1.24-.64,1.68-1.27.4.35.46.92.14,1.19s-.77.19-.86.53-.15,1.11.36.99c.28-.06.43-.45.61-.57.27-.17.42.14.76.45.59-1.22,1.41-2.21,2.44-3.05.24.26.33.56.47.8.8-.17.83-.98,1.27-1.48,1.52-1.69,2.48-3.74,2.43-6.08,1.8-.55,1.48-1.65,1.68-3.76.03-.37,1.11-.44,1.09,0-.11,1.94-.32,3.95-1.12,5.65-.71,1.52-1.97,2.9-2.17,4.57.27.12.6-.03.73-.06.25-.06.43.37.3.68-1.89,4.66-6.94,7.49-7.8,11.98,1.53-.73.35.69,1.75,1.42.36.31-.04,1.01.2,1.49.42-.2.98-.23,1.23.2.42.71,1.16.58,1.74.98l1.59,1.1-1.86.17c.71.39.97.7,1.2,1.31.2.56,3.27,1.54,3.62.17.15-.56-.82-1.07-1.25-1.13-.84-.14-1.07-.64-1.53-1.19-.26-.31-.79-.4-.95-.68-.26-.45-.06-.91-.02-1.45l.19-2.8c.09-1.27,2.41-1.4,2.65-2.98.06-.39.33-.58.53-.82.25-.29.71.11,1.07-.06.49-.24,1.09-.87,1.25-1.4.12-.4-.41-.85-.23-1.27.36-.81,1.96-.8,2.48-2.37s1.93,0,2.57-.73c.44-.5-.64-1.25-.51-1.55.17-.4,1.38-.31,1.61-.6.17-.24-.14-.85.12-.99l1.19-.65c.49-.27.05-1.16.2-1.59.84-2.42.23-5.3-1.15-7.03-.59-.74-.6-2.11-1.35-2.77-.47-.42-.58-.86-.91-1.34-.88-1.29-1.82-2.47-2.07-4.11-.49-3.24-.31-6.54,1.39-9.47,1.6-2.76,3.26-5.45,5.22-7.97,1.1-1.41,2.82-2.94,4.51-3.26,1.54-.29,2.69-.15,3.8-1.59.42-.54,1.38.91,2.87-.55,2.25,1.2,1.09,2.24,3.07,3.18.35.16,2.61-.53,2.71-1.08.18-1.04-2.23-1.1-2.74-1.96-1.7-2.87-4.82-2.9-4.92-4.3-.06-.94,1.52-1.18,2.34-.96.99.26,4.45,1.69,4.88,1.14.26-.35-.15-.43-.28-.63-1.96-2.82-3.52-2.04-3.66-3.34-.03-.29.27-.6.55-.81l2.53-1.84c2.01-1.47,3.55-2.19,6.97-1.69,1.6.23,3.17-.09,4.75.51.5.18,1.04-.31,1.63-.18.56,1.42,1.63,2.46,2.46,3.66,1.45,2.06,2.22,2.24,2.99,4.36,1.41,3.92,2.19,8.94,1.41,13.05-.06.32.03.65-.38.74-.76.16-.22-2.06-1.46-3.75-.45-.61-.45-1.39-.82-1.98-.16-.26-.79-.44-.78-.83l-.11.05ZM109.56,39.65c.57-.91-.1-1.78.29-2.5.31-.57.53-1.25.92-1.79.76-1.01,1.65-2.2,1.57-3.44-.46-.29-1.23-.49-1.59-.35-.43.17-.78.7-.88,1.21-.16.71-1.01.78-1.28,1.32l-1.11,2.16c-.18.37-.73.5-.69.92.04.37.37.67.74.86.79.41,1.05,1.26,2.04,1.62h-.01ZM120.85,39.52c.85,1.01,1.26,1.98,1.9,3.13.86-1.71.35-3.3-.17-4.9-.55-1.69-3.8-3.56-5.94-2.84-.87.29-2.24.36-2.62,1.5-.42,1.27,3.46,1.08,4.62,1.86l.71-1c1.02.27,1.59,1.12,1.52,2.25h-.01ZM105.32,40.37c0-.32-.11-.65-.58-.74s-1.51-.11-1.73.36c-.18.38.15.83.38.91.12.04,1.92.38,1.94-.53h-.01ZM95.22,40.89c-.29-.53-2.41.49-2.88,1.84-.16.46-.18,1.2.35,1.61.52-3.51,3.2-2.24,2.53-3.46h0ZM109.45,44.02c.36.11.83-.6.83-.97,0-.47-.31-.8-.76-1.09-.5-.32-1.67-.26-1.57.52.06.55,1.01,1.16,1.5,1.54ZM121.82,47.38c.51-1.37.15-3.01-.25-4.21-.29-.85-4.58-1.83-5.24.49,1,1.04,2.41,1.94,3.17,3.26.41.71,1.95,1.46,2.31.45h.01ZM110.81,51.99c-.46-.63-1.04-.77-1.61-1.14-1.45-.97-2.72-2.03-4.33-2.78-.57-.27-.57-1.24-1.25-1.47-.72.26-1.53.46-2.24.08-.76-.41-2.71-.42-5.11-1.31-.57-.22-1.82-1.25-2.25-.32-.46,1,.97,1.73,1.87,1.95,1.55.39,3.23-.33,4.68.3l3.54,1.54c1.49.65,3.15,1.12,4.22,2.43.72.87,2.51,3.97,4.57,2.38.3-.24.59-.33.4-.66-.5-.83-2.01-.36-2.49-1h.01ZM114.19,54.22c1.32-.41,1.68-1.5,1.68-2.55,0-.82-.12-2.01-1.24-2.3.57,1.93.38,3.3-.44,4.84ZM79.88,85.52c0-.28-.23-.5-.5-.5s-.5.23-.5.5.23.5.5.5.5-.23.5-.5ZM71.88,86.49c0-.09-.06-.15-.15-.15s-.15.06-.15.15.06.15.15.15.15-.06.15-.15ZM65.01,88.72c-.12-.55-.83-.18-1.11.08-.5-.33-.56-.9-1.22-1.02-.9,1.42-1.06,3.19-.58,4.8.69-.22,1-.63,1.46-.39.49.25.66.58,1.19,1.13.17-1.53.61-2.94.26-4.58h.01ZM81.58,91.72c.79-.01,1.4-.59,1.07-1.23-.14-.27-.81.1-1.06.28-.23.16-.58.96-.01.95ZM87.23,92.49c-.7-.76-2.05.23-2.56,1,.28.59,1.27.6,1.73.42.4-.16,1.21-.88.83-1.42ZM90.25,93.94c.28-.57-.32-.94-.64-1.06-.39-.14-1.06-.26-1.38.19-.29.41-.68,1.24-.45,1.74s1.16.47,1.59.26c.3-.15.61-.58.9-1.14h-.01ZM102.96,109.43c.71-.43,1.04-1.01,1.09-1.88-.66.25-1.5.94-1.09,1.88ZM102.19,116.56c.35-.49.02-1.05-.18-1.24-.51-.5-2.76-.23-2.71.5.13,1.21,2.18,1.77,2.9.76h-.01ZM100.49,118.14l-1.82-.94c-.5.74-.12,1.54.66,1.8.49.16,1.45-.37,1.16-.86Z"/>
  <path class="st2" d="M112.93,11.54c.05.14-.08.49.14.51s.3-.03.37-.14c.08-.13.1-.25.02-.37,1.08.01,2.04.58,3.2.98s2.16,1.42,3.26,2.09c.39.24.31.99.78,1.14.5.16.92.26,1.07.69.31.92,1.37,1.31,2.21,1.69.25.12.41.51.73.52.2.29.58.59.71,1.01.46,1.5,1.54,2.55,2.27,3.87l1.7,3.15c.7,1.31.96,2.84,1.53,4.18-.04,1.89-.02,3.44,1.35,4.27-.01.14.06.29.06.43-.12.1-.22.23-.24.38-.02.18.27.27.28.38.02.19,0,.46-.01.67l-.05.9c-.01.25.14.43.52.38,0,.15,0,.36-.06.51-.35.92-.31,2.09.08,2.98v.87c-.41.74-.45,1.86.01,2.56-.09.25,0,.61-.04.87-.12,0-.2-.08-.36.05-.1.09-.14.18-.08.32.03.09.26.15.26.24,0,.2-.02.47-.03.69-.09,1.06-.39,2.08-.26,3.14-.27.61-.28,1.29-.28,1.95-.12-.1-.26-.08-.32.04-.05.09-.17.3-.13.45.32,1.04-.92,3.9-.81,5.1.04.52,1.08.97.8,1.87-.19.63.17,1.23.42,1.78.66,1.51-.47,3.53.73,3.12.16,1.45.09,2.91.09,4.37-.17.01-.4-.05-.6.01-.23.09-.09.38-.09.54.01.37-.04.73-.05,1.1-.22-.16-.41.1-.46.24-.08.22,0,.44.02.63.1.81-1.54,6.54-2.02,7.53-.98-.1-1.27,1.12-1.29,1.96l-.22.26c-.38.47-.56,1.09-.98,1.65-1.69,2.28.13,1.94-2.11,6.65-.17.37.37,1.07.02,1.47-1.39,1.6-1.83-.59-3.81.83-.41.05-.8-.26-1.16-.31.09-.42-.65-.79-.82-.7-.29.15-.11.54-.16.72-.02.1-.17.26-.12.37-.3-.06-.57-.22-.84-.35-.08-.04-.18-.02-.26-.05-.11-1.11.22-2.28.36-3.43.1-.77-.09-1.41.4-2.2.24-.39.35-1.33-.14-1.37-.2.26-.4,1.11-.77.82-1.52-1.23,2.27-6.34.74-6.39-.3,0-.79.11-.9.55-.32,1.22-.71,2.36-.97,3.62-.78,3.72-.53,7.56.37,11.33,1.2,5.06,6.36,8.67,5.93,7.51-.03-.08-.09-.22-.06-.55.79.54,5.52,1.25,5.54,1.29.05.1.02.26.01.37-3.26.16-2.18.58-6.63.29-1.83-.12-3.67-.03-5.29-1.11l-.8,1.55c-.72-.58.45-1.55-1.05-2.92-.24-.22-.44-.58-.39-.86.02-.13,2.58-1.56,3.49-1.68-1.14-2.75-1.96-5.32-2.05-8.25,0-.2-.14-.39-.22-.45s-.47-.12-.57,0c-.24.31-.02.85-.5,1.23-.53-.74-.52-1.49-.7-2.35-.68.58.08,1.42-.37,2-.23.3-1.87,2.27-2.08,2.38-.36.19-1.31-.76-1.68-.85-.22-.05-.63.47-.53.74.27.76.98,1.22,1.71,1.62-.25.39-.53.49-.83.68-.39-.6-1.02-1.41-1.86-1.51-.42-.04-1,.5-1.19.99.85-.04,1.61.4,1.88,1.09-.43.55-.57,2.97-.98,1.4.26-.31.38-.53.29-.73-.05-.14-.44-.14-.55-.32-.35-.64-.51-1.55-1.24-1.9-.59-.28-1.68.42-1.29.87.17.19.71,0,.78.11s-.19.35-.14.53c.19.6.88.43,1.43.7-.52.35-1.07,0-1.78.11-.47-.88-1.14-1.46-2.19-1.76-.05.45-.52.58-.46.95.27.03.6-.25.68-.02.05.14-.13.49-.18.83-.8-.02-1.66-.25-2.45.19.22.23.36.33.52.4.12.04.06.52-.05.47-1.14-.5-2.1-.16-3.21-.17s-2.27-.91-3.52-.64c-.23-.78-.53-1.23-.56-1.94.92-.59,2.37-.29,2.9.7.13.24-.55.92.03.93.19,0,.19-.39.27-.5.4-.55,1.94,1.15,2.78,0,.19-.28.18-.67.37-.76,1.53-.72.56.84,3.12-.92.33-.23,1.18.2,1.4-.16s.97-1.22.4-1.48c-.66-.3-1.2-.6-1.77-.98-.96-.64-2.29-.38-3.33-.65-.45-.12,0-.69-.11-.87-.72-1.34-.83-2.69-.41-4.15.17-.59-.44-1.25-.22-1.8.2-.5.65-.92.57-1.45-.06-.46-.53-.9-1.13-1.31.15-1.32,2.32-2.77,2.28-4.11-.03-.9.57-1.18.95-1.83s.3-3.03.37-4.18c.09-1.48.77-1.88,1.9-2.43,1.6-.78,4.23-2.16,6.17-2.43,1.12-.16,4-1.65,5.2-2.3,2.35-1.27,3.66-3.48,4.85-5.76.81-1.53,1.37-4.85,2.65-7.16,1-1.79,1.8-3.57,1.67-5.72-.06-1.09.6-2.16.6-3.26.01-2-.22-4.14-1.06-5.96-.46-1-5.67-4.06-6.87-4.66-.33-.16.04-.9.25-1.09.76-.71,2.71.77,3.6.52.42.67,1.34,1.09,1.91,1.52-.01.39.61.57.78.83.37.6.37,1.38.82,1.98,1.24,1.69.7,3.92,1.46,3.75.42-.1.32-.42.38-.74.78-4.11,0-9.14-1.41-13.05-.77-2.11-1.54-2.3-2.99-4.36-.84-1.2-1.9-2.23-2.46-3.66-.59-.13-1.12.37-1.63.18-1.57-.59-3.15-.28-4.75-.51-3.41-.5-4.95.23-6.97,1.69l-2.53,1.84c-.28.2-.58.52-.55.81.14,1.31,1.69.53,3.66,3.34.13.19.54.28.28.63-.42.55-3.88-.9-4.88-1.14-.82-.2-2.41.02-2.34.96.1,1.4,3.23,1.45,4.92,4.3.51.86,2.92.92,2.74,1.96-.1.54-2.36,1.24-2.71,1.08-1.98-.94-.82-1.98-3.07-3.18-1.49,1.45-2.45,0-2.87.55-1.11,1.43-2.24,1.31-3.8,1.59-1.69.31-3.42,1.84-4.51,3.26-1.96,2.52-3.61,5.21-5.22,7.97-1.7,2.93-1.88,6.23-1.39,9.47.25,1.64,1.19,2.82,2.07,4.11.32.47.44.92.91,1.34.73.66.74,2.02,1.35,2.77,1.39,1.74,2.01,4.62,1.15,7.03-.15.42.28,1.32-.2,1.59l-1.19.65c-.26.14.05.76-.12.99-.22.29-1.43.2-1.61.6-.13.3.95,1.06.51,1.55-.65.72-2.07-.8-2.57.73s-2.12,1.56-2.48,2.37c-.18.41.35.87.23,1.27-.16.53-.77,1.16-1.25,1.4-.36.17-.83-.23-1.07.06-.19.24-.46.43-.53.82-.25,1.57-2.57,1.7-2.65,2.98l-.19,2.8c-.03.54-.24.99.02,1.45.16.28.69.37.95.68.46.55.69,1.05,1.53,1.19.43.08,1.4.57,1.25,1.13-.36,1.37-3.42.39-3.62-.17-.22-.6-.49-.92-1.2-1.31l1.86-.17-1.59-1.1c-.58-.41-1.33-.27-1.74-.98-.25-.43-.8-.41-1.23-.2-.24-.47.16-1.19-.2-1.49-1.4-.73-.22-2.16-1.75-1.42.86-4.5,5.91-7.32,7.8-11.98.13-.31-.05-.74-.3-.68-.13.03-.47.19-.73.06.2-1.66,1.46-3.05,2.17-4.57.81-1.71,1.01-3.71,1.12-5.65.02-.43-1.06-.36-1.09,0-.2,2.11.12,3.21-1.68,3.76.05,2.34-.92,4.39-2.43,6.08-.44.5-.47,1.31-1.27,1.48-.14-.24-.25-.54-.47-.8-1.02.84-1.83,1.84-2.44,3.05-.33-.31-.49-.61-.76-.45-.18.12-.33.51-.61.57-.51.12-.45-.66-.36-.99s.56-.28.86-.53c.32-.27.25-.84-.14-1.19-.44.64-1.36.71-1.68,1.27-.94,1.62-.65,4.7-2.55,4.38-.24-.03-.17-.68-.24-.88.04-.44.13-.87.32-1.27.44-.05.93-.22.96-.61.03-.46.05-.88-.29-1.11.12-.35.1-.95.5-1.19.39,0,.67-.24.97-.59l2.58-2.97c-.35.4,1.28-3.72,2.49-4.27-.63-.54-.69.14-1.19.42.01-1.16.67-2.07,1.06-3.11l1.35-3.62c.23-.61-.06-1.31.36-1.92.97.6.14,1.96.78,2.64.16.17.44.14.47,0,.43-1.91-1.43-1.33,1.22-10.55.06-.2-.59-.66-.43-.9.09-.13.14-.47.41-.37-.24.68.27.96.37.31-.23-.36-.41-.9-.28-.95l.81-.31c.29-1.57.97-3.01,2.43-4.07.27.79-.3,1.37-.55,2.05l-1.77,4.9c1.53,2-1.49,2.34,1.18,2.96l.92-3.85c.82-3.44,1.49-5.2,3.93-7.86.86-.94,1.56-2.19,2.38-3.26.42-.55.42-1.37.99-1.96.69-.71,1.49-1.26,2.02-2.21-1.25-.09-1.71,1.42-4.14,3.03-.23.15-.29.51-.55.56-.22.04-.44-.05-.86-.23-.18,1.19-3.65,5.02-4.34,5.46-.55.36-1.02.67-1.42,1.29-.5-.35-.02-.71-.09-1.02-.14-.69-.43-1.16-.12-1.7.2-.36.11-.91-.05-1.24-.01-.06.02-.15,0-.22.22.18.36-.06.39-.22s0-.27.02-.39c.02-.15.04-.3.08-.45.96-.46,1.13-1.75,1.37-2.67.35-1.35,3.11-5.8,4.01-6.86.52-.6,1.16-1.06,1.46-1.75.52.06.49-.44.69-.71,1.23-1.68,2.72-3.31,4.43-4.5.92-.06,1.41-.94,2.16-1.49.79-.57,5.95-3.9,6.03-3.92,1.07-.22,1.7-.66,2.57-1.24.5-.33,5.53-1.63,5.2-2.07.23.04.49-.1.72-.08-.15.57,3.73-.14,3.72-.1.05-.12-.02-.29-.02-.39.55,0,1.26,0,1.74.27v-.05Z"/>
  <path class="st4" d="M67.51,71.67v-.26c.4-.04.58-.44.49-.8s.28-.65.31-.96c.17-.02.45-.11.57-.37,1.02-2.49,3.07-4.5,2.77-5.95l.58-1.91c.79.35,1.42-2.92,1.21-3.55-.09-.26.12-.61.05-.88.19.16.38-.05.41-.2s0-.27,0-.39l.03-2.61c.55,0,.79-.41.77-.91-.01-.39.04-.81-.27-1.09l-.04-.51c1.31.29.19-2.96,2.11-5.75.1-.15.45-.14.55-.26.26-.3-.61-.36-.6-.52.08-1.06.65-2.03.61-3.04,0-.16.04-.32.09-.47.57,0,.84-1.29,1.32-1.66-.32.54-.02,1.02.12,1.7.06.31-.41.68.09,1.02.39-.63.87-.94,1.42-1.29.69-.45,4.15-4.27,4.34-5.46.42.17.65.27.86.23.26-.04.32-.41.55-.56,2.44-1.61,2.89-3.13,4.14-3.03-.53.96-1.33,1.51-2.02,2.21-.58.59-.57,1.41-.99,1.96-.82,1.07-1.52,2.32-2.38,3.26-2.44,2.66-3.11,4.42-3.93,7.86l-.92,3.85c-2.66-.61.36-.96-1.18-2.96l1.77-4.9c.25-.69.82-1.26.55-2.05-1.45,1.06-2.14,2.49-2.43,4.07l-.81.31c-.13.05.04.59.28.95-.09.65-.59.37-.37-.31-.26-.1-.31.24-.41.37-.16.24.5.68.43.9-2.65,9.22-.79,8.64-1.22,10.55-.03.15-.31.17-.47,0-.64-.68.19-2.04-.78-2.64-.42.61-.13,1.29-.36,1.92l-1.35,3.62c-.39,1.05-1.05,1.95-1.06,3.11.5-.28.55-.95,1.19-.42-1.21.55-2.85,4.67-2.49,4.27l-2.58,2.97c-.3.35-.58.59-.97.59h0ZM75.16,51.9c0-.06-.05-.12-.12-.12s-.12.05-.12.12.05.12.12.12.12-.05.12-.12Z"/>
  <path class="st1" d="M132.04,31.95c-.27-2.51-2.47-8.5-5.23-11.2-2.29-2.23-.88-1.1-1.42-1.93-.16-.25-.44-.14-.69-.15-.32-.01-.49-.41-.73-.52.27-.54-.44-.61-.68-.94-.44-.59-.83-.97-1.52-.76-.15-.43-.57-.52-1.07-.69-.46-.15-.39-.91-.78-1.14-1.1-.67-2.07-1.68-3.26-2.09s-2.14-.97-3.2-.98h-.52c-.47-.27-1.19-.28-1.74-.27-1.25.02-2.52.14-3.7.5-.24-.02-.5.12-.72.08-.58-.11-1.14.15-1.74.17-.12-.14-.02-.22.05-.3.58-.66,7.64-1.35,10.39-.4l1.81.63c3.35,1.16,4.08,3.79,8.28,5.12,1.07,2.36,2.9,3.04,4.24,5.78.67,1.36,1.64,2.62,1.71,4.18.06,1.47.19,2.83.74,4.24.1.26.02.71-.23.68h-.01Z"/>
  <path class="st4" d="M132.04,31.95l.28,2.62-.06.59c-1.37-.83-1.39-2.38-1.35-4.27-.57-1.35-.83-2.88-1.53-4.18l-1.7-3.15c-.71-1.33-1.8-2.37-2.27-3.87-.13-.42-.5-.72-.71-1.01.25.01.53-.1.69.15.54.83-.86-.31,1.42,1.93,2.76,2.7,4.96,8.69,5.23,11.2Z"/>
  <path class="st4" d="M106.78,11.84c.33.45-4.7,1.74-5.2,2.07-.86.58-1.5,1.02-2.57,1.24-.06.01-5.23,3.34-6.03,3.92-.74.54-1.24,1.41-2.16,1.49.05-.16.09-.44.3-.63,2.73-2.23,5.46-4.38,8.53-5.92.13-.06.36,0,.52-.15.09-.09.19-.15.05-.3,1.12-.1,2-.87,3.1-1.05.46-.08.99-.11,1.32-.47h.4c.58-.04,1.14-.3,1.74-.19h0Z"/>
  <path class="st1" d="M77.06,41.71c.03,1.01-.54,2-.61,3.04-.01.16.86.22.6.52-.1.12-.45.11-.55.26-1.92,2.79-.82,6.05-2.11,5.75-.09-.97.36-1.88.59-2.89l1.36-5.67c.08-.3.16-.61.17-.94l.55-.08h0Z"/>
  <path class="st1" d="M71.65,63.32c.3,1.46-1.74,3.46-2.77,5.95-.11.27-.4.36-.57.37.1-1.11.67-2.06,1.31-3.04.72-1.1,1.01-2.55,2.03-3.29h.01Z"/>
  <path class="st2" d="M49.2,87.62c.28,1.61-1.24.51-1.38,2.39-.55-.12-.63-.69-.65-1.08-.06-.98.98-1.18,1.52-1.6.12.12.37.16.52.28h-.01Z"/>
  <path class="st1" d="M133.3,48.3c.15.22-.14.71-.04.98-.2-.17-.36.06-.4.22s-.04.26-.04.38l-.02.65h-.46c-.13-1.06.18-2.08.26-3.14.46-.06.44.57.71.92h0Z"/>
  <path class="st1" d="M133.15,43.42c.03-.28-.12-.6-.33-.78v-.87l.46-1.82c.43.9.54,3.63-.14,3.46h.01Z"/>
  <path class="st1" d="M78.46,39.56c-.46.37-.73,1.66-1.32,1.66l.67-2.45c.02-.09.02-.18.03-.27l.55-.18c.17.33.27.9.05,1.24h.01Z"/>
  <path class="st4" d="M133.07,38.8c.22.32.05.85.22,1.16l-.46,1.82c-.38-.9-.42-2.06-.08-2.98h.32Z"/>
  <path class="st1" d="M72.23,61.41c.36-1.18.76-2.41,1.21-3.55.22.63-.42,3.89-1.21,3.55Z"/>
  <path class="st1" d="M80.25,34.37c-.24.93-.4,2.21-1.37,2.67.19-.96.5-2.16,1.37-2.67Z"/>
  <path class="st4" d="M66.36,74.58l-.04-.24c.3-.3.03-1.35.7-1.49.35.22.32.65.29,1.11-.03.41-.51.57-.96.61h.01Z"/>
  <path class="st4" d="M133.15,43.42c-.08.61.01,1.25-.31,1.78-.47-.7-.42-1.81-.01-2.56.2.17.37.5.33.78h-.01Z"/>
  <path class="st1" d="M73.92,53.78c0-.69.08-1.42.5-2,.31.28.26.7.27,1.09.02.5-.22.9-.77.91Z"/>
  <path class="st1" d="M66.32,74.35l.04.24c-.19.4-.28.83-.32,1.27-.2-.04-.41-.05-.61-.06.18-.64.43-1,.9-1.45Z"/>
  <path class="st4" d="M132.81,37.05v1.24c-.38.06-.54-.13-.52-.38l.05-.9.46.03Z"/>
  <path class="st1" d="M104.65,12.04c-.32.37-.85.41-1.32.47-.11-.37.28-.45.59-.56.22-.08.52-.15.73.09h-.01Z"/>
  <path class="st1" d="M132.81,37.05l-.46-.03c.01-.2.03-.47.01-.67l.28-.05c.13.09.36.2.3.37l-.13.38h0Z"/>
  <path class="st1" d="M132.57,35.59h-.25c0-.14-.09-.29-.06-.43l.06-.59c.24.02.47.14.51.41.03.23-.09.45-.27.61h.01Z"/>
  <path class="st4" d="M86.4,25.05c-.19.27-.17.79-.69.71.14-.33.22-.71.69-.71Z"/>
  <path class="st4" d="M132.57,35.59l.09.71-.28.05c-.01-.12-.3-.19-.28-.38.02-.15.11-.28.24-.38h.25-.01Z"/>
  <path class="st1" d="M68,70.61c.1.36-.09.76-.47.8,0-.17,0-.36.08-.57.04-.13.17-.41.4-.23Z"/>
  <path class="st1" d="M133.07,38.8h-.32c.05-.14.06-.35.06-.51.13-.02.37-.05.5.13.09.13-.18.29-.23.38h-.01Z"/>
  <path class="st1" d="M132.83,46.67c.01-.19-.08-.4-.04-.59.13,0,.24-.08.39.05.08.06.18.15.13.37-.04.15-.29.15-.47.17Z"/>
  <path class="st1" d="M78.82,37.49c-.01.12.02.24-.02.39s-.18.4-.39.22c-.04-.17-.08-.38.09-.55.09-.09.19-.16.32-.06h0Z"/>
  <path class="st4" d="M132.79,46.08c-.03.19.05.4.04.59-.05.11-.13.1-.22.01,0-.09-.23-.15-.26-.24-.06-.14-.02-.24.08-.32.15-.13.23-.04.36-.05h0Z"/>
  <path class="st1" d="M73.89,56.39c0,.11.04.24,0,.39-.04.16-.22.37-.41.2-.04-.16-.02-.37.1-.54.08-.11.18-.18.31-.05Z"/>
  <path class="st1" d="M100.24,13.56c.14.14.03.22-.05.3-.16.16-.38.08-.52.15-.13-.18.02-.39.18-.45.13-.05.28.01.39,0Z"/>
  <path class="st4" d="M153.44,144.18c-.25.05-.19.2-.03.3.47.92,1.47,1.02,2.18,1.55s4.06,3.14,4.74,2.17c1.63.4,2.64,1.81,3.96,2.84.66.52.94,1.56.73,2.1-.08.22-.24.69-.29,1l2.43,13.68c.55,3.12,1.65,6.12,1.45,9.3l-.45,6.92-.03.39c-.18.11-.23.33-.51.56l-32.07-.06-1.64-1c-.55-.33-.99-.76-1.59-.65.16-.35.09-.98-.23-1.34-.49.28-.51.77-.95.82.02-2.05-4.02-1.86-2.38-5.18,1.01-.59,1.83.38,2.73.84l3.52,1.83c5.37,2.79,5.7,1.27,9.38,3.01.19.1.57,0,.65-.12.35-.51-2.21-1.87-2.47-1.91-1.63-.27-2.83-.98-4.24-1.65-.93-.44-3.97-.22-7.25-2.25-.76-.47-1.76-.78-2.39-.19-1.88-.57-5.31-.43-5.89-2.61-.24-.9.19-1.57.5-2.29l7.08.73c.52.05,1.02.03,1.29-.58-1.67-1.31-6.36-1.48-8.19-1.16.02-.63-.6-.67-1.15-.8-.99-.23-1.11-1.15-1.05-2,.12-1.6,2.83-1.93,3.73-1.88,1.83.11,3.66.28,5.57.22l1.61-.05c1.89-.06,3.82.55,5.79.65,1.26.06,2.38.98,3.43,1.21-.04.24-.32.65-.22.87.56,1.14,1.82.82,2.69,1.22,3.16,1.46,4.3,1.33,6.15,2.97.73.65-.37,1.13-.59,1.94,1.26-.13,1.47-1.57,1.4-2.62.69.26,1.24-.6,1.83-.66.87-.08,1.41-.28,2.12-.57,2.29-.94,4.67-.36,7.29-.51-.66-1.12-1.87-1.78-3-2.21-1.97-.74-3.35-1.91-4.84-3.27-2.42-2.21-1.63-1.09-2.69-5.31,1.7-.23-1.46-2.88-1.48-6.35,0-1.73-.57-3.8-1.24-5.44-.51-1.24-.41-2.78-.64-4.1-.1-.56.37-1.1.61-1.36.58-.63,1.97.83,2.59-.38.57.5,1.66.58,2.01,1.38h.04ZM143.91,175.1c-1.06-.4-1.87-.67-2.63-1.31-1.02-.26-1.9-.97-2.94-1.16-1.83-.33-3.63-.51-5.55-.58-.3-.01-.32,1.07,0,1.18,1.86.64,3.69.83,5.63.98.51.08,5.67,2.07,5.49.9h.01Z"/>
  <path class="st1" d="M151.41,102.12c.13.92.55,1.79.91,2.74l1.32,3.62c-.14.38-.78.29-1.05.59-1.53,1.65-1.94.19-1.84,1.62.01.19.54.37.57.56-.02.71-.18,1.33.26,1.88.67.84,2.41.74,2.78.3.25-.29-.16-.77.28-1.15.45.46.4,1.15.95,1.11l.08.9c-.54-.04.44,2.65.69,2.06.1.44.04.99.03,1.42-.73.24-1.52.81-2.44.41-1.68-.73-1.75-2.63-2.33-2.92-.39-.19-.81-.37-1.29-.1-.88.5-1.49,1.8-.92,2.72.46.74,1.42,1.07,1.9,1.76.33.49.03,1.23.31,1.74.72,1.31,1.36,2.58,1.81,4,.26.83.86,1.39,1.57,1.86l.24,1.53c1.62-.03,2.36,1.74,3.37,1.15-.09-.97-1.06-1.24-1.31-1.92s-.15-1.42-.79-2.16c.78-.25,1.25-.47,1.8-.72.47,1.88.66,4.01,1.4,5.84.56,1.37,2.39,2.9.84,4.24-.12-.19-.03-.51-.32-.79-2.88,3.25-3.97,3.31-8.13,3.75-.15-.58-.16-1.09-.57-1.24-.08-1.53.52-3.03.65-4.64l.33-3.92c-1.28-.37-2.55.3-3.73-.13-1.39-.51-.2-3.18-.76-3.66-.69-.6-1.04.98-2.21,1.09-.5-.08-1.18-.22-1.45-.78-.13-.26.2-.6.17-.88-1.18-.78-.31-1.25-.87-1.92-.12-.15-.59.17-.78.04-1.24-.9-.6-3.28-1.47-2.88-.2-.56-.22-1.06-.28-1.65,0-.01-.69-4.89-1.14-4.02l-.08-.88c0-.11.02-.23-.02-.38-.03-.13-.17-.37-.38-.23-.25-1.01-.26-2.05-.29-3.08.33.16.45-.15.5-.41.06-.38-.35-.32-.52-.44-.49-.87-.95-1.81-1.01-2.83,0-.11.03-.24-.02-.38-.05-.15-.23-.36-.42-.2.02-.2-.1-.43-.05-.64.23-1.13-.1-2.14-.72-3.21-.23-.39-.18-1.06-.72-1.01.01-.08-.01-.16-.01-.25.08-3.39-.84-2.79-.52-3.88.06-.22.3-.38.29-.65,0-.25-.17-.56-.47-.61v-1.69c1.81.02,2.75,2.76,2.78,3.41.05,1.07-.27,2.12-.02,3.19.43,1.87,1.07,3.65,1.88,5.36.64,1.35,1,2.66,1.46,3.96-.32.08-.8.09-1.05.3-.42.37.1.85.23,1.27l.93,3.03c.1.31.47.3.77.28.27-.02.56-.18.71-.49l1.29,1.34-.25-3.72c-.11-1.6-2.27-5.94-1.55-7.32.98-1.9.02-2.98-.91-4.88-.33-.69-.47-1.41-.82-2.16l-1.32-2.84c.39.18,1.42-.04,1.2-.76-.18-.59-1.52-1.43-2.02-1.14-.63.7.57,1.35.83,1.9l-3.88-1.79c-.08-.6-.67-.93-1.25-.96,0-.11-.05-.27,0-.33.06-.08.32-.17.45-.1,1.36.73,2.72-1.57,8.22,1.86,3.96,2.47,4,2.38,6.44,6.78,1.23,2.21.98,2.82,1.76,3.17v-.04ZM160.53,133.35c0-.06-.05-.12-.12-.12s-.12.05-.12.12.05.12.12.12.12-.05.12-.12Z"/>
  <path class="st1" d="M164.99,153.15c.2-.54-.08-1.6-.73-2.1-1.31-1.02-2.33-2.44-3.96-2.84-.22-.95-.8-1.97-1.88-2.33l-5-1.69c-.35-.8-1.43-.88-2.01-1.38-.61-.54-1.09-1.47-.99-2.21.27.02.28-.31.29-.51l.24-.28c.51-.08,1.14.03,1.45-.44l.71-.03c.27-.01.73.12.83-.22.13.02.3-.09.43-.05.9.25,1.64-.36,2.51-.65,1.46-.47,2.35-1.56,3.4-2.48.37.8.25,1.73.5,2.65l1.21,4.62c.65,2.46,1.37,4.75,2.66,6.94.43.72,1.35,3.21.32,3h.02Z"/>
  <path class="st3" d="M156.36,117.76c1.05,2.32,1.31,4.9,1.92,7.33-.55.25-1.02.47-1.8.72.65.73.53,1.46.79,2.16s1.22.95,1.31,1.92c-1,.58-1.75-1.19-3.37-1.15l-.24-1.53c-.7-.46-1.31-1.02-1.57-1.86-.45-1.42-1.09-2.69-1.81-4-.28-.51.02-1.24-.31-1.74-.47-.69-1.43-1.01-1.9-1.76-.57-.93.04-2.23.92-2.72.49-.27.92-.09,1.29.1.58.29.65,2.19,2.33,2.92.92.4,1.7-.18,2.44-.41h.01Z"/>
  <path class="st3" d="M155.57,113.39c-.55.04-.5-.64-.95-1.11-.44.39-.03.86-.28,1.15-.39.44-2.12.54-2.78-.3-.44-.56-.28-1.18-.26-1.88-.03-.19-.56-.37-.57-.56-.09-1.43.31.03,1.84-1.62.28-.29.91-.22,1.05-.59l1.27,2.9c.3.69.63,1.32.68,2.02h0Z"/>
  <path class="st4" d="M160.53,135.17c-.14.18-.11.56-.23.77-1.06.92-1.95,2.01-3.4,2.48-.88.29-1.62.9-2.51.65.02-.27-.02-.58-.2-.66-.39-.16-1.54-.2-1.93.18-.17.16-.01.53.17.78-.31.47-.94.36-1.45.44-.25-1-.02-2.05.53-2.91.41.16.42.67.57,1.24,4.16-.44,5.25-.52,8.13-3.75.29.28.2.59.32.79h-.01Z"/>
  <path class="st4" d="M132.04,52.47c0,.28.05.56.06.84l.27,5.31c.01.24-.01.5-.03.73-.02.54-.17,1.14.24,1.56l.05.69-.02.44c-.01.25-.1.53-.04.79.14.66.09,1.34.16,2.01-1.21.42-.08-1.61-.73-3.12-.24-.55-.6-1.14-.42-1.78.28-.91-.76-1.36-.8-1.87-.11-1.2,1.14-4.07.81-5.1-.05-.15.08-.37.13-.45.06-.11.2-.14.32-.04h0Z"/>
  <path class="st1" d="M132.81,69.69v.31c.1.88-.25,1.71-.26,2.59-.59-.09-.37.99-1.2,2.96-.33.8-1.52,5.07-1.69,4.25l-.04-.56c.47-1,2.11-6.72,2.02-7.53.24.18.37-.1.41-.24.08-.25.02-.44.03-.63.02-.37.06-.73.05-1.1l.68-.05Z"/>
  <path class="st3" d="M132.81,70c-.01-.11,0-.2,0-.31v-.49c0-1.46.08-2.92-.09-4.37-.08-.67-.02-1.35-.16-2.01.17.02.45.04.49-.13.03-.24.06-.46-.11-.6-.1-.09-.19-.17-.33-.04l.02-.44c.23,0,.5.02.65.18.16.17.3.47.23.78-.68,2.76.4,7.79-.69,7.44h0Z"/>
  <path class="st3" d="M132.79,50.51c.54.05-.08,3.76-.69,2.8-.01-.28-.06-.56-.06-.84,0-.66.02-1.34.28-1.95h.47Z"/>
  <path class="st3" d="M156.33,116.35c-.25.59-1.22-2.1-.69-2.06.42.59.53,1.36.69,2.06Z"/>
  <path class="st1" d="M132.79,59.36c-.03.49.22,1.2-.22,1.54-.41-.42-.26-1.02-.24-1.56h.45v.02Z"/>
  <path class="st3" d="M132.79,59.36h-.45c.01-.25.04-.51.03-.74.18,0,.51-.1.67.16.1.15-.24.42-.25.58Z"/>
  <path class="st3" d="M133.26,49.28c.06.16.05.39-.11.54-.1.09-.22.16-.33.04,0-.12,0-.24.04-.38s.19-.39.4-.22h0Z"/>
  <path class="st0" d="M132.08,154.31c.39,2.08-.29,4.31-.05,6.42-1.96.85-7.17.65-7.64,3.14-.13.71.12,1.76.85,1.96.09.19.3.25.47.41-.36.16-.56.14-.7.31-.91-.05-3.61.28-3.73,1.88-.06.84.04,1.78,1.05,2,.55.12,1.18.17,1.15.8-.25.02-.47.11-.44.37.03.23.17.45.25.65-.29.71-.73,1.39-.5,2.29.58,2.18,4.01,2.04,5.89,2.61.03.15.06.29.08.44-1.64,3.32,2.41,3.13,2.38,5.18l-.02.46c-.58.55-.04,1.05-.04,1.06.05.19-.04.43,0,.64l-49.95.05-2.04-.05h-16.44l.02-3.08c.35-.09.19-.53.22-.79.13-1.47-.2-2.99.24-4.4.2-.08.16-.19-.03-.25l.11-4.86c.11.11.2.05.33-.04.11-.08.16-.17.08-.3-.04-.08-.14-.16-.24-.23.13-1.35-.17-2.83.27-4.13.28-.84.54-1.9.03-2.73,0-.63,0-1.26.05-1.89.68.39.43-1.97.17-1.56l.05-2.37c.12.1.25.03.3-.05.05-.11.23-.28.19-.47-.26-1.77.09-3.42.13-5.14.04-1.46,0-2.75.17-4.2.1-.8.28-1.66.32-2.45.11-1.93-.09-3.7.28-5.63.13-.66-.3-1.6.47-2.01.72-.37,1.64-.05,2.48-.04l12.59.19,9.64.22,10.54.26,9.31.24c3.98.11,8.51.35,12.38.36l8.32.02c.41,0,.82.24,1,.41.22.19.36.71.3,1.11-.36,2.3-.18,4.56-.36,6.86s-.32,4.31.05,6.37h-.01Z"/>
  <path class="st4" d="M51.18,125.87c-.46.41-.82,1.79-1.93,1.37-.27-.1-.57-.47-.95-.42s-.33.5-.58.81c-.66.8-2.03.71-2.76,1.42-.05,2.37-4.13,1.4-6.2,3.02,1.15.43,2.5-.42,3.2.51.46.6.81,2.22.47,2.94-.64,1.4-1.2,2.51-1.12,4.11.02.38-.54.77-.49,1.15.1.85-.37,1.43-.59,2.12l-1.7,5.36-1.13,3.04c-.52,1.38-.71,2.56-2.08,3.4-.36.22-.81,1.19-1.48.7-.39-.29-.72-.7-1.38-.39.29-1.16.9-2,.77-3.3-1.39.19-.57,4.04-2.28,2.04-.14-.16-.66.12-.87.02-.65-1.16-1.02-2.7-2.51-3.14.36,1.04,1.36,2.16.55,3-.3.32-.96.47-.98,1.13-.45.02-1.19-.54-1.54.01.3.5.79.5,1.24.78l.24,2.1-1.28.67c.79.42,1.47.01,2.29.13.25.28.18.68.52.97.32-.04,1.25.04,1.16.52-.71,4.21-2.23,2.97-2.33,4.04-.05.65-.43,1.64-.27,2.28.13.52,2.42,3.76,3.06,3.21-.04.49.61,1.12,1.06,1.47,5.16,3.95,9.38,9.78,14.45,13.98l-39.74-.03c-.02-.31-.33-.35-.68-.51-3.29-1.56-2.03-4.91-2.37-6.26-.2-.78.13-1.13.23-1.81l1.26-8.86c.15-1.08.45-1.97.67-3.08l.43-2.21.53-2.35c.15-.66,1.95-7.98,1.93-7.91.4-1.05,2.28-6.45,2.05-6.95-.05-.12-.27-.16-.41-.19l-.02-.51c.6-1.34,1.05-2.82,1.91-4,1.06.65,2.74-1.14,3.93-1.7l2.17-1.04,2.46-.98c1.73-.69,6.1-1.92,7.83-2.21l3.17-.54c.43-.08.95-.08.95-.6,1.6-.85,3.47-.17,6.15-1.37-.5-.74,0-1.12.28-1.66.29-.58.17-1.4.81-1.63.5-.17,1.11-.22,1.66-.06,1.52.42,2.6-.87,3.76-1.35,2.01-.83,4.27-.98,6.18-2.11.36.29.26.65.33.87h-.01Z"/>
  <path class="st1" d="M6.01,184.9h-3.12c-.53-1.43-.99-2.84-1.28-4.34.04-.41.41-.99.26-1.45.29-.11.18-.56.19-.82.06-2.3.37-4.58.77-6.84l1.98-11.25c.12-.67.28-1.22.51-1.97,1.06-3.68,1.91-7.33,3.28-10.92.25-.65.44-1.24.39-1.86.32-.1.53-.39.65-.69.15.03.36.08.41.19.24.5-1.65,5.9-2.05,6.95.03-.08-1.78,7.25-1.93,7.91l-.53,2.35-.43,2.21c-.22,1.11-.52,2.02-.67,3.08l-1.26,8.86c-.1.67-.43,1.04-.23,1.81.36,1.35-.92,4.69,2.37,6.26.35.16.66.18.68.51h.01Z"/>
  <path class="st1" d="M63.93,158.28l-.05,2.37-.17,1.56c-.06.63-.05,1.25-.05,1.89l-.03,2.73c-.44,1.31-.14,2.77-.27,4.13-.25.02-.17.39-.17.57l-.11,4.86.03.25c-.44,1.4-.11,2.93-.24,4.4-.3.06-.22.54-.22.79l-.02,3.08c-1.18,0-2.46-.01-3.62,0l.46-1.19c.06-.17.08-.31.16-.4.06-.06.19-.08.3-.05.06.39-.09.69-.19,1.22l1.77-.41c-.18-.98.16-1.66.17-2.61,0-.29-.72-.17-.91-.17.01-.44.39-1.08.08-1.56-2.02-3.16-.52-4.85-1.23-6.74.32.2.4.65.79.79,0,.22.01.43.05.64-.37.61-.42,1.36-.24,2.15.56-.04,1.15.16,1.63-.02.76-1.57-.73-1.09-.63-2.05-.04-.45.84-.65.88-1.1l1.12-13.41c.06-.77.43-6.63.43-6.65.3-.99.28,5.3.29,4.97l-.02-.03Z"/>
  <path class="st2" d="M9.62,144.27l.02.51c-.13.3-.32.59-.65.69-.17-.04-.17-.37-.3-.43l-.35-1.41c-.41-1.68-1.16-3.51,0-4.99,0,2.09.22,4.03,1.27,5.64Z"/>
  <path class="st2" d="M135.53,184.94c-1.14,0-2.29.15-3.43-.02-.06-.58-.03-1.11.2-1.63.59-.11,1.05.31,1.59.65l1.64,1h0Z"/>
  <path class="st1" d="M132.3,183.27c-.24.52-.27,1.05-.2,1.63-.31-.05-.71,0-1.04,0-.04-.2.06-.44,0-.64.29,0,.29-.42.28-.63,0-.13,0-.45-.24-.43l.02-.46c.44-.05.46-.54.95-.82.32.36.39.99.23,1.34h0Z"/>
  <path class="st3" d="M2.07,178.3c0,.26.1.71-.19.82-.06-.18-.49-.35-.29-.64.11-.16.31-.32.49-.19h0Z"/>
  <circle class="st3" cx="4.52" cy="158.24" r=".27"/>
  <path class="st2" d="M135.77,91.71l3.88,1.79,1.32,2.84c.35.74.49,1.47.82,2.16.92,1.9,1.89,2.99.91,4.88-.71,1.38,1.45,5.74,1.55,7.32l.25,3.72-1.29-1.34c-.02-1.62-1.07-2.92-1.57-4.4-.44-1.29-.81-2.61-1.46-3.96-.81-1.71-1.45-3.49-1.88-5.36-.25-1.07.08-2.12.02-3.19-.03-.65-.97-3.39-2.77-3.41-.53,0-1.02.01-1.26.64,1.28.19.35.87,1.25,1.06.3.05.47.37.47.61,0,.27-.23.43-.29.65-1.1.13-.2,1.36-.16,3.13.01.45.33.76.68.77,0,.08.02.16.01.25-.11.58.04,1.21.42,1.78,1.01,1.57.18,2.64,1.02,2.45-.04.2.08.43.05.64-.02.17-.03.37.12.53.09.1.19.16.32.05.06,1,.53,1.95,1.01,2.83l.02.86c.03,1.04.04,2.07.29,3.08.03.15-.11.38.06.55.09.09.19.17.32.04l.08.88s.65,4.88,1.14,4.02c.06.59.06,1.09.28,1.65.54,1.46.02,3.05.29,4.66.06.37.85.45.74.9-.53,2.15-1.42,1.02-1.22,3.03.98-.85,4.11-1.2,4.58-2.17,1.16-.11,1.51-1.69,2.21-1.09.55.47-.63,3.15.76,3.66,1.19.43,2.45-.24,3.73.13l-.33,3.92c-.14,1.61-.73,3.11-.65,4.64-.56.86-.78,1.91-.53,2.91l-.24.28c-.15,0-.35,0-.47.15-.1.12.1.27.18.36-.1.74.38,1.67.99,2.21-.61,1.21-2.01-.25-2.59.38-.24.26-.71.8-.61,1.36.23,1.32.13,2.86.64,4.1.67,1.64,1.23,3.72,1.24,5.44.02,3.47,3.18,6.13,1.48,6.35,1.06,4.22.27,3.1,2.69,5.31,1.48,1.36,2.87,2.53,4.84,3.27,1.13.43,2.34,1.08,3,2.21-2.62.16-5-.43-7.29.51-.71.29-1.25.5-2.12.57-.6.05-1.14.92-1.83.66-.04-.78-1.8-.91-2.28-3.17.57-.18.36-1.07.45-1.48.32-1.41-.53-2.31-1.62-3.13-2.07-1.56-4.33-2.67-6.78-3.3.59-1.02-2.48-9.05-3.83-8.97-1.06-2.67,1.53-2.49.32-4.84-.43-.85.35-1.93.74-2.67.3-.57,0-1.19.2-1.78.85-2.5,1.55-5.02,1.59-7.69.02-1.5-.66-2.87-1.11-4.23-.4-1.18-.19-2.39-.4-3.6l-.5-2.98c-.24-1.45-1.34-3.02-.79-4.56.29-.8.45-1.16.25-2.1-.23-.99.19-2.09-.51-3.07-.17-.24.05-.64.14-.79.37-.01.69.15,1.01.29.15,1.8.32,1.86.47,3.89.03.51.82.06,1.08-.08.45-.25-.15-.94-.04-1.27.49-1.46.65-2.88-.35-4.08.16-.58-.18-1.59-.96-1.57s-1.52.11-2.24-.13l-.52-3.19c-.15-.91-.4-1.64-.61-2.64-.96.17.37,5.53.45,5.82.06.22-.08.49-.04.7l-.5-.02c-.51-3.24-1.13-3.04-1.27-4.63l-.22-2.42c-.02-.29.12-.59-.02-.99-.67.14-1.22.05-1.94-.02.04-.76.1-1.39-.03-2.2,1.33-.63,1.63-1.82,1.34-3.16-.08-.33.8-.8.32-1.23-.49.04-1.07.82-1.64.57-.47-.2-.69-1.19-.8-1.67-.08-.35.05-.82-.46-1.05-.66-.29-.45-.83-.55-1.31-.15-.72-.63-1.14.13-1.64,1.37-.9,1.66.76,2.51.83.23.02.41-.38.64-.42,1.14-.19,2.3-1.71,3.24-1.29v.03ZM137.22,107.8c-.3-.14-.98-.23-1.1.22-.23.8,1.29,2.07,1.73,1.84.38-.2-.16-1.86-.63-2.07h0Z"/>
  <path class="st2" d="M69.32,116.31c-.92,1.64-2.5.61-2.84,1.81-.2.73-.27,1.46-.69,2.05-.56.23-1.21.54-1.46,1.06-.24-.13-1.18,1.62-1.92,1-.37-.3-.55-.67-.98-.59-.15.03-.33-.08-.49-.05-.24-.39-.04-.86-.05-1.36,0-.83-.84-.85-1.47-.74-.83.14-.54.8-.68,1.47-.13.61-.7,1.22-.71,1.98v.65c0,.24.22.46.22.69-.01.51-1.19.58-.56,1.07.06,1.04.1,2.04.59,2.96l.52.97c-.77.77-.8,2.51-.87,3.44-1.38.09-.27-.44-2.12-1.82-.7.55-.79,1.34-.53,2,.2.51-.24,1.28.03,1.79-.84.67.51,2.44-.4,2.89-.19.1-.73-.23-.72-.55,0-1.1.26-2.39-.87-3.21-.69.69-.51,1.62-.32,2.44.29,1.32-.23,2.74,0,4.03.18,1.11-.03,1.46-.65,2.23-1.07,1.34,1.73,4.15-.13,4.44-1.59.25-.85-2.75-1.24-3.53-.92.32-.57,1.1-.63,1.81-.33,4.7,2,3.34,2.1,5.31,0,.19.37.33.5.26.74-.44.1-2.18.25-2.6.31-.86.64-1.56-.2-2.62.82-1.36,2.12,3.33,3.6,1.62.66-.77,1.09-1.59,2.18-2.03.46-.19-.03-1.12-.35-1.36-.9-.7-1.61-1.6-1.64-2.77-.01-.41.8-1.16,1.11-.95.43.29.76.49,1.1.66.28.14.46.67.92.56.09.14.1.52.41.46.17-.03.31-.17.43-.28h1.42c.6-.01,1.21-.04,2.03.03.15,1.86-.04,3.61-.08,5.36,0,.59-.43,1.18-.17,1.79.05.12-.01.31-.01.44l-.1,2.94c-.01.39-.27.79-.17,1.21,0,.01-.37,5.89-.43,6.65l-1.12,13.41c-.04.46-.93.65-.88,1.1l-.76-.08c-.04-.22-.06-.42-.05-.64.45-.27,1.07-1.34.63-1.78-.31-.31-.43-.63-.6-.84-1.45-1.88-.91-2.25-.88-2.62.09-1.19-1.4-4.56-1.45-4.59-.18-.13-.81-.43-.82-.06-.03,1.35,1.7,2.63,1.11,3.71-.4-.67-.86-1.37-1.62-1.45-.05-.23-.43-.42-.3-.72.04-.11.03-.26,0-.4-.03-.18-.27-.29-.45-.17.03-.26-.22-.46-.26-.7-.14-.73-.49-1.6-1.18-1.95-.06-.16-.04-.36-.08-.52.54-4.33.58-2.33-1.63-4.88,0-.23-.35-.53-.28-.79.51-1.79-.77-5.33-2.44-5.8-.12-1.18-2.33-1.94-3.96-5.5-.16-.36-.38-.63-.67-.73-.08-.24.11-.71-.27-.91-.49.59-.42,1.27-.28,1.9.08.31-.08.7.02,1-.69.67-.1,1.65-.32,2.73-.42-.38-.02-.94-.26-1.45-2.67.02-.93-3.26-2.06-4.16-1.21,1.63-1.49,3.4-2.09,5.1-.25.7-.88,1.24-.7,1.97-.82,1.39-1.36,2.93-2.03,4.66.26.93,4.15-.86,4.5-1.04l1.1-.54c.17-.09.3-.08.38.03.05.09.09.18.06.28-.37.44-.49,1.01-1.15,1.4-1.65.97-3.51,1.54-5.43,1.56-1.24,1.8-2,3.63-3.01,5.47-1.39,2.5-2.69,4.94-3.75,7.49-.65.55-2.93-2.7-3.06-3.21-.16-.64.22-1.62.27-2.28.1-1.08,1.62.16,2.33-4.04.08-.47-.84-.56-1.16-.52-.33-.29-.26-.69-.52-.97-.82-.12-1.5.28-2.29-.13l1.28-.67-.24-2.1c-.45-.28-.94-.28-1.24-.78.36-.56,1.09,0,1.54-.01.02-.66.68-.81.98-1.13.81-.84-.19-1.96-.55-3,1.48.43,1.87,1.97,2.51,3.14.23.1.74-.18.87-.02,1.7,2.01.88-1.84,2.28-2.04.14,1.31-.47,2.15-.77,3.3.66-.31.99.1,1.38.39.67.5,1.12-.49,1.48-.7,1.38-.84,1.57-2.03,2.08-3.4l1.13-3.04,1.7-5.36c.22-.69.69-1.26.59-2.12-.04-.4.51-.78.49-1.15-.08-1.6.5-2.72,1.12-4.11.32-.72-.01-2.34-.47-2.94-.71-.92-2.06-.06-3.2-.51,2.07-1.61,6.15-.65,6.2-3.02.72-.7,2.1-.63,2.76-1.42.25-.3.19-.76.58-.81s.69.32.95.42c1.1.41,1.47-.96,1.93-1.37,1.89-1.67-.12-2.8,6.76-7.88.38-.28.6-1.12,1.13-1.09l4.49.29c.52.03,1.1-.09,1.51-.17.93-.22,1.8-.65,2.51-1.2.41-.32,1.08-.44,1.41-.98l.57-.23c-.02.56-.04,1.19-.26,1.71l-.04.05ZM45.89,141.79c.53.04.71-1.14.36-1.21-.63-.1-.7,1.18-.36,1.21ZM45.76,142.55c0-.09-.06-.15-.15-.15s-.15.06-.15.15.06.15.15.15.15-.06.15-.15ZM30.14,157.22l1.46-1.52c-.79-.28-1.36.11-2,.18.18.31.47.53.38.72-.09.16-.43.08-.6.17-.31.17-.2.36-.08.42.18.1.61.28.86.02h-.02ZM32.12,155.99c-.09.39.33.65.44.5.14-.22.23-.45.16-.57-.09-.15-.51-.35-.59.08h-.01Z"/>
  <path class="st3" d="M132.32,154.31v-2.7c.7-.83.3-1.9.25-2.7-.25-3.26.41-6.62.11-9.65l-3.04-.15c-.56-.42-1.64-.42-2.21,0-2,.04-3.99-.09-6.12-.15l-1.97-.06c.04-.09-.08-.28-.26-.28l-8.35.04-3.66-.03c.13-.47-.28-.55-.61-.52s-.79-.04-.87.33h-4.9c.4-.9-3.06-.64-4.42-.67l-7.93-.24-8.22-.2c-1.37-.03-2.58.06-3.95.02l-3.65-.1c-1.9-.05-3.74-.19-5.67-.03-.66.05-1.21-.43-1.22-1.09v-3.86c-.02-1.62,3.85-.91,5.38-.87l11.86.24,8.83.26,8.39.24,7.29.24,6.68.22,8.38.25c1.22.03,2.43.33,3.62.27,1.52-.09,2.97-.57,4.49-.22,1.36.32,2.76.65,4.11.3.4-1,.46-2.16,1.46-2.73,1.05,2.16.66,2.93,1.32,4.78.17.49-.11,1.01-.58.96-.32-.03-.57-.25-.65-.77s-1.36-.72-1.61-.36c-.53,1.79-.29,3.86-.41,5.8-.28,4.36-.81,8.59-.53,12.92.09,1.41.13,2.87-.82,4.1-.17,2.15-.53-6.55-.53-3.55v-.04Z"/>
  <path class="st4" d="M132.03,160.73c.17,1.49,3.11,2.22,3.45,2.14,1.36-.33,2.58-.11,3.88-.14,2.5-.08,1.77,1.89,5.74,2.99.81.23,1.21.19,1.77.83.44.49,1.29.6,1.57,1.39.09.25.4.35.58.38-.1.42.13,1.29-.45,1.48-.37.12-.57.2-.98.54-.46.38-1.53-.03-1.77-.53.11-.05.32-.06.4-.2.08-.15-.18-.47-.4-.51-.88-.13-1.54-.56-2.34-.87-6.68-2.58-10.93-1.59-14.36-2.56-1.35-.39-2.64-.41-3.88.18-.73-.2-.99-1.25-.85-1.96.47-2.49,5.68-2.3,7.64-3.14h0Z"/>
  <path class="st4" d="M57.93,132.74c-.05.4-.16.88.3,1.31l.59-1.12c1,1.75,1.15-.06,2.63.76-.24,1.07-.6,2.01-1.21,2.8-1.05,1.37.97,1.5.39,2.67-.35.7-2.04.69-1.65,1.64-.35-.17-.67-.37-1.1-.66-.32-.22-1.12.53-1.11.95.03,1.18.74,2.07,1.64,2.77.31.24.81,1.18.35,1.36-1.08.44-1.51,1.26-2.18,2.03-1.48,1.7-2.77-2.98-3.6-1.62.84,1.06.52,1.76.2,2.62-.15.42.5,2.16-.25,2.6-.13.08-.49-.06-.5-.26-.11-1.96-2.44-.6-2.1-5.31.05-.71-.29-1.49.63-1.81.39.78-.35,3.78,1.24,3.53,1.87-.29-.94-3.11.13-4.44.61-.78.83-1.12.65-2.23-.22-1.29.29-2.72,0-4.03-.18-.82-.37-1.75.32-2.44,1.13.81.88,2.1.87,3.21,0,.32.53.65.72.55.9-.45-.44-2.22.4-2.89.32.63.65,1.29,1.46,1.54.69-1.47.15-2.94-.94-4.09-.3.33-.35.58-.55.76-.26-.66-.18-1.43.53-2,1.86,1.38.74,1.91,2.12,1.82v-.02Z"/>
  <path class="st4" d="M100.66,138.43h4.9c.49,0,.95.18,1.49.19l3.66.03c-.11.16.09.19.28.19l8.33.04,1.97.06c2.12.06,4.12.2,6.12.15.72-.02,1.49-.03,2.21,0l3.04.15c.31,3.04-.35,6.4-.11,9.65-.19-.02-.25.23-.25.47v4.92h-.25c-.38-2.06-.23-4.12-.05-6.37s0-4.55.36-6.86c.06-.4-.09-.92-.3-1.11-.18-.17-.59-.41-1-.41l-8.32-.02c-3.87,0-8.4-.25-12.38-.36l-9.31-.24-10.54-.26-9.64-.22-12.59-.19c-.84-.01-1.76-.32-2.48.04-.79.4-.36,1.35-.47,2.01-.37,1.93-.17,3.7-.28,5.63-.04.79-.22,1.65-.32,2.45-.18,1.43-.13,2.74-.17,4.2-.05,1.74-.39,3.38-.13,5.14.03.18-.14.37-.19.47-.04.09-.18.14-.3.05,0,.32.01-5.96-.29-4.97-.09-.42.16-.82.17-1.21.46.83.39-3.56.1-2.94,0-.13.06-.32.01-.44.76-.13.56-1.34.17-1.79.03-1.75.23-3.51.08-5.36-.82-.09-1.42-.04-2.03-.04.13-.49.77-.36,1.21-.55,1.9-1.89-2.61-3.27-.94-5.6.38-.54,1.52-.69,2.41-.87.23,1.07-.02,2.04.05,3.08,1.14.28,2.24-.05,3.4.03l3.44.25h12.25l2.47.25c3.02.29,6-.2,9,.12,1.81.19,3.52.18,5.21.18l.04.03Z"/>
  <path class="st4" d="M117.87,91.74c-.14.14-.41.38-.32.76.54,2.38,1.67,4.59,3.45,6.19s3.88,2.78,6.41,2.56c-.19-1.75,1.11-.56,2.21-3.32.22-.53-.03-1.39.65-1.33.1.49.32,1.47.8,1.67.57.25,1.15-.53,1.64-.57.47.43-.39.9-.32,1.23.29,1.34-.01,2.53-1.34,3.16.13.8.08,1.45.03,2.2.72.06,1.27.16,1.94.02.15.39,0,.7.02.99-.4-.1-1.07-.54-1.41-.06-.24.33-.22.85-.65.83-1.14-.08-.32-2.09-.8-3.01-.76-.05-1.24.26-1.78.28,0-.11.04-.27-.01-.37-.02-.04-4.76-.76-5.54-1.29-.01.33.04.46.06.55.43,1.16-4.74-2.45-5.93-7.51-.9-3.76-1.15-7.6-.37-11.33.27-1.26.65-2.41.97-3.62.12-.44.59-.56.9-.55,1.52.04-2.25,5.16-.74,6.39.36.29.56-.57.77-.82.49.04.38.97.14,1.37-.49.79-.3,1.43-.4,2.2-.14,1.15-.46,2.32-.36,3.43v-.04Z"/>
  <path class="st2" d="M32.02,133.2c0,.53-.52.53-.95.6l-3.17.54c-1.73.29-6.1,1.52-7.83,2.21l-2.46.98-2.17,1.04c-1.19.56-2.87,2.35-3.93,1.7.19-.33.09-1.12.38-1.43.14.52,1.53-3.4,1.41-3.42.05-.23.16-.61.53-.72,4.21-1.21,7.6-4.81,14.03-1.97,1.34.59,2.83.38,4.15.46h0Z"/>
  <path class="st4" d="M67.59,115.81c-.71.55-1.59.98-2.51,1.2.14-1.76-2.18-.86-3.13-2.67,1.02-.61,1.52-1.64,2.5-2.04.92-.37,2.77-.87,3.4,0,.9,1.25-1.61,3.95-.26,3.51h0Z"/>
  <path class="st4" d="M64.32,121.24c.09,1.4,1.64,1.25,1.52,2.55-.05.54-3.61,1.62-3.65,1.65-1.39,1.09-2.22,2.69-3.4,3.86l-.52-.97c1.26-.25.39-.59,2.93-3.16.17-.17.57-3.27.22-3.51.43-.08.61.29.98.59.74.6,1.68-1.14,1.92-1h-.01Z"/>
  <path class="st4" d="M135.01,112.33c1.19,2.75.43.82,1.74,2.27-.09.15-.31.55-.14.79.7.97.28,2.08.51,3.07.2.93.04,1.29-.25,2.1-.55,1.53.55,3.11.79,4.56-1.27.25-1.73-2.96-1.6-3.42.42-1.46-1.34-2.02-.7-2.96.11-.16.6-.2.93-.4-.05-1.39-1.04-2.9-2.05-3.94.2-.81.4-1.45.3-2.09l.5.02h-.02Z"/>
  <path class="st2" d="M51.15,93.97c-.95,3.23-.51,5.8-1.88,5.38-.55-.17-.76-3.62-.49-4.02l1.6-2.32c.8-1.15,1.33-2.43,1.04-3.87,1.59-.82-.12,4.29-.28,4.83h.01Z"/>
  <path class="st4" d="M140.61,161.88c-.52-.13-.95-.19-1.7-.28.52-1.2-.13-2.22-.44-3.33-.53-1.82-.99-3.63-1.67-5.35,1.35-.08,4.41,7.95,3.83,8.97h-.01Z"/>
  <path class="st4" d="M65.79,120.18c.43-.59.49-1.32.69-2.05.33-1.19,1.92-.16,2.84-1.81.28.68.9,2,.13,2.58-1.07.81-2.52.82-3.66,1.28Z"/>
  <path class="st3" d="M131.47,126.7c-.95-.42-.36-1.27-.88-1.76-.24-.22-.54-.36-.52-.67.01-.26.26-.42.68-.56.68-.22,1.86.44,1.98,1.27.09.59-.74,1.25-1.25,1.71h-.01Z"/>
  <path class="st3" d="M45.61,92.1c-.17-.22-.05-.65-.19-.87-.1-.16-.64-.15-.73-.43.35-.44.81-1.35,1.29-1.48.92-.26,1.1,2.31.78,2.62-.27.26-.84.53-1.14.16Z"/>
  <path class="st4" d="M13.32,135.43c.12.02-1.27,3.93-1.41,3.42-.42-.36.93-3.7,1.41-3.42Z"/>
  <path class="st4" d="M69.57,114.6l-.57.23c.17-.41.16-.86.45-1.37.71.39.14.84.12,1.14Z"/>
  <path class="st4" d="M60.74,141.54c-.12.1-.26.25-.43.28-.31.05-.32-.32-.41-.46.27,0,.71-.12.84.19h0Z"/>
  <path class="st1" d="M123.22,32.7c-.58-.43-1.49-.85-1.91-1.52-.19-.3-.64-.58-.8-.9-.63-1.19-1.47-1.66-2.58-2.2-.92-.44-1.68-.98-2.89-.17-2.92-1.68-2.04-1.89-4.09-3.13-1.01-.61-1.83-1.26-3.04-1.57-.96-.24-1.82-.91-2.2-1.81,1.39-1.47,4.67-.36,6.03-.92,1.5-3.12,7.35.6,7.45.65.99.37,1.75.4,2.64,1.16,3.24,2.74,1.46,5.67,1.96,7.15.45,1.32,1.21,2.59.79,4.11-.7-.24-.32-.79-.54-1.16-.42.14-.6.28-.84.31h.01Z"/>
  <path class="st2" d="M120.85,39.52c.06-1.14-.49-1.98-1.52-2.25l-.71,1c-1.15-.78-5.05-.58-4.62-1.86.38-1.14,1.76-1.2,2.62-1.5,2.15-.72,5.39,1.14,5.94,2.84.52,1.6,1.05,3.19.17,4.9-.64-1.14-1.06-2.11-1.9-3.13h.01Z"/>
  <path class="st2" d="M110.81,51.99c.49.65,1.98.17,2.49,1,.19.32-.1.42-.4.66-2.06,1.59-3.85-1.5-4.57-2.38-1.07-1.31-2.73-1.78-4.22-2.43l-3.54-1.54c-1.47-.64-3.13.08-4.68-.3-.9-.23-2.34-.95-1.87-1.95.43-.93,1.68.12,2.25.32,2.41.88,4.36.9,5.11,1.31.71.39,1.52.18,2.24-.08.68.23.68,1.2,1.25,1.47,1.61.74,2.88,1.81,4.33,2.78.57.39,1.14.53,1.61,1.14h-.01Z"/>
  <path class="st1" d="M121.82,47.38c-.37,1-1.9.26-2.31-.45-.77-1.32-2.17-2.22-3.17-3.26.66-2.33,4.95-1.35,5.24-.49.4,1.2.74,2.83.25,4.21h-.01Z"/>
  <path class="st1" d="M109.56,39.65c-.99-.35-1.25-1.21-2.04-1.62-.38-.19-.7-.5-.74-.86-.05-.42.5-.55.69-.92l1.11-2.16c.28-.54,1.12-.59,1.28-1.32.12-.52.45-1.05.88-1.21.37-.14,1.13.05,1.59.35.08,1.24-.83,2.42-1.57,3.44-.39.53-.6,1.22-.92,1.79-.39.72.29,1.6-.29,2.5h.01Z"/>
  <path class="st1" d="M65.01,88.72c.35,1.63-.09,3.05-.26,4.58-.53-.54-.7-.88-1.19-1.13-.45-.23-.77.17-1.46.39-.49-1.61-.32-3.37.58-4.8.65.13.72.7,1.22,1.02.28-.26.99-.63,1.11-.08h-.01Z"/>
  <path class="st1" d="M90.25,93.94c-.28.57-.6.99-.9,1.14-.42.22-1.36.24-1.59-.26s.17-1.33.45-1.74c.32-.46.99-.35,1.38-.19.31.12.92.49.64,1.06h.01Z"/>
  <path class="st1" d="M102.19,116.56c-.72,1.02-2.77.45-2.9-.76-.04-.72,2.2-.99,2.71-.5.2.2.53.76.18,1.24h.01Z"/>
  <path class="st2" d="M114.19,54.22c.82-1.54,1.01-2.91.44-4.84,1.12.29,1.24,1.49,1.24,2.3,0,1.04-.37,2.14-1.68,2.55Z"/>
  <path class="st2" d="M109.45,44.02c-.49-.38-1.43-.98-1.5-1.54-.1-.78,1.08-.84,1.57-.52.44.29.77.61.76,1.09,0,.36-.49,1.07-.83.97Z"/>
  <path class="st2" d="M95.22,40.89c.67,1.22-2.02-.05-2.53,3.46-.53-.41-.51-1.14-.35-1.61.47-1.36,2.59-2.38,2.88-1.84h0Z"/>
  <path class="st1" d="M87.23,92.49c.38.54-.42,1.26-.83,1.42-.46.18-1.45.17-1.73-.42.51-.78,1.86-1.76,2.56-1Z"/>
  <path class="st2" d="M105.32,40.37c-.02.9-1.82.57-1.94.53-.23-.09-.56-.53-.38-.91.22-.46,1.26-.45,1.73-.36s.59.42.58.74h.01Z"/>
  <path class="st2" d="M100.49,118.14c.28.5-.68,1.02-1.16.86-.78-.26-1.15-1.06-.66-1.8,0,0,1.82.94,1.82.94Z"/>
  <path class="st2" d="M81.58,91.72c-.56,0-.22-.78.01-.95.25-.17.92-.55,1.06-.28.33.63-.28,1.21-1.07,1.23Z"/>
  <path class="st1" d="M102.96,109.43c-.4-.94.44-1.63,1.09-1.88-.06.86-.38,1.45-1.09,1.88Z"/>
  <circle class="st2" cx="79.37" cy="85.52" r=".5"/>
  <circle class="st2" cx="71.73" cy="86.49" r=".15"/>
  <path class="st1" d="M129.6,80.97c-.05.83-.55,1.61-.65,2.49-.12,1.11-.13,2.16-.45,3.25-.23.77-.08,4.36.53,5.06.26.3.77-.09,1.26.09.83.28,1.38,1.15,2.25.96v.19c-.23.04-.41.44-.64.42-.85-.08-1.14-1.73-2.51-.83-.77.5-.29.92-.13,1.64.1.47-.11,1.01.55,1.31.51.23.39.7.46,1.05-.69-.06-.44.8-.65,1.33-1.11,2.76-2.41,1.57-2.21,3.32-2.52.23-4.57-.91-6.41-2.56s-2.91-3.8-3.45-6.19c-.09-.37.18-.61.32-.76.08.03.18.02.26.05-.08,1.05.45.77.85,2.48.29-.78.42-1.61-.01-2.12-.05-.11.09-.27.12-.37.33.17.68.09.98-.03.38.05.77.37,1.16.31.39.73,1.73,1.23,2.63.99.84-.22,1.59-.36,2.47-.5.63-.1,1.14-.73,1.83-.63-.51-.29-.82-.4-.87-.88l-.23-2.48c-.13-1.41-.23-2.63.18-4.01.12-.4,0-.98.39-1.05l.91-.16c.27-.04,0-.52-.24-.45-.09.02-.3-.05-.36-.2-.15-.45.16-.86.14-1.23l.22-.26c.27-.01.38.18.38.37,0,.26-.2.49.06.86.38-.31-.36-1.13.82-1.48v.02ZM125.57,93.66c-.86-.52-1.69.13-2.08.61.46.55,1.09.66,1.55.61.37-.03.88-1.01.53-1.23Z"/>
  <path class="st4" d="M121.24,92.07c1.97-1.42,2.42.78,3.81-.83.35-.4-.2-1.09-.02-1.47,2.24-4.71.42-4.39,2.11-6.65.42-.56.6-1.18.98-1.65.02.38-.28.78-.14,1.23.04.15.27.23.36.2.23-.06.51.41.24.45l-.91.16c-.39.08-.27.65-.39,1.05-.41,1.38-.31,2.6-.18,4.01l.23,2.48c.04.47.36.59.87.88-.69-.11-1.21.52-1.83.63-.88.14-1.62.27-2.47.5-.91.24-2.24-.25-2.63-.99h-.02Z"/>
  <path class="st4" d="M129.62,79.24l.04.56-.06,1.16c-1.16.35-.44,1.15-.82,1.48-.28-.38-.06-.6-.06-.86,0-.18-.12-.38-.38-.37.01-.84.31-2.06,1.29-1.96h-.01Z"/>
  <path class="st4" d="M111.21,11.28c0,.11.06.28.02.39.02-.04-3.86.67-3.72.1,1.18-.36,2.45-.47,3.7-.5h0Z"/>
  <path class="st4" d="M118.97,92.15c.43.53.3,1.35.01,2.12-.4-1.7-.93-1.42-.85-2.48.27.13.54.28.84.35h0Z"/>
  <path class="st4" d="M123.97,18.14c-.84-.39-1.89-.78-2.21-1.69.7-.22,1.08.17,1.52.76.24.31.96.39.68.94h.01Z"/>
  <path class="st4" d="M120.08,91.76c-.3.12-.65.2-.98.03.04-.18-.13-.58.16-.72.17-.09.91.28.82.7h0Z"/>
  <path class="st4" d="M132.07,70.85c0,.18.04.38-.03.63-.04.13-.16.41-.41.24-.02-.18-.1-.41-.02-.63.05-.14.25-.39.46-.24h0Z"/>
  <path class="st4" d="M132.81,69.2v.49l-.68.05c0-.16-.15-.45.09-.54.2-.08.43,0,.6-.01h-.01Z"/>
  <path class="st4" d="M113.45,11.55c.08.12.05.24-.02.37-.05.1-.15.16-.37.14s-.09-.37-.14-.51h.53Z"/>
  <path class="st3" d="M77.83,38.77l-.67,2.45c-.04.15-.09.31-.09.47l-.55.08c.03-.55.9-2.96.82-2.92.18-.09.35-.08.49-.09h0Z"/>
  <circle class="st1" cx="75.04" cy="51.9" r=".12"/>
  <path class="st2" d="M128.75,177.58c0-.15-.03-.3-.08-.44.64-.58,1.64-.28,2.39.19,3.28,2.04,6.32,1.81,7.25,2.25,1.4.67,2.61,1.37,4.24,1.65.26.04,2.82,1.4,2.47,1.91-.08.12-.45.2-.65.12-3.69-1.74-4.02-.22-9.38-3.01l-3.52-1.83c-.88-.46-1.71-1.42-2.73-.84h0Z"/>
  <path class="st2" d="M145.82,169.8c-1.52-.23-2.9-.91-4.41-1.23-1.06-.23-2.17-1.15-3.43-1.21-1.97-.1-3.89-.71-5.79-.65l-1.61.05c-1.92.06-3.73-.11-5.57-.22.14-.17.36-.15.7-.31-.18-.16-.39-.23-.47-.41,1.24-.59,2.53-.56,3.88-.18,3.43.97,7.67-.02,14.36,2.56.8.31,1.46.74,2.34.87.22.03.46.36.4.51-.06.14-.29.15-.4.2h0Z"/>
  <path class="st1" d="M145.82,169.8c.23.5,1.31.9,1.77.53.41-.33.61-.42.98-.54.46,2.27,2.23,2.39,2.28,3.17.06,1.05-.14,2.48-1.4,2.62.22-.81,1.32-1.29.59-1.94-1.84-1.64-2.99-1.51-6.15-2.97-.87-.4-2.14-.09-2.69-1.22-.11-.23.18-.64.22-.87,1.51.32,2.9,1,4.41,1.23h-.01Z"/>
  <path class="st2" d="M143.91,175.1c.18,1.18-4.98-.82-5.49-.9-1.94-.15-3.78-.35-5.63-.98-.32-.11-.3-1.2,0-1.18,1.92.08,3.72.25,5.55.58,1.05.19,1.91.91,2.94,1.16.77.64,1.57.91,2.63,1.31h-.01Z"/>
  <path class="st2" d="M123.28,172.24c-.08-.18-.23-.42-.25-.65-.03-.26.19-.35.44-.37,1.81-.3,6.51-.13,8.19,1.16-.27.6-.78.64-1.29.58l-7.08-.73h-.01Z"/>
  <path class="st2" d="M160.31,148.2c-.67.97-3.99-1.63-4.74-2.17s-1.7-.63-2.18-1.55c-.16-.1-.22-.26.03-.3l5,1.69c1.08.37,1.65,1.38,1.88,2.33h0Z"/>
  <path class="st4" d="M145.79,125.63c-.46.97-3.6,1.32-4.58,2.17-.2-2.01.69-.87,1.22-3.03.11-.44-.68-.53-.74-.9-.26-1.61.25-3.2-.29-4.66.86-.41.23,1.98,1.47,2.88.18.13.66-.19.78-.04.56.67-.31,1.14.87,1.92.04.28-.29.63-.17.88.27.56.96.7,1.45.78h.01Z"/>
  <path class="st3" d="M141.61,108.68c.51,1.48,1.54,2.78,1.57,4.4-.14.3-.44.47-.71.49-.29.02-.67.03-.77-.28l-.93-3.03c-.13-.42-.65-.91-.23-1.27.25-.23.72-.24,1.05-.3h.01Z"/>
  <path class="st4" d="M134.52,90.75c.58.03,1.18.36,1.25.96-.93-.43-2.09,1.1-3.24,1.29v-.19c.22-.52.61-.93.77-1.47.28-.05.52-.25.55-.54.22-.01.44-.05.66-.04h.01Z"/>
  <path class="st3" d="M139.65,93.5c-.26-.55-1.45-1.21-.83-1.9.5-.29,1.83.55,2.02,1.14.23.71-.81.94-1.2.76h.01Z"/>
  <path class="st4" d="M135.71,95.72c-.33,1.09.59.5.52,3.88-.35-.01-.67-.3-.68-.77-.04-1.77-.93-3,.16-3.13h0Z"/>
  <path class="st4" d="M137.68,104.08c-.85.19-.01-.87-1.02-2.45-.37-.57-.53-1.2-.42-1.78.54-.04.49.63.72,1.01.64,1.07.95,2.07.72,3.21Z"/>
  <path class="st4" d="M141.11,117.58c-.5.85-1.14-4-1.14-4.02.45-.86,1.14,4.01,1.14,4.02Z"/>
  <path class="st4" d="M135.54,92.76v1.69c-.93-.18.02-.86-1.26-1.06.24-.63.73-.65,1.26-.64Z"/>
  <path class="st4" d="M139.22,108.99l-.02-.86c.17.12.58.06.52.44-.04.26-.16.57-.5.41h0Z"/>
  <path class="st4" d="M138.17,105.3c-.13.12-.24.04-.32-.05-.14-.16-.13-.37-.12-.53.19-.15.37.05.42.2.04.14,0,.26.02.38Z"/>
  <path class="st4" d="M139.89,112.67c-.13.12-.24.04-.32-.04-.17-.17-.03-.4-.06-.55.19-.14.33.1.38.23.04.15,0,.27.02.38h-.01Z"/>
  <circle class="st4" cx="160.4" cy="133.35" r=".12"/>
  <path class="st1" d="M133.86,90.8c-.04.29-.27.49-.55.54-.03-.17-.03-.44.14-.52.14-.05.3-.03.41-.02h0Z"/>
  <path class="st2" d="M154.39,139.06c-.13-.03-.29.08-.43.05-.12-.15-.29-.24-.42-.26-.3-.04-.55.22-.4.47l-.71.03c-.18-.25-.33-.61-.17-.78.39-.39,1.54-.35,1.93-.18.18.08.22.39.2.66Z"/>
  <path class="st4" d="M153.95,139.11c-.1.33-.56.2-.83.22-.15-.26.11-.52.4-.47.13.02.3.11.42.26h.01Z"/>
  <path class="st4" d="M150.73,140.09c-.02.19-.02.53-.29.51-.09-.09-.28-.23-.18-.36.13-.16.32-.16.47-.15Z"/>
  <path class="st1" d="M132.57,62.82c-.05-.25.03-.53.04-.79.13-.13.24-.03.33.04.17.14.14.37.11.6-.02.17-.31.14-.49.13h0Z"/>
  <path class="st4" d="M63.62,166.85l.03-2.73c.51.83.26,1.9-.03,2.73Z"/>
  <path class="st4" d="M131.07,184.28s-.54-.52.04-1.06c.24-.03.23.29.24.43.01.2.02.64-.28.63Z"/>
  <path class="st4" d="M63.71,162.23l.17-1.56c.26-.41.52,1.95-.17,1.56Z"/>
  <path class="st4" d="M63.18,171.54c0-.17-.08-.55.17-.57.09.06.18.15.24.23.09.13.03.23-.08.3-.13.09-.23.14-.33.04Z"/>
  <path class="st4" d="M62.65,181.82c0-.24-.09-.72.22-.79-.02.25.13.7-.22.79Z"/>
  <path class="st4" d="M63.1,176.64l-.03-.25c.19.04.23.17.03.25Z"/>
  <path class="st4" d="M45,145.98c.51,1.61-.38,6.33-1.42,7.59.02-.11-.01-.2-.06-.28-.08-.12-.2-.12-.38-.03l-1.1.54c-.29-.6.81-1.02.86-1.54.38-1.07-2.5-1.31-3.32-2.08-.18-.73.45-1.27.7-1.97.6-1.7.87-3.47,2.09-5.1,1.13.91-.61,4.18,2.06,4.16.24.51-.16,1.08.26,1.45.23-1.08-.37-2.06.32-2.73h-.01Z"/>
  <path class="st4" d="M60.41,173.77c-.39-.13-.46-.57-.79-.79-.09-.23-.06-.49-.14-.72.24-.22.18-.51.05-.72-.14-.24-.32-.37-.57-.32-.82-1.65-1.76-3.29-2.19-5.08.76.09,1.22.78,1.62,1.45.58-1.07-1.14-2.36-1.11-3.71,0-.38.64-.06.82.06.05.03,1.53,3.41,1.45,4.59-.02.36-.56.74.88,2.62.16.22.29.53.6.84.43.44-.17,1.51-.63,1.78h0Z"/>
  <path class="st1" d="M52.6,156.02c-1.63-1.41-2.22-3.69-2.44-5.8,1.67.47,2.93,4.02,2.44,5.8Z"/>
  <path class="st1" d="M54.51,161.68c-.35.49-2-4.71-1.63-4.88,2.22,2.55,2.18.55,1.63,4.88Z"/>
  <path class="st2" d="M59.93,183.26c-.02-.14.04-.3.03-.45.33-.15.78-.13,1.16-.4.17-.12.06-.51-.08-.58-.08-.04-.2-.08-.31-.1.01-.15.02-.29.03-.44.18,0,.92-.12.91.17-.02.95-.37,1.63-.17,2.61l-1.77.41c.12-.54.26-.83.19-1.22h0Z"/>
  <path class="st4" d="M45.53,143.98c-.4.16-.51.59-.55.99-.15-.63-.2-1.31.28-1.9.39.19.19.67.27.91Z"/>
  <path class="st1" d="M55.77,164.15c-.61-.47-.9-1.24-1.18-1.95.69.35,1.04,1.22,1.18,1.95Z"/>
  <path class="st1" d="M59.96,182.81c-.06-.58.78-.51.78-1.08.11.02.24.05.31.1.14.08.25.46.08.58-.4.28-.83.25-1.16.4h0Z"/>
  <path class="st1" d="M59.48,172.27c-.44-.18-.35-.7-.51-1.05.25-.04.43.09.57.32.13.22.18.51-.05.72h-.01Z"/>
  <path class="st1" d="M56.47,165.41c-.14.14-.23.06-.3-.05-.1-.17-.16-.35-.15-.51.18-.12.41,0,.45.17.03.14.03.29,0,.4h0Z"/>
  <path class="st4" d="M61.22,174.48c-.11.95,1.38.47.63,2.05-.47.18-1.07-.02-1.63.02-.17-.79-.13-1.53.24-2.15l.76.08h.01Z"/>
  <path class="st1" d="M135.73,111.64c.72.24,1.46.15,2.24.13s1.11.99.96,1.57c-.96,0,.16.98-.49,1.35-.16.09-.49.27-.69.18-.32-.14-.65-.3-1.01-.29-1.29-1.45-.54.5-1.74-2.27-.03-.22.1-.49.04-.7.2.05.47-.05.68.01h0Z"/>
  <path class="st4" d="M138.93,113.35c.99,1.21.83,2.62.35,4.08-.11.32.5,1.02.04,1.27-.26.14-1.05.58-1.08.08-.15-2.04-.31-2.09-.47-3.89.2.09.53-.09.69-.18.64-.37-.47-1.35.49-1.35h-.01Z"/>
  <path class="st4" d="M135.73,111.64c-.2-.06-.46.04-.68-.01-.09-.29-1.42-5.65-.45-5.82.22,1.01.46,1.74.61,2.64,0,0,.52,3.19.52,3.19Z"/>
  <path class="st4" d="M137.22,107.8c.45.22,1,1.87.63,2.07-.43.23-1.95-1.05-1.73-1.84.13-.44.81-.36,1.1-.22h0Z"/>
  <path class="st1" d="M60.95,121.6c.16-.02.33.09.49.05.36.25-.04,3.33-.22,3.51-2.55,2.57-1.67,2.91-2.93,3.16-.5-.92-.53-1.92-.59-2.96,1.01-1.24,2.2-.42,2.22-1.65l-1.88-.12v-.65c.73.03.66-.92,1.07-1.34.45-.46,1.33.04,1.83-.02h.01Z"/>
  <path class="st1" d="M42.04,153.79c-.35.17-4.24,1.96-4.5,1.04.67-1.73,1.21-3.27,2.03-4.66.82.78,3.7,1.01,3.32,2.08-.05.52-1.14.94-.86,1.54h.01Z"/>
  <path class="st1" d="M55.32,134.71c-.27-.52.17-1.28-.03-1.79.2-.17.25-.41.55-.76,1.1,1.14,1.63,2.62.94,4.09-.81-.25-1.13-.92-1.46-1.54Z"/>
  <path class="st4" d="M60.95,121.6c-.51.06-1.39-.44-1.83.02-.41.42-.32,1.37-1.06,1.34,0-.77.58-1.37.71-1.98.14-.67-.15-1.33.68-1.47.63-.11,1.46-.09,1.47.74,0,.49-.19.97.05,1.36h-.02Z"/>
  <path class="st4" d="M30.14,157.22c-.24.26-.68.08-.86-.02-.12-.06-.23-.25.08-.42.17-.1.52-.01.6-.17.11-.19-.18-.41-.38-.72.64-.08,1.22-.46,2-.18l-1.46,1.52h.02Z"/>
  <path class="st4" d="M57.69,125.36c-.63-.49.55-.56.56-1.07,0-.24-.22-.46-.22-.69l1.88.12c-.02,1.22-1.21.4-2.22,1.65h0Z"/>
  <path class="st1" d="M63.83,152.11l.1-2.94c.29-.61.37,3.78-.1,2.94Z"/>
  <path class="st1" d="M63.93,148.73c-.25-.6.17-1.2.17-1.79.38.45.57,1.66-.17,1.79Z"/>
  <path class="st4" d="M45.89,141.79c-.35-.03-.27-1.31.36-1.21.36.05.17,1.25-.36,1.21Z"/>
  <path class="st4" d="M32.12,155.99c.09-.42.51-.23.59-.08.08.12-.01.36-.16.57-.1.15-.52-.11-.44-.5h.01Z"/>
  <circle class="st4" cx="45.61" cy="142.55" r=".15"/>
  <path class="st1" d="M119.32,138.89l-8.33-.04c-.19,0-.39-.03-.28-.19l8.35-.04c.18,0,.29.19.26.28h0Z"/>
  <path class="st1" d="M132.32,151.62v-2.22c0-.26.05-.5.25-.47.06.81.45,1.88-.25,2.7Z"/>
  <path class="st1" d="M107.06,138.62c-.54,0-1.01-.18-1.49-.18.09-.38.53-.3.87-.33s.74.04.61.52Z"/>
  <path class="st1" d="M129.62,139.11c-.72-.03-1.49-.02-2.21,0,.56-.42,1.64-.42,2.21,0Z"/>
  <path class="st4" d="M125.57,93.66c.36.22-.16,1.19-.53,1.23-.46.04-1.1-.06-1.55-.61.39-.47,1.22-1.12,2.08-.61Z"/>
</svg>