<?xml version="1.0" encoding="UTF-8"?>
<svg id="Layer_1" xmlns="http://www.w3.org/2000/svg" version="1.1" viewBox="0 0 576 576">
  <!-- Generator: Adobe Illustrator 30.2.1, SVG Export Plug-In . SVG Version: 2.1.1 Build 1)  -->
  <defs>
    <style>
      .st0 {
        fill: #c4c1c2;
      }

      .st1 {
        fill: #78564c;
      }

      .st2 {
        fill: #d39e7f;
      }

      .st3 {
        fill: #b59173;
      }

      .st4 {
        fill: #232225;
      }

      .st5 {
        fill: #1a1a1b;
      }

      .st6 {
        fill: #c9c5c6;
      }
    </style>
  </defs>
  <path class="st4" d="M499.77,373.03c2.47,2.65,6.68,2.67,10.23,4.46,13.94,6.98,29.45,14.63,35.04,29.52,11.85,31.63,10.48,35.66,14.86,68.17l3.11,23.11c1.14,8.5-1.05,17.07,1.48,25.65,1.78,6.03,2.28,12.46.29,17.87-2.62-1.05-6.45-2.62-8.46-5.13s3.79-4.83,4.86-6.97c.96-1.94.72-5.77,1-7.8.37-2.77-3.5-4.41-5.6-5.82,11.38-15.66-3.02-19.43-3.7-58.51-.1-5.77-1.95-6.65-5.84-10.15-3.08-2.77-.6-10.79-3.94-14.47-7.53-8.33,3.26-7.72-.76-13.59-3.99-5.82-11.68,2.31-16.45,1l4.76-5.8c.84-1.02,1.57-4.32-.64-5.68-2.03-1.26-8.01.69-9.11,2.9-4.26,8.63-11.88,12.96-17.57,19.87-3.77,4.59-3.47,13.21-10.8,17.64,7.09,1.37,8.25-6.39,13.55-6.33,3.43.04,3.06,5.43,1.18,7.87,2.7,1.38,4.74,2.44,5.96,4.43,1.34,2.17.4,4.47-.3,7.93l6.67,1.12-12.52,8.06c-2.56,2.46,26.73-1.36,14.5,4.67l-10.85,5.35-40.25,18.69c2.49,2.83,6.92,1.82,10.09.2,8.07-4.11,15.6-7.25,24.25-9.95,3.24-1.01,9.28-4.96,11.84-.92,1.58,2.5-2.29,9.25-5.03,10.29-2.58.99-5.19.63-6.37,2.79-.76,1.41.58,5.48,2.44,5.72,9.07-4.09,11.43-5.92,19.18-9.73,3.31-1.63,11.5-11.2,14.35-7.19,1.04,1.46-.07,2.99-1.65,4.06l-12.99,8.83c-7.59,5.15-33.23,13.61-39.88,20.34l12.71,2.95c-1.19,5.26-1.3,7.86,2.23,10.44,9.73,7.12,6.19-3.66,29.08,1.89l-5.33,4.86c-1.35,5.09-4.43,6.57-9.21,8.3-2.07.75-1.36,5.25-3.87,5.5-3.28.33-5.91,2.06-9.31-.02-2.01,1.19-2.35,3.43-4,5.38-6.1.65-10.2,5.51-10.02,11.01h-47.95c-1.1-4.52,2.87-7.75,4.05-11.81,7.5-25.84,4.91-9.91,10.05-20.29.58-1.18-5.18-2.94-4.37-6.54.34-1.48,1.83-2.34,4.74-3.46-3.48-6.77.65-13.87,7.98-17.6-3.65-2.89-6.86-1.91-6.53-4.72.41-3.37,2.16-5.31,5.06-5.62.25-.7-.92-2.29-1.53-2.1-.89.28-1.54,1.38-2.47,2.5-.54.65-1.85-.25-2.18-.71-1.35-1.94,2.2-4.21,6.85-12.38,2.56-4.52,8.91-1,12.15-2.67l23.66-12.29c.95-.49,2.3-.48,2.87-.31.94.29,1.01-2.77.33-2.7-12.94,1.28-33.11,21.3-26.42,5.65-5.48-1.84-13,11.5-19.76,13.59,2.19-4.3,3.29-6.55,3.74-10.63,1.99-17.72,6.33-25.89,9.62-42.12,1.81-8.95,6.84-16.77,9.31-25.63,3.58-12.82,10.51-23.6,21.75-31.82-10.26-.37-13.39,9.31-19.18,14.75l-1.7-4.8c-2.44,3.42-14.23,21.93-14.34,22.44-2.38,11.75-8.71,20.19-14.03,30.38-4.36,8.33-5.17,18.96-6.67,28.5,7.95-8.54,11.27-28.45,18.28-39.85,5.82-12.15,8.13-25.68,17.68-36.68-4.53,15.38-10.1,28.5-15.1,42.88l-5.71,16.41-9.89,19.57c-3.36,6.65-8.65,36.06-13.03,40.24,1.28,6.47-.75,13.94-4.38,19.6-4.46-8.69,6.5-11.43-.48-18.8-3.23,4.36-3.65,10.23-6.09,15.53-2,4.35-4.44,7.74-4.96,12.97-.2,2.07-5.54,1.9-5.33.4.88-6.38,1.84-12,.83-18.53-.47-3-9.11-1.6-7.97,1.35s6.39,3.02,5.48,7.25l-7.22-2.96c-.26,4.5-3.06,7.06-6.3,9.66-3.24,2.6.65,7.61-.52,10.34-1.66,3.93-5.13,6.75-4.39,11.76.51,3.38-.85,6.55-1.67,9.3h-15.39c2.05-4.27.89-8.84,1.2-13.49.4-5.98,1.83-11.32,1.26-17.4-.52-5.65,1.22-11.64,1.22-17.4,0-25.24,7.16-48.42,18.74-70.67,3.73-7.16,6.47-14.29,10.67-21.1,6.85-11.11,12.86-23.18,20.34-33.95,2.49.19,3.42,2.83,3.4,4.27-.02,2.2-.9,3.89-2.42,5.7-2.18,2.58,1.97,5.44,1.25,7.74l-4.55,14.69c-1.75,5.63-1.28,11.26-2.61,17.9,9.5-3.09,6.88-20.06,10.91-25.85,2.11-3.05,3.31-5.39,4.66-8.95.69-1.79,4.41-2.3,4.91-3.89,1.7-5.24.33-6.44-1.02-13.03-.78-3.84,7.57,3.59,7.19-17.74-.02-1.29.87-2.34.58-3.19-.28-.81-2.87-1.1-3.02-2.47-.25-2.26,3.12-3.88,2.48-6.55-5.88,0-8.38,4.95-11.74,8.56-14,15-26.01,30.73-34.62,49.49-8.6,18.72-15.85,37.11-23.23,56.06-2.34,6-3.5,10.9-4.86,17.16-1.47,6.79-3.78,12.4-3.02,19.58.28,2.66-1.7,7.36-1.88,11.03l-1.24,25.73c-.3,6.35-1.85,11.99.26,17.78h-17.03l6.45-27.13c.37-1.55-.23-3.43-.29-4.74s-2.85-.66-3.73.05c-3.72,3-2.24,8.22-3.95,12.14-2.9,6.62-5.45,12.8-4.85,19.69h-29.63c-1.24-7.83,5.26-5.88,1.59-20.66,3-3.28,3.12-8.19,1.01-8.32-3.91-.23-8.33,1.94-11.19,5.54-.77-4.05-5.06-4.82-6.33-7.65-1.49-3.32-3.74-5.74-5.43-8.61-2.48-4.19-4.6-8.27-12.11-7.5,3.23,2.23,3.25,6.06,4.23,10.09,1.08,4.49,6.15,6.79,8.01,10.92,3.02,6.71,2,17.65,4.42,26.18h-124.16l-12.76-32.79c-.7-1.79,2.19-4.32,3.25-3.77,8.56,4.48,1.49,7.1,7.63,12.22,2.62,2.18,6.89,1.05,9.62.06-6.36-.33-7.2-17.22-7.01-19.26.45-4.9-1.01-6.24-5.08-8.75-2.25-1.38-.12-6.5,1.06-8.31-2.06-1.94-4.06-1.58-6.73-2.34,2.12-2.85,1.38-5.03-.07-7.71-.19-2.6,4.8-3.91,6.98-4.91-1.02-3.42-13.04,2.76-13.12-5.02,10.03,3.87,6.89-4.59,15.06-3.95,1.31.11,1.94,2.38,3.55,2.78,1.89.46,1.87-2.4.55-2.54-.45-.05-1.52-1-1.88-1.89,4.05-5.44,13.17-9.19,14.75-16.39.37-1.71-2.69-2.96-2.81-4.58-.28-3.71-1.07-6.5-2.24-10.07-1.26-3.87,4.48-5.86,6.8-7.6-.58-2.07-3.35-1.87-2.82-4.36,3.65-.33,8.42,2.49,10.19,5.6.94,1.65-2.69,6.8.6,7.61,3.09.77,4.65-3.14,5.18-4.96.63-2.14-3.3-10.26-4.33-10.86-3.03-1.79-7.63-2.59-7.26-7.44,5.72,4.15,9.51,3.13,14.63,1.76,14.83,5.82,11.7,11.51,20.25,13.44,1.4-1.07,1.85-2.94,4.2-2.69-.13,2.11-1.51,3.32-.85,5.25,2.16.67,5.49-.42,7.2,1.07l8.68,13.85c-.11,3.14,8.39,23.09,12.12,24.59-1.93,3.95.65,9.3-.52,13.26-1.71,5.83-3.8,10.27-3.95,17.93-8.31-12.44-2.34-24.19-14.22-38.64-4.01,4.92.88,8.98.93,13.28.05,3.7-.06,7.18,1.9,11.35,4.82,10.28,5.7,20.78,7.21,31.53.51,3.56,5.88,6.27,3.21,11.84-.73,1.54,1.1,4.29,2.41,4.73,5.29,1.81,6.18-8.57,6.21-13.08,0-1.23,2.11-2.23,1.72-3.25-.29-.75-1.69-1.4-1.89-2.91-.72-5.36,1.55-13.94,6.3-17.11,2.88-1.91,5.09-1.25,6.6-5.15,1.28-3.34,6.75-9.09,3.76-13.17-2.46-3.35-3.76-4.68-2.65-8.72,2.12-7.73,11.43-2.28,12.29-5.67l1.26-4.91c-.54,2.1,13.09-20.28,14.58-22.02,2.99-3.48,4.05-5.79,4.82-9.83.4-2.08,9.75-13.46,14.1-16.34,9.98,8.07,13.37-6.29,20.47,1.08,2.42-2.12,6.96-3.01,10.64-3.2,3.58-7.87,7-16.6,11.86-24.18,11.05-17.21,5.19-19.22,17.75-28.7,2.76-2.08,3.15-6.88,5.76-9.3,12.29-11.52,5.97-12.17,10.07-28.98-2.02-1.3-5.63-2.28-4.43-4.76,3.95.12,5.43,6,9.26,6.92l21.82,5.29c10.67,2.59,20.83,5.21,30.33,10.88,17.74-.66,24.8,7.77,37.09,10.99l.04-.08ZM350.83,533.69c-.78.75-.02,3.3.76,3.68,1.96.96,10.48-19.46,11.97-22.43l6.38-12.75,17.04-40,14.1-34c4.43-10.68,10.43-20.29,14.81-30.96,2.2-5.37,1.71-11.35,4.3-16.58,1.78-3.61,3.48-8.66-1.34-11.09l-11.03,26.49c-2.11,5.06-3.18,9.37-4.13,14.87-2.11,12.17-17.17,27.6-22.44,47.36-2.38,8.92-2.89,18.9-11.22,25.24,1.29,7.33-4.33,11.58-6.73,17.31l-4.42,10.55c-1.59,3.8-2.91,8.03-4.42,12.02-1.29,3.41-.11,6.97-3.61,10.28h-.01ZM480.47,457.36c0-.84-.67-1.52-1.52-1.52s-1.52.67-1.52,1.52.67,1.52,1.52,1.52,1.52-.67,1.52-1.52ZM474.62,460.29l-7.38,9.36,2.24,1.77,7.38-9.36-2.24-1.77ZM469.58,495.48c0-.84-.67-1.52-1.52-1.52s-1.52.67-1.52,1.52.67,1.52,1.52,1.52,1.52-.67,1.52-1.52ZM364.42,538.15c0-1.04-.84-1.87-1.87-1.87s-1.87.84-1.87,1.87.84,1.87,1.87,1.87,1.87-.84,1.87-1.87ZM349.54,540.13c-4.61,2.79-5.31,8.45-3.28,12.75,2.35-2,9.33-13.38,3.28-12.75Z"/>
  <path class="st4" d="M281.85,455.53c.9-.29,1.88.26,2.53-.45-.4,11.43-11.68,22.14-17.3,36.99-.42,1.1-.72,2.99-2,1.81,1.53-3.13-.2-5.53-2.08-8.39-3.82-5.83-6.73-16.6-10.04-16.19.35-10.14-13.08-21.19-8.5-27.37,6.71,3.11,10.85,17.13,14.46,16.81,1.19-.11,3.02-.98,2.26-2.48-.89-1.77-2.94-2.99-2.79-5.08.07-1.01,1.25-1.82,2.46-4.11-4.85,1.61-14.7-9.27-10.8-13.02,2.25,3.53,6.2,3.15,7.47,5.14l3.53,5.54,4.62-.73c1.4-.22,1.07,2.79,1.88,4.08,3.02,4.85,8.49,4.6,13.22,11.21-1.18-2.94.85-2.54,1.11-3.76h-.01Z"/>
  <path class="st5" d="M369.94,296.57c-.01.96.26,1.95.83,2.91.49.83.99,1.14,1.81.22,0,.26.18.52.23.78-.75.23-3.01,1.46-2.38,2.89,6.81,15.53-3.62,12.11,8.25,24.33,2.03,2.1,1.34,7.24,4.71,8.58,4.29,1.72,5.79,4.8,8.89,8.92.52-3.89-.29-7.6-1.55-10.37,3.88,0,7.91,1.19,10.57,4.09-1.2,2.48,2.41,3.46,4.43,4.76-4.09,16.81,2.23,17.46-10.07,28.98-2.59,2.43-3,7.21-5.76,9.3-12.56,9.49-6.69,11.5-17.75,28.7-4.86,7.56-8.28,16.29-11.86,24.18-3.68.19-8.22,1.07-10.64,3.2-7.1-7.37-10.49,6.98-20.47-1.08-4.35,2.88-13.7,14.26-14.1,16.34-.77,4.03-1.83,6.35-4.82,9.83-1.49,1.75-15.12,24.12-14.58,22.02l-1.26,4.91c-.88,3.4-10.17-2.06-12.29,5.67-1.11,4.03.18,5.37,2.65,8.72,3,4.08-2.47,9.85-3.76,13.17-1.51,3.9-3.73,3.25-6.6,5.15-4.76,3.17-7.02,11.74-6.3,17.11.2,1.52,1.6,2.17,1.89,2.91.4,1.04-1.71,2.03-1.72,3.25-.04,4.5-.93,14.88-6.21,13.08-1.3-.45-3.14-3.18-2.41-4.73,2.66-5.56-2.71-8.26-3.21-11.84-1.52-10.75-2.4-21.25-7.21-31.53-1.96-4.18-1.85-7.66-1.9-11.35-.05-4.3-4.94-8.36-.93-13.28,11.88,14.45,5.91,26.2,14.22,38.64.14-7.66,2.24-12.1,3.95-17.93,1.17-3.96-1.41-9.31.52-13.26,1.28,1.17,1.59-.71,2-1.81,5.62-14.83,16.9-25.56,17.3-36.99l.11-2.97c.58.39,1.14.14,1.81-.17.72-.35.76-1.04.43-1.64-.23-.42-1.24-.82-1.36-1.26.04-.78-.02-2.06.24-2.84,2.83-8.16,4.52-17.05,1.64-25.49-.4-7.62,4.83-5.54,7.97-13.44-2.58-1.4-4.73-.35-6.83-.34l-.3-3.83c8.92,1.66,5.71-5.31,14-12.16-1.91-1.75-2.26-2.44-1.75-3.54,2.61-5.48,8.32.36,14.2,3.4,2.31-3.19-.58-5.51-2.23-9.45,15.01-4.58,2.47-1.29,16.5-16.38,2.29-2.46,16.23-11.96,12.93-16.21l15.95-22.26c5.13-7.16,3.03-21.19,4.44-33.71,2.72.78,6.07,1.49,7.8,3.77v.04Z"/>
  <path class="st5" d="M239.3,381.14c1.65,1.89,3.68,4.46,5.91,6.27,19.43,15.86,8.27,27.46,23.8,42.82.52.51,1.2.82,1.78,1.25,1,1.72,2.13,3.46,4.05,4.23-.35,2.14,1.84,3.9,2.95,5.2l4.07,14.61c-.25,1.22-2.29.82-1.11,3.76-4.73-6.61-10.2-6.36-13.22-11.21-.81-1.29-.48-4.3-1.88-4.08l-4.62.73-3.53-5.54c-1.26-1.97-5.21-1.61-7.47-5.14-3.9,3.74,5.95,14.63,10.8,13.02-1.2,2.3-2.38,3.09-2.46,4.11-.14,2.1,1.9,3.3,2.79,5.08.76,1.51-1.08,2.37-2.26,2.48-3.6.33-7.74-13.7-14.46-16.81-4.58,6.19,8.85,17.23,8.5,27.37l-8.68-13.85c-1.71-1.51-5.05-.4-7.2-1.07-.65-1.93.71-3.14.85-5.25-2.35-.25-2.81,1.61-4.2,2.69-8.55-1.93-5.42-7.62-20.25-13.44-5.12,1.37-8.91,2.4-14.63-1.76-.37,4.85,4.21,5.65,7.26,7.44,1.04.61,4.96,8.72,4.33,10.86-.53,1.82-2.08,5.73-5.18,4.96-3.29-.82.34-5.96-.6-7.61-1.77-3.11-6.54-5.92-10.19-5.6-.53,2.48,2.24,2.28,2.82,4.36-2.32,1.73-8.07,3.73-6.8,7.6,1.17,3.56,1.96,6.36,2.24,10.07.12,1.61,3.18,2.87,2.81,4.58-1.58,7.2-10.69,10.94-14.75,16.39.36.9,1.43,1.84,1.88,1.89,1.31.14,1.34,3-.55,2.54-1.6-.39-2.23-2.67-3.55-2.78-8.19-.64-5.03,7.81-15.06,3.95.1,7.78,12.11,1.6,13.12,5.02-2.18.99-7.18,2.31-6.98,4.91,1.46,2.67,2.19,4.85.07,7.71,2.67.76,4.67.4,6.73,2.34-1.19,1.81-3.31,6.92-1.06,8.31,4.07,2.5,5.53,3.85,5.08,8.75-.19,2.05.65,18.94,7.01,19.26-2.73.99-7,2.12-9.62-.06-6.14-5.12.93-7.74-7.63-12.22-1.06-.55-3.95,1.97-3.25,3.77l12.76,32.79h-3.83c-.82-4.29-4.26-7.62-6.16-12.11-2.03-4.82-3.26-9.96-5.84-14.68-4.27-7.83-6.85-15.97-10.46-23.96-1.54-3.4-7.96-11.58-9.32-22.82-2.72-.55-2.34,1.78-4.53,3.43-1.96-4.56.37-7.9,1.42-11.58.35-1.23,2.01-27.83-2-28.52-4.26,4.36-1.81,9.1-.87,13.5-.65,3.95-6.22,2.77-9.05.96-2.36-1.51-4.27-3.46-3.96-7.63-2.29-.75-4.94-.29-6.22-1.76-1.38-1.58,2.1-3.5,1.87-4.86-2.43-1.43-6.39-2.54-8.86-2.1-2.19.4-1.82,3.56-1.7,4.95.18,2.03,4.03,2.16,5.02,4.02,1.46,2.77.19,6.23,3.88,8.51,1.05.65,1.43,3.07,1.6,4.06.26,1.47-2.02,1.79-2.81,3.77,3.09,1.58,9.43.96,9.87,5.62-.76,2.43-7.55,3.18-6.88,7.47,2.28.25,5.72-1.84,6.67.54.79,2-1.94,3.99-2.18,6.14,2.55,3.34,6.26,5.33,8.43,8.89.81,1.72-.9,4.14-.19,6.31l8.72,1.07c.89,6.47-3.55,12.56-10.9,13.79,3.8,1.35,6.6,1.17,9.69,4.13,2.07-2.28,1.61-4,1.81-6.59,7.6-.96,11.72,9.95,11.67,10.43-.1.95-1.01,1.64-3.32,2.05,1.55,3.62,4.12,5.84,7.38,8.44-.61-.49,9.78,17.13,6.78,18.55H7.8c.31-.73-.16-1.93.24-2.61,3.01-3.31,9.56.6,10.55-3.78.2-.88-3.25-13.86-3.91-15.06-.18-.76-.19-2.26-.1-3.07,3.05-2.6.82-7.36,1.36-11.01.11-.76.18-1.65.06-2.41,1.32-.18.98-2.13,1.32-3.11l5.89-16.1c2.11-5.76,4.77-11.07,3.97-17.6,6.8-9.28,8.46-20.51,12.92-30.66,5.86-13.34,11.63-26.08,15.63-39.3l14.1-20.47c12.85-18.65,10.04-9.33,20.29-18.02,5.66-4.8,13.46-5.61,19.7-8.97,9.54-5.13,19.6-5.31,29.61-8.83l21.7-7.63c5.82-2.05,10.26-3.89,12.5-9.75,1.52-3.97,6.51-3.42,9.74-4.98,9.33-4.52,17.71-9.58,27.2-12.2,2.66,5.14.25,10.86,1.82,17.84,2.34-2.77.18-6.53,3.66-8.74l3.53,10.73c1.24,3.79,12.53,17.83,12.39,22.66,3.4-1.07,5.18-1.57,7.32-1.63h.01ZM178.19,539.06c0-.84-.67-1.52-1.52-1.52s-1.52.67-1.52,1.52.67,1.52,1.52,1.52,1.52-.67,1.52-1.52Z"/>
  <path class="st5" d="M265.07,493.88c-3.73-1.49-12.23-21.43-12.12-24.59,3.31-.42,6.22,10.37,10.04,16.19,1.88,2.87,3.61,5.26,2.08,8.39Z"/>
  <path class="st5" d="M564.78,541.8c1.4,11.39,1.01,22.72-1.04,34.01h-74.74c-.18-5.5,3.9-10.35,10.02-11.01,1.65-1.95,1.99-4.19,4-5.38,3.4,2.08,6.03.35,9.31.02,2.5-.25,1.78-4.76,3.87-5.5,4.79-1.72,7.86-3.2,9.21-8.3l5.33-4.86c-22.89-5.55-19.35,5.23-29.08-1.89-3.53-2.58-3.42-5.18-2.23-10.44l-12.71-2.95c6.65-6.73,32.29-15.18,39.88-20.34l12.99-8.83c1.59-1.07,2.69-2.6,1.65-4.06-2.85-4.01-11.04,5.56-14.35,7.19-7.75,3.82-10.11,5.63-19.18,9.73-1.87-.24-3.21-4.3-2.44-5.72,1.17-2.17,3.78-1.82,6.37-2.79,2.76-1.05,6.62-7.79,5.03-10.29-2.55-4.05-8.6-.1-11.84.92-8.65,2.7-16.19,5.85-24.25,9.95-3.17,1.61-7.6,2.61-10.09-.2l40.25-18.69,10.85-5.35c12.23-6.02-17.06-2.22-14.5-4.67l12.52-8.06-6.67-1.12c.7-3.47,1.64-5.77.3-7.93-1.22-1.97-3.26-3.05-5.96-4.43,1.88-2.46,2.26-7.84-1.18-7.87-5.3-.05-6.45,7.72-13.55,6.33,7.32-4.43,7.02-13.05,10.8-17.64,5.68-6.91,13.29-11.23,17.57-19.87,1.1-2.22,7.07-4.17,9.11-2.9,2.2,1.36,1.47,4.67.64,5.68l-4.76,5.8c4.77,1.3,12.45-6.83,16.45-1,4.02,5.88-6.78,5.26.76,13.59,3.34,3.68.87,11.7,3.94,14.47,3.89,3.5,5.74,4.38,5.84,10.15.67,39.08,15.07,42.84,3.7,58.51,2.1,1.41,5.97,3.05,5.6,5.82-.28,2.02-.04,5.86-1,7.8-1.06,2.16-6.85,4.49-4.86,6.97s5.84,4.09,8.46,5.13h-.02Z"/>
  <path class="st5" d="M441.06,575.82h-47.79c.82-2.73,2.17-5.91,1.67-9.3-.75-5.01,2.73-7.85,4.39-11.76,1.16-2.75-2.83-7.66.52-10.34s6.03-5.15,6.3-9.66l7.22,2.96c.92-4.23-4.32-4.26-5.48-7.25s7.5-4.35,7.97-1.35c1.01,6.53.05,12.16-.83,18.53-.2,1.51,5.13,1.67,5.33-.4.52-5.23,2.96-8.62,4.96-12.97,2.44-5.29,2.87-11.17,6.09-15.53,7,7.38-3.97,10.1.48,18.8,3.64-5.66,5.66-13.14,4.38-19.6,4.38-4.18,9.68-33.59,13.03-40.24l9.89-19.57,5.71-16.41c5.01-14.38,10.57-27.5,15.1-42.88-9.55,10.99-11.86,24.53-17.68,36.68-7.01,11.4-10.33,31.31-18.28,39.85,1.51-9.54,2.31-20.17,6.67-28.5,5.33-10.19,11.64-18.61,14.03-30.38.11-.52,11.88-19.02,14.34-22.44l1.7,4.8c5.78-5.44,8.91-15.12,19.18-14.75-11.25,8.22-18.17,19-21.75,31.82-2.47,8.86-7.5,16.69-9.31,25.63-3.28,16.23-7.63,24.39-9.62,42.12-.46,4.08-1.55,6.33-3.74,10.63,6.75-2.08,14.28-15.44,19.76-13.59-6.69,15.65,13.47-4.36,26.42-5.65.7-.07.63,2.97-.33,2.7-.57-.17-1.9-.18-2.87.31l-23.66,12.29c-3.24,1.69-9.58-1.83-12.15,2.67-4.65,8.18-8.2,10.44-6.85,12.38.33.46,1.64,1.36,2.18.71.93-1.11,1.59-2.23,2.47-2.5.61-.19,1.77,1.41,1.53,2.1-2.9.31-4.65,2.25-5.06,5.62-.34,2.81,2.89,1.82,6.53,4.72-7.33,3.72-11.47,10.84-7.98,17.6-2.91,1.12-4.41,1.97-4.74,3.46-.82,3.6,4.95,5.36,4.37,6.54-5.14,10.38-2.55-5.55-10.05,20.29-1.18,4.06-5.13,7.31-4.05,11.81v.04ZM442.31,525.69c8.85-14.38,11.23-28.87,14.02-46.38-8.15,2.43-13.98,37.21-14.02,46.38Z"/>
  <path class="st5" d="M377.88,575.82h-5.17c-2.12-5.78-.58-11.44-.26-17.78l1.24-25.73c.18-3.67,2.16-8.37,1.88-11.03-.75-7.19,1.55-12.79,3.02-19.58,1.36-6.26,2.53-11.15,4.86-17.16,7.38-18.95,14.64-37.34,23.23-56.06,8.61-18.76,20.61-34.48,34.62-49.49,3.37-3.61,5.86-8.55,11.74-8.56.63,2.67-2.75,4.29-2.48,6.55.16,1.36,2.75,1.65,3.02,2.47.29.87-.6,1.91-.58,3.19.37,21.31-7.98,13.88-7.19,17.74,1.35,6.59,2.72,7.79,1.02,13.03-.52,1.59-4.23,2.1-4.91,3.89-1.35,3.55-2.55,5.9-4.66,8.95-4.02,5.79-1.41,22.76-10.91,25.85,1.34-6.65.87-12.27,2.61-17.9l4.55-14.69c.71-2.3-3.43-5.17-1.25-7.74,1.52-1.81,2.4-3.49,2.42-5.7.02-1.43-.9-4.08-3.4-4.27-7.48,10.78-13.49,22.84-20.34,33.95-4.19,6.8-6.94,13.93-10.67,21.1-11.57,22.25-18.72,45.43-18.74,70.67,0,5.76-1.73,11.76-1.22,17.4.55,6.08-.87,11.41-1.26,17.4-.31,4.66.84,9.22-1.2,13.49v.04Z"/>
  <polygon class="st6" points="-9.86 -39.63 -9.86 -41 606.94 -41 606.94 575.82 605.58 575.82 605.47 -39.53 -9.86 -39.63"/>
  <path class="st4" d="M175.89,575.82h-10.43c3-1.42-7.39-19.05-6.78-18.55-3.26-2.6-5.83-4.82-7.38-8.44,2.31-.41,3.23-1.1,3.32-2.05.05-.48-4.07-11.39-11.67-10.43-.19,2.58.26,4.31-1.81,6.59-3.09-2.96-5.89-2.78-9.69-4.13,7.34-1.23,11.79-7.32,10.9-13.79l-8.72-1.07c-.71-2.17,1-4.59.19-6.31-2.17-3.54-5.88-5.54-8.43-8.89.24-2.14,2.97-4.13,2.18-6.14-.95-2.38-4.39-.29-6.67-.54-.67-4.27,6.12-5.02,6.88-7.47-.45-4.67-6.78-4.06-9.87-5.62.77-1.97,3.06-2.3,2.81-3.77-.17-.98-.55-3.41-1.6-4.06-3.68-2.29-2.42-5.73-3.88-8.51-.99-1.87-4.84-1.99-5.02-4.02-.12-1.38-.49-4.55,1.7-4.95,2.46-.45,6.43.66,8.86,2.1.23,1.36-3.25,3.29-1.87,4.86,1.29,1.47,3.93,1.01,6.22,1.76-.31,4.18,1.6,6.13,3.96,7.63,2.83,1.81,8.4,2.99,9.05-.96-.94-4.39-3.41-9.14.87-13.5,4.02.7,2.35,27.3,2,28.52-1.05,3.68-3.38,7.02-1.42,11.58,2.19-1.65,1.82-3.99,4.53-3.43,1.36,11.23,7.78,19.42,9.32,22.82,3.61,7.99,6.19,16.15,10.46,23.96,2.58,4.72,3.8,9.86,5.84,14.68,1.89,4.48,5.35,7.83,6.16,12.11h-.02Z"/>
  <path class="st5" d="M319.68,575.82h-15.8c-2.42-8.54-1.4-19.48-4.42-26.18-1.87-4.13-6.92-6.43-8.01-10.92-.98-4.03-1-7.86-4.23-10.09,7.51-.77,9.63,3.31,12.11,7.5,1.7,2.87,3.94,5.3,5.43,8.61,1.28,2.83,5.56,3.6,6.33,7.65,2.85-3.6,7.26-5.77,11.19-5.54,2.11.12,1.99,5.03-1.01,8.32,3.67,14.79-2.83,12.84-1.59,20.66h-.01Z"/>
  <path class="st5" d="M355.69,575.82h-6.38c-.6-6.89,1.95-13.06,4.85-19.69,1.72-3.91.24-9.15,3.95-12.14.88-.71,3.67-1.34,3.73-.05s.65,3.19.29,4.74l-6.45,27.13h.01Z"/>
  <path class="st2" d="M309.71,26.84c-2.32-.31-2.99,1.77-.28,1.83,15.63,1.42,11.8,9.72,17.11,7.34,1.34-.59,1.22-2.24,1.05-3.5,1.41.35,2.75,1.13,4.19,1.34,2.72,2.71,6.75,4.42,9.66,6.97l3.19,2.83c.6,2.76-2.94,4.25-4.26,6.5,2.34.4,4.06,5.51,5.92,6.14,7.12,2.4,10.78,7.34,15.28,12.58,1.94,2.25,1.53,6.41,3.54,8.36l4.03,3.91c2.46,2.38,4.39,7.01,5.47,10.58,1.07,3.58-1.04,7.92.81,11.35-1.36.43-3.34-.57-4.21,1.44l4.44.18c.07.49-.08.99-.05,1.47-2.11-.19-4.47-.41-5.66,2.71,1.12,1.17,2.56.71,4.24,1.88-2.24,2.37-5.31,2.85-8.21,4.07,2.08,1.31,3.18,2.46,3.08,4.03-.14,2.38-12.64,10.76-11.79,9.89-2.4,2.48,1.16,7.78,3.53,10.26-2.97,2.93-24.7.79-22.01,3.65l-4.08-.07c.06-1.37-.24-2.53-1-3.43-1.51-1.77-2.72,1.08-3.93,1.05-4.7-.16-9.05.77-13.67,1.26-4.27.46-6.94.13-10.2,4.33-1.13,1.46-4.23,1.66-5.18,3.25-2.56,4.31,3.07,17.29,2,26.06-1,8.22.49,14.18,4.27,21.46,2.83,5.43,5.45,12.88,12.8,11.72-.04,12.39-6.6-3.97-11.22-1.35-1.3-.34-2.73-.29-3.79.64-1,.88-1.43,2.23-1.6,3.52-.4.3-.66.94-1.1,1.16-.63.2-1.34.11-1.97.47-.76.42-1.85,1.24-1.12,2.28l-2.22.1c-1.37-2.5-4.83-1-7.12-1.6-1.78-.47-3.19-3.32-5.14-1.57-1.38,1.25-3.34,2.12-4.35,3.66-1.36-.06-2.72.78-4.06.88-1.71-1.75-5.18-4.82-3.35-7.72,1.43-2.28,4.47-3.52,5.88-6.25,1.49-.94,2.91-.61,2.82-1.95-.19-2.67-1.76-3.87-4.09-3.4-24.8,4.92-29.5,31.06-41.65,28.57-8.57-1.76-9.44-11.6-13.93-16.12-4.91-4.95-8.65-6.63-6.86-15.14,1.22-5.79-.95-12.87,2.88-19.43,23.41.77,21.17,10.01,37.19,6.42,6.89-1.55,13-3.47,17.43-9.78,1.01-1.43,4.49-1.14,4.74-3.25.1-.79.4-1.85,1-2.11.49-.2,1.55-.17,2.03-.19.42.71,1.11,2.14,1.82,1.93.47-.14,6.81-3.18,5.88-10.85-1.7-13.97-12.65-9.64-18.52-17.21-.58-.73-2.32-.84-2.97-.69-.59.13-.92,1.05-1.14,1.78l-8.33.2c-15.03.37-13.77-3.94-17.47,1.52,0,0-12.4,1.38-13.67,8.48-2.01.41-5.8,1.91-3.71,4.11,0,.83-.52,1.69-.45,2.52-1.71-1.77-4.71,1.85-6.66.96-3.44-1.55-3-6.83-3.64-10.07,2.37-.93,4.18-.05,5.97-1.07-3.36-2.4-2.02-6.07-4.89-7.89-1.4-.89-2.11-1.83-1.85-3.12.23-1.2.79-2.06,2.17-2.2,1.1-.12,2.31-.06,4.26,3.87.58-.43,2.29-18.87,1.28-22.89-1.82-7.27.33-33.62,3.18-39.85,1.34-2.93,2.29-6.66,3.99-9.17,2.38-3.53,6.47-5.57,8.62-9.39s5.97-4.98,9.58-6.02c.24-1.35-.29-2.9.51-2.95,1.4-.1,3.36.94,4.33.64-.06-1.94-1.02-3.54.36-4.55,1.65-1.2,3.79.37,5.27.25.77-2.46-3.07-2.34-2.01-3.8,2.16-2.97,11.6-4.76,12.25-4.46,9.07,4.31,1.64-5.02,8.01-5.19,1.48-.04,5.21-2.71,4.89.4-.29,1.95-1.9,2.94-.75,4.08.7.7,2.32.07,3.03-.71.34-.37.05-.94-.31-2.16,2.99-4.53,7.92-5.41,12.98-4.98-5.09-.42,15.12-1.71,8.51-3.21,3.5-.41,7.5-.46,8.97,2.44h.01ZM219.34,142.63c-.41,1.63.95,2.56,1.63,2.56s2.01-.45,2.28-1.13c.45-1.11.26-1.67-.31-2-.7-.37-3.18-1.04-3.58.55h-.01Z"/>
  <path class="st1" d="M380.85,81.55c4.98,18.78,3.46,28.46,8.01,47.93,1.58,6.73-.9,19.7,1.42,25.56.69,1.73.2,6.47,3.3,6.63s5.86-1.4,7.47,1.66c.11,5.03.48,9.99.04,15.01-3.31,2.43-4.36,8.38-2.41,11.98l-.23,2.85c-.46.35-1.04.85-1.1,1.47-1.06,9.84-5.2,19.12-7.47,29.27-1.43,6.39-5.38,10.79-12.45,10.58-2.34,13-4.11,25.53-9.24,37.27l-6.12,13.99c-1.73.08-3.6-2.37-5.49-2.76-2.78,2.35-6.53,1.83-9.58,2.56-5.8,1.4-6.65,8.74-9.28,12.75-1.34,2.03-5.83,1.24-6.2,4.07-.22,1.6-.29,3.2-1.3,4.18-.88.85-2.69-.3-3.72.12-1.7,1.04-.82,3.85-1.72,6.42-1.71-.82-1.28-2.52-2.07-4.02-2.81,3.38-5.57,5.86-9.87,6.6s-6.55-1.91-7.47-5.55c-1.26,2.54-.29,5.05-2.31,5.77-3.06,1.08-14.88.76-12.7,1.49-4.01-1.36-7.14-1.04-9.49-.16-3.05-2.89-7.45-2.78-12.04-1.57-1.48-1.42-.06-3.4-1.44-5.5-1.42,1.17-.72,2.73-2.24,4.58l-8.04-5.86c.12-5.51-1.57-10.22-6.35-12.59-.12-1.38.3-2.44.45-3.52.93-.57,1.77-1.6,2.95-1.81,2.94-.51-.76,7.06,4.35,7.13,2.06,3.59,2.73,7.26,5.86,10.86.31-3.29,8.67-2.29,8.75-1.72l.65,4.48c2.25-3.32,5.8-4.56,7.28-8.06,1.1,3.76,1.78,5.74,4.01,6.69s3.68-1.49,6.04-2.06c1.36-.33,3.07,2.3,4.14,1.29,3.91-3.67,2.89-5.33,7.31-5.94,1.52-.2,2.38,1.76,3.5,2.7,1.63-.67,3.93-1.49,5.53-2.53-.42-2.93-.45-5,.81-6.89.93-1.4,3.8-.71,5.65-2.07,7.97-5.91-2.79-12.22,7.27-11.35,4.3-6.09,9.22-13.89,16.21-16.25,1.25,1.1,6.12,3.89,5.95,1.2-.04-.61,4.65-20.14,5.13-22.2,1.28-5.36-3.11-15.11,2.29-18.98,3.61-2.59,6.07-5.76,9.21-8.9,2.6-2.61,8.27,4.62,8.66,8.09,3.56-11.86,2.54-23.89,6.98-34.5l2.85,4.19c2.83-5.62,3.31-11.81,2.18-17.82-1.12-.81-3.11.87-3.71,1.38-.9-.2-1.88-.64-2.32-1.32-.69-1.06.43-2.18.46-3.54l.67-28.28c.16-6.31,1.53-12,.49-18.48-.3-1.88,2.22-6.73.55-8.33-5.17-3.72-4.97-8.03-5.36-13.63-.04-.48.12-.98.05-1.47-.19-.49.02-1.17-.22-1.63-1.84-3.43.22-7.89-.81-11.35s-3.01-8.21-5.47-10.58l-4.03-3.91c-2-1.94-1.6-6.09-3.54-8.36,3-9.33-9.46-6.19-5.53-15.06-3.64-4.12-7.3-7.67-11.43-10.17l-3.19-2.83v-1.77c18.21,8.56,31.21,24.14,39.41,42.5l.05.05ZM380.42,114.91c0-.48-.39-.87-.87-.87s-.87.39-.87.87.39.87.87.87.87-.39.87-.87ZM321.58,306.06c1.53-3.49,2.13-4.47,2.61-6.26-3.18-.28-4.7-3.29-9.02-1.48l6.42,7.74h-.01Z"/>
  <path class="st1" d="M255.83,31.09c-1.78,3.11-6.45,3.3-9.19,6.02-10.8,10.78-11.73,2.48-8.84,11.22-1.29.72-2.41.04-3.11.05-.63,0,.06,1.66-.05,2.58-4.33,1.07-6.21,6.73-8.84,10.04-7.19,9.09-9.99,18.29-10.46,29.74-.14,3.62-6.75,7.14-3.38,11.92-1.93.98-3.61.17-5.37,1.84,1.36,1.9,3.03,2.73,3.37,4.14.31,1.34-.54,3.36-1.72,4.48-2.03,1.96-.7,3.97.96,5.91-3.01,1.29-6.43,1.97-9.99,4.86,2.85,6.25-1.73,11.78-1.46,17.64.16,3.37,4.66,18.47,1.24,28.8-1.1,3.32,2.99,6.62,2.79,9.57-.13,1.99,3.08,38.05,6.66,37.89,1.48-.06,2.69-1.25,4.37-2.43l4.15,26.45c.31,2.02,13.15,21.99,12.28,21.16l2.4,2.3c.65.63-1.23,1.34-1.89,2.48,2.99,1.07,5.85-1.02,7.53,1.02,1.49,1.83,1.48,3.99,3.78,5.77,1.46,1.13,10.02-.4,11.4,3.11.84,2.11,1.43,3.48-1.66,5.39.67,1.42,1.44,2.26,1.07,2.99-.71,1.37-2.42,1.91-4.41,3.03,1.51.9,2.41,2.38,2.62,4.03-2.82-1.26-5.89-1.46-9.27-.76-3.6.75-3.31-4.18-5.01-5.55-3.71-2.99-7.28-5.73-5.71-10.72-3.01-.52-4.53-.1-7.18.06.64-2.44,1.46-3.78.93-6.32l-9.4.67c3.77,3.5,5.01,7.04,4.55,10.93-2.78.48-4.23,3.2-6.67,4.32-2.84-4.83-.7-10.72-2.53-16.41-3.96-12.34-5.21-24.51-7.5-36.58-.24-1.24-.55-2.87-.69-4.06l-4.68-42.42c-.55-5.03-.71-9.81-2.16-14.76-1.81-6.21-4.8-11.72-7.2-17.8-.29-.72,0-1.93,0-2.72.1-8.55.98-17.24,2.23-25.75,1.37-9.34,3.65-18.81,4.44-28.86,1.07-13.45,6.3-24.86,12.82-36.22,2-3.48,3.13-5,6.37-7.28,10.13-7.18,30.98-21.77,42.38-21.78h0ZM248.84,278.3c0-.37-.3-.69-.69-.69s-.69.3-.69.69.3.69.69.69.69-.3.69-.69Z"/>
  <path class="st3" d="M297.63,22.02c-.48,1.2,1,.89,1.6,1.02l1.51,1.34c6.61,1.51-13.61,2.79-8.51,3.21-5.06-.42-9.99.47-12.98,4.98.36,1.23.65,1.78.31,2.16-.71.78-2.34,1.41-3.03.71-1.16-1.14.46-2.13.75-4.08.33-3.11-3.42-.43-4.89-.4-6.37.18,1.06,9.5-8.01,5.19-.65-.3-10.09,1.48-12.25,4.46-1.06,1.46,2.78,1.35,2.01,3.8-1.48.12-3.61-1.46-5.27-.25-1.38,1.01-.42,2.61-.36,4.55-.98.3-2.94-.73-4.33-.64-.81.06-.28,1.6-.51,2.95-3.62,1.04-7.53,2.37-9.58,6.02-2.06,3.65-6.24,5.86-8.62,9.39-1.7,2.5-2.65,6.24-3.99,9.17-2.85,6.24-5.01,32.58-3.18,39.85,1.01,4.02-.7,22.46-1.28,22.89-1.95-3.93-3.17-3.99-4.26-3.87-1.38.16-1.94,1.01-2.17,2.2-.25,1.3.46,2.23,1.85,3.12,2.87,1.83,1.53,5.5,4.89,7.89-1.79,1.02-3.6.13-5.97,1.07.64,3.24.19,8.5,3.64,10.07,1.96.89,4.96-2.73,6.66-.96.48,5.92,1.23,13.82,8.66,15.51,2.6.45,6.86-3.5,10.21-3.83,1.97-.19,1.24-3.71,1.34-4.65,1.58-.7,3.62-3.5,5.73-2.18-.2,4.05.51,7.14,3.08,8.97,2.2,1.55,5.14.31,7.78-.18,2.38-.45,4.49-.52,4.88-3.77.23-1.9-.37-4.17-2.17-5.57.39-1.24.9-2.55,2.38-2.71,3.87,4.01,7.78,9.31,13.64,8.92-.25,2.11-3.73,1.81-4.74,3.25-4.43,6.3-10.54,8.22-17.43,9.78-16.01,3.6-13.79-5.65-37.19-6.42-3.84,6.57-1.67,13.64-2.88,19.43-1.77,8.5,1.95,10.19,6.86,15.14,4.49,4.53,5.35,14.35,13.93,16.12,12.15,2.49,16.84-23.65,41.65-28.57,2.34-.47,3.9.72,4.09,3.4.1,1.34-1.32,1.01-2.82,1.95-1.41,2.73-4.44,3.99-5.88,6.25-1.83,2.91,1.64,5.97,3.35,7.72-.57,1.17-1.31,2.42-1.37,3.42-.12,2.11,2.58,2.22,3.8,2.41,1.22,2.7,4.38,3.38,8.06.95-.46,3.29,2.76,5.6,3.59,8.8,1.05,3.99-3.47,7.49-6.49,9.52,2.31,1.54,4.79,1.3,7.38,1.95,2.25-2.66,5.05-5.38,8.83-6.01,3.3-.54,5.29,3.76,8.01,4.71.52-1.44.41-2.37.63-3.19.25-.93,1.2-1.24,1.58-.18.72,2.02-1.83,4.13-1.54,6.65.2,1.83,2.35,1.51,4.3,3.13-6.04.67-12.4,1.94-19.14,1.53-4.43-.26-8.81-3.03-13.12-.22,1.63,3.14,5.23.39,8.58,3.5-.41.75-21.64,1.44-11.82-2.42-2.48-1.77-5.94.65-8.68-1.11-1.87-1.19.02-4.36,2.01-4.72l9.64-1.73c1.35-.24,1.26-1.89,1.24-3.12-.02-1.51-2.13.12-3.19-.55-.73-.47-1.06-1.55-1.24-1.97-.4-.87-.92-.41-1.36-.2-1.22.55-.71,1.84-1.6,4.42l-3.76-8.97c-9.67,2.06-11.11,3.77-13.69,15.44,4.44,5.14-5.97,11.02,1.81,11.31-.73,2.76-1.42,5.66-2.64,8.71-1.11,2.77,1.24,4.98,3.26,6.2-.25.87-1.13,1.61-1.51,1.81-3.21,1.67,2.96.7,3.24,1.01,12.45,14.12,22.94,8.38,22.58,8.31.71.14,1.93,2.18,1.42,2.94-1.41,2.11-4.77,2.6-7.44,3.76,3.28,6.03,10.48,5.25,15.3,1.64l-6.5-11.02c-2.13-3.61-9.08-3.93-10.69-9.01-2.81-8.86,15.2-5.6,15.8-10.96.25-2.31-3.73-4-5.76-2.87.71,1.12,2.46.66,3.03,1.95-7.34.54-18.53-.58-19.41-6.5,4.05.04,7.84.13,12.51.94,9.81,1.7,19.61.23,29.6.51,3.02.08,6.45,1.88,9.3.87,5.73-2.03,9.93-.72,15.57,3.14.31-2.87-1.11-6.13,1.75-6.3,1.4-.08,2.1,3.55,4.32,4.3,3.14-6.72,6.98-.46,2.99-16.53-.2-.84-1.19-2.14-1.65-2.47-.3-.22-.81.81-1.66,1.79l-2.66-8.6c-6.69-.43.19-1.88-11.88-5.88-2.41-8.26.52-20.58-7.63-19.29-7.34,1.17-9.97-6.29-12.8-11.72-3.78-7.27-5.27-13.23-4.27-21.46,1.06-8.77-4.58-21.76-2-26.06.95-1.59,4.06-1.81,5.18-3.25,3.26-4.2,5.91-3.88,10.2-4.33,4.61-.49,8.97-1.42,13.67-1.26,1.2.04,2.42-2.81,3.93-1.05.77.9,1.07,2.06,1,3.43-10.09-.18-18.13,2.88-24.5,11.27-3.24,4.27-8.19,9.83-4.25,15.56.88,1.28,4.72.94,5.01,3.6.95-2.58-.14-5.02,1.65-6.38,1.26-.96,3.89-1.6,5.65-1.58l-3.12,3.54c-.58.66.81,1.58,1.85,1.44-.89.73-2.52,1.83-3.08,2.84-1.82,3.24,7.61,8.02,12.93,7.68,2.41-.46,3.07-5.77,3.9-7.73,2.61-.3,5.97.85,8.84-.67,3.77-2.01,3.49-7.47.35-9.63,4.55-2.79,6.02,1.31,8.4,2.55-.9,1.02-1.81,2.82-.37,4.36,3.5,3.77,8.49,6.24,13.75,6.07s8.97-3.74,7.59-8.83c-4.08-15.03-5.06-19.93-21.18-22.82-3.5-.63-6.98,1.63-9.32-1.19-2.69-2.85,19.02-.72,22.01-3.65-2.37-2.48-5.94-7.79-3.53-10.26-.84.87,11.66-7.5,11.79-9.89.1-1.58-1-2.72-3.08-4.03,2.9-1.22,5.97-1.69,8.21-4.07-1.67-1.17-3.12-.71-4.24-1.88,1.19-3.12,3.55-2.9,5.66-2.71.39,5.6.19,9.91,5.36,13.63,1.67,1.59-.85,6.45-.55,8.33,1.04,6.48-.35,12.17-.49,18.48l-.67,28.28c-.04,1.35-1.14,2.48-.46,3.54.45.69,1.42,1.13,2.32,1.32-3.18,3.29.14,8.74-1.32,12.23-4.44,10.61-3.42,22.64-6.98,34.5-.39-3.47-6.04-10.7-8.66-8.09-3.14,3.14-5.6,6.31-9.21,8.9-5.39,3.88-1.01,13.62-2.29,18.98-.49,2.06-5.18,21.59-5.13,22.2.17,2.69-4.7-.1-5.95-1.2-6.98,2.35-11.91,10.16-16.21,16.25-10.07-.87.71,5.43-7.27,11.35-1.84,1.36-4.72.67-5.65,2.07-1.25,1.9-1.23,3.96-.81,6.89-1.6,1.04-3.89,1.85-5.53,2.53-1.12-.94-1.99-2.9-3.5-2.7-4.42.6-3.41,2.26-7.31,5.94-1.08,1.01-2.78-1.61-4.14-1.29-2.36.55-3.87,2.97-6.04,2.06s-2.91-2.94-4.01-6.69c-1.49,3.5-5.05,4.73-7.28,8.06l-.65-4.48c-.08-.57-8.43-1.58-8.75,1.72-3.13-3.6-3.8-7.27-5.86-10.86-5.09-.07-1.41-7.63-4.35-7.13-1.18.2-2.02,1.24-2.95,1.81l-1.12.31c-.23-1.65-1.12-3.13-2.62-4.03,1.99-1.12,3.7-1.66,4.41-3.03.37-.72-.41-1.57-1.07-2.99,3.11-1.91,2.5-3.28,1.66-5.39-1.38-3.49-9.95-1.97-11.4-3.11-2.3-1.78-2.29-3.94-3.78-5.77-1.67-2.05-4.54.05-7.53-1.02.66-1.14,2.54-1.87,1.89-2.48l-2.4-2.3c.87.83-11.97-19.12-12.28-21.16l-4.15-26.45c-1.69,1.17-2.89,2.36-4.37,2.43-3.58.16-6.79-35.91-6.66-37.89.19-2.95-3.89-6.26-2.79-9.57,3.42-10.33-1.08-25.43-1.24-28.8-.28-5.86,4.31-11.39,1.46-17.64,3.56-2.9,6.98-3.58,9.99-4.86-1.66-1.94-3-3.95-.96-5.91,1.17-1.13,2.03-3.15,1.72-4.48-.34-1.42-2.02-2.24-3.37-4.14,1.77-1.66,3.44-.87,5.37-1.84-3.37-4.78,3.24-8.3,3.38-11.92.47-11.45,3.28-20.66,10.46-29.74,2.62-3.31,4.5-8.97,8.84-10.04.1-.92-.58-2.56.05-2.58.7,0,1.82.67,3.11-.05-2.89-8.74-1.96-.45,8.84-11.22,2.73-2.72,7.4-2.9,9.19-6.02,13.17-6.1,27.25-10.46,41.82-9.07l-.04.04ZM356.6,201.61c3.53.9,2.49,7.14,5.66,7.63,2.79.45,6.23-7.2,5.2-10.28-3.32-9.98-16.18-13.34-25.9-10.1-4.18,1.38-6.1.12-8.86-2.24-3.38-2.89-11.97.07-12.55,5.14-.43,3.8,1.82,9.55,2.91,12.71,3.7,1.71,7.85,2.81,11.29,5.15,8.67,5.89,8.6-3.54,16.16,2.26-.7-4.14,1.64-10.14,6.07-10.29h.01ZM234.66,248.28c2.54,3.13,3.38,7.42,7.25,7.54,6.26.19-.36-11.72-.26-14.12-2.14-.82-4.21,2.05-5.44,4.73-1.51-1.18-1.25-3.01-4.05-4.48-1.08,2.25-1.77,4.2-3.62,5.79,1.57,2.36,4.89-1.01,6.14.53h-.01ZM311.55,275.46c-1.54-6.49-11.14-5.96-17-6.37-1.36,1.54,1.49,8.16,3.93,6.84,10.78-5.89,14.64,6.18,13.06-.47h.01ZM285.7,298.51c0-.45-.36-.81-.81-.81s-.81.36-.81.81.36.81.81.81.81-.36.81-.81Z"/>
  <path class="st3" d="M327.59,32.5c.17,1.28.29,2.91-1.05,3.5-5.31,2.37-1.48-5.94-17.11-7.34-2.71-.06-2.05-2.13.28-1.83,3.55-.22,7.02-.24,10.57,2.43,2.24,1.69,6.41.28,7.31,3.24h0Z"/>
  <path class="st3" d="M341.44,39.05v1.77c-2.89-2.56-6.94-4.26-9.64-6.97,3.83.53,6.43,3.7,9.64,5.21h0Z"/>
  <path class="st2" d="M299.23,23.06c-.6-.13-2.07.17-1.6-1.02.65.06,1.14.63,1.6,1.02Z"/>
  <path class="st5" d="M350.83,533.69c3.52-3.31,2.32-6.88,3.61-10.28,1.51-3.99,2.83-8.21,4.42-12.02l4.42-10.55c2.4-5.72,8.02-9.97,6.73-17.31,8.33-6.33,8.84-16.31,11.22-25.24,5.27-19.75,20.34-35.17,22.44-47.36.95-5.5,2.02-9.83,4.13-14.87l11.03-26.49c4.82,2.43,3.12,7.47,1.34,11.09-2.58,5.23-2.1,11.21-4.3,16.58-4.38,10.67-10.38,20.29-14.81,30.96l-14.1,34-17.04,40-6.38,12.75c-1.49,2.97-10.01,23.39-11.97,22.43-.78-.39-1.54-2.94-.76-3.68h.01Z"/>
  <path class="st5" d="M349.54,540.13c6.06-.63-.94,10.75-3.28,12.75-2.02-4.29-1.34-9.96,3.28-12.75Z"/>
  <rect class="st5" x="466.1" y="464.43" width="11.92" height="2.85" transform="translate(-186.05 548.05) rotate(-51.74)"/>
  <circle class="st5" cx="362.54" cy="538.15" r="1.87"/>
  <circle class="st5" cx="478.95" cy="457.36" r="1.52"/>
  <circle class="st5" cx="468.07" cy="495.48" r="1.52"/>
  <path class="st3" d="M220.07,281.59c-.12.59,0,1.18-.02,1.76s.64,1.49.4,1.99c-1.31,2.67,1.78,3.31,2.56,4.62l5.38,9.07c6.12,10.31,12.58,20.53,21.34,29.4,2.38,2.41,6.29,1.07,8.65,2.53,7.93,4.89,16.39,7.07,24.85,10.57,4.29,1.77,7.28,6.02,13.45,3.8,3.29-1.18,6.98-.01,8.21,3.64.82,2.42-.23,4.84-2.85,7.16,1.52,1.52,2.94,1.65,4.05,2.55-2.31,1.36-3.11,2.34-4.64,3.71,10.64,2.96-4.3,2.23,11.38,10.64l-21.64,20.19c-2.93,2.73-5.14,6.8-3.09,9.86l.3,3.83h-2.47c-.57-.61-1.42-1.44-2.22-1.23-.98.26-1.94,1.17-2.7,1.97-2.53,2.66-4.44-2.12-6.57-1.93-5.21.48-6.78,8.6-4.5,12.75,1.59,2.89,1.16,5.01-.52,7.47,4.31,1.91,6.12,5.49,5.43,9.74-1.91-.77-3.03-2.5-4.05-4.23-.35-.6-1.25-.84-1.78-1.25-15.52-15.35-4.37-26.96-23.8-42.82-2.23-1.82-4.26-4.38-5.91-6.27-4.05-4.62-8.6-10.09-11.03-16.12-1.41-3.49-.87-4.65-3.49-6.15-1.44-6.18-1.16-12.93-4.06-18.61.48-6.6-3.23-12.79-4.23-19.17-1.38-8.85-4.72-27.87-4.15-35.34,2.46-1.12,3.9-3.84,6.67-4.32.35-.06.72.02,1.06.14v.04ZM279.54,353.33c-.65-5.68-5.79-7.96-10.1-9.16-3.95-1.11-8.16-4.88-12.63-3.47-.02,1.52,1.64,3.29.45,4.61,2.43-.54,5.06-.12,6.39,1.08-1.57.73-1.78,3.05-4.9,4.07,3.48-2.3,16.01,10.44,20.79,2.85h0ZM276.95,357.28c0-.48-.39-.87-.87-.87s-.87.39-.87.87.39.87.87.87.87-.39.87-.87Z"/>
  <path class="st2" d="M190.46,193.41c-.75,4.03-.05,8.79,3.32,11.62.4-3.54.76-6.69.3-10.43-.18-1.51-2.72-.98-3.62-1.18.61-3.36,2.84-7.83,6.48-7.13l4.68,42.42c-1.84,1.01-2.66,3.96-4.88,4.98-6.26,2.88-10.27-2.06-13.15-6.66-5.65-10.73-8.77-22.91-12.82-34.88-2.43-7.2-3.23-13.12-.76-19.45l2.03,8.42c2.05-4.37.76-9.02,3.47-12.55,2.11-2.75,6.43-3.17,8.84-1.82,4.47,2.49,7.56,8.9,7.33,12.23-.07,1.05-5.05,3.23-5.44,14.61,1.51.63,3.09-.45,4.2-.19h.01ZM178.92,205.35l-1.44-17.78c-1.64,6.09-1.35,12.32,1.44,17.78ZM183.73,211.59c.47-1.66-1.59-4.43-4.12-4.97,3.11,5.41-1.17,6.59,4.12,4.97Z"/>
  <path class="st4" d="M220.71,340.25c-.43,6.02-1.41,15.5,4.06,18.61,2.62,1.51,2.08,2.66,3.49,6.15,2.44,6.02,6.98,11.5,11.03,16.12-2.14.07-3.93.55-7.32,1.63.13-4.83-11.15-18.87-12.39-22.66l-3.53-10.73c-3.49,2.22-1.34,5.97-3.66,8.74-1.57-7,.84-12.7-1.82-17.84l5.9-19.19c1,6.38,4.71,12.57,4.23,19.17h.01Z"/>
  <path class="st3" d="M177.83,153.7c1.02.12,2.24.51,2.55,1.24.7,1.64.39,3.12.41,4.5-1.48-.35-3.37-.19-4.88.81-.98.65-1.84,3.42-.73,4.01,2.38.14,4.47-1.69,5.78-2.7,5.11.17,9.03,7.67,13.81,9.96,1.44,4.95,1.6,9.73,2.16,14.76-3.64-.7-5.86,3.77-6.48,7.13-1.11-.25-2.7.82-4.2.19.4-11.39,5.38-13.57,5.44-14.61.22-3.34-2.87-9.74-7.33-12.23-2.41-1.34-6.72-.92-8.84,1.82-2.72,3.53-1.43,8.18-3.47,12.55l-2.03-8.42c.79-2.03-.73-14.83,7.81-19h0Z"/>
  <path class="st2" d="M184.74,152.54c.58.19,1,1.49,1.41,1.96.77.87,1.52.47,1.42-.78,2.41,6.08,5.39,11.58,7.2,17.8-4.78-2.29-8.71-9.79-13.81-9.96.05-.7-.16-1.42-.17-2.12-.02-1.38.29-2.87-.41-4.5-.31-.73-1.53-1.12-2.55-1.24,2.17-1.05,4.19-2.07,6.9-1.16h.01Z"/>
  <path class="st4" d="M8.06,573.2c3.49-5.82,3.65-12.81,6.63-18.83.66,1.19,4.11,14.18,3.91,15.06-.99,4.37-7.55.46-10.55,3.78h0Z"/>
  <path class="st3" d="M201.62,228.7c.13,1.2.45,2.83.69,4.06l-5.7,3.59c-4.85,3.06-12.15-3.8-13.02-9.32,2.88,4.6,6.89,9.54,13.15,6.66,2.22-1.02,3.03-3.96,4.88-4.98h0Z"/>
  <path class="st4" d="M14.61,551.3c.48-3.7-1.25-8.12,1.36-11.01-.54,3.65,1.67,8.4-1.36,11.01Z"/>
  <path class="st0" d="M187.57,150.99c0,.79-.29,2,0,2.72.1,1.25-.66,1.65-1.42.78-.41-.46-.83-1.77-1.41-1.96.48-1.13,1.65-1.63,2.83-1.55h0Z"/>
  <path class="st4" d="M16.03,537.89c-.18-1.28.96-2.12,1.32-3.11-.35.96,0,2.91-1.32,3.11Z"/>
  <path class="st2" d="M285.92,406.95c.31,5.06-.25,9.14,1.32,13.76,2.88,8.45,1.19,17.33-1.64,25.49-4.44.89-3.34-4.09-7.83-5.29-1.1-1.29-3.29-3.05-2.95-5.2.69-4.26-1.12-7.84-5.43-9.74,1.67-2.46,2.11-4.58.52-7.47-2.28-4.15-.71-12.28,4.5-12.75,2.13-.19,4.05,4.59,6.57,1.93.77-.81,1.73-1.71,2.7-1.97.79-.22,1.65.61,2.22,1.25h.01Z"/>
  <path class="st3" d="M285.6,446.2c-.26.77-.2,2.06-.24,2.84-1.47-.02-.85,2.14-.88,3.08l-.11,2.97c-.65.71-1.63.16-2.53.45l-4.07-14.61c4.49,1.19,3.38,6.18,7.83,5.29v-.02Z"/>
  <circle class="st4" cx="176.68" cy="539.06" r="1.52"/>
  <path class="st2" d="M270.78,431.5c-.57-.43-1.26-.75-1.78-1.25.52.41,1.42.65,1.78,1.25Z"/>
  <path class="st4" d="M442.31,525.69c.04-9.17,5.86-43.95,14.02-46.38-2.78,17.51-5.17,32-14.02,46.38Z"/>
  <path class="st1" d="M362.13,292.8c-1.4,12.53.69,26.55-4.44,33.71l-15.95,22.26-15.57,14.27c-4.26,3.9-9.48,6.39-13.35,10.01-15.68-8.42-.72-7.68-11.38-10.64,1.53-1.37,2.31-2.35,4.64-3.71-1.11-.9-2.53-1.02-4.05-2.55,2.62-2.32,3.67-4.74,2.85-7.16-1.23-3.65-4.92-4.82-8.21-3.64-6.16,2.22-9.16-2.03-13.45-3.8-8.46-3.5-16.93-5.68-24.85-10.57-2.37-1.46-6.27-.12-8.65-2.53-8.75-8.86-15.22-19.08-21.34-29.4,4.91.65,8.98,4.29,10.66,10.05,13.59-11.97,24.31,18.77,26.61,19.75.47.2,1.25-1.78,1.64-1.43,2.97,2.64,6.85,4.26,11.05,7.03l1.32-5.21c.02,4.39,2.64,6.04,6.59,8.12,6.95,3.62,15.53,1.49,22.5-2.81,16.71,2.93,22.15-6.61,32.08-19.26,3.67-4.67,8.74-8.1,10.88-14.1.45-1.24-.45-2.94-.07-3.71.51-1.05,2.41-1,3.42-1.9,2.44-2.18,2.67-5.88,5.35-7.03,1.83.37,1.88,2.72,1.71,4.27h.01Z"/>
  <path class="st4" d="M250.08,293.11l1.12-.31c-.14,1.07-.57,2.13-.45,3.52,4.77,2.38,6.45,7.08,6.35,12.59l8.04,5.86c1.51-1.84.82-3.41,2.24-4.58,1.38,2.11-.04,4.08,1.44,5.5,4.59-1.22,8.99-1.32,12.04,1.57,2.35-.88,5.48-1.19,9.49.16-2.19-.75,9.64-.41,12.7-1.49,2.02-.72,1.05-3.23,2.31-5.77.9,3.64,3.19,6.3,7.47,5.55s7.06-3.21,9.87-6.6c.78,1.51.36,3.2,2.07,4.02.9-2.55.02-5.38,1.72-6.42,1.04-.43,2.84.72,3.72-.12,1.01-.98,1.08-2.58,1.3-4.18.39-2.83,4.86-2.03,6.2-4.07,2.64-4.01,3.48-11.35,9.28-12.75,3.06-.73,6.81-.22,9.58-2.56,1.89.39,3.74,2.84,5.49,2.76-.36.82-1.13,2.05-1.65,2.73-2.67,1.17-2.9,4.85-5.35,7.03-1.01.9-2.91.85-3.42,1.9-.37.77.52,2.48.07,3.71-2.14,6-7.21,9.43-10.88,14.1-9.93,12.64-15.38,22.18-32.08,19.26-6.98,4.3-15.57,6.43-22.5,2.81-3.96-2.07-6.56-3.72-6.59-8.12l-1.32,5.21c-4.2-2.77-8.08-4.39-11.05-7.03-.39-.35-1.18,1.64-1.64,1.43-2.3-.98-13-31.71-26.61-19.75-1.67-5.78-5.74-9.4-10.66-10.05l-5.38-9.07-.1-5.38c-1.32-.18-2.06.26-2.47.76.24-.49-.42-1.43-.4-1.99.65.52,1.31-.34,1.55-.92.18-.43.43-1-.51-2-.33-.35-1.08,0-1.02,1.14-.34-.12-.71-.22-1.06-.14.46-3.89-.79-7.43-4.55-10.93l9.4-.67c.52,2.53-.3,3.88-.93,6.32,2.65-.14,4.17-.57,7.18-.06-1.59,4.98,1.99,7.72,5.71,10.72,1.7,1.37,1.41,6.3,5.01,5.55,3.38-.7,6.45-.51,9.27.76h-.04ZM357.93,287.15c0-.84-.67-1.52-1.52-1.52s-1.52.67-1.52,1.52.67,1.52,1.52,1.52,1.52-.67,1.52-1.52ZM348.82,290.98c1.29.39.98-2.06.23-2.4-.46-.2-1.11-1.54-1.59-1.22-2.29,1.59,9.83,6.15,1.36,3.6h0ZM254.29,306.9c0-.37-.3-.69-.69-.69s-.69.3-.69.69.3.69.69.69.69-.3.69-.69Z"/>
  <path class="st4" d="M390.69,334.85c1.28,2.77,2.08,6.48,1.55,10.37-3.08-4.12-4.6-7.2-8.89-8.92-3.37-1.36-2.67-6.5-4.71-8.58-11.86-12.22-1.42-8.8-8.25-24.33-.63-1.43,1.64-2.65,2.38-2.89,1.71.24,2.81,1.52,3.67,3.42l14.22,30.94h.01Z"/>
  <path class="st3" d="M401.04,163.34c-1.61-3.06-4.48-1.48-7.47-1.66s-2.61-4.9-3.3-6.63c-.28-1.99,2.36-1.67,3.67-1.72.69-.02,7,5.29,7.1,10.02h-.01Z"/>
  <path class="st3" d="M401.07,178.37c-.36,4.05.06,8.49-2.41,11.98-1.95-3.6-.89-9.55,2.41-11.98Z"/>
  <path class="st4" d="M372.59,299.71c-.82.92-1.32.6-1.81-.22-.57-.96-.85-1.95-.83-2.91.73.25,2.2,0,2.42,1.06.16.78.2,1.46.23,2.08h-.01Z"/>
  <path class="st3" d="M397.34,194.67c.06-.61.65-1.12,1.1-1.47-.05.63-.17,2-1.1,1.47Z"/>
  <path class="st1" d="M319.79,208.26c8.15-1.29,5.24,11.02,7.63,19.29,12.08,4,5.19,5.44,11.88,5.88l2.66,8.6c.84-.99,1.36-2.01,1.66-1.79.45.33,1.43,1.63,1.65,2.47,4,16.07.14,9.81-2.99,16.53-2.23-.75-2.93-4.38-4.32-4.3-2.87.17-1.44,3.43-1.75,6.3-5.63-3.87-9.84-5.18-15.57-3.14-2.84,1.01-6.27-.79-9.3-.87-9.98-.26-19.78,1.19-29.6-.51-4.67-.81-8.45-.89-12.51-.94-4.26-.05-7.08,1.11-10.7,4.03-7.78-.29,2.64-6.16-1.81-11.31,2.58-11.67,4.03-13.38,13.69-15.44l3.76,8.97c.89-2.56.39-3.85,1.6-4.42.45-.2.96-.66,1.36.2.19.41.51,1.49,1.24,1.97,1.06.69,3.18-.95,3.19.55.01,1.23.11,2.88-1.24,3.12l-9.64,1.73c-1.99.36-3.89,3.53-2.01,4.72,2.75,1.76,6.21-.65,8.68,1.11-9.81,3.88,11.4,3.17,11.82,2.42-3.36-3.11-6.96-.35-8.58-3.5,4.32-2.82,8.69-.05,13.12.22,6.74.41,13.1-.85,19.14-1.53-1.96-1.63-4.09-1.3-4.3-3.13-.29-2.52,2.28-4.62,1.54-6.65-.39-1.06-1.32-.75-1.58.18-.22.82-.12,1.75-.63,3.19-2.72-.96-4.71-5.26-8.01-4.71-3.77.63-6.57,3.35-8.83,6.01-2.59-.65-5.07-.41-7.38-1.95,3.02-2.05,7.54-5.54,6.49-9.52-.84-3.2-4.05-5.51-3.59-8.8-3.67,2.43-6.84,1.75-8.06-.95,2.14-2.49,5.63-2.4,9.09-3.44-1.7-2.88-4.86-3.15-7.45-3.28,1.02-1.54,2.96-2.41,4.35-3.66,1.95-1.76,3.36,1.1,5.14,1.57.26,1.78,1.78,2.84,3.54,2.96,1.31.08,2.6-.42,3.58-1.36l2.22-.1c.99-.05,2.13.1,2.94-.85.48-.57.83-1.24.16-1.9.43-.22.71-.85,1.1-1.16,2.58-.04,4.91-1.57,5.39-4.15,4.62-2.62,11.19,13.74,11.22,1.35h-.02ZM304.98,218.86c-3.24.6-5.76,4.88-10.34,6.51,4.17,3.41,9.64,4.12,14.86,1.3,4.2-2.28,9.27-.94,13.75-5.57-3.34-1.91-6.84-.58-9.48-2.49-.45-2.16-2.67-2.17-4.29-2.47-2.3-.42-3.37,1.84-4.5,2.72h0Z"/>
  <path class="st1" d="M334.68,142.57l4.08.07c2.34,2.83,5.83.57,9.32,1.19,16.12,2.89,17.1,7.8,21.18,22.82,1.38,5.08-2.54,8.66-7.59,8.83s-10.25-2.29-13.75-6.07c-1.44-1.55-.53-3.35.37-4.36,2.78,1.43,4.2,4.27,7.97,5.05-.54-7.86-7.81-9.73-13.85-11.84-6.09-2.13-10.62-.36-13.12,4.97-2.89-3.08-6.88,2.28-12.33,6.79-1.05.12-2.43-.78-1.85-1.44l3.12-3.54c-1.76-.01-4.38.63-5.65,1.58-1.79,1.36-.7,3.82-1.65,6.38-.29-2.67-4.13-2.32-5.01-3.6-3.93-5.73,1.01-11.28,4.25-15.56,6.37-8.39,14.41-11.45,24.5-11.27h0ZM341.62,150.66c-4.71-3.77-10.25-2.75-15.32-.1,5.53.76,9.79.61,15.32.1Z"/>
  <path class="st1" d="M265.27,141.07c7.59,7.13,14.7,5.61,11.88,14.33-.39,1.18-3.71.51-4.66,1.72-2.48,3.15,8.22,2.83,7.72,8.98-.48.02-1.54,0-2.03.19-.6.25-.92,1.31-1,2.11-5.86.39-9.78-4.9-13.64-8.92-.61-.63-.11-2.38-.96-2.76-5.25-2.34-32.91,4.85-26.44,10.21,1.37,1.13,4.33-1.41,5.72-2.02-.08.94.64,4.46-1.34,4.65-3.35.33-7.6,4.27-10.21,3.83-7.44-1.7-8.18-9.6-8.66-15.51-.07-.83.46-1.69.45-2.52,2.18.34,3.37-2.24,3.71-4.11,1.26-7.09,13.67-8.48,13.67-8.48,2.65.79,5.51,1.13,7.87,2.67.18,6.67,15.38,7.79,18.36,2.3.69-1.26-2.37-3.26-3.6-3.84-4.32-2.03-9.48,5.44-11.97,1.59-1.05-3.18,5.2-1.77,6.79-4.24l8.33-.2h.01Z"/>
  <path class="st3" d="M280.21,166.1c.51-6.15-10.2-5.83-7.72-8.98.96-1.22,4.29-.54,4.66-1.72,2.82-8.72-4.3-7.2-11.88-14.33.23-.73.55-1.65,1.14-1.78.65-.16,2.41-.05,2.97.69,5.86,7.56,16.82,3.23,18.52,17.21.94,7.67-5.41,10.7-5.88,10.85-.71.23-1.4-1.22-1.82-1.93h0Z"/>
  <path class="st3" d="M361.57,68.87c-4.5-5.24-8.16-10.19-15.28-12.58-1.85-.63-3.59-5.76-5.92-6.14,1.32-2.25,4.86-3.74,4.26-6.5,4.13,2.5,7.79,6.06,11.43,10.17-3.95,8.87,8.51,5.73,5.53,15.06h-.01Z"/>
  <path class="st3" d="M256.94,141.27c-1.59,2.47-7.83,1.06-6.79,4.24l-2.81-.05c-2.36-1.54-5.23-1.88-7.87-2.67,3.7-5.45,2.44-1.14,17.47-1.52h0Z"/>
  <path class="st4" d="M280.17,215.57c2.59.12,5.74.4,7.45,3.28-3.46,1.04-6.94.95-9.09,3.44-1.23-.19-3.93-.3-3.8-2.41.06-1,.81-2.25,1.37-3.42,1.35-.1,2.71-.94,4.06-.88h.01Z"/>
  <path class="st3" d="M219.34,142.63c.41-1.59,2.89-.94,3.58-.55.58.31.76.89.31,2-.28.69-1.61,1.14-2.28,1.13s-2.03-.95-1.63-2.56h.01Z"/>
  <path class="st3" d="M308.57,206.93c-.47,2.6-2.82,4.12-5.39,4.15.17-1.3.6-2.64,1.6-3.52,1.06-.93,2.49-.98,3.79-.64h0Z"/>
  <path class="st3" d="M296.78,215.08c-.98.95-2.25,1.46-3.58,1.36-1.76-.12-3.28-1.18-3.54-2.96,2.28.6,5.74-.9,7.12,1.6Z"/>
  <path class="st3" d="M225.79,151.25c-.34,1.87-1.53,4.44-3.71,4.11-2.11-2.19,1.7-3.7,3.71-4.11Z"/>
  <path class="st3" d="M302.08,212.24c.69.66.33,1.34-.16,1.9-.81.94-1.94.81-2.94.85-.73-1.04.35-1.85,1.12-2.28.64-.35,1.35-.26,1.97-.47h0Z"/>
  <path class="st3" d="M375.42,103.07c.25.47.02,1.13.22,1.63l-4.44-.18c.88-2.02,2.85-1.01,4.21-1.44h.01Z"/>
  <path class="st4" d="M379.75,191.99c1.46-3.49-1.85-8.95,1.32-12.23.61-.52,2.59-2.19,3.71-1.38,1.13,6.01.66,12.19-2.18,17.82l-2.85-4.19h0Z"/>
  <path class="st3" d="M321.58,306.06l-6.42-7.74c4.32-1.81,5.84,1.22,9.02,1.48-.48,1.79-1.08,2.77-2.61,6.26h.01Z"/>
  <circle class="st3" cx="379.56" cy="114.91" r=".87"/>
  <circle class="st3" cx="248.17" cy="278.3" r=".69"/>
  <path class="st4" d="M288.08,403.11c-2.05-3.06.17-7.13,3.09-9.86l21.64-20.19c3.87-3.61,9.09-6.1,13.35-10.01l15.57-14.27c3.3,4.25-10.64,13.75-12.93,16.21-14.04,15.09-1.48,11.8-16.5,16.38,1.65,3.94,4.54,6.26,2.23,9.45-5.86-3.03-11.58-8.87-14.2-3.4-.52,1.1-.16,1.79,1.75,3.54-8.3,6.84-5.08,13.81-14,12.16h0Z"/>
  <path class="st4" d="M288.39,406.92c2.08-.01,4.24-1.07,6.83.34-3.13,7.91-8.37,5.83-7.97,13.44-1.57-4.61-1.01-8.71-1.32-13.76h2.47Z"/>
  <path class="st4" d="M284.47,452.11c.04-.94-.59-3.09.88-3.08.12.45,1.13.84,1.36,1.26.33.6.3,1.29-.43,1.64-.66.33-1.23.55-1.81.17h0Z"/>
  <path class="st2" d="M279.54,353.33c-4.78,7.57-17.31-5.15-20.79-2.85,3.12-1.04,3.34-3.35,4.9-4.07-1.34-1.19-3.96-1.63-6.39-1.08,1.19-1.34-.47-3.11-.45-4.61,4.47-1.41,8.67,2.36,12.63,3.47,4.31,1.2,9.45,3.49,10.1,9.16h0Z"/>
  <path class="st5" d="M224.78,358.88c-5.47-3.12-4.5-12.59-4.06-18.61,2.9,5.7,2.62,12.44,4.06,18.61Z"/>
  <path class="st1" d="M223.01,289.97c-.78-1.32-3.89-1.95-2.56-4.62.41-.49,1.14-.94,2.47-.76l.1,5.38Z"/>
  <circle class="st2" cx="276.08" cy="357.28" r=".87"/>
  <path class="st1" d="M220.04,283.35c.04-.59-.1-1.18.02-1.76-.06-1.13.7-1.49,1.02-1.14.94,1,.69,1.55.51,2-.24.58-.9,1.43-1.55.92h0Z"/>
  <path class="st6" d="M190.46,193.41c.92.2,3.44-.33,3.62,1.18.46,3.73.1,6.9-.3,10.43-3.37-2.83-4.07-7.57-3.32-11.62h0Z"/>
  <path class="st3" d="M178.92,205.35c-2.79-5.47-3.09-11.68-1.44-17.78l1.44,17.78Z"/>
  <path class="st3" d="M183.73,211.59c-5.3,1.61-1.01.42-4.12-4.97,2.53.54,4.59,3.31,4.12,4.97Z"/>
  <path class="st1" d="M180.8,159.44c0,.7.2,1.41.17,2.12-1.31,1.01-3.4,2.84-5.78,2.7-1.1-.59-.24-3.36.73-4.01,1.49-1,3.4-1.16,4.88-.81Z"/>
  <circle class="st1" cx="356.41" cy="287.15" r="1.52"/>
  <path class="st1" d="M348.82,290.98c8.48,2.54-3.65-2.02-1.36-3.6.48-.34,1.13,1.01,1.59,1.22.75.33,1.06,2.78-.23,2.4h0Z"/>
  <circle class="st1" cx="253.61" cy="306.9" r=".69"/>
  <path class="st2" d="M356.6,201.61c-4.44.16-6.77,6.15-6.07,10.29-7.57-5.8-7.49,3.62-16.16-2.26-3.46-2.35-7.61-3.44-11.29-5.15-1.11-3.17-3.35-8.91-2.91-12.71.58-5.07,9.17-8.03,12.55-5.14,2.76,2.36,4.68,3.62,8.86,2.24,9.73-3.23,22.58.13,25.9,10.1,1.02,3.07-2.41,10.72-5.2,10.28-3.17-.49-2.13-6.73-5.66-7.63h-.01Z"/>
  <path class="st2" d="M269.25,255.78c.88,5.91,12.06,7.04,19.41,6.5-.58-1.29-2.31-.83-3.03-1.95,2.02-1.12,6.02.55,5.76,2.87-.6,5.36-18.6,2.1-15.8,10.96,1.6,5.07,8.56,5.38,10.69,9.01l6.5,11.02c-4.84,3.61-12.04,4.38-15.3-1.64,2.67-1.14,6.03-1.65,7.44-3.76.51-.76-.71-2.81-1.42-2.94.36.07-10.13,5.82-22.58-8.31-.28-.31-6.45.65-3.24-1.01.36-.19,1.25-.94,1.51-1.81-2.02-1.22-4.38-3.42-3.26-6.2,1.22-3.05,1.9-5.95,2.64-8.71,3.61-2.91,6.44-4.07,10.7-4.03h-.01Z"/>
  <path class="st4" d="M263.52,159.48c-1.48.14-2,1.46-2.38,2.71-.96,3.09-2.01,6.16-2.71,9.33-2.64.49-5.57,1.73-7.78.18-2.59-1.83-3.29-4.92-3.08-8.97-2.12-1.34-4.17,1.48-5.73,2.18-1.38.61-4.35,3.15-5.72,2.02-6.47-5.36,21.19-12.55,26.44-10.21.85.39.36,2.13.96,2.76h0Z"/>
  <path class="st4" d="M348.3,165.05c-2.38-1.24-3.84-5.35-8.4-2.55,3.14,2.17,3.42,7.61-.35,9.63-2.87,1.53-6.23.39-8.84.67l-1.47-1.35c-.2-.34-.07-1.04-.36-1.3-2.28-2.12-.65-4.66.41-6.94,2.5-5.35,7.03-7.1,13.12-4.97,6.04,2.11,13.3,3.97,13.85,11.84-3.77-.77-5.19-3.6-7.97-5.05h.01Z"/>
  <path class="st2" d="M329.3,163.23c-1.06,2.26-2.69,4.8-.41,6.94-.67-.48-.87-.08-1.1.49-.19.48-1.64,1.3-.73,1.91.46.31,1.83-1.38,2.18-1.11l1.47,1.35c-.83,1.97-1.48,7.27-3.9,7.73-5.32.34-14.75-4.44-12.93-7.68.57-1,2.19-2.1,3.08-2.84,5.47-4.53,9.44-9.87,12.33-6.79h.01Z"/>
  <path class="st2" d="M234.66,248.28c-1.26-1.55-4.58,1.83-6.14-.53,1.85-1.59,2.54-3.54,3.62-5.79,2.79,1.47,2.54,3.3,4.05,4.48,1.23-2.7,3.31-5.56,5.44-4.73-.1,2.41,6.53,14.32.26,14.12-3.87-.12-4.71-4.42-7.25-7.54h.01Z"/>
  <path class="st1" d="M311.55,275.46c1.58,6.65-2.29-5.42-13.06.47-2.44,1.34-5.3-5.29-3.93-6.84,5.86.41,15.46-.12,17,6.37h-.01Z"/>
  <path class="st1" d="M258.44,171.52c.7-3.17,1.75-6.24,2.71-9.33,1.81,1.41,2.4,3.67,2.17,5.57-.4,3.24-2.5,3.32-4.88,3.77h0Z"/>
  <circle class="st2" cx="284.91" cy="298.51" r=".81"/>
  <path class="st4" d="M304.98,218.86c2.85,1.32,6.54,2.43,8.8-.25,2.64,1.91,6.14.58,9.48,2.49-4.49,4.64-9.55,3.31-13.75,5.57-5.21,2.82-10.7,2.11-14.86-1.3,4.59-1.64,7.1-5.91,10.34-6.51h-.01Z"/>
  <path class="st5" d="M313.78,218.61c-2.25,2.69-5.94,1.58-8.8.25,1.13-.88,2.2-3.15,4.5-2.72,1.61.3,3.84.31,4.29,2.47h.01Z"/>
  <path class="st4" d="M341.62,150.66c-5.53.52-9.78.66-15.32-.1,5.07-2.65,10.61-3.66,15.32.1Z"/>
  <path class="st4" d="M247.34,145.45l2.81.05c2.49,3.85,7.65-3.62,11.97-1.59,1.22.58,4.29,2.56,3.6,3.84-2.99,5.49-18.18,4.37-18.36-2.3h-.01Z"/>
  <path class="st3" d="M329.25,171.46c-.35-.28-1.72,1.42-2.18,1.11-.9-.63.53-1.43.73-1.91.23-.57.42-.98,1.1-.49.28.26.14.95.36,1.3h-.01Z"/>
</svg>