<?xml version="1.0" encoding="UTF-8"?>
<svg id="Layer_1" xmlns="http://www.w3.org/2000/svg" version="1.1" viewBox="0 0 576 576">
  <!-- Generator: Adobe Illustrator 30.2.1, SVG Export Plug-In . SVG Version: 2.1.1 Build 1)  -->
  <defs>
    <style>
      .st0 {
        fill: #cf9f7e;
      }

      .st1 {
        fill: #f5eeda;
      }

      .st2 {
        fill: #956f52;
      }

      .st3 {
        fill: #362114;
      }
    </style>
  </defs>
  <path class="st2" d="M295.82,489.8c-.38.02-.98-.02-1.25-.35-.3-.36-.09-.96-.07-1.32.96-.15,1.08,1.13,1.32,1.67Z"/>
  <path class="st2" d="M124.51,279.25c-.91,1.78-1.6,3.9-2.33,6.24l-3.59,11.44c-.22.7-1.47.83-1.47,1.53.01,1.63,2.28-1.65-.56,12.1,3-1.18,5.15-3.06,6.88-5.67.3,2.53-.68,4.99,1.45,6.31,1.49-2.57-.91-5.05,2.32-6.93.53,5.66.72,12.24-3.94,13.81-1.77.6-3.58,1.09-5.68-1.36-3.88,3.24-1.53,7.07-4.9,7.26.03-3.94-14.46-.76-16.6.23-2.48,1.15-.48,4.98-.76,6.86-.48,3.14,2.28,3.64,3.45,4.96,1.79,2.01,3.53,4.3,7.03,4.72,1,3.14.3,5.69,1.99,8.8,2.36-1.54-.88-4.57,2.84-4.72-1.63,5.76-1.78,10.71,1.65,15.81,2.64,3.92-6.21,4.71,1.61,14.14,2.07,2.49-2.59,6.04-3.01,8.14-.21,1.28,2.33,1.92,2.55,2.78-.04-.15-.12,6.18-2.09,6.14-.7-.01-1.23-.12-1.81-.91-.77-1.05.37-3.84.02-4.19-3.08-3.15-7.21,3.54-8.81,7.07-.55,1.21-3.13,1.34-2.9,2.53,1.83,9.77,2.42,15.08-.28,25-.61,2.23,6.61,5.42,7.24,1.94.36-2-2.38-2.91-1.94-4.74,2.61-1.99,4.59-4.11,3.99-7.58,5.71.33,3.87,6.23,9.87,3.74,3.24-1.34-.52-1.84,4.76-11.13,1.04-1.84-.71-4.63,3.07-5.84-.96,5.19,3.14,8.74,3.86,13.15.72,4.41-.6,10.6,3.69,13.08.45.08,1.81-1.57,2.23-1.64.71-.13.74.78.76,1.23.12,2.69-5.11,1.91-4.26,7.4-3.62.92-9.57,5.54-13.42,7.2,1.54-11.51,11.53-8.3,9.33-13.66-.68-1.66-4.75,1.22-5.54.63-3.53-2.63,5.59-6.57,1.5-8.79-3.79,5.34-6.94,10.13-10.93,14.72-1.86,2.14-6.04,2.29-6.27,6.1,3.03,1.1,4.82-2.37,7.69-.36-2.55,4-5.94,6.33-8.37,9.36-2.89,1.08-5.05-1.58-7.5-2.68-4.15-1.86-6.78,3.54-9.35,5.41-5.3,3.88-9.9,5.67-13.07,12.45-2.16,4.62-2.92,8.71-1.44,13.99.98,3.5.47,8.78,3.7,11.18,7.75,5.76,4.17,7.59,16.73,10.52-1.18,1.24-1.82,4.18-3.34,4.63-6.75,1.99-12.01-2.66-17.77-4.76-.44-.85-.8-2.43-1.8-2.86-.19-1.63-.82-3.19-2.08-4.27-.07-.51.05-1.05-.05-1.55-.15-.75.16-2.26-.87-2.38.02-1.19-.06-2.48-.12-3.68-.04-.72.09-2.22-.86-2.3l-.92-14.64c.96.72,1.47-.41,1.65-.94.31-.92.06-1.76.13-2.47.21-2.07.48-4.5.48-6.54.84-.66,2.03-1.42,1.93-2.77s-.37-2.6-1.95-2.54c-.77.02-1.8.09-2.4,1.01-.95.07-1.93-.01-2.88.12-.76.11-2.23-.05-2.35.93-13.39,1.98-14.83-6.82-19.43-9.01.1-1.22-.75-2.23,0-4.33,4.15,4.45,8.89,3.48,15.29,1.58-1.09,3.88-4.37,4.78-8.29,5.62-.36,1.74,2.76,1.96,3.72,2.8,2,1.75,3.34-1.17,5.15-1.39,5.8-.71,10.81-2.97,14.34-7.78l-2.25-1.94c3.22-1.11,15.52-16.1,9.17-14.81-2.54.52-4.85,7.67-10.18,10.42-.62-1.26.74-1.6.74-2.29,8.21-9.51,11.64-21.55,12.77-34.05l.63-6.95c.23-2.57-1.15-4.97-3.21-5.83.57-.8.31-2.24,1.1-2.99,3.9-1.45,4.99,25.47,6.64,24.91-.07.28-.06.72,0,1-1.99,5.91-3.62,2.37-2.92,10.98,1.03-.15,1.36-.69,1.93-.87,5.35,5.38,6.32-14.28,4.88-15.56-.56-.5-1.64-.49-2.49-.53l-1.91-13.66c3.22,3.18,1.7,7.07,3.87,10.12.52.73,1.56.18,2.18-.44s-2.03-4.87-.16-6.14c1.38-.94,3.17-1.16,4.54-1.02.83.09,1.57,1.45,2.48,1.05,1.79-.78,3.91-8.43,3.91-9.01.02-1.4-2.38-1.49-2.99-1.09-1.4.93-1.92,3.44-4.19,3.48-3.77.03-.75-9.51-4.16-8.09-2.96,1.23-.61,5.16,1.2,6.84.94.87-1.74,2.68-2.59,2.49-3.23-.72-2.61-5.41-4.21-7.8-.94-1.39-5-.63-4.49-3.94.13-.83-.9-1.98-1.68-2.37-.54-.28-1.3,0-2.03.46-1.17-1.85-2.4-2.78-3.53-5.79l-5.86-15.63c4.19.21,6.92,2.82,6.98,7.66.01,1.17-.37,3.81,1.32,3.87,1.13.04,1.89-1.96,2.63-2,1.2-.06,1.14,2.33,1.86,2.82,2.57.24,1.27-3.09,2.06-4.64,2.67-5.19,4.79-10.58,8.13-15.3,2.29-3.24,3.63-6.63,1.16-9.89.11-2.06-.04-4.12-.27-6.17-.38-5.39,5.71-5.68,8.57-8.52,3.39-3.37,4.1-9.52,9.7-12.24.3-5.4-27.9,9.82-25.1,8.73l-4.74,1.84c.2-.8-.38-1.44-1-1.87,1.87-2.58,4.48-4.43,7.51-6.02l17.85-9.39c4.32-2.27,7.61-6.46,9.5-10.37,4.93-1.64,4.25-10.59,9.71-9.75l-.03.04h0ZM111.97,318.06c1.57-2.5-.86-8.13-3.58-6.67-1.95,1.05-4.12,4.64-4.38,6.8.83,2.63,6.38,2.39,7.96-.13h0ZM116.93,314c0-.35-.28-.63-.63-.63s-.63.28-.63.63.28.63.63.63.63-.28.63-.63ZM96.83,337.5c0-.28-.22-.5-.5-.5s-.5.22-.5.5.22.5.5.5.5-.22.5-.5ZM96.92,346.5c-8.18,3.42-8.38,20.75-5.98,27.32,3.04.18,5.65-1.77,7.04-3.28,3.01-3.24,2.05-19.84-1.07-24.04h.01ZM91.64,421.01l-3.33,6.52,3.29,1.69,3.33-6.52-3.29-1.69Z"/>
  <path class="st2" d="M297.48,115.9c-6.71,4.91-15.47-.63-18,8.28,4.45,4.12,11.96,4.29,17.91,3.91,5.38-.34,9.43,1.49,14.3,1.73l15.57.79c9.24.47,10.1,6.88,16.02,6.76,3.25-.07,3.92,4.24,3.13,6.72-1.19,3.73.68,7.52-.76,10.76-1.15-.14-1.59-1.34-2.03-1.51-.88-.35-.77,1.04-1.32,1.67-4.27,4.86-12.33-4.77-14.92-5.84-2.85-1.18-19.3-6.99-20.93-4.64-.5.72-.28,2.69-.45,4.41-4.63.95-9.65,2.67-13.78,5.83.97,1.83,2.34,1.28,3.35,1.36.3,3.09.25,6.56,2.35,8.81,2.33,2.49,5.71,2.66,8.48,2.98,4.7,3.03,11.17,5.01,16.56,1.67,2.81-1.75,3.3-5.86,4.63-8.51,1.51-.71,4.54,2.07,3.71,3.55-2.65,4.72-7.1,7.17-11.1,9.77.16,1.19.3,2.13.63,2.61.91,1.36,1.5-1.41,2.17-1.35,5.7.48,11.54.73,17.41.27,7.94-.62,4.5,12.91,9.29,16.4,3.04,2.21,5.57,2.36,7.14,6.59s2.93,7.72,3.1,12.52c.24,6.94,1.1,14.25-.01,21.08-.39,2.42-2.47,4.4-1.81,7.53,1.32,6.29-.45,12.15-1.43,18.1-.59,3.57,2.32,7.2,1.79,10.87l-2.84,19.82c-.13.9.72,2.2.35,2.49l-2.46,1.87c-.37,12.07-7.48,21.08-18.24,25.69-2.57,1.1-4.15,4.66-7.93,5.2-1.75.25-5.22,3.69-3.46,5.41,2.63,2.57,5.94,4.36,5.4,8.68-.19,1.53,3.96,6.42,3.97,11.77-2.06,4.13-6.45,8.04-6.25,13.07,2.63.08,5.48-.41,7.75,1.99-1.42,1.67-3.07.8-4.35,1.82,1.47,2.44,1.48,5.78-.54,7.43-3.28,2.67-1.16,5.45-1.84,8.56-.54,2.44-4.43,4.7-3.51,8.23-1.52.54-3.23-4-3.09-1.53.04.74-1.07,1.88-.71,2.55,1.35,2.51,3.52,4.74,3.28,7.88-.29,3.79,3.53,4.37,5.05,6.28,2.98,3.74-.34,8.41-1.41,11.91-1.83,5.95-3.78,10.84-8.75,16.32,7.79.19,5.06-6.75,13.93-12.05,4.5-2.7,9.49-9.43,10.23-9.47,2.98-.13,4.88,3.9,4.91,3.57-.08.82-1.47.97-2.63,1.91.84,1.32,2.38.11,4.13.99l-7.05,3.03c1.43,1.6,2.72,3.23,2.45,4.91-7.46,4.65-12.81,11.81-16.52,19.37-1.04,2.13-3.91,2.36-2.13,6.78-3.26-3.2-4.89-1.09-6.52-1.4-4.78-.89-9.34-3.14-14.52-2.8-2.12.14-3.27-1.6-4.17-2.77-3.14.64-6.28,4.04-5.98,8.19,6.26-3.91,12.68-5.02,17.25-.62-1.99,2.12-7.05.6-6.99,5.29.01.98,1.7,3.28,2.83,2.27,2.4-2.17,3.83-5.07,5.26-7.47,2.19-.81,3.23,1.77,5.12,2.73,2.08,1.05,3.18,1.88,2.67,4.28-.36,1.72-.9,3.18-3.79,1.89,2.23,3.33-1.32,7.45,2.66,7.97,2.85.38,2.59-5.95,4.88-2.13,2.83-4.59.81-11.22,8-13.3,1.56-.45,3.93-.68,5.44,1.63,1.07-.23,1.83-.91,1.98-.33,1.32,5.22-5.35,2.99-1.6,11.91-2.02.21-3.4-1.13-4.01-.15s-.6,2.24-1.16,3.35l-1.8,3.58c-.55,1.09,1.58,1.64,1.78,4.08-1.79-.87-3.36-2.2-4.75-4.85.33,2.29-7.8,11.74-9.64,13.74-1.1,1.2-.56,3.78-2.83,4.06,2.25.81,3.28-.48,5.74-.99l7.52,22.9c-4.45,3.58-9.8,13.2-13.01,11.17.45-3.19.12-6.46-3.14-7.99-9.01-4.23-9.2,5.92-14.15.28-3.16-3.59-2.11-8.12-.01-11.81.13-1.95.34-4.8-.39-6.45-.31-.7-2.25-.79-2.24-1.27,0-.5,1.52-1.24,1.64-1.88.53-2.77-1.52-4.76-2.46-6.82,3.63.11,3.78,4.24,7.11,3.47.55-.13.33-1.04,1.02-2.12.41-.65-.34-1.12-1.69-1.98-1.15-1.6-.33-4.11-1.09-5.97-2.59-2.2-6.12-4.07-9.94-4.38.74,3.61,3.49,5.45,3.27,9.31-2.56.4-2.11-3.26-3.83-4.48-2.75-1.94-11.2.75-11.65.41-3.32-2.55,4.88-3.08,4.2-10.03,1.55,1.25,1.03,4.48,3.6,3.89,1.91-.44.58-3.9.44-5.77,2.27-.04,3.01,1.64,4.4,2.84,1.3-2,4.47-2.88,4.06-5.23-.15-.88-1.41-.88-2.3-2.71,1.72.15,3.21-.69,5.67-1.76-.54,1.58.68,4.58,3.47,4.4,1.38-.66,3.19-2.77,4.38-4.53-3.81-2.39-6.04-6.07-6.89-9.99-7.19.81-12.92,8.29-11.4,15.47-2.07,1.28-4.26-.31-4.72-3.21-4.49,2.98-7.8,7.17-11.63,11.34-2.36,2.57-5.72,4.19-8.02,6.96-4.76,5.73-10.18,10.23-15.71,15.26-11.44,10.4-21.66,21.45-32.26,32.89-2.16,2.33-4.99,3.92-5.6,7.45-.2,1.18-1.02,3.68-2.02,3.96l-.33-5.24c-2.45-.32-14.01,15.11-14.97,10.63-1.91-8.87-7.87-17.7-17.65-18.59-4.74-.43-9.33.11-14.08-.89s-9.08,1.61-11.55,5.02c-1.85,2.56-4.65,2.04-7.3,2.9-15.21,4.94-11.67,4.93-18.52,14.3-2.01,2.74-3.24,4.74-4.33,7.96-1.73,5.14-5.44,9.37-5.37,14.62h-10.49c-.38-1.77.51-3.42,1.79-5.01,1.8-2.22.48-5.34,1.24-7.78l4.52-14.46c3.21-10.27,6.85-19.99,9.04-30.58-1.92-1.22-4.16-.92-5.9-2.51,4.52-15.15-5.36-10.52-2.37-17.17.73-1.61.62-3.58-.06-5.41-.56-1.52-3.41-1.47-4.87-2.85-3.5-3.31,8.7-7.69,6.21-17.15-.95-3.6.95-6.18,2.06-9.19,1.4-3.85-1.77-7.69-1.09-11.75-5.96.12-8.61,3.85-11.56,8.23-2.32,1.81-8.1.62-10.04-1.33.34-.18.45-.78.76-1.01,2.13-.73,3.45-2.7,4.44-4.63-1.35-.22-2.12-.63-2.48-.73-5.82-1.52,8.87-4.89,8.98-4.66.86,1.01,1.96,1.23,3.23,1.01,1.49-.26,1.63-2.37,2.74-3.1l15.57-10.21c2.29-1.5,5.1-1.33,4.57-4.77.54-.14,1.85-.24,2.26.15.52.48.3,1.85.1,2.8-.37,1.77.73,3.62,1.84,3.25.62-.21,1.73-1.49,3.12-1.79.61-2.83-1.03-5.81-.71-9.9,2.6-.33,5.11,1.88,6.12,4.04,1.31,2.8-.33,4.11-1.92,6.74,1.32.29,2.17.26,2.78,0,.87-.37,1.85.8,1.04,1.68l-10.44,11.31c-8.4,9.1-7.4,12.41-11.55,17.64-1.7,2.14-.68,6.55-2.38,9.28-2.63,4.23,7.57,3.25,6.17,7.34-.97,2.84-6.06.02-5.22,2.89,4.49,1.37,3.65,9.24,7.57,14.56,13.74-6.14-7.87,24.83-4.53,30.15l4.04-6.82c2.5-4.22,5.29-7.8,7.8-12.12l6.68-11.5,7.95-2.64c1.59-.53,3.28-.06,3.93.72.52.62.04,2.15.7,3.26,4.39,7.38,14.04,1.91,21.07.63,4.42-7.7,11.17-13.19,19.14-16.88,2.54-1.18,3.7-2.38,5.23-4.69.91-1.38,3.43-1.82,3.48-3.97,2.14,1.45,1.45,3.71,3.97,4.51-.47-1.7-1.51-2.94-1.41-4.14.4-5.02,3.58-3.81,8.1-8.31,2.18-2.18,5.85-2.92,8.8-1.79,1.94.75,3.43,3.46,4.85,5.89,5.02-3.37-6.11-7.47-7.66-12.94,1.56.27,2.18.91,3.14.54.58-.22.48-1.21.04-1.5-.27-.18-2.03-.44-2.03-1.03-.06-5.27,1.58-12.46,5.13-16.74,2.49-3,2.31-4.93,2.93-8.38l3.24-18.01c4.45-24.76,8.5-15.15,9.89-31.17.66-7.59,2.97-15.01.55-23.11-.76-2.55.86-6.19-1.91-7.88-1.12-.02,19.98-2.21,22.39-3.68,5.36-3.28,11.24-6.72,15.19-11.1,4.71-5.22,10.04-8.67,16.43-11.21,29.31-11.63,11.63-5.06,24.12-12.71,3.85-2.36,7.44-5.94,10.76-9.14,2.07-1.99,2.66-6.04,4.37-8.38,3.39-4.65,4.05-37.44,4.52-38.88l3.83-11.71c.96-2.93-.68-5.86,2.75-8.02-.77-13.24,4.22-14.82-.66-30.16-.71-2.24.57-6.55-2.47-7.4-11.89-3.32-1.4-8-19.48-11.11l-8.67-1.49c-1.91-.33-3.68-3.16-6.6-2.9-3.66.32-6.37-2.13-9.53-3.37-2.83-1.12-8.05-.52-9.92-3.09-1.64-2.26-4.1-1.87-5.79-3.13l-10.98-8.18c-2.7-2.01-2.28-9.71-.37-12.19,10.29-13.32,16.84-10.54,18.2-17.3,1.91-9.48-13.47-7-17.69-9.65-1.84-1.16-1.08-6.53.71-7.35,2.35-1.08,3.8-2.44,5.56-3.89s14.95-2.3,18.04-1.05h-.02,0ZM303.45,145.38c2.04-1.27.98-2.99-.93-1.62-3.02.48-6.86-.36-7.33,3.19l8.26-1.56h0ZM331.53,348.01c0-.61-.5-1.11-1.11-1.11s-1.11.5-1.11,1.11.5,1.11,1.11,1.11,1.11-.5,1.11-1.11ZM318.56,436c0-.61-.5-1.11-1.11-1.11s-1.11.5-1.11,1.11.5,1.11,1.11,1.11,1.11-.5,1.11-1.11ZM326.57,436c0-.35-.28-.63-.63-.63s-.63.28-.63.63.28.63.63.63.63-.28.63-.63ZM325.35,440.92c.69-2.45-1.98-2.74-2.03-.49-.24,3.03-2.61,4.74-1.55,8.42l3.58-7.94h0ZM293.49,455.5c0-.28-.22-.5-.5-.5s-.5.22-.5.5.22.5.5.5.5-.22.5-.5ZM305.47,471.5c0-.28-.22-.5-.5-.5s-.5.22-.5.5.22.5.5.5.5-.22.5-.5Z"/>
  <path class="st2" d="M208.67,545.29c-.07-1.12-2.97,29.35-4.08,30.71h-1.82c2.13-8.81,2.64-17.95,3.9-27.34.27-2,.53-2.96,2.01-3.37h0Z"/>
  <path class="st2" d="M268.53,0c.5,2.21,2.71,3.71,2.77,6.39-3.04.42-4.78.42-5.77,1.39-1.55,1.53-2.64,3.9-1.38,5.57,2.82,3.76,9.87-2.12,10.15-5.22.15-1.65-.9-2.63-2.44-4.27-.34-1.13.65-2.85.66-3.86h28.95c-1.09-.32,4.5,8.19,3.57,7.99l3.67.78c3.46.74,4.45,7.3,7.49,9.91-5.02,2.07-3.35-3.94-7-3.53-.88.1-3.25,1.33-2.49,2.04,2.39,2.23,2.45,5.11,4.22,7.22,2.79,3.33,5.73,6.41,8.87,8.7.99-7.36,5.1,3.25,9.54,3.45-.66-2.58-4.02-3.68-2.77-6.28.68-1.41,2-2.44.97-3.76-.61-.78-1.13-1.96-3.09-1.86,0-.88.94-1.17,1.11-1.73,2.45,1.03,4.8,2.63,7.97,3.05-.97-3.81-4.38-3.76-6.21-6.02,1.71-.12,3.52-.32,5.01.68l1.31.9c4.75,6.97,3.28-2.15,7.79,8.45-1.32.09-2.14-1.33-4.04-.91,1.33,2.7,3.38,4.2,5.91,6.2.78,1.22,1.12.04,1.3-1.44.7-.06,1.4-.07,2.08-.24.91-.23.63-1.1.23-1.59-.48-.59-1.1-.68-2.29-1.14.17-.57-.29-1.33-.12-2.07.11-.5,5.34-.06,6.16.4,1.36.76,1.37,3.48,2.45,3.93,4.88,2.06,14.03,8.6,11.42,2.07,1.31.24,2.23.72,3.21.58,1.17-.17,1.19-1.5,2.15-2.81.96,2.03.76,4.09,1.98,5.93,2.24-2.57,4.88-.34,7.6-.85,1.96-.36,2.57-3.45,4.41-5.46l-11.55-4.1c2.18-7.45,8.63-.07,15.09-5.95.93,2.28,2.45,3.11,4.58,3.85,13.59,4.72,4.37,3.98,14.76,8.25,3.06,1.26,5.7,3.24,9.68,2.15l1.75,4.65,4.33-2.92c1.62,3.5,6.23,5.24,8.08,8.28,3.67,8.29,7.05,16.34,13.31,23.98-3.87,2.99-7.46,4.03-12.04,1.53.52,4.08,3.33,4.77,4.96,8.04-2.1,1.17-2.46-1.07-4.3-2.29.83,6.88-.26,7.33,2.68,16.88,4.04-1.23,6.31,1.87,9,2.46,1.94.42,4.32-.23,6.06,1.03.72.52,2.69-.76,3.49-.7,1.11.08,1.37,2.17,2.36,2.52,1.72.58,4.75-.11,5.04,2.9s3.01,4.63,3.67,7.16c1.19,4.6,2.58,9.02,7.09,10.55l.76,17.98c.13,2.99-.59,6.73,2.32,9.52,1.22,1.17,3.86.48,5.31,1.69,1.64,1.36,2.71,3.26,4.8,2.83.55.73,1.46.97,2.15,1.5,1.75,2.5,3.32,5.39,6.68,4.67.79,3.02,3.82,4.56,4.24,7.73-.92.69-1.02,1.84-1.31,2.73-.69,2.09,2.67,1.58,3.22,2.67,1.73,3.43,2.38,7.76,2.96,11.8,1.4,9.72,16.4,21.11,17.65,30.77.93,7.26,1.74,14.04,2.17,21.03.11,1.76-1.11,3.15.29,4.28l-.04,5.04c-.03,3.8,0,7.56-.82,11.6,1.52.47,2.58.34,3.63.32.2-1.87-5.52,17.39-6.77,17.1-3.05,1.25-3.85,4.44-5.37,7.54-.84,1.73-3.73,2.21-3.59,4.28-3.48-.18-7.46-4.35-6.54-8.07,3.3-13.31-5.82-8.46-5.13-19.96.17-2.89-2.72-5.62-3.9-8.17-4.95-10.69,3.18-11.01-5.68-20.75-.84-.93.22-3.06.85-3.6,1.1-.95,2.6,1.3,3.85,1.61,1.97.48,3.69-5.02,1.69-5.98-1.05-.5-1.36,1.05-1.38,1.41-.04.71-1.94,1.15-1.61-.43.29-1.41-.28-2.22-.34-3.29-.06-1.23,2.63-.87,3.11-1.79,2.29-4.34-3.47-18.03-7.65-18.26l.73-6.46c.34-3.03-4.87-4.02-6.53-6.55-1.38-2.11-2.61-4.75-5.55-3.95,1.28,2.42,2.97,3.55,2.58,6-2.69-2.05-5.93-2.54-9.49-2.71s-5.88-2.72-9.1-1.94c2.72,2.24,4.39,3.85,3.18,6.83,1.58,1.32,3.08,1.36,5.03,2.51-.79,1.06-1.98.38-3.03,1.23,2.25,1.09,2.17,3.41,3.79,4.45.74.48,1.69-1.16,1.38-1.6-.35-.51-1.28-.79-2.3-1.98,6.84-2.53,4.55,5.04,11.55,6.62,2.91.65,4.54-.89,7.46-2.09-.57,3.92-4.12,3.67-6.58,6.49-3.97-3.57-8.46-5.1-13.65-6.47-4.34-1.14-7.64-5.83-11.98-6.54-3.08-.51-5.46-2.04-7.96-3.12-2.07-.89-7.59,1.36-8.4-2.48-.4-1.87.17-6.4-3.16-5.55-2.28.58-5.8,3.12-6.86-.22.18-.9,1.84-1.95,1.9-2.79.38-5.53-4.37-2.76-2.72-7.33,1.86,2.11,3.88,3.83,6.29,3.32.61-.13,0-2.26-.61-2.4l-2.79-.66c.63-4.94,5.57-3.71,5.77-9.34.06-1.57-1.87-2.48-2.95-2.91-1.71-.69-3.44.48-5.53.93l2.51-5.62c1.68-3.75-2.6-4.99-7.09-6.62,7.89-3.26,15.14,9.9,17.21.61.61.04,1.91.8,1.82,1.28-.14.76-1.47,1.42-2.15,2.03,2.68.54,4.07,2.64,6.82.72-2.88-1.82-3.08-4.04-4.2-5.95-2.92-4.98-17.43.65-14.62-9.29,1.2,3.02,4.42,5.56,7.45,4.7.64-2.04-.8-5.35-2.75-6.73,1.59-1.54,2.92-1.34,5.16-1.73-1.54-5.25,3.82-3.01,1.7-18.29-3.49,4.24-6.76,1.8-9.3,2.42-3.48.85-3.1,7.11-2.76,10.02-1.21.79-5.39,1.08-5.87-.74-1.42-5.38-.26-10.96,1.02-16.11.11-.43,1.59-.52,1.9-.68.54-.28.5-.59-.07-1.14-.33-.32-1.66-.52-2.02-.99-1.6-2.08-1.65-4.09-3.89-4.14-2.56-.06-3.49.69-4.57,3.7-1.76-3.63-4.08-6-6.16-9.37,1.67-4.65.36-9.88-3.56-12.52-1.87-.65-4.33,1.23-5.95.29-.7-.41-.17-1.81.28-1.8.77.02,1.45.17,3.3-.2-2.61-3.08-6.07-5.63-11.03-6.37,1.6-2.11,3.66-1.28,6.83-1.77l-4.84-10.73c-.95-2.11-.15-6.3-3.18-7.58-3.58-1.51-8.5.28-11.99,1.29.22,5.07,4.65,6.86,6.17,10.63,1.91,4.76,2.55,9.9,5.19,14.5.41.71-.7,2.48-.46,3.4.22.85,2.49,1.12,2.7,2.2.42,2.17-.3,4.23,2.09,5.96-.93,1.37-2.06,1.86-3.26,2.78-2.13-1.88-2.21-4.53-3.17-6.97-.82-2.07-3.53-3.68-2.65-6.92-2.98-.99-5.46,1.08-7.73-1.43,2.36-.92,6.2.26,7.19-1.86,1.29-2.76-1.05-5.62-1.37-8.28-.64-5.35-11.09-13.62-11.82-13.63-2.35-.02-2.56,1.9-2.48,4.21.1,2.99,4.13,3.57,3.74,7.14-4.82-3.13-7.56-7.53-13.06-10.36-1.74,1.05,1.95,3.65,3.75,5.85.43.52-1.37,1.6-1.16,2.26,1.22,3.83,5.52,5.66,7.39,9.27-1.28-2.47,2.57,8.16,2.48,8.31-.23.45-.86.9-1.62.69-.49-.13-1.04-1-1.34-1.56-3.49-6.62-5.44-3.41-14.03-10.01-2.71-2.08-5.39-3.04-8.17-4.55-3.05-1.65-3.95-6.8-7.73-6.76.35,1.42,2.98,3.31,1.8,3.92-7.35,3.2-10.21,17.33-2.04,23.32-7.35.95-3.34,13.16-2.52,16.77l2.58,11.38c.82,3.61,4.93,6.06,4.68,10.51-4.14-2.91-6.74-6.36-10.24-10.09-9.38,1.19-18.21-.02-27.46-1.26-2.69-.36-6.02.87-6.91-2.05,6.69.24,13.41-.09,20.84-1.29-3.49-5.93-6.47-9.93-6.88-15.74-.19-2.8-4.28-15.17-5.56-21.17-1.63-7.66-1.87-20.16-5.1-24.44-3.91-5.17-10.85-7.62-15.97-11.77-4.36-3.53-8.99-8.2-12.73-12.14-1.52-1.61-2.87-7.13-5.57-5.72-5.84,3.04-10.37,8.39-16.21,10.89-2.95,1.27-6.01,1.01-8.42,3.65-1.71,1.88-5.4,1.19-7.36,2.37-9.6,5.82-13.81,15.66-15.46,26.28-.87,5.64-3.35,11.1-4.77,16.75-2.18,8.62-6.77,15.86-11.09,24.68,3.9,1,8.2,1.58,12.45,1.5,9.19-.16,17.14,6.71,16.56,15.9-2.62,1.3-4.79-.89-7.22-1.19-8.42-1.02-16.69-2.2-25.07-2.58-2.53-.12-4.71,2.76-5.59,4.26-2.01,3.43,4.85,11.4,7.14,11.07-1.3,1.75-5.2,4.47-7.3,2.05-4.61-5.3-.87-20.06,1.77-25.01,2.87-5.38,4.37-11.4,7.61-16.6,1.95-3.13,1.42-6.33,2.51-9.51l8.07-23.52c2.92-8.51,8.54-21.22,15.03-27.13.83-.76.92-3.2.41-3.96-3.68-5.47-18.11,14.66-20.41,17.93l-4.05-5.16c-6.46,9.73-9.11,21.53-12.74,33.56l-2.98,9.89c-1.69,5.62-3.76,10.31-6.88,15.01-2.28,3.43-1.13,9.29-3.6,12.42-2.32,2.93-1.29,6.48-2.73,9.08-2.8,5.05-4.67,9.89-6.86,15.15-4.92,11.85-9.55,23.24-12.08,35.89-.53,2.65-3.05,4.96-3.36,8.01-.16,1.61-3.12,1.53-4.04,2.14l.19-4.34c.91.59,1.49-.52,1.53-.98l.18-2.36c.12-1.56.92-3.15,1.14-4.84,5.7.22-.5-1.74,3.48-7.33,1.17-1.64.69-3.25-.73-4.67,1.86-3.74,3.25-7.34,3.8-11.04.81-5.39,3.69-10.21,5.29-15.79,3.34-11.62,5.71-23.47,10.78-34.54,1.54-3.37,3.14-6.37,4.03-9.59,2.66-1.69,2.97-5.16,4.05-7.96.39-1.02,1.39-1.91,1.22-3.17,3.6-2.34,4.12-6.9,4.75-10.82.8-4.99,4.28-8.98,6.6-13.75,5.4-11.08,10.44-22.44,18.58-31.5,6.84-7.6,14.68-14.31,23.25-20.36,1.81-1.28,3.43-2.78,3.58-4.56h25.95l.02.04h0ZM306.63,13.08c-.23-1.25-1.1-1.25-1.33,0,.14,2.31,1.19,2.31,1.33,0ZM428.57,51.86c-2.63.27-5.13-1.01-8.53-1.99-.88,1.81,6.43,7.13,10.01,4.81.67-.44-.6-2.91-1.48-2.82ZM432.47,91.69c.22-3.16-2.14-3.72-2.37-1.14.26,1.96,2.22,3.27,2.37,1.14ZM468.58,144.87c2.98-4.5,1.39-8.39.23-11.83-.95,1.48-.83,2.4-1.81,2.75-.52.18-1.1-.46-2.8.54,3.4,2.09,2.9,4.61,4.39,8.55h-.01ZM459.17,146.78c2.81.67,3.75-.34,4.68-.54.54-3.67-4.25-8.27-5.05-8.12-4.29.82,1.66,3.52,3.21,6.6-1.1,1.04-2.48.9-2.83,2.06h-.01ZM455.4,151.46c-1.55-4.02-1.17-5.01-.05-8.28-1.65.68-3.57,2.67-3.34,4.29.26,1.87,1.36,4.95,3.39,3.98h0ZM463.06,150.48c-1.53,1.61.03,1.58.7,1.59,1.49.03,1.83-.87,1.41-1.59-.39-.65-1.25-.91-2.11,0h0ZM466.03,152.61c.12,1.6,1.06,1.72,1.64,1.4.54-.29.77-.93.51-1.49s-1.12-1.11-2.15.09h0ZM477.63,164.26c-3.74-1.95-6.39-2.43-9.83-3.4,1.29,3.91,6.43,6.04,9.83,3.4ZM466.81,166.33c-2.33-1.69-4.66-3.21-7.55-3.01,1.95,1.89,1.71,3.83,3.18,5.66l4.37-2.65h0ZM459.2,182.51c0-.28-.22-.5-.5-.5s-.5.22-.5.5.22.5.5.5.5-.22.5-.5ZM513.59,260.53c-.1.59-1.67-10.9-4.92-8.17.3,4.34-5.78,8.85-.97,11.44.91.49,5.67-1.9,5.89-3.27Z"/>
  <path class="st2" d="M344.6,30.89c-.3,1.01.5,2.01-.02,2.97-1.48-.38-2.59-2.48-3.17-3.84,1.69-.17,2.38.56,3.19.87Z"/>
  <path class="st0" d="M294.5,488.13c-.02.36-.23.96.07,1.32.28.33.88.37,1.25.35.94,2.06,2.99,4.06,2.46,6.82-.12.64-1.63,1.39-1.64,1.88s1.93.57,2.24,1.27c.73,1.66.52,4.5.39,6.45-2.1,3.68-3.15,8.22.01,11.81,4.96,5.63,5.14-4.51,14.15-.28,3.26,1.53,3.6,4.81,3.14,7.99-.74,5.16-3.2,4.57-4.07,8.47-3.62,1.66-6.35,6.51-9.1,9.7-9.76,11.33-19.61,21.63-29.59,32.09h-69.23c1.11-1.36,4.01-31.83,4.08-30.71,1-.28,1.82-2.78,2.02-3.96.61-3.54,3.44-5.12,5.6-7.45,10.59-11.44,20.82-22.49,32.26-32.89,5.53-5.03,10.95-9.52,15.71-15.26,2.3-2.77,5.66-4.4,8.02-6.96,3.83-4.17,7.14-8.36,11.63-11.34.45,2.89,2.65,4.49,4.72,3.21-1.51-7.18,4.21-14.66,11.4-15.47.85,3.92,3.08,7.59,6.89,9.99-1.19,1.76-3,3.87-4.38,4.53-2.79.18-4.01-2.82-3.47-4.4-2.46,1.07-3.95,1.91-5.67,1.76.89,1.83,2.15,1.83,2.3,2.71.41,2.35-2.75,3.24-4.06,5.23-1.39-1.19-2.13-2.88-4.4-2.84.13,1.87,1.46,5.33-.44,5.77-2.56.6-2.04-2.64-3.6-3.89.68,6.95-7.52,7.48-4.2,10.03.45.34,8.9-2.35,11.65-.41,1.72,1.21,1.27,4.87,3.83,4.48h.03Z"/>
  <path class="st0" d="M208.67,545.29c-1.47.41-1.74,1.37-2.01,3.37-1.25,9.39-1.76,18.53-3.9,27.34h-88.2c-.07-5.25,3.64-9.48,5.37-14.62,1.09-3.22,2.32-5.22,4.33-7.96,6.85-9.37,3.31-9.36,18.52-14.3,2.65-.86,5.46-.35,7.3-2.9,2.46-3.41,6.95-5.98,11.55-5.02s9.34.46,14.08.89c9.78.88,15.74,9.71,17.65,18.59.97,4.48,12.52-10.95,14.97-10.63l.33,5.24h0Z"/>
  <path class="st0" d="M295.82,489.8c-.25-.54-.37-1.82-1.32-1.67.22-3.86-2.53-5.71-3.27-9.31,3.82.31,7.35,2.18,9.94,4.38.76,1.86-.06,4.37,1.09,5.97,1.36.86,2.11,1.33,1.69,1.98-.69,1.08-.47,2-1.02,2.12-3.33.76-3.48-3.36-7.11-3.47h0Z"/>
  <path class="st0" d="M104.83,446.15l-.09,1.87c-.11-.23-14.79,3.14-8.98,4.66.37.1,1.13.51,2.48.73-.99,1.93-2.31,3.9-4.44,4.63,0-1.65.14-5.36-1.8-6.03-3.85-1.33-4.5,3.35-6.13,4.86-2.77,2.56-5.52,4.92-4.66,9.35,4.78-1.45,7.81-5.03,11.82-7.17,1.93,1.95,7.71,3.14,10.04,1.33,2.94-4.38,5.59-8.12,11.56-8.23-.67,4.06,2.5,7.91,1.09,11.75-1.1,3.02-3,5.6-2.06,9.19,2.49,9.46-9.71,13.83-6.21,17.15,1.45,1.38,4.3,1.33,4.87,2.85.68,1.83.79,3.8.06,5.41-3,6.66,6.88,2.02,2.37,17.17,1.74,1.6,3.98,1.3,5.9,2.51-2.19,10.59-5.83,20.32-9.04,30.58l-4.52,14.46c-.76,2.44.56,5.55-1.24,7.78-1.28,1.59-2.17,3.24-1.79,5.01H32.96c-.75-5.03,4.07-8.07,6.53-12.29,1.91-3.28,3.1-6.65,5.45-9.86,2.89-3.93,3.44-9.45,6.78-13.17,4.44-4.93,6.42-10.73,9.33-16.69l6.61-13.53c4.03-3.6,5.71-8.57,5.13-13.57,5.76,2.1,11.02,6.75,17.77,4.76,1.52-.45,2.17-3.39,3.34-4.63-12.56-2.93-8.98-4.76-16.73-10.52-3.23-2.4-2.72-7.69-3.7-11.18-1.48-5.28-.72-9.37,1.44-13.99,3.17-6.79,7.77-8.58,13.07-12.45,2.57-1.88,5.2-7.28,9.35-5.41,2.45,1.1,4.61,3.76,7.5,2.68h0Z"/>
  <path class="st0" d="M416.97,537.07c.15.2-.03.63.05.88.97.72,2.17,1.28,2.89,2.24.38.51-.43,9.83-1.52,10.58,3.38.18,4.22,2.94,6.22,4.78,2.3,2.11,5.74,2.28,8.6,3.57,2.37,1.08,3.87,4.84,6.36,5.14,8.21.99,10.05,6.78,15.19,7.03l7.14.34c6.12.29,11.35-.96,17.36,1.18,2.15.76,4.02-3.15,5.5-4.05,3.9-2.36,4.01,1.97,2.51-12.97,3.65,2.12,6.24,4.13,9.99,5.8-.43-4.85-3.76-6.82-6.83-9.14,4.77.64,9.03-1.97,13.61-2.79,1.34.81,1.43,4.38,3.12,4.42.33,3.82,3.73,6.29,6.2,9.76.97,3.39-4.58,8.95-5.57,12.15h-227.81c.66-4.49,4.15-7.12,7.6-10.03l9.71-8.17c4.52-3.8,6.84-9.66,12.02-13.03,1.23-.8,3.18-.44,3.78-1.5.68-1.21.14-3.37,1.07-4.5,3.51-4.24,8.21-7.15,10.53-12.28.46-1.02.56-2.07,1.36-2.37.92-.35,1.98-.44,2.25.53.18.66.1,1.36.17,2.35.09,1.36,1.74,1.5,2.12.9l1.43-2.24c1.65-2.57,5.07,5.5,4.99,5.67-.45.94-1.62-.44-2.61-.17-1.08.29-.81,1.53-.36,1.84.56.38,2.47.22,2.76.75,1.8,3.28,5.08,4.88,7.54,7.31,8.17,8.1,9.81,6.3,16.1,6.56,2.25.09,4.4,3.89,8.11,2.25,2.29-1.01,3.65,2.39,4.48,3.67,2.92.02,4.62-5.26,6.91-6.48,2.25,1.41,5,4.19,8.14,2.77,3.39-1.53,4.8-5.47,7.76-7.1,13.94-7.68,9.68-2.7,14.85-9.37,2.01-2.59,5.03,2.08,6.27,3.71h0ZM375.35,556.5c0-.28-.22-.5-.5-.5s-.5.22-.5.5.22.5.5.5.5-.22.5-.5ZM440.24,567.5c0-.28-.22-.5-.5-.5s-.5.22-.5.5.22.5.5.5.5-.22.5-.5Z"/>
  <path class="st2" d="M416.97,537.07c-1.24-1.63-4.27-6.3-6.27-3.71-5.17,6.68-.91,1.69-14.85,9.37-2.96,1.63-4.37,5.57-7.76,7.1-3.14,1.42-5.89-1.36-8.14-2.77-2.29,1.22-3.99,6.5-6.91,6.48-.83-1.28-2.19-4.68-4.48-3.67-3.72,1.64-5.86-2.16-8.11-2.25-6.29-.26-7.93,1.55-16.1-6.56-2.45-2.43-5.73-4.03-7.54-7.31-.29-.53-2.2-.38-2.76-.75-.45-.3-.72-1.54.36-1.84.99-.27,2.15,1.11,2.61.17.08-.17-3.34-8.24-4.99-5.67l-1.43,2.24c-.39.6-2.03.46-2.12-.9-.07-.99.01-1.69-.17-2.35-.26-.97-1.33-.88-2.25-.53-.79.3-.9,1.35-1.36,2.37-2.32,5.13-7.02,8.04-10.53,12.28-.93,1.13-.39,3.29-1.07,4.5-.6,1.06-2.55.7-3.78,1.5-5.17,3.37-7.49,9.22-12.02,13.03l-9.71,8.17c-3.46,2.91-6.94,5.54-7.6,10.03h-6.17c9.97-10.46,19.82-20.76,29.59-32.09,2.75-3.19,5.49-8.04,9.1-9.7,4.12-1.54,7.08-4.93,10.5-8.78l7.64-8.62c1.62,3.2,5.7,4.58,8.3,6.28-1.01,5.29.74,8.72,4.03,12.44,5.51,6.21,14.44,8.84,21.16,1.89,3.12-3.22,6.12-8.16,8.23-12.4,1.5-3.01-.1-7.31,1.83-9.93,4.58-6.2,11.65-3.13,17.85-.95l9.52,3.34c5.22,1.83,10.75,1.45,15.82,3.29-.04,5.78.86,10.82,2.05,15.98-1.19.49-1.88.28-2.46.34v-.02h0Z"/>
  <path class="st2" d="M520,533.03c2.76,2.64,4.3,6.1,2.01,9.83l6.84,20.43c3.02,9.01,2.71,2.48,5.15,12.71h-2.52c-.83-2.36-2.09-4.42-3.71-7.41-3.53,1.95-6.47.43-9.74-.46-2.54.96-3.09,5.51-2.85,7.86h-7.4c.99-3.21,6.53-8.76,5.57-12.15,1.13.04,2.07,1.19,3.51.97,2.41-6.09-11.12-5.67-7.03-16.34.45-1.18-1.53-2.72-2.49-3.17-1.06,2.93-.48,5.44-.2,8.78-1.69-.04-1.78-3.61-3.12-4.42-4.57.81-8.84,3.43-13.61,2.79,3.07,2.32,6.4,4.29,6.83,9.14-3.75-1.67-6.34-3.68-9.99-5.8,1.51,14.94,1.39,10.61-2.51,12.97-1.47.89-3.34,4.81-5.5,4.05-6.01-2.13-11.23-.88-17.36-1.18l-7.14-.34c-5.14-.25-6.98-6.04-15.19-7.03-2.49-.3-3.99-4.06-6.36-5.14-2.86-1.3-6.3-1.46-8.6-3.57-2-1.84-2.84-4.6-6.22-4.78,1.08-.74,1.9-10.07,1.52-10.58-.73-.97-1.93-1.52-2.89-2.24,5.78.92,1.75-1.54,2.24-14.97.06-1.73.2-2.7,1.38-2.98,4.45-1.05,2.4,6.06,11.14,6.16,2.44-.54,2.58-4.75,4.58-5.97.88-.53,2.31-.37,3.03-1.03.31-.29-.41-1.12.43-2.17,2.52,1.01,2.23,4.62,4.08,6.12,2.07,1.69,3.73,2.87,4.22,6.2l2.47-5.42c1.98,4.64-.42,8.56-.39,13.31.01,2.49,4.72,2.65,5.95,1.37-1.36-.99-2.26-.9-2.82-1.41-.61-.56-.38-1.86.07-2.34,6.47-6.8,8.63,2.58,23.5.81,7.47-.89,7.97-2.5,11.03-7.63,1.45.62,1.3,1.84,2.03,2.63,2-2.64,4.31-3.52,7.28-3.66.75-.04,1.3-2.28,2.11-1.85.62.32.88,3.18,1.57,3.11,4.73-.47,3.69-5.66,4.91-9.5,3.76,4.12,5.66,8.66,7.46,13.18-1.21,2-5.52,7.85-3.67,8.93.79.46,1.81,1.36,2.89.92-.37.15,5.96-9.49,7.48-8.71l.03-.02h0ZM429.05,547.87c-1.64-1.69.38-3.91.13-6.31-2.39.4-2.87,2.95-4.37,5.52-3.72-4.52,2.88-12.84,2.97-17.47-2.53,1.86-1.24,4.75-3.95,6.03-3.66,4.72-2.9,10.48.29,14.82,1.78,2.42,7.02,2.92,10.18,2.4.96-.79-.2-3.2-1.02-3.92-.99-.87-3.37-.18-4.23-1.06h0ZM500.57,546.65c-2.52,1.74-5.61.42-7.34,1.01-.75,2.97,3.31,2.74,4.89,2.21,1.06-.36,3.01-.99,2.45-3.21h0Z"/>
  <path class="st0" d="M333.55,13.85c-.45-.15-1-.29-1.15-.83.64-.08,1.26-.01,1.15.83Z"/>
  <path class="st0" d="M341.41,30.01c.58,1.36,1.69,3.47,3.17,3.84-.18,1.49-.52,2.67-1.3,1.44-2.53-1.99-4.58-3.5-5.91-6.2,1.9-.42,2.72.99,4.04.91h0Z"/>
  <path class="st0" d="M344.58,33.86c.52-.96-.28-1.96.02-2.97,1.19.46,1.81.55,2.29,1.14.4.49.67,1.36-.23,1.59-.68.17-1.38.18-2.08.24Z"/>
  <path class="st0" d="M340.41,0c-.64,1.95,4.68,2.36,8.3,7.07-.48.68-1.15.95-1.16,1.77,4.81,2.02,8.12,5.71,11.35,9.23l3.75-2.37c1.12-.71-.54-2.23,0-3.41.67-.17,1.95.52,2.42.82.79.5,1.89-.14,1.54-1.19-.16-.49-1.04-1.52,0-2.62,3.9,3.24,7.67,4.9,12.52,5.2,2.08.13,4.25,2.57,6.51,2.22,4.15-.65,5.65,2.82,8.53,4.29l30.02,15.24c5.2,2.64,19.78,23.56,23.59,29.42-2.63-4.04,2.96,14.02,7.55,18.07s7.1,8.15,7.45,14.25c.13,2.21,8.78,15.32,9.1,22.88-4.51-1.52-5.9-5.95-7.09-10.55-.66-2.52-3.4-4.3-3.67-7.16-.29-3-3.32-2.31-5.04-2.9-.99-.35-1.25-2.44-2.36-2.52-.8-.06-2.76,1.23-3.49.7-1.74-1.26-4.12-.61-6.06-1.03-2.69-.59-4.96-3.7-9-2.46-2.94-9.55-1.85-10-2.68-16.88,1.84,1.22,2.2,3.46,4.3,2.29-1.63-3.27-4.44-3.96-4.96-8.04,4.58,2.5,8.18,1.47,12.04-1.53-6.25-7.63-9.64-15.69-13.31-23.98-1.85-3.05-6.47-4.78-8.08-8.28l-4.33,2.92-1.75-4.65c-3.98,1.08-6.62-.9-9.68-2.15-10.39-4.27-1.17-3.53-14.76-8.25-2.13-.74-3.65-1.58-4.58-3.85-6.46,5.88-12.91-1.5-15.09,5.95l11.55,4.1c-1.84,2.01-2.44,5.1-4.41,5.46-2.72.5-5.36-1.72-7.6.85-1.22-1.84-1.02-3.9-1.98-5.93-.96,1.31-.98,2.64-2.15,2.81-.98.15-1.9-.34-3.21-.58,2.61,6.52-6.53,0-11.42-2.07-1.08-.45-1.09-3.17-2.45-3.93-.81-.46-6.05-.9-6.16-.4-.16.74.29,1.5.12,2.07-.81-.31-1.5-1.04-3.19-.87-4.52-10.6-3.04-1.49-7.79-8.45,4.99-.16-1.58-3.17-.07-7.71,2.8.94,5.62-.23,8.32,1.53-1.19-2.1,1.03-2.89.94-3.93-.08-.92-2.68-1.48-1.58-2.48.63-.57,2.92-1.62,2.17-2.8-1.7-2.68-5.62-4.08-9.19-4.01,1.1,2.96,4.15,3.13,3.26,5.57-2.17-.12-3.53-3.58-5.77-3.18-2.97.53-3.81-.73-6.61-3.03-.74,5.72,5.87,6.11,7.32,11.49-1.57.2-2.46-1.11-3.81-2.25-1.5-1.26-3.78.09-4.08,2.87,3.66.45,7.89,3,7.81,7.01-1.49-1-3.3-.8-5.01-.68-.74.05-1.32.12-1.57.74-.32.8.01,1.58-.19,2.23-.17.56-1.1.85-1.11,1.73,1.96-.1,2.48,1.08,3.09,1.86,1.03,1.31-.29,2.34-.97,3.76-1.25,2.6,2.11,3.7,2.77,6.28-4.44-.2-8.55-10.81-9.54-3.45-3.15-2.29-6.09-5.38-8.87-8.7-1.77-2.11-1.83-4.99-4.22-7.22-.76-.71,1.61-1.94,2.49-2.04,3.66-.41,1.99,5.6,7,3.53-3.04-2.62-4.03-9.18-7.49-9.91l-3.67-.78c.93.2-4.66-8.31-3.57-7.99h38.96,0ZM324.27,19.06c.21-3.41-2.33-3.87-3.2-5.8-1.1-.55-2.07-1.37-2.62-.72-.4.46-1.08,1.53-.98,2.58,2.58.37,4.14,2.91,6.81,3.95h0ZM368.36,13.51c0-.28-.22-.5-.5-.5s-.5.22-.5.5.22.5.5.5.5-.22.5-.5ZM370.36,14.51c0-.28-.22-.5-.5-.5s-.5.22-.5.5.22.5.5.5.5-.22.5-.5ZM343.22,14.77c2.13,6.21,8.05,8.11,13.04,11.2-.34-2.33-10-9.75-13.04-11.2ZM344.4,26.51c0-.28-.22-.5-.5-.5s-.5.22-.5.5.22.5.5.5.5-.22.5-.5Z"/>
  <path class="st0" d="M530.93,532.86l-2.45,7.22c-1.4,4.12.3,5.94,1.23,9.15l3.99,13.89c.99,3.44,2.68,5.07,6.86,6.52-1.56,1.99-3.11,1.32-4.43,2.17.87,1.9,1.62,2.9,1.96,4.19h-4.08c-2.45-10.23-2.14-3.7-5.15-12.71l-6.84-20.43c2.29-3.73.74-7.19-2.01-9.83-.11-3.22,2.66-5.4,4.17-7.99-.1-2.27,3.88,6.02,4.24,4.98-.17.52-1.34,1.04-1.17,2.1.28,1.69,2.67.89,3.69.75h0Z"/>
  <path class="st0" d="M242.58,0c-.15,1.78-1.76,3.28-3.58,4.56-8.57,6.05-16.42,12.76-23.25,20.36.22-1.68-.17-5.84,1.84-6.8,3.49-1.65,13.03-10.24,15.02-13.19,1.34-1.98,5.18-2.16,4.97-4.93h5Z"/>
  <path class="st0" d="M531.49,576h-16.29c-.24-2.35.31-6.9,2.85-7.86,3.26.88,6.21,2.41,9.74.46,1.62,2.99,2.87,5.04,3.71,7.41h-.01Z"/>
  <path class="st0" d="M272.53,0c-.01,1.01-1,2.73-.66,3.86,1.55,1.64,2.59,2.62,2.44,4.27-.29,3.1-7.33,8.98-10.15,5.22-1.25-1.67-.17-4.05,1.38-5.57.99-.97,2.73-.97,5.77-1.39-.06-2.68-2.28-4.18-2.77-6.39,0,0,3.99,0,3.99,0Z"/>
  <path class="st3" d="M202.48,137.35l1.03-.13c-.26,1,1.11.76,1.64.73.57-.03,1.87.12,1.66-.81l12.77.03c9.15,3.95,14.18,3.97,15.03,15.93l-2.21,5.93-17.67,3.98c-2.31.52-6.09.21-4.95-2.83,1.35-.95,4.05.45,5.92-.41-.68-1.26-1.96-1.31-2.94-1.81l-.07-2c1.15-.94,2.95-.48,4.45-1.36.45-.26,2.02-6.3-2.53-7.49.15-1.29-.28-1.97-1.41-2.02-.88-.04-2.96,1.44-3.67.95-1.73-1.24-3.4-.11-4.79.77-3.47,2.21-3.15,9.25-1.28,10.07,1.48.65,2.93,1.31,4.11.25.57-.16,1.65.43,2.03.88.71,4.63-10.51.72-13.78,2.48-8.55,4.61-12.33,16.4-15.1,24.63-8.65,9.67-5.57,55.03-4.74,69.9.44,7.91,2.15,15.07,4.62,21.96.49,1.36-.18,3.87,1.84,4.12l.17,1.87c.15,1.68,11.12,25.06,12.8,27.14,1.62,5.9,6.58,23.39,10.02,28.27,7.95,11.27,25.11,14.43,37.31,14.64,2.77,1.68,1.14,5.33,1.91,7.88,2.43,8.1.11,15.52-.55,23.11-1.39,16.02-5.44,6.41-9.89,31.17l-3.24,18.01c-.62,3.45-.44,5.38-2.93,8.38-3.56,4.29-5.19,11.47-5.13,16.74,0,.59,1.76.85,2.03,1.03.44.29.54,1.28-.04,1.5-.96.37-1.58-.27-3.14-.54,1.55,5.46,12.68,9.56,7.66,12.94-1.43-2.43-2.91-5.14-4.85-5.89-2.94-1.13-6.61-.39-8.8,1.79-4.52,4.5-7.7,3.29-8.1,8.31-.1,1.2.94,2.44,1.41,4.14-2.52-.81-1.83-3.06-3.97-4.51-.06,2.15-2.57,2.59-3.48,3.97-1.52,2.31-2.69,3.51-5.23,4.69-7.97,3.69-14.72,9.18-19.14,16.88-7.03,1.29-16.68,6.75-21.07-.63-.66-1.11-.18-2.63-.7-3.26-.65-.77-2.34-1.24-3.93-.72l-7.95,2.64-6.68,11.5c-2.51,4.32-5.3,7.9-7.8,12.12l-4.04,6.82c-3.34-5.32,18.27-36.29,4.53-30.15-3.92-5.32-3.08-13.19-7.57-14.56-.84-2.87,4.25-.05,5.22-2.89,1.4-4.1-8.8-3.12-6.17-7.34,1.7-2.73.68-7.14,2.38-9.28,4.15-5.22,3.14-8.53,11.55-17.64l10.44-11.31c.82-.88-.17-2.05-1.04-1.68-.62.26-1.46.3-2.78,0,1.59-2.63,3.24-3.93,1.92-6.74-1.01-2.15-3.52-4.37-6.12-4.04-.32,4.09,1.32,7.07.71,9.9-1.4.3-2.5,1.59-3.12,1.79-1.1.37-2.2-1.49-1.84-3.25.2-.95.41-2.32-.1-2.8-.41-.38-1.72-.29-2.26-.15-.85-5.49,4.38-4.71,4.26-7.4-.02-.45-.05-1.35-.76-1.23-.42.07-1.78,1.73-2.23,1.64-4.29-2.47-2.94-8.54-3.69-13.08s-4.82-7.96-3.86-13.15c-3.79,1.21-2.03,4-3.07,5.84-5.28,9.29-1.51,9.79-4.76,11.13-6,2.48-4.16-3.41-9.87-3.74.59,3.47-1.38,5.59-3.99,7.58-.44,1.83,2.3,2.73,1.94,4.74-.63,3.48-7.85.29-7.24-1.94,2.7-9.92,2.11-15.23.28-25-.22-1.19,2.36-1.32,2.9-2.53,1.6-3.53,5.74-10.22,8.81-7.07.34.35-.79,3.14-.02,4.19.58.79,1.11.9,1.81.91,1.97.04,2.05-6.29,2.09-6.14-.22-.86-2.76-1.5-2.55-2.78.42-2.09,5.07-5.64,3.01-8.14-7.82-9.43,1.03-10.22-1.61-14.14-3.43-5.09-3.27-10.05-1.65-15.81-3.72.16-.48,3.18-2.84,4.72-1.69-3.1-.98-5.66-1.99-8.8-3.5-.42-5.24-2.71-7.03-4.72.92-.73,1.3-1.81,1.52-2.92,3.11-.77,9.82-1.15,11.04-3.77.27-.59-.66-1.54-.5-2.17.27-1.01,1-2.52,1.84-3.19,3.37-.19,1.02-4.02,4.9-7.26,2.1,2.44,3.91,1.95,5.68,1.36,4.66-1.57,4.47-8.15,3.94-13.81-3.22,1.88-.83,4.36-2.32,6.93-2.13-1.32-1.15-3.78-1.45-6.31-1.73,2.62-3.89,4.49-6.88,5.67,2.84-13.76.57-10.48.56-12.1,0-.7,1.25-.83,1.47-1.53l3.59-11.44c.74-2.34,1.43-4.46,2.33-6.24,1.4-2.76,3.08-5.06,3.81-8.62,1.27-6.13,6.42-11.73,6.31-16.7,1.56-.64,1.97-2.32,2.9-4.06,8.43-15.75,1.47-12.92,2.47-15.19.28-.63,1.87-.54,2.35-1.38,1.57-2.74-1.75-6.45-4.59-6.25.32-13.78.56-31.08,13.08-39.47.92-.62,3.88-.53,4.04-2.14.31-3.05,2.83-5.37,3.36-8.01,2.53-12.64,7.16-24.04,12.08-35.89,2.19-5.27,4.06-10.1,6.86-15.15,1.44-2.6.42-6.15,2.73-9.08,2.47-3.12,1.32-8.99,3.6-12.42,3.12-4.7,5.19-9.39,6.88-15.01l2.98-9.89c3.62-12.03,6.27-23.83,12.74-33.56l4.05,5.16c2.3-3.27,16.73-23.4,20.41-17.93.51.75.42,3.2-.41,3.96-6.49,5.91-12.11,18.62-15.03,27.13l-8.07,23.52c-1.09,3.18-.56,6.38-2.51,9.51-3.24,5.2-4.74,11.22-7.61,16.6-2.64,4.95-6.38,19.72-1.77,25.01,2.11,2.42,6-.3,7.3-2.05h.02,0ZM145.17,223.99c.89-2.62,1.01-3.98-.04-5.05-.67,2.04-.67,3.63.04,5.05ZM145.33,227.1c1.34-1.13,1.07-1.85.62-2.22-.74-.61-1.3-.32-2.11.38-.65.57-.99,1.49-.85,2.21s1.38.42,2.34-.38h0ZM128.94,286.01c-5.98,2.93-5.97,15.63-6.18,15.29,1.28,2.05,4.06-.71,5.2-1.68,1.66-1.42,1.75-4.51,1.66-6.56.04-.82,1.53-1.26,2.21-1.04.44.14.79,1.22,1.09,1.57,2.59,2.96,4.76-10.73,3.6-11.74-1.54,2.16-1.1,5.23-3.85,5.35-.85-2.03.53-3.83.09-6.51-1.9,2-1.76,4.34-3.8,5.34l-.02-.02h0ZM131.66,307.43c1.73.34,3.18-5.77,1.05-6.13s-3.51,5.65-1.05,6.13ZM116.38,402.95c.09-1.13-2.84-1.32-3.75-.9-.66.3-1.21,1.43-1.51,3.47.86,1.28,4.9-.17,5.26-2.56h0ZM218.21,455.41c2.65-1.14,4.88-8.9,4.17-11.24-3.53-.98-5.37,1.67-7.74,3.33-.69.4-2.55-.83-3.23-.28s-3.77,4.73-2.29,5.81,6.19,3.63,9.1,2.38h-.01ZM213.12,463.99c-.06-2.36-5.17-4.43-7.25-4.05s-1.78,2.88-3.01,3.76c-1.1-2.16-.59-4.04-1.44-6.31-.54.27-1.95.45-2.47,1-1.63,11.34-1.42,5.69,1.8,18.82,3.74-1.42,4.53-4.62,3.56-7.77,1.13.9.78,2.75,1.74,3.04,3.39,1.04,7.08-8.11,7.07-8.48h0Z"/>
  <path class="st3" d="M130.85,430.95c.53,3.44-2.28,3.26-4.57,4.77l-15.57,10.21c-1.11.73-1.25,2.84-2.74,3.1-1.27.22-2.37,0-3.23-1.01l.09-1.87c2.42-3.03,5.82-5.36,8.37-9.36-2.87-2.01-4.66,1.46-7.69.36.23-3.8,4.41-3.96,6.27-6.1,3.99-4.59,7.14-9.38,10.93-14.72,4.09,2.22-5.03,6.16-1.5,8.79.79.59,4.86-2.29,5.54-.63,2.21,5.36-7.79,2.14-9.33,13.66,3.85-1.66,9.8-6.27,13.42-7.2h.01Z"/>
  <path class="st0" d="M79.94,314.78c.62.43,1.2,1.07,1,1.87-1.58.61-4.34,2.22-5.1,4.24.24,9.18-3.98,21.64,1.12,29.51,10.1-8.31-4.91-5.59,15.82-17.4,2.47,3.26,1.13,6.64-1.16,9.89-3.34,4.72-5.46,10.11-8.13,15.3-.8,1.55.51,4.88-2.06,4.64-.72-.49-.66-2.88-1.86-2.82-.74.04-1.5,2.04-2.63,2-1.7-.06-1.31-2.7-1.32-3.87-.06-4.84-2.79-7.46-6.98-7.66-6.26-7.53-6.66-19.82.03-27.52,3.4-3.92,6.43-7.86,11.27-8.18h0Z"/>
  <path class="st0" d="M68.93,430.91c0,.69-1.36,1.03-.74,2.29,5.33-2.75,7.64-9.9,10.18-10.42,6.35-1.29-5.95,13.69-9.17,14.81l2.25,1.94c-3.53,4.81-8.54,7.07-14.34,7.78-1.81.22-3.15,3.14-5.15,1.39-.97-.85-4.08-1.06-3.72-2.8,3.92-.84,7.21-1.74,8.29-5.62-6.41,1.89-11.14,2.87-15.29-1.58-.74,2.1.1,3.1,0,4.33-11.96-5.69-14.63-25.3-8.31-22.43,1.32.6,2.07,1.7,1.99,3.28-.12,2.6,6.44,13.6,13.56,14.28,12.98,1.23,10.75-4.61,20.43-7.24h.02ZM64.73,434.6c.12,1.6,1.06,1.72,1.64,1.4.54-.29.77-.93.51-1.49s-1.12-1.11-2.15.09ZM64.12,439.51c-2.85-.84-4.93.46-6.4,2.2,2.37,1.25,5.03.91,6.4-2.2Z"/>
  <path class="st0" d="M135.65,239.83c3.55,3.4-3.62,8.06-3.81,11.41.42.99,3.16,1.13,2.8,2.7.1,4.97-5.04,10.57-6.31,16.7-.74,3.56-2.41,5.86-3.81,8.62-5.46-.83-4.78,8.11-9.71,9.75-1.07-2.81,1.14-4.88,3.14-6.94,2.51-2.59-.01-6.84,1.09-9.8l4.37-11.78c1.16-3.12,3.93-5.31,4.97-9.02,1.27-4.54,3.03-9.92,7.28-11.63h-.01Z"/>
  <path class="st3" d="M95.99,384.32c.14,1.87.32,3.75.78,5.57-1.37-.15-3.16.08-4.54,1.02-1.87,1.27.79,5.51.16,6.14s-1.66,1.17-2.18.44c-2.17-3.05-.65-6.94-3.87-10.12l1.91,13.66c.23,1.68-.97,3.36-1.4,4.98-1.65.56-2.74-26.36-6.64-24.91-.24-2.82-.55-6.62-2.17-9.2.72-.46,1.48-.73,2.03-.46.77.39,1.8,1.54,1.68,2.37-.51,3.31,3.56,2.55,4.49,3.94,1.61,2.39.98,7.08,4.21,7.8.85.19,3.52-1.62,2.59-2.49-1.8-1.67-4.15-5.61-1.2-6.84,3.41-1.42.39,8.12,4.16,8.09h-.01Z"/>
  <path class="st2" d="M134.64,253.94c.37-1.56-2.38-1.71-2.8-2.7.19-3.35,7.37-8,3.81-11.41,1.16-3.91,2.02-8.6,2.12-12.77,2.84-.2,6.17,3.5,4.59,6.25-.48.84-2.07.75-2.35,1.38-.99,2.27,5.96-.56-2.47,15.19-.93,1.74-1.34,3.42-2.9,4.06h0Z"/>
  <path class="st0" d="M81.7,396.86c-3.84-.29-4.85,4.23-7.14,3.04-2.6-1.36,3.64-14.54,4.55-15.81,2.07.85,3.44,3.26,3.21,5.83l-.63,6.95h0Z"/>
  <path class="st0" d="M160.44,152.02c-.56,3.7-1.94,7.29-3.8,11.04,1.42,1.42,1.9,3.03.73,4.67-3.98,5.59,2.22,7.55-3.48,7.33.31-2.34-1.83-5.2-1.13-7.49.67-2.17,2.38-3.77,2.34-6.5-.06-4.01,2.43-7.2,5.34-9.06h0Z"/>
  <path class="st0" d="M190.56,70.17c-.63,3.92-1.15,8.48-4.75,10.82-.98-.88-1.9,0-3.65-.68,2.61-4.33,4.47-8.65,8.4-10.14Z"/>
  <path class="st0" d="M184.6,84.16c-1.08,2.8-1.39,6.26-4.05,7.96-2.49,0,3.57-9.54,4.05-7.96Z"/>
  <path class="st0" d="M68.35,455.29c-.39-1.64-1.26-3.09-2.43-4.3.6-.93,1.63-.99,2.4-1.01,1.59-.05,1.85,1.22,1.95,2.54s-1.09,2.11-1.93,2.77h.01Z"/>
  <path class="st0" d="M70.99,494.04c-1.05-.46-2.33-.4-2.77-2.01-.2-.74-.17-1.64.7-2.27,1.26,1.08,1.89,2.65,2.08,4.27h-.01Z"/>
  <path class="st0" d="M67.87,461.82c-.07.71.19,1.55-.13,2.47-.18.53-.69,1.66-1.65.94-.05-.74-.47-1.61-.12-2.54.22-.57,1.04-1.62,1.89-.87h.01Z"/>
  <path class="st0" d="M152.75,179.91l-.18,2.36c-.03.46-.62,1.57-1.53.98.03-.74-.53-1.55-.23-2.59.18-.64,1.07-1.29,1.93-.75h0Z"/>
  <path class="st0" d="M68.87,488.22c-.57.65-1.45.04-1.97-.76-.36-.55.88-1.15,1.11-1.62,1.03.11.71,1.63.87,2.38h-.01Z"/>
  <path class="st0" d="M67.88,482.17c-.42.42-.85.21-1.47-.13-.4-.22-.66-.72-.35-1.23.2-.33.6-.64.96-.94.95.07.82,1.58.86,2.3h0Z"/>
  <path class="st0" d="M63.04,451.1c.46.6.1,1.46-.71,1.86-.47.24-1.2-.58-1.64-.93.12-.99,1.6-.83,2.35-.93Z"/>
  <path class="st3" d="M510.16,285.95c1.1,3.05,4.85,4.05,5.81,7.22.8,2.62,2.4,19.81,2.12,20.9-7.69,30.89,7.3,25.42,3.86,38.79,2.18,1.43,4.06,3.41,4.51,6.14.86,5.19,5.27,9.58,5.31,15,.02,2.54-4.07,4.75-2.73,7.98,7.95.81,7.88,9.54,12.8,13.11l.16.85.02,1.21-.03,1.56c-.63.13-1.05.29-1.38.42-.51.2-.84.77-.55,1.36.24.49.72.8,1.24.52-1.04,8.97-7.79,11.77-7.81,11.91-.22,1.24-.8,3.08-.52,4.11-6.83-.57-4.37,3.2-7.4,3.2-4.62,0-2.75-8.46-3.88-10.82l-3.63-7.59c-1.83-.22-5.08,3.2-4.68,5.24.29.74,1.99-.2,2.61-.08.58.11,4.39,10.05,4.07,11.98l-4.81-.73c3.4,2.4,1.77,5.19,2.5,7.9l5.03,18.44c-2.58-.21-4.57.31-5.74-.16-4.5-1.82-1.89-9.65-7.1-8.1.22,3.28,8.69,12.79,5.76,15.28-.53.45-2.84-1.5-3.28-.46-.88,2.07.84,4.62-.58,6.87l14.57,1.68c-3.16,3.88-2.26,7.16-.58,11.99-3.99.88-7.57-1.59-8.32-5.11-1.22-.19-2.79.69-3.62.27-1.1-.56-10.96-19.58-9.26-14.44l-.87-2.63c-.21-.65-1.69,0-2.27.38-2.03,1.37,5.2,11.3,8.05,14.17.78.79-.65,3.85,2.21,4.15.72.08,1.53,1.35,1.51,2.07-.02,1.07-1.28,1.62-2.73,2.09-.05,1.74,1,2.93,1.5,4.27-2.99,1.83-6.01,4.16-7.21,8,1.72,2.02,3.64,3.35,6.39,4.17,1.62,7.97-8.85-2.7-18.46,6.56,1.9,1,3.43-.31,4.72,1.36-1.36,2.07-3.45,2.18-4.63,4.57,3.05,1.38,5.71-.02,9.03.56-.48,2.71.71,4.19,2.06,4.6,5.74,1.74,3.27-3.27,8.99-5.26,3.23-1.12,1.46,11.51,12.76,13.03.97.13,1.88.96,2.16,1.45.4.7.33,2.31-.33,3.44l-3.32,5.69c-1.51,2.59-4.28,4.77-4.17,7.99-1.51-.78-7.85,8.86-7.48,8.71-1.07.43-2.09-.46-2.89-.92-1.85-1.07,2.46-6.92,3.67-8.93-1.8-4.52-3.69-9.06-7.46-13.18-1.22,3.84-.18,9.03-4.91,9.5-.69.07-.95-2.78-1.57-3.11-.82-.43-1.36,1.81-2.11,1.85-2.98.14-5.29,1.02-7.28,3.66-.73-.79-.58-2.01-2.03-2.63-3.07,5.13-3.57,6.74-11.03,7.63-14.88,1.77-17.03-7.61-23.5-.81-.45.48-.68,1.77-.07,2.34.56.52,1.46.42,2.82,1.41-1.23,1.28-5.94,1.12-5.95-1.37-.02-4.75,2.37-8.67.39-13.31l-2.47,5.42c-.5-3.33-2.15-4.51-4.22-6.2-1.85-1.51-1.55-5.11-4.08-6.12-.84,1.05-.12,1.88-.43,2.17-.71.66-2.15.5-3.03,1.03-2.01,1.22-2.14,5.43-4.58,5.97-8.74-.11-6.68-7.21-11.14-6.16-1.17.28-1.31,1.25-1.38,2.98-.5,13.43,3.54,15.89-2.24,14.97-.08-.25.1-.68-.05-.88.58-.05,1.26.16,2.46-.34-1.19-5.16-2.09-10.2-2.05-15.98-5.06-1.84-10.6-1.46-15.82-3.29l-9.52-3.34c-6.21-2.18-13.27-5.24-17.85.95-1.93,2.61-.33,6.92-1.83,9.93-2.11,4.24-5.12,9.18-8.23,12.4-6.71,6.95-15.65,4.32-21.16-1.89-3.3-3.72-5.04-7.14-4.03-12.44-2.6-1.7-6.68-3.08-8.3-6.28l-7.64,8.62c-3.42,3.85-6.38,7.24-10.5,8.78.88-3.9,3.34-3.31,4.07-8.47,3.22,2.03,8.57-7.6,13.01-11.17l-7.52-22.9c-2.46.51-3.49,1.79-5.74.99,2.27-.28,1.73-2.86,2.83-4.06,1.84-2,9.97-11.45,9.64-13.74,1.39,2.64,2.96,3.98,4.75,4.85-.2-2.43-2.33-2.99-1.78-4.08l1.8-3.58c.55-1.1.52-2.32,1.16-3.35s1.99.36,4.01.15c-3.74-8.92,2.93-6.69,1.6-11.91-.15-.58-.91.1-1.98.33-1.51-2.32-3.87-2.09-5.44-1.63-7.18,2.09-5.17,8.71-8,13.3-2.29-3.82-2.03,2.5-4.88,2.13-3.98-.52-.43-4.64-2.66-7.97,2.89,1.3,3.42-.17,3.79-1.89.51-2.4-.59-3.23-2.67-4.28-1.9-.96-2.93-3.54-5.12-2.73-.32.12-.76-.15-1.1-.08-4.56-4.4-10.99-3.29-17.25.62-.3-4.15,2.84-7.56,5.98-8.19.9,1.17,2.05,2.91,4.17,2.77,5.18-.34,9.74,1.91,14.52,2.8,1.63.3,3.26-1.8,6.52,1.4-1.78-4.42,1.09-4.65,2.13-6.78,3.71-7.56,9.06-14.73,16.52-19.37.28-1.68-1.02-3.31-2.45-4.91l7.05-3.03c-1.75-.88-3.29.32-4.13-.99,1.16-.94,2.54-1.1,2.63-1.91-.03.33-1.93-3.7-4.91-3.57-.75.03-5.73,6.77-10.23,9.47-8.87,5.31-6.14,12.24-13.93,12.05,4.97-5.48,6.92-10.37,8.75-16.32,1.08-3.5,4.4-8.18,1.41-11.91-1.53-1.92-5.35-2.49-5.05-6.28.24-3.14-1.93-5.37-3.28-7.88-.36-.67.75-1.81.71-2.55-.14-2.47,1.57,2.07,3.09,1.53-.91-3.52,2.97-5.79,3.51-8.23.69-3.11-1.43-5.9,1.84-8.56,2.02-1.64,2.02-4.99.54-7.43,1.28-1.02,2.93-.15,4.35-1.82-2.26-2.4-5.12-1.91-7.75-1.99-.2-5.03,4.19-8.94,6.25-13.07-.01-5.35-4.16-10.24-3.97-11.77.54-4.33-2.77-6.11-5.4-8.68-1.76-1.73,1.7-5.16,3.46-5.41,3.78-.54,5.36-4.1,7.93-5.2,10.76-4.61,17.87-13.62,18.24-25.69l2.46-1.87c.38-.29-.48-1.59-.35-2.49l2.84-19.82c.53-3.67-2.38-7.3-1.79-10.87.98-5.94,2.75-11.81,1.43-18.1-.66-3.14,1.42-5.11,1.81-7.53,1.11-6.84.25-14.14.01-21.08-.17-4.8-1.6-8.47-3.1-12.52s-4.1-4.38-7.14-6.59c-4.8-3.49-1.35-17.02-9.29-16.4-5.87.46-11.71.21-17.41-.27-.67-.06-1.26,2.71-2.17,1.35-.32-.48-.47-1.43-.63-2.61,4-2.61,8.45-5.06,11.1-9.77.83-1.47-2.2-4.26-3.71-3.55-1.34,2.65-1.82,6.77-4.63,8.51-5.39,3.35-11.87,1.37-16.56-1.67-2.07-4.53-1.43-9.26,2.07-14.46-3.28-1.21-6.74-.46-9.81.55-.45.15-1.02-.03-1.53.2-.62.29-1.49.9-.81,1.71l-.75.2c-1.01-.08-2.38.47-3.35-1.36,4.13-3.16,9.15-4.89,13.78-5.83.17-1.72-.05-3.69.45-4.41,1.63-2.35,18.09,3.46,20.93,4.64,2.58,1.07,10.64,10.69,14.92,5.84.55-.63.44-2.02,1.32-1.67.44.17.88,1.37,2.03,1.51,1.44-3.24-.43-7.03.76-10.76.79-2.48.12-6.79-3.13-6.72-5.93.12-6.79-6.29-16.02-6.76l-15.57-.79c-4.87-.25-8.92-2.07-14.3-1.73-5.95.38-13.46.21-17.91-3.91,2.53-8.91,11.29-3.37,18-8.28.3.12.69.02,1,.12.89,2.92,4.22,1.69,6.91,2.05,9.25,1.24,18.08,2.46,27.46,1.26,3.49,3.73,6.09,7.17,10.24,10.09.25-4.45-3.86-6.9-4.68-10.51l-2.58-11.38c-.82-3.62-4.83-15.82,2.52-16.77-8.17-5.98-5.3-20.12,2.04-23.32,1.18-.61-1.45-2.5-1.8-3.92,3.77-.04,4.68,5.1,7.73,6.76,2.78,1.51,5.46,2.47,8.17,4.55,8.59,6.59,10.54,3.38,14.03,10.01.3.56.85,1.43,1.34,1.56.76.21,1.39-.24,1.62-.69.08-.16-3.76-10.78-2.48-8.31-1.87-3.6-6.17-5.44-7.39-9.27-.21-.66,1.59-1.74,1.16-2.26-1.8-2.2-5.5-4.8-3.75-5.85,5.5,2.82,8.24,7.23,13.06,10.36.39-3.57-3.64-4.16-3.74-7.14-.08-2.31.13-4.24,2.48-4.21.72,0,11.18,8.28,11.82,13.63.32,2.66,2.66,5.52,1.37,8.28-.99,2.12-4.83.94-7.19,1.86,2.27,2.51,4.75.44,7.73,1.43-.88,3.24,1.84,4.85,2.65,6.92.96,2.44,1.04,5.08,3.17,6.97,1.2-.92,2.33-1.41,3.26-2.78-2.39-1.73-1.67-3.79-2.09-5.96-.21-1.08-2.48-1.34-2.7-2.2-.24-.92.86-2.69.46-3.4-2.63-4.6-3.27-9.74-5.19-14.5-1.51-3.77-5.95-5.56-6.17-10.63,3.49-1.01,8.41-2.81,11.99-1.29,3.03,1.28,2.23,5.47,3.18,7.58l4.84,10.73c-3.17.49-5.23-.34-6.83,1.77,4.95.74,8.41,3.29,11.03,6.37-1.85.37-2.52.22-3.3.2-.45-.01-.99,1.39-.28,1.8,1.62.94,4.07-.94,5.95-.29,3.92,2.64,5.24,7.87,3.56,12.52,2.08,3.37,4.4,5.74,6.16,9.37,1.08-3.01,2.01-3.76,4.57-3.7,2.24.05,2.29,2.05,3.89,4.14.36.48,1.69.67,2.02.99.57.55.61.87.07,1.14-.31.16-1.79.25-1.9.68-1.28,5.16-2.44,10.73-1.02,16.11.48,1.82,4.66,1.52,5.87.74-.34-2.91-.72-9.17,2.76-10.02,2.54-.62,5.81,1.82,9.3-2.42,2.11,15.28-3.24,13.05-1.7,18.29-2.24.4-3.57.2-5.16,1.73,1.94,1.39,3.39,4.7,2.75,6.73-3.03.86-6.25-1.68-7.45-4.7-2.81,9.93,11.7,4.31,14.62,9.29,1.12,1.91,1.32,4.12,4.2,5.95-2.75,1.92-4.14-.17-6.82-.72.68-.61,2.01-1.27,2.15-2.03.09-.48-1.21-1.24-1.82-1.28-2.08,9.29-9.33-3.88-17.21-.61,4.49,1.63,8.77,2.87,7.09,6.62l-2.51,5.62c2.09-.45,3.82-1.62,5.53-.93,1.07.43,3.01,1.35,2.95,2.91-.21,5.62-5.15,4.39-5.77,9.34l2.79.66c.61.14,1.21,2.27.61,2.4-2.41.51-4.43-1.22-6.29-3.32-1.66,4.57,3.1,1.8,2.72,7.33-.06.84-1.72,1.88-1.9,2.79,1.06,3.33,4.58.8,6.86.22,3.33-.85,2.76,3.68,3.16,5.55.81,3.83,6.33,1.59,8.4,2.48,2.5,1.07,4.88,2.61,7.96,3.12,4.34.72,7.64,5.41,11.98,6.54,5.19,1.36,9.68,2.89,13.65,6.47,2.46-2.83,6.01-2.57,6.58-6.49-2.91,1.21-4.55,2.75-7.46,2.09-7-1.57-4.71-9.14-11.55-6.62,1.02,1.18,1.94,1.47,2.3,1.98.3.44-.64,2.08-1.38,1.6-1.62-1.04-1.54-3.36-3.79-4.45,1.05-.85,2.24-.17,3.03-1.23-1.95-1.15-3.45-1.19-5.03-2.51,1.21-2.99-.46-4.6-3.18-6.83,3.22-.78,5.65,1.78,9.1,1.94s6.79.66,9.49,2.71c.39-2.44-1.3-3.58-2.58-6,2.95-.8,4.18,1.84,5.55,3.95,1.66,2.54,6.87,3.52,6.53,6.55l-.73,6.46c4.18.22,9.94,13.91,7.65,18.26-.48.92-3.18.56-3.11,1.79.06,1.07.63,1.89.34,3.29-.33,1.59,1.57,1.15,1.61.43.02-.36.33-1.91,1.38-1.41,2,.96.28,6.46-1.69,5.98-1.25-.31-2.75-2.56-3.85-1.61-.63.54-1.7,2.68-.85,3.6,8.86,9.73.73,10.06,5.68,20.75,1.19,2.56,4.08,5.29,3.9,8.17-.69,11.5,8.42,6.66,5.13,19.96-.92,3.72,3.06,7.9,6.54,8.07h-.06,0ZM340.41,83.51c0-.28-.22-.5-.5-.5s-.5.22-.5.5.22.5.5.5.5-.22.5-.5ZM343.38,87.64c-.5-2.06-1.88-2.11-2.98-2.51.79,1.24,1.64,2.82,2.98,2.51ZM345.02,88.24c.07,1.39.33,2.32.86,2.75.32.26.96.21,1.52-.45s-.76-1.07-1.39-1.55l-.98-.75h0ZM350.03,92.51c0-.35-.28-.63-.63-.63s-.63.28-.63.63.28.63.63.63.63-.28.63-.63ZM386.29,116.52c-4.22.28-7.18,3.87-9.27,6.91,2.08.58,3.37.65,3.45,1.87.05.78-.93,1.64-.71,2.82.2,1.09,1.64.12,2.33-.04,2.64-.61-.23-4.05,4.19-11.57h0ZM385.88,122.2c-1.29.53-1.79,1.48-1.55,2.27.15.51.79.71,1.49.55.84-.2.73-3.09.07-2.82h-.01ZM435.88,129.51c0-.35-.28-.63-.63-.63s-.63.28-.63.63.28.63.63.63.63-.28.63-.63ZM407.8,145.53c-2.87,2.8-1.61,7.19,1.44,9.59.56.56.45,1.59.83,1.74.66.26,1.27.06,1.35-.34.65-3.29-3.43-1.59-3.62-10.99ZM412.28,158.51c0-.28-.22-.5-.5-.5s-.5.22-.5.5.22.5.5.5.5-.22.5-.5ZM361.45,161.57c-3.27-2.52-6.06-2.6-9.27-2.25,2.53,2.35,6.24,2.94,9.27,2.25ZM425.82,161.65c.02-.72,1.29-2.92-.41-2.2-2.2,3.4-5.51.85-8.42,1.02-1.53,1.08,8.75,3.64,8.83,1.18h0ZM381.32,168.59c-1.22-1.58-5.28,0-4.95,2.19.52,3.43,1.97,6.02.04,9.24,7.51-5.28-2.88-10.22,4.92-11.42h-.01ZM456.88,196.08c-8.51-.26.54-2.53-9.95-2.87-1.29-.04.09,1.75.18,2.72-2.6-1-4.71-3.7-7.41-3.37-7.5.9-13.52-3.66-17.94-9.2-1.88-2.35-4.47-3.89-5.31-7.19-1.21.84-1.81,1.81-2.4,1.51-.66-.32-.87-1.91-2.16-1.68-.49,3.47,2.83,5.36,5.04,7.22,2.8,2.35,2.74,6.86,4.68,9.27,3.12,3.88,7.81,5.55,11.2,8.66,1.3-1.85,1.55-3.42,3.64-3.18.4,2.8.72,5.34,3.83,5.83-1.61-1.36-1.65-4.68.56-5.6,3.61,3.78,11.03,8.8,15.1,3.44-.94-1.03-1.95-2.04-1.57-3.07.32-.88,1.65-.66,2.5-2.49h.01ZM363.72,202.16c1.68-9-7.43-19.74-9.08-14.45-.4,1.28,3.26,12.3,9.08,14.45ZM428.29,211.52c-.21-.3-1.63-.24-1.92-1.04-.86-2.33,2.65-2.61,4.88-2.56-4.96-4.84-8.64-14.59-14.26-15.09-1.09.36-.17,2.82.17,3.88-1.91.42-1.9-1.11-2.89-2.69-1.4,1.04-1.14,2.78-.9,4.15.17.95,2.68,1.22,3.14,2.63.9,2.71.25,8.27,3.09,9.24-.36-2.24,12.03,6.4,8.69,1.48h0ZM483.16,206.51c0-.28-.22-.5-.5-.5s-.5.22-.5.5.22.5.5.5.5-.22.5-.5ZM485.31,207.54l-1.51,1.07,3.29,4.67,1.51-1.07-3.29-4.67ZM400.17,255.56l-.85,1.05,5.23,4.26.85-1.05-5.23-4.26h0ZM415.54,265.61c-3.31-2.52-6.09-3.58-9.49-4.36,2.26,2.95,5.91,5.39,9.49,4.36ZM512.8,297.64c-.27-.59-1.63-.35-2.13-.29-3.81.47-1.75,11.56,1.36,12.77,1.94,1.08-.7-15.68.77-12.48h0ZM462.29,309.56c-2.48-.17-21.19-.79-21.78,2.85,10.43-1.62,12.28.4,21.78-2.85ZM440.24,311.5c0-.28-.22-.5-.5-.5s-.5.22-.5.5.22.5.5.5.5-.22.5-.5ZM474.53,353.32c-3.51-3.06-7.11-2.46-8.66-6.23-2.68-.65-5.37-2.06-7.78-.55,6.33.4,13.98,9.62,16.44,6.78ZM475.39,354.21c-.9,1.1.14,2.06,1.19,1.82.37-.08,1.14.44,1.49-.54-.05.14-1.58-2.63-2.68-1.28ZM488.34,361.73c-.52,1.21.83,1.89,1.33,2.17.3.16.78.35,1.26-.37.44-.65-1.78-3.7-2.6-1.8h.01ZM517.46,398.2c.83.81,2.34,1.87,3.54.67,1.29-1.3-1.7-2.11-1.54-2.84.5-2.27,1.25-4.8.96-7.07,1.47,1.59,2.13,2.67,3.66,1.61,1.13-.78,3.22-.78,1.35-2.9-3.05,2.26-5.6.35-6.71-1.72-2.78-5.18,5.74-4.74,3.52-8.69-1.18-2.1-6.19-1.08-9.12-3.09,1.12-4.54,3.14-9.03-1.34-12.84-1.12,3.14-.14,6.05-1.85,9.01-3.02-1.21-4.21-4.42-7.51-5.31-1.2,1.85,5.62,5.91,2.03,7.91-2.92,1.63-7.33-7.44-11.5-7.68,2.39,4.71,7.59,6.85,9.02,11.78.78,2.71,2.45,3.21,4.2,4.9,3.02,2.92,5.26,6.44,8.48,8.7-.05-2.53-1.52-4.17.37-5.76,5.81,5.65-1.09,9.89,2.45,13.34v-.02h0ZM494.48,387.15c5.2,1.3,9.54.59,13.31,4.21,1.09-7.27-9.47-5.19-13.31-4.21ZM537.62,395.71c-2.22-1.03-4.83,4.66-5.68,1.36-.42-1.62,2.19-3.65.87-5.36-1.09-1.11-3.91.91-4.6,2.21-1.14,2.16.53,4.26,2.13,5.77,1.4,1.32,1.24,5.16,3.64,5.44,3.7.42,5.51-8.54,3.64-9.41h0ZM494.3,418.75c.54-.57,2.17-1.95,2.12-2.61-.25-2.92-4.87-5.26-6.87-7.44l-5.19-5.67,5.01,11.27c-.5,2.88,2.82,2.2,1.24-1.32,2.89-.34,3.48,2.99,3.69,5.77h0ZM499.13,418.5c0-.28-.22-.5-.5-.5s-.5.22-.5.5.22.5.5.5.5-.22.5-.5ZM495.87,432.66c2.86-1.17,2.14-3.68.71-5.34-1.32-1.53-2.33-.79-4.47,1.29,2.35.03,2.9,2.76,3.76,4.04h0ZM499.12,447.94c-.2-4.4-3.35-5.11-5.68-6.7.46,3.28,3.19,4.97,5.68,6.7ZM489.29,463c0-.35-.28-.63-.63-.63s-.63.28-.63.63.28.63.63.63.63-.28.63-.63ZM477.28,468.94c.25,2.38,3.68.7,4.41-.71.85-1.66,0-4.51-2.43-3.36-.61.29,1,1.74.85,2.38-.17.71-2.97.3-2.82,1.69h-.01ZM485.61,466.95c2.27.3,1.86-1.97.3-2.01-2.03-.05-4.48,4.97-.3,2.01ZM357.16,505.53c-.35-.21-1.2,1-1.59,1.07-.81.15-6.6-6.01-9.43-2.78-3.6,4.1-3.1,10.47-.67,15.17-3.57,2.03-3.34,4.99-2.52,8.51,1.36,5.78,6.62,11.13,12.84,8.94,9.17-3.22,7.29-27.39,1.36-30.92h.01ZM417.67,517.14c1.98-.99-.44-6.57-2.65-7.08-3.66-.84-6.92,2.21-10.38,2.62-.96.11-2.24-.99-2.84-.5-.87.71-.69,1.59-.38,2.11-.31-.51,12.29,4.84,16.25,2.85ZM517.63,521.87c-.19-.06-5.48-1.07-5.51,1.59,0,.82.54,1.67,1.52,2.28,1.11.69,4.34-3.76,3.99-3.86h0Z"/>
  <path class="st2" d="M532.96,417.02c2.01,1.02,0,3.26.51,5.04l3.52,12.1c2.26.87,5.27,1.79,7.24,3.75l8.5,8.44c1.67,1.51,4.78.03,6.94.94.43,3.01.4,5.34,1.39,7.72.77,1.87-.01,4.84.09,6.84.08,1.41-.65,3.81-1.4,5.14-2.23-5.41-1.1-13.6-7.26-16.51-2.37-1.12-6.93.56-10.02-1.21-2.32-1.33-5.03-.51-5.78,1.7-.79,2.32.08,3.47,2.16,5.42,3.05,2.86.57,7.15-1.71,9.63-4.16-.67-3.78-7.49-10.95-4.36,2.53,4.48,2.36,8.72,3.66,13,1.01,3.3,3.67,6.57,3.37,10.37-.27,3.43,3.12,4.29,4.1,6.69.72,1.74-2.11,5.32.72,7.13-.32.96-.81,1.9-2.47,2.53l-4.47,1.69c-2.41-1.96-3.91-4.87-6.02-7.14-2.39-2.57-8.89.32-8.92,3.63,10.65,5.98,8.67,10.55,13.91,10.67-2.26,6.08,8.44,12.54.85,22.62-1.02.13-3.42.94-3.69-.75-.17-1.06.99-1.58,1.17-2.1-.35,1.05-4.34-7.25-4.24-4.98l3.32-5.69c.66-1.13.73-2.74.33-3.44-.28-.49-1.18-1.32-2.16-1.45-11.3-1.52-9.53-14.15-12.76-13.03-5.72,1.99-3.25,7-8.99,5.26-1.35-.41-2.54-1.9-2.06-4.6-3.31-.58-5.98.82-9.03-.56,1.18-2.39,3.27-2.49,4.63-4.57-1.29-1.66-2.82-.35-4.72-1.36,9.62-9.25,20.08,1.41,18.46-6.56.92.28,2.09.14,3.24,1,.87.64-.85,1.47-.95,3.63,9.19-2.31,7.64-8.44,12.98-12.78l-5.82-5.24c-2.32-2.09-5.56.61-8.64,1.22-.49-1.34-1.55-2.52-1.5-4.27,1.45-.47,2.71-1.01,2.73-2.09.02-.72-.79-1.99-1.51-2.07-2.86-.3-1.42-3.36-2.21-4.15-2.85-2.87-10.07-12.8-8.05-14.17.58-.39,2.06-1.03,2.27-.38l.87,2.63c-1.7-5.13,8.16,13.88,9.26,14.44.82.42,2.4-.45,3.62-.27.75,3.52,4.33,5.99,8.32,5.11-1.68-4.83-2.58-8.11.58-11.99l-14.57-1.68c1.41-2.25-.3-4.8.58-6.87.44-1.04,2.75.91,3.28.46,2.92-2.49-5.55-12-5.76-15.28,5.2-1.55,2.6,6.27,7.1,8.1,1.18.48,3.17-.05,5.74.16l-5.03-18.44c-.74-2.71.89-5.49-2.5-7.9l4.81.73c.32-1.93-3.48-11.87-4.07-11.98-.62-.12-2.32.82-2.61.08-.4-2.04,2.85-5.46,4.68-5.24l3.63,7.59c1.13,2.36-.74,10.82,3.88,10.82,3.02,0,.57-3.77,7.4-3.2l.03.03h0ZM520.65,426.2c-1.19.48-1.89,1.58-1.77,2.16.15.67,1.1.78,1.7.67.83-.15.75-3.09.07-2.82h0Z"/>
  <path class="st0" d="M561.07,455c-.98-2.38-.96-4.71-1.39-7.72-2.17-.9-5.27.58-6.94-.94l-8.5-8.44c-1.97-1.96-4.99-2.88-7.24-3.75l-3.52-12.1c-.52-1.78,1.51-4.02-.51-5.04-.28-1.03.3-2.87.52-4.11.03-.14,6.78-2.94,7.81-11.91.08-.68,1.4-1.4.69-2.3,4.12,1.47,6.54,5.76,9.27,9.08,2.23,2.71,1.18,4.3,1.65,7.32,2.2,14.25,5.97,13.99,7.38,24.66.69,5.21,6.11,6.33.77,15.24h0Z"/>
  <path class="st0" d="M561.16,461.85c2.52.28,4.66,13.94-5.88,17.34-2.88.93-3.73,4.7-5.57,6.38-3.53,3.23-1.9,7.73-3.36,11.3-.99,2.42-8.08,2.78-6.73,7.04-1.48.68-3.04,2.14-2.75,4.07-1.98-.05-3.95-.13-5.93-.08.54-1.46.39-3.21.16-4.82l4.47-1.69c1.66-.63,2.15-1.57,2.47-2.53,8.17-4.49,1.93-17.88,2.99-23.62l.28-1.52c1.01-.67,1.51.46,1.7,1.01.21.62.03,2.41.21,3.8,3.06.66,7.08-2.45,7.85-5.28.98-3.62,1.9-9.32-2.53-10.86-3.83-1.33-8.17,4.09-7.67,7.46-2.16,0-3.14-2.03-3.74-3.83,2.28-2.49,4.76-6.78,1.71-9.63-2.08-1.95-2.95-3.1-2.16-5.42s3.45-3.02,5.78-1.7c3.09,1.76,7.66.09,10.02,1.21,6.16,2.92,5.03,11.1,7.26,16.51.76-1.33,1.48-3.74,1.4-5.14h.02,0Z"/>
  <path class="st2" d="M522.77,294.95c1.63,5.31,3.03,10.66,4.33,16.08-2.44,8.59-5.07,17.06-3.51,26.44l2.59,15.49c2.98,3.77,3.45,8.48,5.24,12.85l7.24,17.68c1.4,3.41,1.06,7.63,4.21,9.52-.5.46-.36,1.67-1.03,2.09-4.92-3.58-4.85-12.3-12.8-13.11-1.33-3.23,2.75-5.44,2.73-7.98-.04-5.41-4.46-9.81-5.31-15-.45-2.73-2.34-4.71-4.51-6.14,3.44-13.37-11.56-7.9-3.86-38.79.27-1.1-1.33-18.29-2.12-20.9,2.47-.12,5.16-.33,6.8,1.78h0Z"/>
  <path class="st0" d="M542.88,393c-3.15-1.89-2.81-6.11-4.21-9.52l-7.24-17.68c-1.79-4.37-2.26-9.08-5.24-12.85l-2.59-15.49c-1.57-9.38,1.06-17.85,3.51-26.44,1.57-2.64,4.79,12.97,4.76,11.24l.41,20.68c.08,3.85,1.45,7.48,0,11.23-1.27,3.32.63,5.74,2.14,8.33,2.73,4.68,3.97,9.88,6.3,14.74,6.16,2.6,4.66,13.47,2.17,15.75h0Z"/>
  <path class="st0" d="M523.13,240.06c-1.41-1.13-.18-2.52-.29-4.28-.43-6.98-1.23-13.77-2.17-21.03-1.24-9.67-16.25-21.05-17.65-30.77-.58-4.04-1.23-8.37-2.96-11.8-.55-1.09-3.91-.58-3.22-2.67.29-.89.39-2.04,1.31-2.73,4.24,1.13,5.91,5.8,7.17,10.11,1.02,3.46,5.43,5.27,6.04,8.83,3.66,21.25,10.26,17.93,11.37,27.96.43,3.86,5.58,27.15.4,26.38h0Z"/>
  <path class="st0" d="M519.12,274.13c1.84,1.99.16,4.78.59,7.27.78,4.63,1.75,9.3,3.06,13.55-1.64-2.1-4.33-1.89-6.8-1.78-.96-3.16-4.71-4.17-5.81-7.22-.14-2.06,2.75-2.55,3.59-4.28,1.52-3.11,2.32-6.29,5.37-7.54h0Z"/>
  <path class="st3" d="M531.11,503.08c.23,1.61.38,3.37-.16,4.82l-.87,2.34c-5.25-.12-3.27-4.69-13.91-10.67.03-3.31,6.54-6.21,8.92-3.63,2.11,2.28,3.61,5.19,6.02,7.14h0Z"/>
  <path class="st0" d="M485.07,152.89c-2.08.43-3.16-1.47-4.8-2.83-1.45-1.2-4.09-.52-5.31-1.69-2.91-2.79-2.19-6.53-2.32-9.52,4,.68,5.91,3.79,7.41,7.64,1.02,2.61,4.88,3.58,5.02,6.4h0Z"/>
  <path class="st0" d="M539.84,508.24c3.71-.9,10.99,8.65,8.92,10.68-5.19-1.16-8.43-5.76-8.92-10.68Z"/>
  <path class="st0" d="M525.89,257.03c-1.05.02-2.11.15-3.63-.32.83-4.04.79-7.8.82-11.6,3.74-.58,3.03,9.8,2.81,11.93h0Z"/>
  <path class="st0" d="M493.9,159.05c-3.36.73-4.93-2.17-6.68-4.67,2.04,1.56,5.96,1.9,6.68,4.67Z"/>
  <path class="st2" d="M539.63,503.9c.66,1.39.07,2.92.21,4.33-.93.23-2.03-.24-2.97-.26-.29-1.94,1.27-3.4,2.75-4.07h0Z"/>
  <path class="st2" d="M542.02,397.15l-.02-1.21c1.14-.27,1.12.96.02,1.21Z"/>
  <path class="st0" d="M298.48,116.02c-.31-.09-.7,0-1-.12-3.09-1.25-16.29-.38-18.04,1.05s-3.2,2.81-5.56,3.89c-1.79.82-2.54,6.19-.71,7.35,4.22,2.65,19.61.17,17.69,9.65-1.37,6.77-7.91,3.98-18.2,17.3-1.91,2.48-2.33,10.18.37,12.19l10.98,8.18c1.69,1.26,4.14.87,5.79,3.13,1.87,2.57,7.09,1.97,9.92,3.09,3.15,1.24,5.87,3.7,9.53,3.37,2.92-.26,4.69,2.57,6.6,2.9l8.67,1.49c18.08,3.11,7.59,7.79,19.48,11.11,3.05.85,1.76,5.16,2.47,7.4,4.88,15.34-.11,16.92.66,30.16-3.44,2.16-1.79,5.09-2.75,8.02l-3.83,11.71c-.47,1.45-1.13,34.23-4.52,38.88-1.71,2.35-2.3,6.4-4.37,8.38-3.32,3.19-6.92,6.78-10.76,9.14-12.49,7.65,5.19,1.07-24.12,12.71-6.39,2.54-11.72,5.98-16.43,11.21-3.95,4.39-9.83,7.83-15.19,11.1-2.41,1.47-23.51,3.66-22.39,3.68-12.19-.22-29.36-3.37-37.31-14.64-3.44-4.88-8.39-22.37-10.02-28.27-4.64-16.84-1.02-12.48-12.8-27.14l-.17-1.87c-.13-1.42-.39-3.41-1.84-4.12-2.47-6.89-4.18-14.05-4.62-21.96-.83-14.87-3.91-60.23,4.74-69.9,5.86-6.56,7.11-6.68,15.01-12.43,13.86-2.32,12.35-2.5,26.78-2.8,2.65-.05,3.23-4.12,4.85-4.74,3.69-1.41,3.95-3.26,5.02-6.12l2.21-5.93c.79-2.1,2.3-4.23,2.5-6.97,1-13.24-21.9-8.97-17.53-8.96l-12.77-.03c-.46-.33-1.01-1.11-1.72-1.1s-1.28.54-1.57,1.18l-1.03.13c-2.29.33-9.15-7.64-7.14-11.07.88-1.5,3.06-4.38,5.59-4.26,8.39.39,16.65,1.56,25.07,2.58,2.43.29,4.6,2.48,7.22,1.19.58-9.19-7.37-16.06-16.56-15.9-4.25.07-8.55-.5-12.45-1.5,4.32-8.82,8.91-16.06,11.09-24.68,1.43-5.64,3.9-11.11,4.77-16.75,1.65-10.61,5.85-20.45,15.46-26.28,1.96-1.19,5.65-.49,7.36-2.37,2.4-2.64,5.46-2.39,8.42-3.65,5.84-2.51,10.37-7.86,16.21-10.89,2.7-1.41,4.04,4.11,5.57,5.72,3.73,3.94,8.37,8.61,12.73,12.14,5.12,4.15,12.06,6.6,15.97,11.77,3.24,4.28,3.47,16.78,5.1,24.44,1.28,6,5.37,18.37,5.56,21.17.4,5.81,3.39,9.8,6.88,15.74-7.43,1.2-14.15,1.52-20.84,1.29h-.03ZM242.66,223.23c-1.31.31-2.86.21-4.05,1.94,2.12,1.1,4.08,1.28,6.03,1.52,2.09.26,4.18.49,6.55-.08.2-.84.79-2.59-.06-3.26-2.33-1.85-5.77-1.61-8.47-.11h0ZM255.63,275.82c1.93-.8,5.48-.23,6.11,1.41l1.8,4.7,17.29-2.56,6.97,4.67c4.13-3.52,3.39-9.49.36-13.69-1.62-2.24-3-3.2-5.17-3.48-5.43-.71-4.78,10.55-28.06-2.4-2.21-1.23-5.75.34-7.57-1.41-1.71-1.64-2.72-4.1-5.73-3.1-8.03,2.67-14.88-3.01-13.21,4.55.71,3.2,7.86.67,7.17,4.23-2.59.99-5.05-.68-7.06,1.02,1.26.57,2.65.39,2.06,1.62-.24.49-1.12.72-1.32.47l-1.04-1.3c-1.25-1.56-4.11.58-6.49.31-.73-2-.78-3.82-.22-6.2-6.22-1.93-12.42-1.72-18.81-.83-2.43.34-6.24-2.46-7.67,1.71-.49,1.42,1.66,3.24,2.67,3.97,1.35.98,3.1-.8,4.6-.22,1.29.5,2.41,2.18,3.49,1.64.68-.34,1.98-1.81,3.05-2.03,5.07,7.3,42.93,8.52,46.79,6.92h0Z"/>
  <path class="st0" d="M306.42,167.92c-2.77-.32-6.16-.49-8.48-2.98-2.1-2.25-2.05-5.72-2.35-8.81l.75-.2c.72.13,1.51.04,2.12-.61.34-.36.72-.79.22-1.3,3.07-1.01,6.54-1.76,9.81-.55-3.5,5.2-4.14,9.92-2.07,14.46h0Z"/>
  <path class="st1" d="M93.81,458.03c-.32.23-.43.83-.76,1.01-4.01,2.13-7.04,5.72-11.82,7.17-.86-4.43,1.88-6.79,4.66-9.35,1.63-1.51,2.28-6.19,6.13-4.86,1.94.67,1.8,4.38,1.8,6.03h-.01Z"/>
  <path class="st0" d="M312.29,454.12c.34-.07.77.2,1.1.08-1.43,2.4-2.86,5.31-5.26,7.47-1.13,1.01-2.82-1.29-2.83-2.27-.06-4.69,5-3.16,6.99-5.29h0Z"/>
  <path class="st3" d="M303.45,145.38l-8.26,1.56c.47-3.54,4.31-2.7,7.33-3.19,1.91-1.36,2.97.35.93,1.62h0Z"/>
  <path class="st3" d="M325.35,440.92l-3.58,7.94c-1.06-3.69,1.3-5.39,1.55-8.42.05-2.26,2.72-1.96,2.03.49h0Z"/>
  <circle class="st3" cx="330.42" cy="348.01" r="1.11"/>
  <circle class="st3" cx="317.45" cy="436" r="1.11"/>
  <circle class="st3" cx="325.93" cy="436" r=".63"/>
  <circle class="st3" cx="292.99" cy="455.5" r=".5"/>
  <circle class="st0" cx="304.97" cy="471.5" r=".5"/>
  <path class="st3" d="M513.59,260.53c-.22,1.37-4.98,3.76-5.89,3.27-4.81-2.59,1.27-7.1.97-11.44,3.25-2.73,4.83,8.77,4.92,8.17Z"/>
  <path class="st1" d="M332.4,13.02c.14.53.7.68,1.15.83-1.51,4.54,5.05,7.55.07,7.71l-1.31-.9c.08-4.02-4.14-6.57-7.81-7.01.31-2.79,2.59-4.13,4.08-2.87,1.35,1.14,2.25,2.46,3.81,2.25h.01Z"/>
  <path class="st1" d="M337.46,7.74c1.32.07,2.61.66,3.77,1.23-1.1.99,1.5,1.56,1.58,2.48.09,1.04-2.13,1.83-.94,3.93-2.7-1.76-5.52-.59-8.32-1.53.12-.84-.51-.91-1.15-.83-1.45-5.38-8.06-5.77-7.32-11.49,2.8,2.29,3.64,3.56,6.61,3.03,2.24-.4,3.61,3.06,5.77,3.18h0Z"/>
  <path class="st0" d="M468.58,144.87c-1.49-3.94-.98-6.46-4.39-8.55,1.71-.99,2.29-.36,2.8-.54.98-.34.86-1.26,1.81-2.75,1.16,3.44,2.75,7.34-.23,11.83h.01Z"/>
  <path class="st0" d="M428.57,51.86c.88-.09,2.15,2.38,1.48,2.82-3.58,2.32-10.89-3.01-10.01-4.81,3.4.98,5.91,2.26,8.53,1.99Z"/>
  <path class="st0" d="M459.17,146.78c.36-1.16,1.74-1.02,2.83-2.06-1.55-3.08-7.5-5.78-3.21-6.6.8-.15,5.59,4.45,5.05,8.12-.93.21-1.87,1.22-4.68.54h.01Z"/>
  <path class="st0" d="M477.63,164.26c-3.4,2.64-8.54.5-9.83-3.4,3.44.97,6.09,1.45,9.83,3.4Z"/>
  <path class="st1" d="M327.3,19.98c1.84,2.26,5.25,2.21,6.21,6.02-3.17-.42-5.51-2.01-7.97-3.05.2-.65-.14-1.44.19-2.23.25-.62.83-.69,1.57-.74Z"/>
  <path class="st0" d="M466.81,166.33l-4.37,2.65c-1.47-1.83-1.23-3.77-3.18-5.66,2.89-.2,5.22,1.32,7.55,3.01h0Z"/>
  <path class="st0" d="M455.4,151.46c-2.03.96-3.13-2.12-3.39-3.98-.22-1.62,1.69-3.62,3.34-4.29-1.12,3.26-1.5,4.26.05,8.28h0Z"/>
  <path class="st0" d="M432.47,91.69c-.15,2.13-2.11.82-2.37-1.14.22-2.58,2.59-2.02,2.37,1.14Z"/>
  <path class="st0" d="M463.06,150.48c.86-.91,1.73-.65,2.11,0,.42.71.08,1.61-1.41,1.59-.67,0-2.23.02-.7-1.59h0Z"/>
  <path class="st0" d="M466.03,152.61c1.03-1.2,1.88-.66,2.15-.09s.04,1.2-.51,1.49c-.59.31-1.53.2-1.64-1.4h0Z"/>
  <path class="st0" d="M306.63,13.08c-.14,2.31-1.19,2.31-1.33,0,.23-1.25,1.1-1.25,1.33,0Z"/>
  <circle class="st3" cx="458.7" cy="182.51" r=".5"/>
  <path class="st3" d="M513.36,563.85c-2.48-3.47-5.88-5.94-6.2-9.76-.29-3.34-.86-5.84.2-8.78.96.45,2.94,1.99,2.49,3.17-4.09,10.67,9.44,10.25,7.03,16.34-1.44.22-2.38-.94-3.51-.97h-.01Z"/>
  <circle class="st2" cx="374.85" cy="556.5" r=".5"/>
  <circle class="st2" cx="439.74" cy="567.5" r=".5"/>
  <path class="st3" d="M429.05,547.87c.86.89,3.24.19,4.23,1.06.83.72,1.99,3.13,1.02,3.92-3.16.52-8.4.02-10.18-2.4-3.19-4.34-3.95-10.1-.29-14.82,2.71-1.28,1.42-4.16,3.95-6.03-.09,4.63-6.68,12.95-2.97,17.47,1.49-2.57,1.98-5.12,4.37-5.52.25,2.4-1.78,4.62-.13,6.31h0Z"/>
  <path class="st0" d="M500.57,546.65c.56,2.22-1.39,2.86-2.45,3.21-1.58.53-5.63.77-4.89-2.21,1.73-.59,4.82.73,7.34-1.01h0Z"/>
  <path class="st2" d="M341.23,8.97c-1.16-.57-2.45-1.16-3.77-1.23.88-2.44-2.16-2.61-3.26-5.57,3.58-.07,7.49,1.33,9.19,4.01.75,1.18-1.53,2.23-2.17,2.8h.01Z"/>
  <path class="st2" d="M343.22,14.77c3.04,1.45,12.7,8.87,13.04,11.2-5-3.09-10.92-4.99-13.04-11.2Z"/>
  <path class="st1" d="M324.27,19.06c-2.66-1.04-4.22-3.58-6.81-3.95-.1-1.04.59-2.11.98-2.58.56-.65,1.52.17,2.62.72.87,1.94,3.42,2.39,3.2,5.8h0Z"/>
  <circle class="st2" cx="343.9" cy="26.51" r=".5"/>
  <circle class="st1" cx="369.86" cy="14.51" r=".5"/>
  <circle class="st1" cx="367.86" cy="13.51" r=".5"/>
  <path class="st2" d="M212.75,157.95c.98.51,2.26.55,2.94,1.81-1.87.86-4.57-.54-5.92.41-1.14,3.04,2.64,3.35,4.95,2.83l17.67-3.98c-1.07,2.86-1.33,4.71-5.02,6.12-1.62.62-2.21,4.69-4.85,4.74-14.43.3-12.92.48-26.78,2.8-7.9,5.74-9.14,5.87-15.01,12.43,2.76-8.23,6.54-20.02,15.1-24.63,3.28-1.77,14.49,2.15,13.78-2.48l3.15-.05h0Z"/>
  <path class="st2" d="M213.12,463.99c0,.37-3.68,9.52-7.07,8.48-.96-.29-.61-2.14-1.74-3.04.96,3.15.18,6.35-3.56,7.77-3.21-13.13-3.43-7.48-1.8-18.82.51-.55,1.92-.73,2.47-1,.85,2.27.34,4.15,1.44,6.31,1.23-.87,1.03-3.4,3.01-3.76,2.08-.38,7.2,1.69,7.25,4.05h0Z"/>
  <path class="st2" d="M218.21,455.41c-2.91,1.25-7.65-1.32-9.1-2.38s1.62-5.28,2.29-5.81,2.54.68,3.23.28c2.37-1.66,4.21-4.31,7.74-3.33.72,2.34-1.52,10.1-4.17,11.24h.01Z"/>
  <path class="st0" d="M112.69,323.99c-.84.67-1.57,2.18-1.84,3.19-1.42.26-3.58,1.57-4.46.79l-3.63-3.21c-3.04,1.2-1.96,5.94-2.45,8.36-.23,1.11-.61,2.19-1.52,2.92-1.18-1.32-3.93-1.82-3.45-4.96.29-1.89-1.72-5.71.76-6.86,2.14-.99,16.63-4.17,16.6-.23h-.01Z"/>
  <path class="st2" d="M234.6,153.09c-.85-11.96-5.87-11.98-15.03-15.93-4.37,0,18.53-4.28,17.53,8.96-.21,2.74-1.72,4.86-2.5,6.97h0Z"/>
  <path class="st0" d="M214.61,147.1c-2.65-1.27-3.52,7.91-1.93,8.85l.07,2-3.15.05c-.38-.45-1.46-1.04-2.03-.88-1.43-1.76-2.2-3.75-1.89-6.48.21-1.86,2.29-3.03,3.84-4.61.71.5,2.79-.98,3.67-.95,1.13.05,1.56.73,1.41,2.02h0Z"/>
  <path class="st2" d="M128.94,286.01c.64,2.37-3.62,5.06-1.35,6.73.44.32,1.35.27,2.02.32.09,2.05,0,5.14-1.66,6.56-1.14.97-3.92,3.73-5.2,1.68.22.35.2-12.36,6.18-15.29h.01Z"/>
  <path class="st2" d="M110.86,327.18c-.17.63.77,1.58.5,2.17-1.22,2.62-7.93,3.01-11.04,3.77.49-2.42-.58-7.16,2.45-8.36l3.63,3.21c.88.78,3.04-.53,4.46-.79Z"/>
  <path class="st2" d="M195.43,310.09c-1.68-2.08-12.65-25.45-12.8-27.14,11.79,14.66,8.16,10.29,12.8,27.14h0Z"/>
  <path class="st2" d="M209.53,146.03c-1.55,1.57-3.63,2.75-3.84,4.61-.31,2.73.46,4.72,1.89,6.48-1.18,1.06-2.63.4-4.11-.25-1.87-.82-2.19-7.86,1.28-10.07,1.38-.88,3.06-2.02,4.79-.77h0Z"/>
  <path class="st2" d="M214.61,147.1c4.54,1.19,2.97,7.22,2.53,7.49-1.51.88-3.31.42-4.45,1.36-1.6-.94-.73-10.12,1.93-8.85h0Z"/>
  <path class="st0" d="M132.66,287.19c.1.25-.05.58,0,.85-.72-.25-.86,0-.92.6l-.13,1.37c-.06.66.12,1.34.21,2-.68-.21-2.17.22-2.21,1.04-.68-.04-1.59,0-2.02-.32-2.27-1.67,2-4.36,1.35-6.73,2.05-1,1.91-3.34,3.8-5.34.44,2.69-.93,4.48-.09,6.51v.02h0Z"/>
  <path class="st2" d="M131.82,292.01c-.09-.67-.27-1.34-.21-2h1.61c.39.01.7-.78.55-1.4-.09-.36-.68-.42-1.11-.57-.06-.26.09-.6,0-.85,2.76-.11,2.32-3.19,3.85-5.35,1.16,1.01-1.01,14.7-3.6,11.74-.31-.35-.65-1.43-1.09-1.57h0Z"/>
  <path class="st2" d="M131.66,307.43c-2.46-.48-1.09-6.48,1.05-6.13s.69,6.47-1.05,6.13Z"/>
  <path class="st2" d="M116.38,402.95c-.36,2.4-4.41,3.85-5.26,2.56.3-2.03.85-3.16,1.51-3.47.91-.41,3.84-.23,3.75.9h0Z"/>
  <path class="st2" d="M145.33,227.1c-.95.8-2.19,1.14-2.34.38s.19-1.65.85-2.21c.81-.7,1.37-1,2.11-.38.44.37.72,1.09-.62,2.22h0Z"/>
  <path class="st2" d="M206.8,137.14c.21.94-1.08.78-1.66.81-.52.03-1.9.26-1.64-.73.29-.64.84-1.17,1.57-1.18s1.26.76,1.72,1.1h0Z"/>
  <path class="st2" d="M145.17,223.99c-.71-1.43-.71-3.02-.04-5.05,1.05,1.07.93,2.43.04,5.05Z"/>
  <path class="st2" d="M182.46,281.09c-2.03-.25-1.36-2.76-1.84-4.12,1.45.71,1.71,2.69,1.84,4.12Z"/>
  <path class="st1" d="M85.68,314.81c-.41,3.09,3.02,4.23,4.69,6.69,1.12,1.64-.4,5.08,2.14,5.34.23,2.05.39,4.11.27,6.17-20.73,11.81-5.73,9.09-15.82,17.4-5.1-7.87-.88-20.33-1.12-29.51.75-2.02,3.51-3.63,5.1-4.24l4.74-1.84h0Z"/>
  <path class="st0" d="M96.92,346.5c3.12,4.21,4.07,20.81,1.07,24.04-1.39,1.5-4,3.45-7.04,3.28-2.4-6.57-2.2-23.9,5.98-27.32h-.01Z"/>
  <path class="st0" d="M92.52,326.84c-2.55-.27-1.03-3.7-2.14-5.34-1.67-2.45-5.1-3.6-4.69-6.69-2.8,1.09,25.4-14.13,25.1-8.73-5.6,2.72-6.31,8.87-9.7,12.24-2.86,2.84-8.95,3.12-8.57,8.52h0Z"/>
  <path class="st0" d="M85.86,417.1c-1.14-3.44,1.76-6.62.99-10.1-.06-.28-.07-.72,0-1,.43-1.62,1.63-3.31,1.4-4.98.85.03,1.93.03,2.49.53,1.44,1.28.47,20.94-4.88,15.56h0Z"/>
  <path class="st0" d="M111.97,318.06c-1.59,2.52-7.14,2.76-7.96.13.26-2.15,2.44-5.75,4.38-6.8,2.72-1.46,5.16,4.16,3.58,6.67h0Z"/>
  <path class="st0" d="M96.77,389.89c-.46-1.82-.64-3.7-.78-5.57,2.26-.04,2.79-2.55,4.19-3.48.61-.4,3.01-.31,2.99,1.09,0,.58-2.13,8.22-3.91,9.01-.91.4-1.65-.96-2.48-1.05h0Z"/>
  <polygon class="st0" points="91.64 421.01 94.93 422.69 91.6 429.21 88.31 427.52 91.64 421.01"/>
  <path class="st3" d="M85.86,417.1c-.57.18-.9.73-1.93.87-.7-8.61.93-5.06,2.92-10.98.77,3.48-2.13,6.66-.99,10.1h0Z"/>
  <circle class="st3" cx="116.3" cy="314" r=".63"/>
  <circle class="st3" cx="96.33" cy="337.5" r=".5"/>
  <path class="st2" d="M64.12,439.51c-1.36,3.11-4.02,3.45-6.4,2.2,1.46-1.74,3.55-3.04,6.4-2.2Z"/>
  <path class="st2" d="M64.73,434.6c1.03-1.2,1.88-.66,2.15-.09s.04,1.2-.51,1.49c-.59.31-1.53.2-1.64-1.4Z"/>
  <path class="st2" d="M357.16,505.53c5.93,3.52,7.81,27.69-1.36,30.92-6.22,2.19-11.48-3.17-12.84-8.94-.83-3.52-1.05-6.48,2.52-8.51-2.43-4.71-2.93-11.07.67-15.17,2.83-3.22,8.61,2.94,9.43,2.78.39-.07,1.23-1.28,1.59-1.07h-.01Z"/>
  <path class="st2" d="M517.46,398.2c-3.54-3.44,3.36-7.69-2.45-13.34-1.9,1.59-.42,3.23-.37,5.76-3.21-2.26-5.45-5.79-8.48-8.7-1.74-1.68-3.41-2.18-4.2-4.9-1.43-4.93-6.63-7.07-9.02-11.78,4.17.23,8.58,9.3,11.5,7.68,3.59-2-3.23-6.06-2.03-7.91,3.3.88,4.49,4.1,7.51,5.31,1.71-2.96.73-5.87,1.85-9.01,4.48,3.82,2.46,8.3,1.34,12.84,2.92,2.01,7.94.99,9.12,3.09,2.22,3.95-6.3,3.52-3.52,8.69,1.11,2.07,3.66,3.99,6.71,1.72,1.87,2.12-.21,2.12-1.35,2.9-1.54,1.06-2.19-.02-3.66-1.61.29,2.27-.46,4.8-.96,7.07-.16.72,2.83,1.54,1.54,2.84-1.2,1.21-2.7.14-3.54-.67v.02h0Z"/>
  <path class="st0" d="M511.2,489.04c-2.74-.83-4.66-2.16-6.39-4.17,1.2-3.84,4.22-6.17,7.21-8,3.08-.6,6.31-3.31,8.64-1.22l5.82,5.24c-5.34,4.33-3.79,10.46-12.98,12.78.1-2.16,1.81-2.98.95-3.63-1.15-.86-2.32-.72-3.24-1h-.01Z"/>
  <path class="st2" d="M428.29,211.52c3.34,4.92-9.05-3.72-8.69-1.48-2.84-.97-2.19-6.53-3.09-9.24-.47-1.41-2.97-1.68-3.14-2.63-.25-1.37-.51-3.11.9-4.15.99,1.58.98,3.11,2.89,2.69-.33-1.06-1.26-3.52-.17-3.88,5.62.5,9.3,10.25,14.26,15.09-2.23-.04-5.74.24-4.88,2.56.3.8,1.72.74,1.92,1.04h0Z"/>
  <path class="st2" d="M417.67,517.14c-3.96,1.98-16.56-3.37-16.25-2.85-.31-.52-.49-1.4.38-2.11.6-.49,1.88.62,2.84.5,3.47-.4,6.72-3.45,10.38-2.62,2.21.51,4.63,6.09,2.65,7.08h0Z"/>
  <path class="st2" d="M363.72,202.16c-5.82-2.15-9.48-13.17-9.08-14.45,1.65-5.29,10.76,5.45,9.08,14.45Z"/>
  <path class="st2" d="M537.62,395.71c1.87.87.06,9.83-3.64,9.41-2.4-.27-2.25-4.12-3.64-5.44-1.6-1.51-3.28-3.61-2.13-5.77.69-1.29,3.51-3.32,4.6-2.21,1.33,1.71-1.28,3.74-.87,5.36.85,3.3,3.46-2.39,5.68-1.36h0Z"/>
  <path class="st2" d="M494.3,418.75c-.21-2.78-.8-6.11-3.69-5.77,1.59,3.52-1.74,4.2-1.24,1.32l-5.01-11.27,5.19,5.67c1.99,2.18,6.62,4.52,6.87,7.44.05.65-1.58,2.03-2.12,2.61h0ZM491.15,411.5c0-.28-.22-.5-.5-.5s-.5.22-.5.5.22.5.5.5.5-.22.5-.5Z"/>
  <path class="st2" d="M386.29,116.52c-4.42,7.51-1.55,10.96-4.19,11.57-.69.16-2.13,1.13-2.33.04-.22-1.18.76-2.04.71-2.82-.08-1.22-1.37-1.29-3.45-1.87,2.09-3.05,5.04-6.64,9.27-6.91h0ZM381.34,122.51c0-.28-.22-.5-.5-.5s-.5.22-.5.5.22.5.5.5.5-.22.5-.5Z"/>
  <path class="st2" d="M512.8,297.64c-1.46-3.2,1.17,13.56-.77,12.48-3.12-1.21-5.17-12.3-1.36-12.77.5-.06,1.86-.3,2.13.29h0Z"/>
  <path class="st2" d="M462.29,309.56c-9.51,3.26-11.36,1.23-21.78,2.85.59-3.64,19.31-3.02,21.78-2.85Z"/>
  <path class="st2" d="M494.48,387.15c3.84-.98,14.41-3.06,13.31,4.21-3.77-3.62-8.12-2.91-13.31-4.21Z"/>
  <path class="st2" d="M495.87,432.66c-.87-1.29-1.41-4.02-3.76-4.04,2.14-2.08,3.15-2.82,4.47-1.29,1.43,1.66,2.16,4.16-.71,5.34h0Z"/>
  <path class="st2" d="M477.28,468.94c-.15-1.39,2.65-.98,2.82-1.69.16-.64-1.45-2.09-.85-2.38,2.44-1.15,3.28,1.7,2.43,3.36-.72,1.4-4.15,3.08-4.41.71h.01Z"/>
  <path class="st2" d="M517.63,521.87c.35.11-2.88,4.56-3.99,3.86-.98-.61-1.52-1.46-1.52-2.28.02-2.65,5.31-1.64,5.51-1.59h0Z"/>
  <path class="st2" d="M415.54,265.61c-3.59,1.04-7.23-1.4-9.49-4.36,3.4.78,6.18,1.84,9.49,4.36Z"/>
  <path class="st2" d="M425.82,161.65c-.08,2.46-10.36-.1-8.83-1.18,2.91-.17,6.21,2.38,8.42-1.02,1.7-.72.43,1.48.41,2.2h0Z"/>
  <path class="st2" d="M381.32,168.59c-7.8,1.2,2.6,6.15-4.92,11.42,1.93-3.22.48-5.81-.04-9.24-.33-2.2,3.73-3.76,4.95-2.19h.01Z"/>
  <path class="st2" d="M499.12,447.94c-2.49-1.73-5.23-3.42-5.68-6.7,2.33,1.59,5.48,2.3,5.68,6.7Z"/>
  <path class="st2" d="M474.53,353.32c-2.46,2.84-10.12-6.38-16.44-6.78,2.41-1.51,5.1-.1,7.78.55,1.56,3.78,5.15,3.18,8.66,6.23Z"/>
  <path class="st2" d="M407.8,145.53c.2,9.4,4.27,7.71,3.62,10.99-.08.4-.69.6-1.35.34-.38-.15-.28-1.18-.83-1.74-3.05-2.41-4.31-6.8-1.44-9.59Z"/>
  <path class="st2" d="M361.45,161.57c-3.03.69-6.73.1-9.27-2.25,3.2-.34,5.99-.26,9.27,2.25Z"/>
  <polygon class="st2" points="400.17 255.56 405.4 259.82 404.55 260.87 399.32 256.61 400.17 255.56"/>
  <polygon class="st2" points="485.31 207.54 488.6 212.21 487.09 213.28 483.8 208.61 485.31 207.54"/>
  <path class="st2" d="M488.34,361.73c.81-1.9,3.04,1.15,2.6,1.8-.48.72-.97.53-1.26.37-.5-.27-1.86-.95-1.33-2.17h-.01Z"/>
  <path class="st2" d="M485.61,466.95c-4.19,2.96-1.73-2.07.3-2.01,1.57.04,1.97,2.31-.3,2.01Z"/>
  <path class="st2" d="M385.88,122.2c.67-.27.77,2.62-.07,2.82-.7.17-1.34-.04-1.49-.55-.24-.8.26-1.75,1.55-2.27h.01Z"/>
  <path class="st2" d="M475.39,354.21c1.1-1.35,2.63,1.42,2.68,1.28-.35.98-1.12.46-1.49.54-1.05.23-2.08-.72-1.19-1.82Z"/>
  <path class="st2" d="M345.02,88.24l.98.75c.63.48,1.96.87,1.39,1.55s-1.19.71-1.52.45c-.52-.43-.79-1.36-.86-2.75h0Z"/>
  <path class="st2" d="M456.88,196.08c-.85,1.83-2.18,1.61-2.5,2.49-.38,1.03.63,2.03,1.57,3.07-4.08,5.36-11.49.34-15.1-3.44-2.22.92-2.17,4.24-.56,5.6-3.11-.48-3.44-3.03-3.83-5.83-2.1-.24-2.34,1.33-3.64,3.18-3.4-3.11-8.08-4.78-11.2-8.66-1.94-2.41-1.89-6.92-4.68-9.27-2.21-1.86-5.53-3.74-5.04-7.22,1.3-.23,1.51,1.36,2.16,1.68.59.29,1.2-.68,2.4-1.51.83,3.3,3.43,4.83,5.31,7.19,4.42,5.55,10.44,10.1,17.94,9.2,2.7-.32,4.8,2.37,7.41,3.37-.08-.97-1.47-2.76-.18-2.72,10.49.34,1.45,2.61,9.95,2.87h-.01Z"/>
  <path class="st2" d="M541.99,398.71c.7.9-.62,1.62-.69,2.3-.52.29-1-.02-1.24-.52-.29-.59.04-1.16.55-1.36.33-.13.75-.29,1.38-.42Z"/>
  <path class="st2" d="M298.68,154.02c.5.51.12.94-.22,1.3-.61.65-1.4.74-2.12.61-.68-.81.19-1.42.81-1.71.5-.23,1.08-.05,1.53-.2Z"/>
  <path class="st2" d="M343.38,87.64c-1.34.31-2.18-1.28-2.98-2.51,1.1.4,2.47.46,2.98,2.51Z"/>
  <circle class="st2" cx="435.24" cy="129.51" r=".63"/>
  <circle class="st2" cx="488.65" cy="463" r=".63"/>
  <circle class="st2" cx="349.39" cy="92.51" r=".63"/>
  <circle class="st2" cx="339.91" cy="83.51" r=".5"/>
  <circle class="st2" cx="498.63" cy="418.5" r=".5"/>
  <circle class="st2" cx="439.74" cy="311.5" r=".5"/>
  <circle class="st2" cx="482.66" cy="206.51" r=".5"/>
  <circle class="st2" cx="411.79" cy="158.51" r=".5"/>
  <path class="st3" d="M537.15,466.02c.6,1.8,1.58,3.82,3.74,3.83l.17,1.15c-1.97-.5-2.15.81-2.07,2.52.06,1.09.7,2.24,2.05,1.71-1.06,5.74,5.18,19.12-2.99,23.62-2.83-1.81,0-5.38-.72-7.13-.99-2.41-4.37-3.27-4.1-6.69.3-3.81-2.36-7.07-3.37-10.37-1.31-4.28-1.13-8.52-3.66-13,7.17-3.13,6.8,3.69,10.95,4.36h0Z"/>
  <path class="st3" d="M520.65,426.2c.68-.27.76,2.67-.07,2.82-.6.11-1.55,0-1.7-.67-.13-.58.57-1.68,1.77-2.16h0Z"/>
  <path class="st1" d="M541.33,473.72l-.26-2.72-.17-1.15c-.5-3.37,3.84-8.79,7.67-7.46,4.43,1.54,3.51,7.25,2.53,10.86-.77,2.83-4.79,5.94-7.85,5.28-.18-1.39,0-3.19-.21-3.8-.19-.55-.69-1.68-1.7-1.01h-.01Z"/>
  <path class="st2" d="M541.06,471l.26,2.72-.28,1.52c-1.34.53-1.99-.63-2.05-1.71-.09-1.71.09-3.02,2.07-2.52h0Z"/>
  <path class="st2" d="M255.63,275.82c-3.86,1.6-41.72.38-46.79-6.92-1.07.22-2.37,1.69-3.05,2.03-1.07.54-2.2-1.14-3.49-1.64-1.5-.58-3.25,1.2-4.6.22-1.01-.73-3.16-2.55-2.67-3.97,1.43-4.17,5.24-1.37,7.67-1.71,6.38-.89,12.58-1.1,18.81.83-.56,2.38-.52,4.2.22,6.2,2.38.26,5.23-1.88,6.49-.31l1.04,1.3c.2.26,1.09.02,1.32-.47.6-1.23-.8-1.05-2.06-1.62,2.01-1.7,4.47-.03,7.06-1.02.69-3.56-6.46-1.03-7.17-4.23-1.68-7.56,5.18-1.88,13.21-4.55,3.01-1,4.01,1.46,5.73,3.1,1.82,1.75,5.36.18,7.57,1.41,23.28,12.95,22.63,1.69,28.06,2.4,2.17.28,3.54,1.24,5.17,3.48,3.03,4.19,3.77,10.17-.36,13.69l-6.97-4.67-17.29,2.56-1.8-4.7c-.63-1.63-4.18-2.21-6.11-1.41h0ZM287.79,275.17c-4.18-4.13-8.54-1.61-12.69-1.71-4.59-.11-8.78-.83-13.54-.31.16.6,1.09,2.03,1.88,1.9,6.45-1.05,10.03,4.33,24.35.12Z"/>
  <path class="st3" d="M244.64,226.69c-.1-1.4-1.03-2.48-1.98-3.45,2.7-1.5,6.14-1.74,8.47.11.85.67.26,2.42.06,3.26-2.37.57-4.46.34-6.55.08Z"/>
  <path class="st2" d="M242.66,223.23c.95.97,1.88,2.05,1.98,3.45-1.95-.24-3.91-.42-6.03-1.52,1.2-1.72,2.74-1.63,4.05-1.94h0Z"/>
  <path class="st3" d="M131.62,290.01l.13-1.37c.06-.59.2-.85.92-.6.43.15,1.02.22,1.11.57.15.62-.16,1.41-.55,1.41h-1.61Z"/>
  <circle class="st3" cx="490.65" cy="411.5" r=".5"/>
  <circle class="st3" cx="380.84" cy="122.51" r=".5"/>
  <path class="st3" d="M287.79,275.17c-14.32,4.21-17.9-1.17-24.35-.12-.78.13-1.72-1.3-1.88-1.9,4.76-.52,8.95.19,13.54.31,4.15.1,8.51-2.41,12.69,1.71Z"/>
</svg>